<svg xmlns="http://www.w3.org/2000/svg" width="2000" height="2000" viewBox="0 0 2000 2000" fill="none">
  <title>Borjgali Rosette Monochrome Pattern</title>
  <defs>
    <pattern id="p" width="240" height="240" patternUnits="userSpaceOnUse">
      <g stroke="currentColor" stroke-width="4" stroke-linecap="round" stroke-linejoin="round">
        <circle cx="120" cy="120" r="20"/>
        <circle cx="120" cy="120" r="64"/>
        <g>
          <path d="M120 56c22 8 36 24 42 48-24-4-42-16-54-36"/>
          <path d="M120 56c-22 8-36 24-42 48 24-4 42-16 54-36"/>
          <path d="M184 120c-8 22-24 36-48 42 4-24 16-42 36-54"/>
          <path d="M184 120c-8-22-24-36-48-42 4 24 16 42 36 54"/>
        </g>
        <g transform="rotate(45 120 120)">
          <path d="M120 56c22 8 36 24 42 48-24-4-42-16-54-36"/>
          <path d="M120 56c-22 8-36 24-42 48 24-4 42-16 54-36"/>
          <path d="M184 120c-8 22-24 36-48 42 4-24 16-42 36-54"/>
          <path d="M184 120c-8-22-24-36-48-42 4 24 16 42 36 54"/>
        </g>
      </g>
    </pattern>
  </defs>
  <rect width="100%" height="100%" fill="url(#p)"/>
</svg>