<svg xmlns="http://www.w3.org/2000/svg" width="2000" height="2000" viewBox="0 0 2000 2000" fill="none">
  <title>Qvevri Stripes Monochrome Pattern</title>
  <defs>
    <pattern id="p" width="260" height="220" patternUnits="userSpaceOnUse">
      <g stroke="currentColor" stroke-width="4" stroke-linecap="round" stroke-linejoin="round">
        <path d="M60 30c20 0 34 14 34 34v30c0 16 10 28 26 36-16 8-26 20-26 36v20c0 20-14 34-34 34"/>
        <path d="M200 30c-20 0-34 14-34 34v30c0 16-10 28-26 36 16 8 26 20 26 36v20c0 20 14 34 34 34"/>
        <path d="M94 64h72"/>
        <path d="M84 92h92"/>
        <path d="M76 120h108"/>
        <path d="M84 148h92"/>
        <path d="M94 176h72"/>
        <path d="M0 110h40"/>
        <path d="M220 110h40"/>
      </g>
    </pattern>
  </defs>
  <rect width="100%" height="100%" fill="url(#p)"/>
</svg>