<svg width="203" height="205" viewBox="0 0 203 205" fill="none" xmlns="http://www.w3.org/2000/svg">
<path d="M8.49654 110.689C13.1893 162.436 58.9424 200.581 110.689 195.888C162.436 191.195 200.58 145.442 195.888 93.6955C191.195 41.9489 145.442 3.8042 93.6951 8.49693C41.9485 13.1896 3.80382 58.9428 8.49654 110.689Z" fill="#FF9E00"/>
<path d="M52.2763 115.906L32.1161 118.478L31.0705 110.269C30.793 108.095 31.0378 106.366 31.8059 105.091C32.5739 103.816 33.7809 103.064 35.4486 102.853C36.7089 102.688 37.8061 102.94 38.7376 103.579C39.67 104.227 40.3687 105.178 40.8148 106.443L40.3883 106.502C40.3724 104.997 40.733 103.769 41.491 102.827C42.239 101.886 43.3228 101.326 44.7325 101.147C46.5288 100.914 47.9736 101.346 49.0951 102.419C50.2076 103.503 50.908 105.136 51.1863 107.32L52.2754 115.896L52.2763 115.906ZM49.8287 113.608L49.0967 107.861C48.9186 106.451 48.4997 105.375 47.8598 104.629C47.2099 103.885 46.2602 103.6 44.9999 103.764C43.7197 103.93 42.8731 104.449 42.4401 105.322C42.0081 106.204 41.8802 107.34 42.0682 108.749L42.8002 114.497L49.8278 113.598L49.8287 113.608ZM40.6762 114.769L40.0083 109.508C39.8113 108 39.3815 106.914 38.708 106.242C38.0346 105.57 37.1374 105.31 36.0356 105.451C34.9337 105.591 34.1342 106.075 33.6451 106.882C33.157 107.7 33.011 108.858 33.208 110.366L33.8759 115.627L40.6853 114.759L40.6762 114.769Z" fill="white"/>
<path d="M51.5977 93.918L42.2585 92.1342L44.0946 91.8974L30.1562 97.8606L30.7426 94.8052L41.7075 90.2663L41.586 90.92L33.0748 82.6549L33.6386 79.6818L44.3873 90.3647L42.7624 89.4979L52.1017 91.2817L51.5977 93.918Z" fill="white"/>
<path d="M56.6153 77.7187L40.1613 65.796L45.0961 58.9825C46.3721 57.22 47.7639 56.1801 49.2813 55.8617C50.7979 55.5334 52.298 55.9095 53.7708 56.9809C55.2535 58.0513 56.0753 59.3625 56.246 60.9134C56.4168 62.4643 55.8633 64.111 54.5972 65.8726L51.2328 70.5154L58.1866 75.558L56.6163 77.7287L56.6153 77.7187ZM49.4586 69.2203L52.6718 64.792C53.5113 63.6415 53.8773 62.5841 53.7788 61.609C53.6912 60.643 53.1636 59.8072 52.2176 59.1199C51.2717 58.4325 50.3265 58.1969 49.3831 58.423C48.4387 58.6392 47.5477 59.3325 46.7182 60.4821L43.5059 64.9204L49.4595 69.2303L49.4586 69.2203Z" fill="white"/>
<path d="M63.5987 66.9238L58.8296 45.2259L60.7121 43.8402L80.0934 54.8247L77.8622 56.4629L72.4344 53.3002L73.7689 53.1791L63.7984 60.4895L64.4125 59.1787L65.8018 65.3083L63.5888 66.9247L63.5987 66.9238ZM61.5081 46.9711L64.1855 58.2253L63.2648 58.1481L71.7004 51.961L71.6134 52.7722L61.5923 46.9032L61.4982 46.972L61.5081 46.9711Z" fill="white"/>
<path d="M81.0124 54.9922L75.2496 35.513L83.3169 33.1247C85.3993 32.504 87.1394 32.537 88.5453 33.2028C89.9412 33.8694 90.9042 35.0774 91.4244 36.8276C91.9446 38.5777 91.7931 40.1177 90.9897 41.4457C90.1864 42.7737 88.7385 43.7484 86.656 44.369L81.1602 45.992L83.5938 54.2259L81.0224 54.9912L81.0124 54.9922ZM80.5178 43.8915L85.7692 42.3408C87.1283 41.9364 88.0772 41.3282 88.5944 40.4981C89.1115 39.6681 89.2041 38.6957 88.8711 37.5712C88.5382 36.4467 87.9273 35.6887 87.0474 35.2866C86.1674 34.8844 85.043 34.886 83.684 35.2904L78.4325 36.841L80.5178 43.8915Z" fill="white"/>
<path d="M97.2798 50.796L97.717 30.4835L110.856 30.7679L110.814 32.9607L100.271 32.732L100.126 39.4425L110.006 39.6611L109.954 41.8548L100.075 41.6462L99.9193 48.6789L110.463 48.9076L110.421 51.1004L97.2816 50.8159L97.2798 50.796Z" fill="white"/>
<path d="M112.18 51.3423L118.968 32.191L126.905 35.0057C128.949 35.734 130.358 36.771 131.134 38.1265C131.91 39.482 131.989 41.0211 131.382 42.743C130.973 43.8845 130.38 44.7617 129.592 45.3753C128.805 45.989 127.873 46.3446 126.817 46.4403C125.752 46.537 124.621 46.3584 123.408 45.9362L124.001 45.7218L124.654 45.9537C125.391 46.2182 125.991 46.6357 126.436 47.218C126.88 47.8002 127.151 48.5689 127.238 49.5349L127.701 56.853L124.9 55.862L124.495 48.629C124.465 47.7381 124.193 47.0699 123.692 46.6334C123.189 46.1869 122.492 45.8083 121.601 45.4976L117.607 44.0826L114.713 52.2573L112.182 51.3622L112.18 51.3423ZM118.301 42.1018L123.322 43.8855C124.713 44.382 125.884 44.4565 126.828 44.1199C127.771 43.7833 128.447 43.0393 128.855 41.8977C129.256 40.777 129.186 39.7892 128.668 38.9426C128.139 38.0968 127.184 37.4203 125.784 36.9248L120.762 35.141L118.3 42.0918L118.301 42.1018Z" fill="white"/>
<path d="M134.171 61.538L148.73 47.3651L150.601 49.284L144.013 55.6952L144.057 55.7314L157.298 56.1472L159.646 58.565L144.391 57.9804L145.346 57.1006L145.641 73.3102L143.205 70.8099L142.923 56.8484L142.879 56.8121L136.042 63.4668L134.172 61.548L134.171 61.538Z" fill="white"/>
<path d="M144.078 70.9215L166.295 70.3226L167.3 72.4305L152.874 89.4027L151.683 86.9001L155.811 82.1578L155.681 83.495L150.371 72.3289L151.543 73.1766L145.256 73.3853L144.078 70.9116L144.078 70.9215ZM164.064 72.6235L152.503 73.1397L152.754 72.2534L157.246 81.7063L156.462 81.4762L164.114 72.7294L164.064 72.6235Z" fill="white"/>
<path d="M152.597 90.2309L172.84 88.4555L173.57 96.8438C173.766 99.0049 173.4 100.725 172.491 101.992C171.582 103.26 170.21 103.966 168.397 104.131C167.192 104.24 166.141 104.054 165.256 103.592C164.371 103.13 163.665 102.431 163.139 101.505C162.613 100.579 162.292 99.4731 162.185 98.1875L162.628 98.6394L162.69 99.3266C162.762 100.113 162.626 100.829 162.282 101.472C161.939 102.116 161.348 102.682 160.507 103.159L154.043 106.617L153.775 103.659L160.207 100.295C161.005 99.9011 161.5 99.3743 161.693 98.7342C161.886 98.0942 161.944 97.2957 161.859 96.3595L161.476 92.1368L152.849 92.8891L152.607 90.2201L152.597 90.2309ZM163.548 91.959L164.01 97.269C164.143 98.7429 164.554 99.8403 165.252 100.56C165.95 101.28 166.901 101.585 168.106 101.476C169.292 101.369 170.164 100.908 170.721 100.074C171.278 99.2406 171.485 98.0972 171.361 96.6224L170.9 91.3123L163.548 91.959Z" fill="white"/>
<path d="M152.449 112.294L170.029 116.363L171.616 109.512L173.832 110.024L170.045 126.393L167.829 125.881L169.424 118.999L151.845 114.93L152.459 112.294L152.449 112.294Z" fill="white"/>
<path d="M145.401 129.24C146.874 126.878 148.576 125.498 150.488 125.094C152.4 124.7 154.525 125.22 156.856 126.675L167.223 133.145L165.785 135.445L155.492 129.018C153.779 127.948 152.263 127.513 150.927 127.725C149.601 127.936 148.419 128.856 147.402 130.485C146.429 132.049 146.118 133.493 146.49 134.825C146.862 136.157 147.905 137.357 149.608 138.428L159.901 144.855L158.498 147.1L148.131 140.63C145.8 139.175 144.402 137.484 143.937 135.568C143.471 133.643 143.953 131.54 145.391 129.241L145.401 129.24Z" fill="white"/>
<path d="M139.127 138.113L152.103 153.755L150.039 155.469L138.539 141.601L130.751 148.06L129.275 146.286L139.127 138.113Z" fill="white"/>
<path d="M127.709 146.619L137.353 164.501L134.998 165.769L125.354 147.887L127.709 146.619Z" fill="white"/>
</svg>
