<svg xmlns="http://www.w3.org/2000/svg" xmlns:xlink="http://www.w3.org/1999/xlink" width="747.61" height="417.206" viewBox="0 0 747.61 417.206">
  <defs>
    <clipPath id="clip-path">
      <rect id="Прямоугольник_5361" data-name="Прямоугольник 5361" width="334.17" height="206.63" transform="translate(205.4 29.18)" fill="none"/>
    </clipPath>
    <clipPath id="clip-path-3">
      <rect id="Прямоугольник_5350" data-name="Прямоугольник 5350" width="25.53" height="13.16" transform="translate(355.9 125.84)" fill="none"/>
    </clipPath>
    <clipPath id="clip-path-4">
      <rect id="Прямоугольник_5351" data-name="Прямоугольник 5351" width="18.83" height="8.36" transform="translate(359.14 130.95)" fill="none"/>
    </clipPath>
    <clipPath id="clip-path-5">
      <rect id="Прямоугольник_5352" data-name="Прямоугольник 5352" width="42.3" height="42.79" transform="translate(485.9 114.99)" fill="none"/>
    </clipPath>
    <clipPath id="clip-path-6">
      <rect id="Прямоугольник_5353" data-name="Прямоугольник 5353" width="21.83" height="18.35" transform="translate(486.03 139.44)" fill="none"/>
    </clipPath>
    <clipPath id="clip-path-7">
      <rect id="Прямоугольник_5354" data-name="Прямоугольник 5354" width="12.6" height="7.14" transform="translate(403.08 46.5)" fill="none"/>
    </clipPath>
    <clipPath id="clip-path-8">
      <rect id="Прямоугольник_5355" data-name="Прямоугольник 5355" width="8.69" height="5.52" transform="translate(305.02 55.76)" fill="none"/>
    </clipPath>
    <clipPath id="clip-path-9">
      <rect id="Прямоугольник_5356" data-name="Прямоугольник 5356" width="9.47" height="7.39" transform="translate(227.53 137.78)" fill="none"/>
    </clipPath>
    <clipPath id="clip-path-10">
      <rect id="Прямоугольник_5357" data-name="Прямоугольник 5357" width="58.59" height="47.61" transform="translate(263.52 54.46)" fill="none"/>
    </clipPath>
    <clipPath id="clip-path-11">
      <rect id="Прямоугольник_5358" data-name="Прямоугольник 5358" width="63.74" height="39.61" transform="translate(382 44.32)" fill="none"/>
    </clipPath>
    <clipPath id="clip-path-12">
      <rect id="Прямоугольник_5359" data-name="Прямоугольник 5359" width="12.2" height="13.02" transform="translate(451.38 64.71)" fill="none"/>
    </clipPath>
  </defs>
  <g id="vlnt_rr_main_pic-01" transform="translate(-1.185 -1.424)">
    <g id="Layer_1" data-name="Layer 1">
      <g id="Сгруппировать_43485" data-name="Сгруппировать 43485">
        <g id="Сгруппировать_43465" data-name="Сгруппировать 43465">
          <path id="Контур_36211" data-name="Контур 36211" d="M279.22,253.09c22.49,16.95,15.7,54.03-40.86,69.3-40.79,11.01-59.06,47.85-83.53,31.86-13.81-9.02-3.4-64.48,49.87-69.89,34.58-3.51,47.92-51.32,74.52-31.27Z" fill="#fff" opacity="0.12"/>
          <path id="Контур_36212" data-name="Контур 36212" d="M668.29,227.26c52.86-4.53,40.24,48.37-11.63,75.26-45.01,23.34-90.22,32.67-117.42,5.03-14.63-14.87,4.25-47.32,56.17-51.35,33.7-2.62,44.52-26.51,72.87-28.94Z" fill="#fff" opacity="0.12"/>
          <path id="Контур_36213" data-name="Контур 36213" d="M72.51,100.72C62.1,71.42,90.53,43.46,143.87,30.74c43.27-10.32,102.11-44.22,108.49-13.58,4.43,21.28-40.76,26.9-96.95,63.99-45.76,30.2-72.49,48.88-82.9,19.58Z" fill="#fff" opacity="0.12"/>
        </g>
        <g id="Сгруппировать_43479" data-name="Сгруппировать 43479">
          <g id="Сгруппировать_43466" data-name="Сгруппировать 43466">
            <path id="Контур_36214" data-name="Контур 36214" d="M393.01,211.95c-27.65,48.77-65.96,35.69-101.07-11.56-3.77-5.07-9.18-12.78-13.75-19.38a21.528,21.528,0,0,0-23.61-8.44c-9.47,2.7-20,5.63-20.21,5.31-3.6-5.3,17.59-29.35,14.33-34.69-15.79-25.86-18.95-45.73-11.06-63.98C253.73,42,285.56,53.95,338.71,73.18c30.67-42.24,76.65-13.01,85.48,8.55,17.78,43.42-11.7,95.88-31.17,130.23Z" fill="#a993c0" opacity="0.12"/>
            <path id="Контур_36215" data-name="Контур 36215" d="M435.75,159.16c3.34-7.62,31.62-11.3,39.25-7.97s22.84,17.34,19.51,24.96-23.97,5.98-31.59,2.64-30.49-12.01-27.16-19.64Z" fill="#dd97c7" opacity="0.12"/>
          </g>
          <g id="Сгруппировать_43464" data-name="Сгруппировать 43464">
            <g id="Сгруппировать_43478" data-name="Сгруппировать 43478" clip-path="url(#clip-path)">
              <g id="Сгруппировать_43463" data-name="Сгруппировать 43463">
                <g id="Сгруппировать_43462" data-name="Сгруппировать 43462">
                  <g id="Сгруппировать_43477" data-name="Сгруппировать 43477" clip-path="url(#clip-path)">
                    <g id="Сгруппировать_43461" data-name="Сгруппировать 43461">
                      <path id="Контур_36176" data-name="Контур 36176" d="M453.84,35.77l-2.27,12.05c-.09.47-2.2.2-2.2.2s-.63,3.08-2.18,2.79a3.767,3.767,0,0,1-3-4.39l2.27-12.05a3.76,3.76,0,0,1,7.39,1.39" fill="#fff"/>
                      <path id="Контур_36177" data-name="Контур 36177" d="M483.69,100.54c.34-.06.65-.12.86-.18v-.26c-.21-.03-.51-.06-.87-.08a54.987,54.987,0,0,0-.42-5.74c.33-.08.63-.15.87-.22-.07-.55-.13-1.1-.22-1.65-.47-.03-.85-.08-.86-.18s.31-.25.77-.43c-.08-.47-.17-.94-.26-1.41-.06-.02-.1-.04-.1-.07-.01-.07-.35-.06-.83-.03-.09-.44-.18-.87-.28-1.31.33-.12.63-.22.87-.31-.06-.27-.13-.55-.19-.82a.375.375,0,0,1-.16-.19c-.07-.29-.83-.41-.91-.7a.644.644,0,0,0-.15-.25c-.08-.29-.16-.57-.24-.85.21-.28.58-.61.52-.81-.02-.07-.32-.05-.75,0-.21-.7-.43-1.4-.66-2.09.31-.14.6-.27.85-.39-.15-.44-.29-.89-.45-1.33-.32-.01-.73,0-1.01-.02q-1.005-2.73-2.27-5.34c.2-.17.47-.37.76-.59-.14-.29-.28-.57-.42-.85-.3.11-.61.22-.9.33-.2-.4-.4-.8-.61-1.18a3.4,3.4,0,0,1,.67-.75c-.42-.78-.85-1.55-1.29-2.3-.29.1-.6.22-.91.34-.15-.25-.3-.49-.44-.73.25-.25.51-.5.69-.7-.39-.63-.79-1.25-1.2-1.87-.24.12-.53.27-.84.45-.41-.62-.84-1.23-1.27-1.84.23-.25.37-.42.34-.48-.06-.09.01-.28.13-.5-.17-.23-.34-.47-.51-.7-.26.13-.55.29-.85.45-.68-.9-1.38-1.79-2.11-2.66.09-.37.38-.92.24-1.09a.941.941,0,0,1-.12-.22c-.2-.23-.4-.47-.61-.7-.38.05-.92.25-1.06.09-.2-.22,0-.82-.21-1.03-.05-.05-.28.08-.6.29-.89-.96-1.81-1.9-2.76-2.8.2-.27.4-.53.57-.76-.12-.11-.23-.23-.35-.34-.22.18-.46.4-.71.62-.28-.26-.57-.51-.85-.76.2-.27.39-.54.55-.77-.45-.41-.91-.82-1.37-1.21-.15.06-.27.09-.33.04-.11-.09-.44.08-.78.25-.66-.56-1.34-1.11-2.02-1.64.15-.26.3-.53.47-.81-.21-.16-.42-.33-.63-.48l-.63.69c-.55-.41-1.1-.82-1.67-1.21.17-.36.27-.62.21-.66-.24-.17-.68-.09-.93-.25s-.38-.53-.63-.69-.53-.31-.78-.47c-.12-.07-.38.07-.64.22-.21-.13-.41-.27-.62-.4.09-.26.2-.56.32-.87-.48-.29-.96-.57-1.45-.84q-.255.36-.51.75c-.5-.29-1.01-.57-1.52-.85.05-.29.13-.62.18-.92-.14-.08-.29-.15-.43-.23-.15.2-.32.45-.52.74q-1.23-.645-2.49-1.23c.07-.28.15-.58.22-.87-.51-.23-1.02-.46-1.54-.68-.17.24-.35.5-.52.73-.22-.1-.45-.19-.68-.28.04-.3.09-.62.13-.9-.14-.06-.27-.12-.41-.17-.12.21-.26.48-.41.77-.4-.16-.8-.3-1.19-.45.09-.3.17-.58.23-.83q-.81-.3-1.62-.57c-.26.41-.48.72-.58.7h-.01c-.11-.05-.11-.45-.08-.91-.27-.09-.54-.18-.81-.26-.11.25-.23.51-.35.78-.94-.29-1.88-.56-2.82-.8.05-.3.09-.58.13-.82l-.5-.12c-.12.24-.25.5-.37.75-.64-.15-1.28-.29-1.93-.41.03-.33.05-.61.05-.82a2.166,2.166,0,0,0-.25-.04c-.08.19-.17.46-.27.76-.63-.12-1.26-.21-1.88-.31-.01-.26-.02-.54-.03-.81l-.7-.09c-.07.24-.14.5-.21.76-.34-.05-.68-.08-1.02-.11,0-.27,0-.54-.01-.78-.31-.03-.62-.08-.94-.1-.1.15-.2.25-.28.25s-.19.2-.31.47c-.79-.07-1.57-.11-2.36-.14-.02-.07-.05-.12-.08-.13-.05,0-.1.05-.15.12-.4-.01-.8,0-1.21,0-.05-.25-.1-.5-.15-.73-.53,0-1.06.02-1.6.04l-.07.71c-1.26.04-2.52.14-3.77.28-.06-.25-.11-.48-.16-.66-.14.02-.27.02-.41.04-.02.2-.05.44-.07.69-.41.05-.82.12-1.23.18-.09-.15-.17-.26-.23-.25-.08.01-.14.14-.2.32-.95.15-1.89.34-2.84.55l-.2-.59c-.23.05-.46.1-.68.16l.09.6c-1.19.3-2.39.65-3.58,1.05l-.21-.51c-.27.09-.54.18-.81.28l.12.54c-.57.2-1.13.42-1.69.64-.08-.16-.15-.31-.23-.46-.19.08-.39.16-.58.24.05.16.1.33.15.5-.39.16-.79.31-1.18.49a3.594,3.594,0,0,0-.28-.4c-.05.02-.1.05-.15.07a4.314,4.314,0,0,0,.11.49c-1.19.55-2.38,1.17-3.55,1.84-.11-.13-.21-.25-.3-.34-.63.37-1.26.77-1.89,1.18.03.12.07.26.12.41-.29.19-.59.37-.88.56l-.28-.31c-.45.31-.9.65-1.35.98.06.11.12.22.18.34-.24.17-.48.35-.72.53a3.328,3.328,0,0,0-.25-.28c-.24.18-.48.37-.71.56l.18.3c-.31.24-.61.5-.91.75-.06-.02-.11-.03-.14,0a.338.338,0,0,0-.09.19c-.25.21-.51.41-.76.62-.09-.06-.18-.13-.28-.21-.69.6-1.36,1.22-2.03,1.87l.17.26c-.2.19-.41.37-.61.56-.07-.06-.15-.11-.22-.17-.18.18-.36.37-.54.55.05.07.11.15.16.22-.97.97-1.92,1.99-2.86,3.07a2.24,2.24,0,0,1-.22-.11c-.31.36-.62.72-.92,1.09.04.06.08.12.12.19-.31.38-.62.79-.93,1.18l-.19-.1c-.14.18-.28.35-.42.54l.14.16c-.33.43-.67.86-1,1.3l-.17-.08c-.22.3-.43.6-.64.9l.13.13c-.35.5-.71.97-1.05,1.48l-.14-.08c-.3.45-.6.9-.88,1.33l.13.1c-.2.3-.4.61-.6.91l-.14-.07-.34.53.12.1c-.35.55-.69,1.09-1.02,1.63l-.13-.07c-.14.23-.3.48-.43.71a1.061,1.061,0,0,1,.11.09c-.18.29-.35.58-.52.87l-.13-.05q-.615,1.035-1.17,2.04l.1.07c-.22.39-.44.77-.64,1.15-.04,0-.08-.02-.12-.02l-.06.11s.05.07.07.1c-.22.41-.45.82-.66,1.22l-.1-.03c-.08.15-.15.29-.22.43.02.02.06.05.08.07-.16.3-.31.6-.46.9l-.09-.04c-.13.25-.25.49-.36.73a.925.925,0,0,0,.08.05c-.18.36-.35.71-.52,1.05a.318.318,0,0,1-.09-.03l-.19.4.07.05-.5,1.06-.08-.03c-.09.2-.19.41-.27.61l.07.04c-.18.4-.35.79-.51,1.16h-.07c-.04.1-.08.18-.11.28a.435.435,0,0,1,.04.07c-.13.3-.24.58-.35.85a.127.127,0,0,1-.06-.01c-.37.92-.67,1.73-.91,2.41.01,0,.03.02.04.03-.15.42-.29.82-.4,1.15a2.337,2.337,0,0,1-.41.74l-.24-.06a2.446,2.446,0,0,1-1.3.58,1.657,1.657,0,0,0,.11.38,2.43,2.43,0,0,1-1.36-.09,10.428,10.428,0,0,1-1.08-.48l.12-.39a14.4,14.4,0,0,1-1.37-.8l-.25.3c-.25-.17-.5-.35-.77-.54.05-.12.1-.24.14-.36l-.2-.15q-.165.12-.3.24c-.39-.3-.8-.63-1.23-1,.04-.09.1-.21.16-.34-.3-.25-.6-.52-.91-.81a2.016,2.016,0,0,1-.32.18c-.05-.05-.1-.09-.15-.14a3.23,3.23,0,0,1,.17-.32c-.28-.26-.56-.53-.85-.82l-.28.2c-.37-.37-.75-.76-1.15-1.19l.22-.25c-.41-.43-.84-.89-1.28-1.38-.13-.14-.25-.28-.37-.42-.11.05-.21.09-.3.13l-.3-.36c.06-.08.12-.16.19-.25-.4-.48-.78-.97-1.17-1.49-.09.05-.17.1-.26.15-.36-.47-.73-.97-1.13-1.5a.847.847,0,0,0,.15-.3l-.09-.12a1.128,1.128,0,0,0-.41-.05c-.37-.49-.78-1.01-1.22-1.56.07-.07.15-.15.21-.22-.31-.4-.64-.81-1-1.24a2.7,2.7,0,0,1-.36.06c-.85-1.01-1.83-2.12-2.99-3.37.08-.11.15-.21.2-.28l-.96-1.02-.27.21c-.2-.21-.42-.43-.63-.65l.22-.27c-.19-.2-.39-.4-.59-.6-.1.07-.2.13-.3.2-.18-.19-.37-.37-.56-.56.06-.11.11-.23.16-.33l-.31-.31c-.08.06-.18.13-.28.21-.3-.29-.6-.59-.92-.9l.22-.28c-.21-.2-.41-.4-.62-.61a1.657,1.657,0,0,1-.37.14c-.58-.55-1.18-1.12-1.81-1.71.08-.1.15-.2.22-.29-.34-.32-.68-.64-1.04-.97l-.28.25c-.28-.26-.57-.53-.87-.79.07-.11.15-.22.21-.31l-.33-.3c-.09.07-.19.15-.3.23-.25-.22-.51-.46-.76-.69l.22-.31-.54-.48-.28.26c-.27-.24-.54-.45-.81-.68.07-.11.15-.22.22-.33l-.54-.45-.28.28a45.95,45.95,0,0,0-3.77-2.75l.21-.4c-.28-.18-.56-.38-.84-.55-.11.11-.23.22-.35.33-1.02-.62-2.06-1.18-3.11-1.7.06-.17.12-.33.16-.48l-.3-.15c-.08.12-.17.27-.27.42-1.18-.57-2.37-1.06-3.57-1.5.04-.18.09-.35.14-.53-.52-.2-1.04-.39-1.56-.56-.11.15-.22.33-.33.5-.69-.22-1.39-.42-2.09-.6-.02-.02-.03-.04-.06-.05s-.03.02-.05.03c-.6-.15-1.21-.3-1.81-.42a2.756,2.756,0,0,1-.1-.64c-.37-.08-.74-.14-1.1-.2-.09.21-.17.41-.25.58l-.48-.09c-.01-.18-.02-.39-.03-.62-.28-.05-.57-.08-.86-.12-.04.2-.09.41-.13.62a43.019,43.019,0,0,0-5.56-.36l-.05-.66h-.7c-.01.22-.03.45-.04.68a47.57,47.57,0,0,0-4.78.34c-.12-.19-.22-.33-.32-.32s-.21.19-.3.4c-.28.04-.57.07-.85.11-.08-.21-.17-.44-.26-.67-.26.04-.52.09-.78.14v.72c-.31.06-.63.11-.94.17-.09-.24-.17-.47-.25-.68-.48.09-.97.2-1.45.31.01.23.03.48.05.73q-.855.2-1.71.42c-.09-.22-.18-.45-.27-.68l-.78.21c.04.23.09.48.13.72-.91.26-1.82.54-2.72.85-.13-.24-.25-.47-.36-.66-.34.12-.68.25-1.03.38l-.03.03c-.07.02-.03.32.06.76-.39.15-.78.29-1.17.44-.11-.23-.22-.46-.33-.68-.2.08-.39.16-.59.24.07.24.13.48.2.73-.31.13-.61.25-.92.38-.13-.23-.25-.45-.37-.66l-.54.23c.07.23.15.48.23.73-.31.14-.62.29-.92.43-.12-.22-.24-.45-.37-.67-.48.22-.95.45-1.42.69.08.23.18.47.27.72-.32.16-.63.32-.95.48-.14-.22-.28-.44-.41-.64-.18.1-.37.19-.55.28.09.23.18.48.28.72-.83.45-1.65.93-2.46,1.42-.15-.22-.3-.43-.44-.63-.16.1-.31.2-.47.29.11.22.22.45.34.7-.33.2-.66.4-.99.61-.17-.22-.33-.43-.47-.61l-.54.36c.09.27.18.54.25.77-.95.63-1.89,1.29-2.81,1.98-.17-.2-.34-.4-.51-.59a64.484,64.484,0,0,0-5.4,4.51c.1.38.26.82.13.94h0c-.98.93-1.92,1.89-2.84,2.87-.2-.17-.4-.34-.6-.5-.74.79-1.46,1.59-2.16,2.42.13.17.3.39.5.61-.67.8-1.31,1.61-1.94,2.44-.16-.07-.27-.11-.3-.07-.05.06-.25,0-.52-.12-.22.29-.43.58-.65.87l.57.54c-.15.2-.3.41-.44.61-.22-.13-.44-.26-.67-.4-.16.23-.32.47-.48.71l.6.5c-.2.3-.41.6-.61.9-.36-.16-.63-.25-.67-.18s.14.28.42.57c-.21.33-.41.66-.62.99-.24-.12-.48-.23-.7-.34-.31.5-.61,1.01-.9,1.52a2.6,2.6,0,0,1,.53.62c-.49.86-.96,1.72-1.41,2.6-.22-.04-.5-.1-.77-.17-.23.45-.44.9-.66,1.35.18.12.4.27.64.42-.27.57-.54,1.14-.79,1.72l-.74-.17c-.2.45-.39.91-.57,1.37.2.12.42.25.66.38-.13.32-.25.65-.38.98l-.71-.21c-.08.22-.16.43-.24.65.22.11.44.22.67.34-.21.59-.42,1.18-.61,1.78-.26-.05-.51-.1-.73-.13-.06.18-.11.36-.17.54.2.13.43.26.65.39-.08.24-.16.49-.23.73l-.73-.1c-.07.23-.12.46-.18.69.21.1.44.19.68.3-.27.95-.5,1.91-.71,2.87-.2,0-.34.04-.35.1-.02.08-.2.12-.44.15-.13.61-.24,1.22-.34,1.84.22.07.45.15.68.22-.09.53-.19,1.06-.26,1.6-.22,0-.45,0-.7-.01-.17,1.22-.29,2.45-.37,3.68a1.7,1.7,0,0,1,.66.39v.08a1.734,1.734,0,0,1-.71.18c-.02.41-.03.82-.04,1.23.37.11.64.21.67.29v.12c-.03.26-.11.51-.12.78,0,.03.04.06.1.09v1.25l-.66.05c0,.24,0,.49.02.73l.66.05c0,.31,0,.62.02.93l-.65.07c.06,1.16.17,2.34.31,3.51.23.01.44.03.64.05.09.77.19,1.53.31,2.3-.18.08-.38.15-.58.23.04.26.09.51.14.77h.62c.09.51.18,1.03.29,1.54-.17.07-.36.15-.56.23.24,1.13.53,2.26.85,3.38h.6c.08.28.15.56.24.85-.24.2-.45.38-.41.51.02.08.26.09.58.08.11.36.24.72.36,1.07-.18.08-.35.17-.51.25.36,1.06.75,2.12,1.18,3.18l.52-.15c.1.24.18.48.28.71l-.48.24c.12.28.25.55.37.83l.5-.16c.1.23.21.46.31.7l-.46.24c.36.8.75,1.59,1.16,2.4l.48-.17c.12.23.24.47.36.7l-.42.28c.23.44.47.88.72,1.33a4.2,4.2,0,0,0,.5-.11c.13.23.27.47.4.7l-.4.28q1.275,2.22,2.77,4.42c.13-.06.27-.13.41-.2.33.49.68.98,1.02,1.47l-.35.29c.19.27.38.53.58.8l.38-.22c.12.17.26.34.39.51l-.33.29c.46.61.91,1.22,1.39,1.83l.23.3.36-.23c.5.63,1.04,1.29,1.59,1.98l-.31.3c.52.64,1.06,1.3,1.62,1.99l.37-.22.53.65-.3.3.63.76.35-.23c.16.19.33.4.49.59l-.27.33c.72.87,1.48,1.77,2.26,2.69l.35-.23.46.54-.28.31c.34.4.68.8,1.02,1.21.11-.07.23-.14.36-.22l.77.9a4.081,4.081,0,0,0-.25.34q1.02,1.185,2.1,2.43a.849.849,0,0,1,.53.18.242.242,0,0,0,.18.02l.75.86-.27.31c.93,1.07,1.9,2.18,2.9,3.31.11-.08.22-.16.33-.25l.54.61-.29.29.66.74.33-.25.48.54c-.09.1-.19.19-.29.29.22.25.43.49.66.74l.32-.25c.37.42.76.84,1.14,1.27l-.26.32.48.53.34-.23.8.89a2.669,2.669,0,0,0-.22.36l.17.19a3.142,3.142,0,0,0,.53-.03c.12.14.25.28.37.41a3.731,3.731,0,0,1-.24.34c.66.73,1.34,1.47,2.02,2.22.13-.08.25-.15.35-.21.73.8,1.48,1.62,2.24,2.44l-.27.3c.59.64,1.19,1.29,1.8,1.94l.32-.25.78.84c-.05.1-.07.18-.04.21s.12.02.23,0l.73.78c-.09.1-.18.2-.27.31.62.66,1.24,1.33,1.88,2.01l.32-.25.58.61-.27.3c.45.48.9.95,1.35,1.44a2.694,2.694,0,0,1,.38-.19l.22.24c0,.16-.04.35-.06.53l1.15,1.22.32-.25.61.64-.25.32c.39.41.79.83,1.19,1.24.12-.08.23-.15.35-.22.14.14.27.28.41.43-.08.11-.16.21-.24.33.23.24.46.48.7.72l.33-.24.9.94a.947.947,0,0,1-.2.37l1.11,1.16h.02v.03c.32.34.64.67.97,1.01.13-.07.25-.14.37-.2l.28.28c-.07.1-.15.2-.25.33.48.5.96,1,1.45,1.49l.31-.26.83.85s-.01.07,0,.08a.215.215,0,0,0,.1.02c.29.3.58.6.87.89l-.25.33.87.89s.05,0,.06.01,0,.03,0,.06c.35.36.7.71,1.05,1.08a3.849,3.849,0,0,1,.35-.22c.52.53,1.05,1.06,1.57,1.6-.09.11-.16.2-.26.32.6.61,1.21,1.23,1.83,1.85a4.319,4.319,0,0,1,.62.05l.98.99-.26.31q1.635,1.65,3.33,3.34a2.361,2.361,0,0,1,.36-.21l.24.24c-.06.1-.13.22-.22.35l.82.82c.11-.09.22-.16.33-.25l1.81,1.8-.26.31,2.4,2.37.32-.25.7.69-.26.31c.2.2.4.39.6.59.1-.09.21-.18.31-.26.61.6,1.23,1.2,1.85,1.81l-.26.31,1.28,1.25.32-.26.88.86c-.01.06-.02.11,0,.14s-.02.15-.11.32c.76.74,1.53,1.49,2.3,2.23.12-.1.23-.18.33-.25l.3.3c-.06.12-.13.24-.2.37l.31.3c.3.29.61.56.91.84.1-.08.21-.17.33-.26.5.46,1,.92,1.49,1.36a2.95,2.95,0,0,0-.17.41c.81.71,1.62,1.39,2.45,2.05l.3-.32c.26.21.52.41.78.61-.07.14-.14.27-.2.39a62.373,62.373,0,0,0,6.36,4.32c.09-.13.18-.25.27-.38l1.14.66a2.417,2.417,0,0,1-.13.46c.39.22.77.43,1.16.63.1-.15.2-.27.28-.39.32.17.65.34.97.5a1.633,1.633,0,0,1-.09.49q2.16,1.08,4.36,1.97.15-.24.27-.42l.32.13c-.03.14-.06.3-.1.49,1.47.57,2.95,1.08,4.44,1.52.07-.17.13-.33.2-.48l.64.18c-.01.17-.03.35-.04.52.55.15,1.09.3,1.64.43.05-.17.11-.34.16-.5.92.22,1.84.41,2.77.57.01.25.04.4.1.41a.311.311,0,0,1,.18.18c.62.11,1.23.21,1.85.3.08-.17.17-.35.25-.52l.54.06c.01.16.02.34.03.55,1.2.14,2.41.25,3.61.3.02-.18.05-.37.08-.55.59.02,1.18.02,1.77.02.02.19.05.38.07.56h.98c.07-.22.14-.36.22-.37.04,0,.08-.08.11-.21.97-.03,1.93-.1,2.89-.19.03.19.07.38.1.57.28-.03.57-.06.85-.1,0-.2-.02-.39-.03-.58.35-.04.7-.07,1.05-.12.12.31.22.51.29.5s.11-.23.12-.56c.38-.06.75-.13,1.13-.19.06.19.11.38.17.56.59-.1,1.17-.21,1.76-.33-.02-.21-.04-.41-.06-.59l.66-.15c.12.19.25.38.35.52a47.252,47.252,0,0,0,6.48-2.03c-.06-.19-.13-.38-.19-.57.62-.25,1.24-.52,1.85-.8.16.2.28.32.33.29.17-.08.24-.36.33-.59.83-.39,1.65-.8,2.47-1.25.2.22.34.36.4.33.08-.04.05-.26-.02-.54,1.12-.62,2.23-1.3,3.33-2.03.17.18.32.33.43.43.07-.05.15-.1.22-.15-.06-.19-.14-.38-.22-.57.26-.18.52-.35.78-.53l.4.45c.26-.18.52-.38.78-.57-.11-.17-.21-.34-.32-.5.2-.15.4-.29.6-.44l.42.43c.21-.16.41-.3.62-.46l-.33-.49c.24-.19.48-.4.72-.6l.42.42c.2-.16.4-.33.6-.5l-.35-.48c.23-.19.46-.37.68-.56l.43.41c.42-.36.83-.75,1.24-1.13-.1-.17-.21-.34-.31-.51.19-.17.37-.34.56-.51.16.11.33.22.5.34l.48-.45c-.12-.14-.24-.3-.37-.46.27-.26.53-.55.8-.82.16.12.32.25.47.35.4-.41.81-.81,1.2-1.23-.14-.16-.26-.31-.37-.45.18-.19.35-.39.52-.59.21.04.4.06.47-.02.04-.04.15-.02.3.03.24-.27.48-.54.72-.82l-.4-.42c.91-1.06,1.82-2.15,2.69-3.31l.91-1.2h.02c.01,0,0-.01,0-.02l2.49-3.3c.2.1.38.19.53.25l.92-1.21-.42-.4,1.98-2.62c.16.08.33.18.51.28l.57-.76-.43-.38,1.07-1.42c.17.1.34.19.51.28l.67-.89a.316.316,0,0,1,0-.14c.18-.23.2-.59.38-.82a.823.823,0,0,1,.5-.2l.37-.49c-.11-.17-.22-.34-.34-.5,1.05-1.4,2.11-2.79,3.16-4.19.17.07.35.16.54.24l.48-.64-.41-.41,1.14-1.51c.18.1.35.2.5.29.67-.89,1.35-1.79,2.02-2.69l-.42-.39c.67-.9,1.35-1.79,2.02-2.69l.5.3.56-.74-.43-.38.98-1.31.5.29.55-.73-.43-.39.49-.65.49.31c.74-.98,1.47-1.97,2.21-2.95-.15-.14-.29-.27-.41-.4l1.46-1.95.48.31.63-.84c-.16-.15-.29-.29-.41-.41.1-.14.21-.28.31-.42.19.06.4.12.58.18l.32-.43c-.11-.12-.25-.27-.41-.42l.66-.88.5.3.4-.54-.42-.39.55-.74.49.3.51-.7-.42-.4c.56-.76,1.13-1.52,1.69-2.29.18.06.32.08.36.03s.16-.02.32.03l1.65-2.23c-.13-.13-.28-.26-.42-.4l.6-.81.49.3c.47-.64.94-1.27,1.42-1.92-.12-.12-.27-.26-.42-.4l.6-.82.49.31.66-.9c-.21-.24-.34-.41-.3-.46.15-.21.63-.18.88-.32.04-.06.09-.12.13-.17a1.993,1.993,0,0,0-.26-.62l.43-.58c.17.06.36.14.55.22.52-.72,1.05-1.43,1.58-2.15l-.44-.37.84-1.16a3.827,3.827,0,0,1,.56.22c.29-.4.58-.79.87-1.19,0-.02-.02-.05-.01-.06a.144.144,0,0,1,.07-.02c.43-.58.85-1.16,1.28-1.75l-.44-.38.5-.69.5.29.45-.62-.43-.39,1.02-1.42c.18.09.37.17.54.24.25-.34.49-.67.74-1.01a1.724,1.724,0,0,0-.36-.49c.37-.52.75-1.04,1.13-1.56l.5.3.55-.77c-.15-.13-.29-.26-.43-.39l.99-1.37.5.3c.16-.22.32-.44.47-.66l-.44-.38.5-.7.5.3.51-.7-.44-.38.55-.77c.18.1.36.19.52.27l.31-.43c-.13-.13-.27-.26-.42-.4.94-1.3,1.87-2.61,2.82-3.94.16.05.3.08.33.03.05-.07.2-.07.39-.04.19-.26.38-.54.57-.8l-.41-.42,1.51-2.12.5.3.96-1.35-.45-.38c.41-.58.79-1.16,1.18-1.74.26.08.44.11.48.05.06-.1-.04-.29-.17-.5l.45-.66c.17.07.36.15.55.24.2-.32.4-.63.6-.95-.18-.14-.34-.27-.49-.39.13-.21.26-.42.39-.64a3.084,3.084,0,0,0,.68.08c.26-.43.53-.85.77-1.28-.2-.27-.39-.52-.33-.64a.254.254,0,0,0,.02-.12c.17-.31.34-.62.5-.93.2.06.41.12.63.19.13-.23.26-.47.38-.71-.18-.11-.36-.22-.55-.34.42-.81.81-1.61,1.18-2.42l.65.2c.12-.25.24-.5.35-.75l-.58-.34c.11-.25.21-.5.32-.74l.68.18c.17-.39.32-.78.49-1.18.04-.11-.21-.33-.52-.56.11-.27.23-.55.34-.82l.7.14c.33-.85.63-1.7.92-2.56l-.67-.28c.09-.26.17-.53.25-.8.26.03.52.07.75.09l.15-.51q-.315-.135-.69-.3c.2-.67.4-1.34.58-2.01a2.615,2.615,0,0,0,.79,0c.27-.99.5-1.98.7-2.97-.25-.06-.5-.13-.76-.2.35-1.73.62-3.46.8-5.17.24-.04.53-.08.83-.13.04-.37.07-.74.11-1.11-.16-.09-.28-.18-.27-.25s-.22-.19-.52-.29c.07-.99.12-1.97.14-2.95l.85-.06c0-.21.01-.43.01-.64l-.84-.07v-1.08" fill="#f75330"/>
                      <path id="Контур_36178" data-name="Контур 36178" d="M340.3,113.68c4.64,12.21,19.76,9.29,18.18-4.82" fill="none" stroke="#331414" stroke-linecap="round" stroke-miterlimit="10" stroke-width="4"/>
                      <path id="Контур_36179" data-name="Контур 36179" d="M378.49,106.68c-4.1,12.4,8.56,17.66,16.22,5.7" fill="none" stroke="#331414" stroke-linecap="round" stroke-miterlimit="10" stroke-width="4"/>
                      <g id="Сгруппировать_43430" data-name="Сгруппировать 43430" opacity="0.79">
                        <g id="Сгруппировать_43429" data-name="Сгруппировать 43429">
                          <g id="Сгруппировать_43467" data-name="Сгруппировать 43467" clip-path="url(#clip-path-3)">
                            <g id="Сгруппировать_43428" data-name="Сгруппировать 43428">
                              <path id="Контур_36180" data-name="Контур 36180" d="M381.38,127.77c-3.43,14.71-20.82,14.49-25.39,2.18a1.6,1.6,0,0,1,.98-2.04,1.787,1.787,0,0,1,.4-.09l11.6-1.03,10.7-.95a1.6,1.6,0,0,1,1.74,1.43,1.619,1.619,0,0,1-.03.49" fill="#451418"/>
                            </g>
                          </g>
                        </g>
                      </g>
                      <g id="Сгруппировать_43433" data-name="Сгруппировать 43433" opacity="0.46">
                        <g id="Сгруппировать_43432" data-name="Сгруппировать 43432">
                          <g id="Сгруппировать_43468" data-name="Сгруппировать 43468" clip-path="url(#clip-path-4)">
                            <g id="Сгруппировать_43431" data-name="Сгруппировать 43431">
                              <path id="Контур_36181" data-name="Контур 36181" d="M377.96,134.71a12.738,12.738,0,0,0-18-.09,11.93,11.93,0,0,0-.83.91,12.738,12.738,0,0,0,18,.09,11.93,11.93,0,0,0,.83-.91" fill="#ff5a45"/>
                            </g>
                          </g>
                        </g>
                      </g>
                      <path id="Контур_36182" data-name="Контур 36182" d="M363.19,95.82c3.57-2.27,5.16-7.09,6.28-9.42-3.44,3.95-13.41-8.4-13.41-8.4s-.66,10.53-.05,15.39c.31,2.47,3.62,4.7,7.19,2.43" fill="#e14930"/>
                      <path id="Контур_36183" data-name="Контур 36183" d="M260.28,129.79l-6.82,3.68c-3.59,1.54-11.44,4.49-14.44,1.99-4.82-4.02-8.05-11.59-11.17-7.51-5.14,6.73,6.75,14.85,6.75,14.85s-11.88,2.43-15.93,7.83,1.35,7.29,7.56,5.67a86.247,86.247,0,0,0,8.91-2.7s-15.66,7.56-17.01,12.69,2.43,5.67,6.48,4.32,16.46-10.27,16.46-10.27-11.34,9.18-12.69,14.31,4.32,4.86,8.37,1.35,19.98-15.94,22.34-18.03a224.7,224.7,0,0,1,17.95-13.68" fill="#f75330"/>
                      <path id="Контур_36184" data-name="Контур 36184" d="M467.71,134.91l5.1,2.33c4.36,1.87,9.29-.75,13.22-3.42,5.12-3.48,17.91-4.25,18.32,4.13.19,3.91-7.12-.52-10.22.74a1.668,1.668,0,0,0-.2.08,4.1,4.1,0,0,0,.68,7.75c.86.2,6.02,1.56,6.54.91a.194.194,0,0,0,.03-.18c-1.89-8.23,4.06-8,5.6-5.94,4.05,5.4.63,13.47-5.77,13.93-5.67.41-13.09-2.7-13.09-2.7s7.42,6.34,12.15,10.95c3.8,3.7-1.22,8.22-5.67,4.71-3.91-3.08-14.71-9.72-14.71-9.72s3.91,4.59,8.37,9.31c3.25,3.45-1.35,7.42-5.94,4.18-4.38-3.08-15.88-12.01-18.58-13.63-4.3-2.58-11.25-6.15-17.35-9.18-6.65-3.31-12.27-5.96-12.27-5.96" fill="#f75330"/>
                      <g id="Сгруппировать_43436" data-name="Сгруппировать 43436" opacity="0.76">
                        <g id="Сгруппировать_43435" data-name="Сгруппировать 43435">
                          <g id="Сгруппировать_43469" data-name="Сгруппировать 43469" clip-path="url(#clip-path-5)">
                            <g id="Сгруппировать_43434" data-name="Сгруппировать 43434">
                              <path id="Контур_36185" data-name="Контур 36185" d="M498.26,153.74c-.66-1.22-1.56-2.88-.94-3.53.57-.6,1.48-1.59,2.66-2.87.97-1.05,6-6.22,7.32-7.63a.144.144,0,0,0,.03-.02c.68-.72,1.47-.82,2.72-.33,3.25,1.27,6.87,1.68,11.24-3.83l6.58-7.8a1.108,1.108,0,0,0,.07-.13,1.049,1.049,0,0,0-.06-1.46l-11.35-10.75a.991.991,0,0,0-.61-.26,1.041,1.041,0,0,0-1.22.12l-7.66,6.77c-5.26,4.68-4.65,8.26-3.21,11.44.56,1.23.5,2.02-.18,2.74a.036.036,0,0,1-.02.03c-1.33,1.38-6.4,6.51-7.39,7.53-1.23,1.27-2.17,2.23-2.74,2.84-.62.65-2.33-.16-3.58-.75-1.45-.69-2.82-1.33-3.74-.37a1.053,1.053,0,0,0,.03,1.48l4.9,4.74a.262.262,0,0,0,.06.08h0l.55.51.53.51h0a.318.318,0,0,0,.08.06l5.01,4.63a1.054,1.054,0,0,0,1.48-.05c.91-.97.19-2.3-.57-3.71" fill="#fff"/>
                            </g>
                          </g>
                        </g>
                      </g>
                      <g id="Сгруппировать_43439" data-name="Сгруппировать 43439" opacity="0.5">
                        <g id="Сгруппировать_43438" data-name="Сгруппировать 43438">
                          <g id="Сгруппировать_43470" data-name="Сгруппировать 43470" clip-path="url(#clip-path-6)">
                            <g id="Сгруппировать_43437" data-name="Сгруппировать 43437">
                              <path id="Контур_36186" data-name="Контур 36186" d="M502.87,141.46c-1.23,1.27-7.81,7.08-8.38,7.68-.62.65-4.81-1.49-6.06-2.08-1.45-.69-1.19-2.54-2.11-1.57a1.063,1.063,0,0,0,.03,1.48l4.9,4.74a.262.262,0,0,0,.06.08h0l.54.51.53.51h0a.8.8,0,0,1,.08.06l5.01,4.63a1.054,1.054,0,0,0,1.48-.05c.91-.97.19-2.3-.57-3.71-.66-1.22-1.56-2.88-.94-3.53.57-.6,9.23-9.49,10.42-10.77" fill="#fff"/>
                            </g>
                          </g>
                        </g>
                      </g>
                      <path id="Контур_36187" data-name="Контур 36187" d="M486.85,133.36c9.01-6.07,23.87,1.59,18.14,6.87-2.89,2.65-8.41-1.73-11.71-1.14" fill="#ff5a45"/>
                      <path id="Контур_36188" data-name="Контур 36188" d="M505.75,129.18h16.43a.885.885,0,0,1,.77,1.33c-1.11,1.88-3.52,5.26-7.12,6.77-5.13,2.16-9.04-1.89-10.12-3.65a7.18,7.18,0,0,1-.84-3.55.89.89,0,0,1,.87-.9h.02" fill="#ff2907"/>
                      <path id="Контур_36189" data-name="Контур 36189" d="M255.29,162.32l-23.16-21.73c-3.38-3.38.91-6.29-2.69-9.89l-9.29-9.29c-.22-.22-.27-.48-.56-.46a1.967,1.967,0,0,0-2.31.31,1.6,1.6,0,0,0,0,2.27l7.39,7.39h0l-1.25,1.15a1.065,1.065,0,0,0-.19-.28l-7.39-7.39a1.605,1.605,0,0,0-2.27,2.27l7.39,7.39a.991.991,0,0,0,.17.11l-1.63,1.49a.288.288,0,0,0-.04-.06l-7.4-7.4a1.605,1.605,0,0,0-2.27,2.27h0l7.34,7.34-1.5,1.37a1.372,1.372,0,0,0-.13-.2l-7.39-7.39a1.605,1.605,0,0,0-2.31,2.23l.04.04,7.39,7.39a1.58,1.58,0,0,0,.53.35l2.37,2.37c3.6,3.6,6.93-1.17,10.31,2.21l21.4,23.22a4.826,4.826,0,0,0,6.79.34l.55-.55c1.52-1.52,1.98-4.98.08-6.88" fill="#f6fdff"/>
                      <path id="Контур_36190" data-name="Контур 36190" d="M235.43,143.71l-.93-.86c-5.75-2.79-13.89-11.53-6.15-15.72,4.78-2.59,7.29,4.22,10.94,8.74" fill="#f75330"/>
                      <path id="Контур_36191" data-name="Контур 36191" d="M264.7,141.23c3.2,3.99,6.38,7.42,6.38,7.42l-10.49,8.07,1.09-14.55a1.7,1.7,0,0,1,3.03-.93" fill="#e14930"/>
                      <path id="Контур_36192" data-name="Контур 36192" d="M444.72,164.88l-9.34-21.2,22.91,11.73-7.31,10.13a3.614,3.614,0,0,1-6.25-.66" fill="#e14930"/>
                      <path id="Контур_36193" data-name="Контур 36193" d="M372.34,149.29l1.48-3.03a2.16,2.16,0,0,0-2.6-3.01,9.043,9.043,0,0,1-1.55.4,23.7,23.7,0,0,1-6.51-.3,1,1,0,0,0-1.13.84,1.018,1.018,0,0,0,.19.75l3.86,5.01a3.614,3.614,0,0,0,6.25-.66" fill="#e14930"/>
                      <path id="Контур_36194" data-name="Контур 36194" d="M484.05,70.66l-10.42,2.79a3.976,3.976,0,0,1-2.06-7.68h0l10.42-2.79a3.976,3.976,0,0,1,2.06,7.68" fill="#fff"/>
                      <path id="Контур_36195" data-name="Контур 36195" d="M478.95,42.25,470.32,52.8a3.787,3.787,0,1,1-5.86-4.8l8.63-10.55a3.787,3.787,0,1,1,5.86,4.8" fill="#fff"/>
                      <path id="Контур_36196" data-name="Контур 36196" d="M536.84,116.96c-1.18.73-1.68,3.39-1.95,3.35a12.638,12.638,0,0,0-2.04.04c-.55.08-.29.64.51.75s1.44.25,1.44.41a21.044,21.044,0,0,0,.46,3.54c.26.55,1.32-2.61,1.59-3.11s.41-.38.66-.36a6.606,6.606,0,0,0,2.03-.14c.1-.18-.08-.38-.52-.46s-1.82-.44-1.82-.44a30.208,30.208,0,0,0-.07-3.43.494.494,0,0,0-.3-.14" fill="#fff"/>
                      <path id="Контур_36197" data-name="Контур 36197" d="M463.76,29.45c.06.77,1.26,1.69,1.18,1.81a8.022,8.022,0,0,0-.5,1.02c-.1.3.25.31.5-.06s.49-.65.57-.62a11.366,11.366,0,0,0,1.88.67c.34,0-.97-1.32-1.14-1.58s-.08-.3-.01-.42.51-.95.44-1.04-.21-.06-.36.14-.68.8-.68.8a15.994,15.994,0,0,0-1.72-.83.327.327,0,0,0-.15.11" fill="#fff"/>
                      <path id="Контур_36198" data-name="Контур 36198" d="M491.52,63.98c.88.95,2.28,1.13,2.3,1.38s1.36,1.17,1.53,1.66.64.15.6-.6-.03-1.37.11-1.39a19.59,19.59,0,0,0,3.16-1.07c.45-.33-2.63-.74-3.14-.9s-.42-.3-.45-.54a6.143,6.143,0,0,0-.5-1.83c-.19-.06-1.08-.35-1.07.07s-.26,2.47-.26,2.47a14.09,14.09,0,0,0-2.22.45.455.455,0,0,0-.08.3" fill="#fff"/>
                      <g id="Сгруппировать_43442" data-name="Сгруппировать 43442" opacity="0.38">
                        <g id="Сгруппировать_43441" data-name="Сгруппировать 43441">
                          <g id="Сгруппировать_43471" data-name="Сгруппировать 43471" clip-path="url(#clip-path-7)">
                            <g id="Сгруппировать_43440" data-name="Сгруппировать 43440">
                              <path id="Контур_36199" data-name="Контур 36199" d="M405.61,51.11c3.65-1.34,6.42-2.11,7.55-2.09" fill="none" stroke="#fff" stroke-linecap="round" stroke-miterlimit="10" stroke-width="5"/>
                            </g>
                          </g>
                        </g>
                      </g>
                      <path id="Контур_36200" data-name="Контур 36200" d="M426.2,47.6a17.721,17.721,0,0,1,5.29.28" fill="none" stroke="#fff" stroke-linecap="round" stroke-miterlimit="10" stroke-width="5"/>
                      <g id="Сгруппировать_43445" data-name="Сгруппировать 43445" opacity="0.38">
                        <g id="Сгруппировать_43444" data-name="Сгруппировать 43444">
                          <g id="Сгруппировать_43472" data-name="Сгруппировать 43472" clip-path="url(#clip-path-8)">
                            <g id="Сгруппировать_43443" data-name="Сгруппировать 43443">
                              <path id="Контур_36201" data-name="Контур 36201" d="M307.55,58.29a13.994,13.994,0,0,1,3.64.48" fill="none" stroke="#fff" stroke-linecap="round" stroke-miterlimit="10" stroke-width="5"/>
                            </g>
                          </g>
                        </g>
                      </g>
                      <path id="Контур_36203" data-name="Контур 36203" d="M235.38,155.85,246.57,168l-3.08,2.48-8.1-14.63Z" fill="#e74545"/>
                      <g id="Сгруппировать_43451" data-name="Сгруппировать 43451" opacity="0.17">
                        <g id="Сгруппировать_43450" data-name="Сгруппировать 43450">
                          <g id="Сгруппировать_43473" data-name="Сгруппировать 43473" clip-path="url(#clip-path-9)">
                            <g id="Сгруппировать_43449" data-name="Сгруппировать 43449">
                              <path id="Контур_36204" data-name="Контур 36204" d="M227.53,137.78a26.151,26.151,0,0,0,6.97,5.06,4.672,4.672,0,0,1,2.5,2.33,15.388,15.388,0,0,1-6.33-2.63c-3.08-2.23-3.14-4.76-3.14-4.76" fill="#e74545"/>
                            </g>
                          </g>
                        </g>
                      </g>
                      <path id="Контур_36205" data-name="Контур 36205" d="M506.17,135.13l-2.72,2.5s-2.28-1.77-2.53-3.29.46-1.92.46-1.92" fill="#fff"/>
                      <path id="Контур_36206" data-name="Контур 36206" d="M233.25,126.86l-2.58,2.02a.822.822,0,0,0-.12,1.15.863.863,0,0,0,.14.13c1.34,1.03,4.09,2.8,5.63,1.31Z" fill="#fff"/>
                      <path id="Контур_36207" data-name="Контур 36207" d="M501.66,149.49s-2.94-.07-3.17-.14,1.65-1.79,1.65-1.79a1.942,1.942,0,0,0,.68,0,.9.9,0,0,0,.47-.2l.37,2.13Z" fill="#e74545"/>
                      <g id="Сгруппировать_43454" data-name="Сгруппировать 43454" opacity="0.07">
                        <g id="Сгруппировать_43453" data-name="Сгруппировать 43453">
                          <g id="Сгруппировать_43474" data-name="Сгруппировать 43474" clip-path="url(#clip-path-10)">
                            <g id="Сгруппировать_43452" data-name="Сгруппировать 43452">
                              <path id="Контур_36208" data-name="Контур 36208" d="M321.71,63.27c2.97,6.63-11.15,11.85-26.01,22.29s-21.76,22.94-30.18,12.71c-5.52-6.7.62-25.27,15.49-35.71s35.29-11.38,40.7.71" fill="#ffffd3"/>
                            </g>
                          </g>
                        </g>
                      </g>
                      <g id="Сгруппировать_43457" data-name="Сгруппировать 43457" opacity="0.13">
                        <g id="Сгруппировать_43456" data-name="Сгруппировать 43456">
                          <g id="Сгруппировать_43475" data-name="Сгруппировать 43475" clip-path="url(#clip-path-11)">
                            <g id="Сгруппировать_43455" data-name="Сгруппировать 43455">
                              <path id="Контур_36209" data-name="Контур 36209" d="M445.66,57.83c1.31,7.14-13.63,8.87-30.55,15.49s-26.58,17.12-32.34,5.18c-3.77-7.82,6.6-24.4,23.52-31.02s36.98-2.69,39.37,10.35" fill="#ffffd3"/>
                            </g>
                          </g>
                        </g>
                      </g>
                      <g id="Сгруппировать_43460" data-name="Сгруппировать 43460" opacity="0.14">
                        <g id="Сгруппировать_43459" data-name="Сгруппировать 43459">
                          <g id="Сгруппировать_43476" data-name="Сгруппировать 43476" clip-path="url(#clip-path-12)">
                            <g id="Сгруппировать_43458" data-name="Сгруппировать 43458">
                              <path id="Контур_36210" data-name="Контур 36210" d="M461.62,76.83c-2.47,1.83-6.33.8-8.62-2.3s-2.13-7.09.34-8.91,6.33-.8,8.62,2.3,2.13,7.09-.34,8.91" fill="#ffffd3"/>
                            </g>
                          </g>
                        </g>
                      </g>
                    </g>
                  </g>
                </g>
              </g>
            </g>
          </g>
        </g>
        <g id="Сгруппировать_43446" data-name="Сгруппировать 43446" opacity="0.43">
          <path id="Контур_36202" data-name="Контур 36202" d="M265.11,75.6c11.12,2.83,24.7,1.23,31.68-19.8" fill="none" stroke="#723945" stroke-linecap="round" stroke-miterlimit="10" stroke-width="6" opacity="0.53"/>
        </g>
        <path id="Контур_36216" data-name="Контур 36216" d="M684.41,204.72a2.411,2.411,0,0,0-.05,1.41,2.352,2.352,0,0,0,.93,1.32l-.29,3.02a1.823,1.823,0,0,0,3.63.35l.33-3.42,2.64-.7-.36,2.98a1.823,1.823,0,0,0,3.62.44l.53-4.41,1.94-.51-.27,2.37a1.822,1.822,0,1,0,3.62.42l.39-3.35a2.058,2.058,0,0,0,0-.43l38.45-10.15a10.328,10.328,0,0,1-1.27,3.79c-.71,1.28-.77,2.86.68,3.58a2.279,2.279,0,0,0,2.62-.55,56.285,56.285,0,0,0,7.04-9.6,2.235,2.235,0,0,0-1.33-3.06c-.04-.01-3.73-2.2-8.97-4.68a2.909,2.909,0,0,0-.71-.26,2.25,2.25,0,0,0-2.61,1.81,2.515,2.515,0,0,0,1.17,2.38,11.873,11.873,0,0,1,1.98,1.97l-38.28,10.11a1.724,1.724,0,0,0-.41-.56l-3.37-3.1a1.743,1.743,0,0,0-.85-.44,1.8,1.8,0,0,0-1.72.55,1.818,1.818,0,0,0,.1,2.57l2.22,2.05-2.34.62-3.81-4a1.815,1.815,0,0,0-.95-.53,1.794,1.794,0,0,0-1.62.47,1.82,1.82,0,0,0-.06,2.58l2.43,2.55-1.89.5-2.01-2.29a1.824,1.824,0,0,0-2.57-.17,1.821,1.821,0,0,0-.17,2.57l1.6,1.83Z" fill="#ffe2ff"/>
        <path id="Контур_36217" data-name="Контур 36217" d="M53.15,191.27s-3.25-1.47-7.76-3.03a2.18,2.18,0,0,0-.61-.15,1.858,1.858,0,0,0-1.98,1.71,2.079,2.079,0,0,0,1.17,1.84c.08.05.14.1.22.15,0,0,.02.01.02.02h0a9.792,9.792,0,0,1,1.56,1.27l-30.44,11.7a1.441,1.441,0,0,0-.39-.43l-3.03-2.24a1.48,1.48,0,0,0-.74-.29,1.5,1.5,0,0,0-1.04,2.7l2,1.48-1.86.72-3.48-2.93a1.5,1.5,0,0,0-2.12.18,1.515,1.515,0,0,0,.18,2.12l2.21,1.87-1.51.58L3.7,206.85a1.467,1.467,0,0,0-.76-.37,1.518,1.518,0,0,0-1.36.47,1.5,1.5,0,0,0,.09,2.12l1.48,1.35a2.023,2.023,0,0,0,.09,1.16,1.963,1.963,0,0,0,.88,1l.03,2.5a1.5,1.5,0,0,0,3-.04l-.03-2.83,2.1-.81-.03,2.47a1.5,1.5,0,0,0,3,.04l.04-3.66,1.55-.59v1.96a1.477,1.477,0,0,0,1.48,1.51,1.5,1.5,0,0,0,1.51-1.49l.02-2.78a1.343,1.343,0,0,0-.04-.35l30.57-11.75a8.6,8.6,0,0,1-.69,3.22c-.47,1.12-.37,2.41.88,2.87a1.864,1.864,0,0,0,2.1-.69,45.349,45.349,0,0,0,4.9-8.49,1.835,1.835,0,0,0-.15-1.5,1.861,1.861,0,0,0-1.21-.89Z" fill="#c2e2f4"/>
        <path id="Контур_36218" data-name="Контур 36218" d="M176.83,316.19a1.169,1.169,0,0,0-1.51-.69L167,318.58l-.58-1.47,7.96-3.36a1.174,1.174,0,0,0-.82-2.2l-7.91,3.34s-.51-1.49.47-1.89,6.15-2.54,6.15-2.54a1.174,1.174,0,0,0-.82-2.2l-9.66,2.77c-3.5,1.31-4.28,7.77-7.56,9l-29,10.08-.02-.02-3.46-2.68a1.742,1.742,0,0,0-2.44.31,1.737,1.737,0,0,0,.31,2.44l1.68,1.3-2.15.75-3.39-2.99a1.774,1.774,0,0,0-.95-.42,1.746,1.746,0,0,0-1.36,3.04l1.91,1.69-1.71.59-1.95-1.87a1.731,1.731,0,0,0-.88-.45,1.7,1.7,0,0,0-1.58.51,1.748,1.748,0,0,0,.05,2.46l.99.95a2.736,2.736,0,0,0-.58,2.89l.2.53a2.75,2.75,0,0,0,2.52,1.82v1.26a1.727,1.727,0,0,0,1.71,1.76,1.748,1.748,0,0,0,1.76-1.72l.02-2.32,2.43-.94-.06,1.96a1.741,1.741,0,0,0,3.48.12l.11-3.44,1.81-.7-.04,1.52a1.741,1.741,0,1,0,3.48.1l.09-2.98,28.48-10.99c3.28-1.23,8.06,3.41,11.56,2.11,0,0,8.34-3.91,8.99-4.16a1.483,1.483,0,0,0,.63-1.63,1.169,1.169,0,0,0-1.51-.69s-4.94,1.48-5.77,1.81-1.79-1.24-1.79-1.24l8.32-3.08a1.169,1.169,0,0,0,.69-1.51Z" fill="#dde0f4"/>
        <path id="Контур_36219" data-name="Контур 36219" d="M198.57,14.52a5.661,5.661,0,0,1-3.59-1.14,27.283,27.283,0,0,0-2.51-3.67c-.68-.67.11,3.34-.01,4.22s.44,1.78-.42,2.28c-.34.2-2.28.84-2.33,1.16s-.1.56.6.43a14.223,14.223,0,0,1,2.82.21,42.525,42.525,0,0,0,2.08,4.46.732.732,0,0,0,.51.05c1.34-1.72.51-5.06.92-5.15s2.31-1.6,3.08-2.02.08-1.1-1.16-.83Z" fill="#fff"/>
        <path id="Контур_36220" data-name="Контур 36220" d="M114.99,179.15c-1.31,2.35-4,2.19-6.1.29a68.06,68.06,0,0,1-7.98-8.73c-3.25-4.92,1.54-10.57,5.64-6.56.23.23,2.18,2.24,2.4,2.41.99.72,1.43.05,1.64-.86.05-.21.77-3.17,1.03-4.17,1.22-4.59,10.15-2.39,8.53,2.98-2.44,8.06-4.11,12.77-5.16,14.65Z" fill="#fff"/>
        <path id="Контур_36221" data-name="Контур 36221" d="M381.93,17.32c-1.12.62-2.16-.11-2.53-1.41a32.677,32.677,0,0,1-1.04-5.52c-.08-2.8,3.26-3.88,3.92-1.24.04.15.32,1.45.37,1.57.22.54.57.38.88.06.07-.07,1.1-1.09,1.46-1.42,1.64-1.55,4.69,1.57,2.7,3.33a47.816,47.816,0,0,1-5.74,4.62Z" fill="#fff"/>
        <g id="Сгруппировать_43480" data-name="Сгруппировать 43480" opacity="0.34">
          <path id="Контур_36222" data-name="Контур 36222" d="M350.29,375.12c-.39,1.21-1.66,1.39-2.81.7a32.986,32.986,0,0,1-4.53-3.32c-1.97-1.99-.27-5.06,2.02-3.58.13.08,1.22.84,1.34.9.53.25.67-.11.68-.55,0-.1.06-1.55.09-2.04.14-2.25,4.5-2.06,4.25.59a47.7,47.7,0,0,1-1.04,7.3Z" fill="#fff"/>
        </g>
        <path id="Контур_36223" data-name="Контур 36223" d="M501.04,251.27c-2.18.81-4.61.48-6.94-2.59-2.99-3.93-7.82-14.68-8.21-18.33-.84-7.98,9.26-11.72,12.68-4.19a3.876,3.876,0,0,1,.32,1.17c.1.86,1.11,2.3,1.84,1.82.24-.16,6.62-5.26,6.87-5.46,5.08-4,11.9,4.57,7.42,10.74-7.41,10.2-11.22,15.83-13.97,16.84Z" fill="#ffe5ff"/>
        <path id="Контур_36224" data-name="Контур 36224" d="M679.17,22.4c-1.57.58-3.31.34-4.99-1.86-2.15-2.82-5.62-10.54-5.9-13.17-.6-5.73,6.65-8.42,9.1-3.01a2.785,2.785,0,0,1,.23.84c.07.62.8,1.65,1.32,1.3.17-.11,4.75-3.78,4.93-3.92,3.65-2.87,8.54,3.28,5.33,7.71-5.32,7.33-8.06,11.37-10.04,12.1Z" fill="#fff"/>
        <g id="Сгруппировать_43484" data-name="Сгруппировать 43484">
          <g id="Сгруппировать_43481" data-name="Сгруппировать 43481">
            <circle id="Эллипс_15282" data-name="Эллипс 15282" cx="1.22" cy="1.22" r="1.22" transform="translate(471.58 404.81)" fill="#ffd1f4"/>
            <circle id="Эллипс_15283" data-name="Эллипс 15283" cx="2.11" cy="2.11" r="2.11" transform="translate(462.62 403.21)" fill="#ffd1f4"/>
            <circle id="Эллипс_15284" data-name="Эллипс 15284" cx="1.54" cy="1.54" r="1.54" transform="translate(450.86 411.38)" fill="#ffd1f4"/>
          </g>
          <g id="Сгруппировать_43483" data-name="Сгруппировать 43483">
            <path id="Контур_36225" data-name="Контур 36225" d="M644.44,373.76a2.22,2.22,0,0,0,.31-.76,1.3,1.3,0,0,0-.15-.61c.05-.57.09-1.15.1-1.73a1.188,1.188,0,0,0,.11-.43.256.256,0,0,0-.11-.18,25.05,25.05,0,0,0-.24-3.43,1.649,1.649,0,0,0,.28-.35c-.02-.12-.04-.24-.07-.36a1.526,1.526,0,0,0-.35-.13c-.06-.34-.11-.68-.18-1.02a1.448,1.448,0,0,0-1.71-1.12l-2.95.66c-.12-.07-.22-.16-.34-.23l-2.5.55a2.757,2.757,0,0,1-.1.34l-2.33.52-.3-.27-.94.21a3.285,3.285,0,0,0-.07.36l-1.59.36a1.191,1.191,0,0,0-.31-.29l-.49.11a1.065,1.065,0,0,0-.16.39l-1.69.38a.564.564,0,0,0-.52-.24c-.18.04-.27.21-.34.43l-2.94.66a2.892,2.892,0,0,0-.23-.34l-1.16.25a.787.787,0,0,1-.51.4.821.821,0,0,1-.65-.15l-2.78.61a.952.952,0,0,1-.53.3c-.55.12-.62.31-1,.46l-6.24,1.4a3.491,3.491,0,0,0-.25-.4l-2.37.52a1,1,0,0,1-.61.39.521.521,0,0,0-.36.3l-1.61.36a2.083,2.083,0,0,0-.35-.41l-.7.15a2.538,2.538,0,0,0-.16.53l-2.89.65a.52.52,0,0,0-.46-.13.786.786,0,0,1-.64-.14l-1.22.27c-.06.18-.1.37-.15.56l-5.19,1.16a3.093,3.093,0,0,0-.33-.48l-.81.18a4.6,4.6,0,0,0-.11.58l-4.17.93a.566.566,0,0,0-.47-.12c-.53.12-.71-.1-1.1-.12l-2.47.54a.558.558,0,0,1-.39.37,1.444,1.444,0,0,1-.87-.1l-.93.2c-.24.22-.32.53-.78.64-.57.13-.75-.2-1.21-.2l-.32.07c-.34.15-.42.51-.61.77l-3.78.85c-.21-.25-.43-.48-.73-.41-.66.15-.64.23-1.29.38a.588.588,0,0,1-.46-.08l-2.89.63a1.657,1.657,0,0,1-.23.74l-2.21.5c-.19-.25-.39-.51-.62-.56l-1.97.43c-.18.32-.25.75-.69.84a.613.613,0,0,0-.12.05l-1.96.44a.77.77,0,0,0-.61-.13c-.66.15-.76-.3-1.42-.16s-.51.8-1.17.94c-.55.12-.76-.38-1.2-.47l-.5.06a8.471,8.471,0,0,1-1.06.41c-.62.13-.51.73-1.1.88l-1.72.36a7.18,7.18,0,0,0-.81-1.06l-.55.07c-.29.36-.25,1.17-.63,1.4l-2.79.58-1.39.29c-.43-.08-.63-.53-1.18-.41-.29.06-.39.39-.46.75l-1.82.38h-.17c-.65.13-.64.15-1.29.28-.02,0-.04.02-.06.03l-2.91.6c-.35-.18-.58-.65-1.06-.55-.27.06-.36.43-.41.86l-1.35.28c-.3-.61-.6-1.23-.93-1.16a1.506,1.506,0,0,1-.67.01l-1.17.26a1.337,1.337,0,0,1-.72.42c-.65.13-.49.89-1.14,1.03-.25.05-.37.26-.46.5l-2.83.59a.614.614,0,0,0-.57-.2c-.55.11-.6.37-.99.53l-.38.08c-.54-.06-.8-1.05-1.4-.92-.65.13-.65.14-1.29.27s-.58.48-1.22.61-.63.22-1.28.35c-.54.11-.53.68-.88.95l-.53.11c-.45-.18-.71-.98-1.26-.86-.3.06-.35.61-.38,1.21l-.85.18-5.56-4.16a3.89,3.89,0,0,0-1.86-.74,3.8,3.8,0,0,0-3.46,1.5,3.717,3.717,0,0,0-.67,1.51,3.825,3.825,0,0,0-.29,1.76c.12.08.27.13.4.21a3.855,3.855,0,0,0,.32.72c-.06.21-.16.45-.25.68a4.637,4.637,0,0,0,.58.76l-2.34.49-6.59-5.03a3.8,3.8,0,0,0-5.33.71,3.786,3.786,0,0,0-.76,2.34c-.08.03-.16.06-.25.09a3.841,3.841,0,0,0,0,1.22.821.821,0,0,1,.47.3c.08.13,0,.41-.14.74a3.7,3.7,0,0,0,1.11,1.39l.41.32c.29-.06.5-.05.56.12l-2.25.47-6.73-3.17a3.882,3.882,0,0,0-2.13-.33,3.812,3.812,0,0,0-2.93,2.15,3.52,3.52,0,0,0-.15.42,2.528,2.528,0,0,0-.21.32,3.8,3.8,0,0,0-.34,1.29c.13.18.33.32.47.53a3.779,3.779,0,0,0,1.67,2.26c0,.39-.06.83.23.97a.324.324,0,0,1,.16.2l1.51.71c.37-.36.72-.66.89-.49a1.785,1.785,0,0,0,.12.96l.18.09c-.04.08-.06.17-.1.25v.04a9.3,9.3,0,0,0-.26,1.04c-.06.03-.11.07-.17.1a8.129,8.129,0,0,0-.22,3.41.09.09,0,0,0,.01.05,3.418,3.418,0,0,1,.53.09q.12.42.27.81c-.16.33-.38.66-.25.91.14.28.66.99,1.07,1.57l-1.01,1.03a5.824,5.824,0,0,0-1.15,4.95.825.825,0,0,1,.55.14c.37.36.28,1.16.73,1.34.26.1.52-.17.79-.43a3.748,3.748,0,0,0,1.52.44c.2.29.41.59.6.82a4.638,4.638,0,0,0,.64-.17c-.02-.21-.07-.46-.12-.73a3.875,3.875,0,0,0,1.86-1.03l.14-.14a.448.448,0,0,0,.39-.11.655.655,0,0,0,.19-.48l2.05-2.09c.15.14.29.27.42.37a6.908,6.908,0,0,0,.9-.11,6.4,6.4,0,0,1,.34-.84.883.883,0,0,0,.17-.02l1.57-.4a4.248,4.248,0,0,0,.6.61l.17-.04c-.02.05-.03.11-.05.16a.463.463,0,0,0,.07.07,3.693,3.693,0,0,0,.02.88c-.18.15-.35.29-.3.5v.02a2.393,2.393,0,0,0,.29.95.689.689,0,0,1,.03.44,3.9,3.9,0,0,0,1.15,1.45,3.826,3.826,0,0,0,1.8.73,1.459,1.459,0,0,0,.22-.03c.23-.03.33-.39.41-.79a3.741,3.741,0,0,0,2.26-.66c.21.04.37.03.45-.07a.817.817,0,0,1,.54-.34l1.61-2.12a2.848,2.848,0,0,0-.11-.39l3.16-4.16c.18.16.36.26.5.22a.43.43,0,0,1,.16,0l1.47-.38c.04-.26.07-.55.11-.79l.26-.07c-.03.25-.03.53-.04.77l1.03-.27h0a3.782,3.782,0,0,0,3.04,5.13.549.549,0,0,1,.17-.05,4.959,4.959,0,0,0,1.54-.65c.42-.25,1.43-.31,1.74-.72.42-.56.38-.59.8-1.15a.591.591,0,0,0,.09-.51l1.85-2.46a3.2,3.2,0,0,0,.42.05l.98-1.3a1.047,1.047,0,0,1,.13-.22c.07-.09.03-.27-.05-.49l.31-.41a3.931,3.931,0,0,0,.5-.92l1.1-.28a.647.647,0,0,0,.31,0,.994.994,0,0,0,.4-.19l2.84-.73a.648.648,0,0,0,.63.23.733.733,0,0,1,.67.2l1.21-.31a3.236,3.236,0,0,1,.24-.83l.77-.2a1.213,1.213,0,0,0,.89.17c.63-.16.62-.22,1.25-.38s.73.22,1.36.06c.3-.08.37-.46.43-.86l2.37-.61c.29.11.5.33.93.22.21-.05.3-.28.35-.55l1.95-.5a.518.518,0,0,0,.13,0,1.272,1.272,0,0,0,.3-.11l3.36-.86a4.906,4.906,0,0,1,.75-.13c.22.28.43.59.65.63.43.09.95-.19,1.35,0,.26.12.75-.06,1.17-.14a5.121,5.121,0,0,1,.82.47,3.745,3.745,0,0,0,.37,1.06.06.06,0,0,0,.01.04,5.707,5.707,0,0,1,1.52,1.88l.59,1.18a2.719,2.719,0,0,1,.42.04l.41.83a3.145,3.145,0,0,1-.25.32l.88,1.77c.19.37.38.72.57,1.03a1.968,1.968,0,0,1,.52-.04c.11.15.22.27.33.41a3.1,3.1,0,0,1-.1.69,5.776,5.776,0,0,0,.85.86,4.148,4.148,0,0,1,.54-.45,3.607,3.607,0,0,0,.94.37c.31.43.64.95.96.88.66-.15.69,0,1.35-.15s.49-.88,1.14-1.03c.35-.08.6.27.86.59l1.16-.27c.04-.28.07-.6.12-.86l2.5-.57a1.158,1.158,0,0,0,.62,0,.584.584,0,0,0,.36-.23l1.49-.34a6.946,6.946,0,0,0,.49.72l1.07-.24c.12-.25.24-.5.58-.57.66-.15.66-.13,1.32-.28.31-.07.43-.3.54-.54l2.42-.55c.21.2.4.49.61.69l2.33-.53c.13-.36.2-.77.58-.86a1.182,1.182,0,0,0,.49-.22l2.59-.59c.16.22.31.49.47.73l1.73-.4a.319.319,0,0,1,.11-.06.75.75,0,0,1,.15,0l3.14-.72c.1-.3.21-.6.53-.67a.7.7,0,0,0,.46-.39l2.68-.61a6.235,6.235,0,0,0,.53.71l.75-.17a4.059,4.059,0,0,0,.14-.87l7.04-1.61a.431.431,0,0,0,.16,0c.05-.01.07-.05.11-.06l1.76-.4a6.946,6.946,0,0,0,.49.72l.83-.19a6.841,6.841,0,0,0,.08-.85l5.36-1.23c.23.37.46.67.72.61s.35-.44.4-.86l2.85-.65c.21.31.42.54.67.49a.973.973,0,0,1,.61.05l2.75-.63c.09-.33.19-.64.5-.71.66-.15.72.12,1.38-.03.41-.09.51-.41.67-.67l3.99-.91c.17.25.32.52.45.73l.2-.05s.05-.01.09-.02a2.517,2.517,0,0,1-.02-.82c.85-.19.35-.14,1.51-.58.05-.08.09-.14.14-.21a.484.484,0,0,0,.18-.07,1.262,1.262,0,0,0,.32-.6,4.168,4.168,0,0,1,.53-.51c.24.06.41.34.6.57a3.451,3.451,0,0,1,2.85-.12c.03-.24.05-.51.09-.74a.443.443,0,0,0,.15-.05,6.054,6.054,0,0,0,1.44-1.2,2.955,2.955,0,0,0,.64.49,4.507,4.507,0,0,1,.54-.41c.16-.42.31-.97.56-1.11a3.541,3.541,0,0,1,1.28-.05,1.776,1.776,0,0,0,1.42-1.02c.37-.04.67-.12.74-.29.06-.15-.08-.41-.29-.71a3.876,3.876,0,0,1,.73-1.37c.62-.62,1.28-.75,2-1.48a.564.564,0,0,0,.36-.21,2.431,2.431,0,0,0,.19-.47,2.7,2.7,0,0,0,.17-.25c.5-.81.96-1.63,1.4-2.46.3-.02.54-.06.6-.19s-.05-.36-.21-.6a31.133,31.133,0,0,0,2.51-6.98c.24-.06.4-.13.42-.24a2.248,2.248,0,0,0-.18-.95c.06-.35.11-.7.16-1.05Z" fill="#f1d6f2"/>
            <g id="Сгруппировать_43482" data-name="Сгруппировать 43482" opacity="0.58">
              <path id="Контур_36226" data-name="Контур 36226" d="M642.95,366.21h0a1.377,1.377,0,0,0-1.63-1.07h0a4.557,4.557,0,0,0-3.53,4.41,29.516,29.516,0,0,1-4.75,14.96c-.96,1.56-1.82,1.52-2.6,2.31-.87.88-.8,3.09-2.49,3.25-2.43-.33-2.92,1.49-4.27,2.18-.83.42-2.71-1.54-4.66,1.64-1.25.47-.47.36-1.83.64l-59.47,13.62c1.28,2.08,2.67,2.94,4.8,2.5l60.36-13.82c1.35-.28.57-.16,1.83-.64,1.95-3.18,3.83-1.22,4.65-1.64,1.34-.68,1.84-2.5,4.27-2.18,1.69-.16,1.62-2.37,2.49-3.25.78-.79,1.65-.75,2.6-2.31,3.72-6.06,5.81-12.93,4.22-20.59Z" fill="#fff"/>
            </g>
          </g>
        </g>
        <path id="Контур_36227" data-name="Контур 36227" d="M299.35,54.02l-.15-.17a11.181,11.181,0,0,0,.09-2.78l.25-.81L299.43,49l-.54-1.15-.45-.23a11.479,11.479,0,0,0-.61-1.27l.5-.98-.68-1.08-.73-1.05-1.18.23a12.556,12.556,0,0,0-2.79-2.17l.12-1.33a.049.049,0,0,1-.03-.01l-1.15.78c-.31-.15-.62-.28-.94-.4l-.02-1.14c-.33-.1-.66-.18-1-.26l-.53.2-.4-.4c-.9-.17-1.82-.3-2.73-.38l-.45.48-1.19.1-.32-.69c-.48-.01-.95-.02-1.42-.02l-.29.63c-.46,0-.91-.01-1.36,0l-.13-.09-1.19-.42-1.18.33h-1.19l-1.16.38-.13.1c-.17.02-.34.03-.51.05-.36.04-.73.08-1.12.14l-.46-.4c-1.33.2-2.78.47-4.27.81l-.09.71c-.41.12-.81.26-1.22.39l-.71-.61c-.9.24-1.81.51-2.69.81l-.13.23-1.07.2c-.56.21-1.1.44-1.63.67l-.41.73-1.02.56-.8.89-1.34.11-.38,1.36-.17.73c-.11.11-.23.21-.33.32-.08.08-.15.17-.23.26l-1.09.14-.04,1.16c-.23.29-.46.58-.67.87l-.28.23-.13.33c-.19.27-.38.54-.56.82h-1.27a50.13,50.13,0,0,1-3.84,5.97l.1.97-1.11.15c-.19.19-.37.37-.57.55l-.17,1.11h-1.3a11.251,11.251,0,0,1-1.99,1.01l-.06.97-1.01-.6-2.36.63-.29.69-.5.52-2.92.73-.75-.75-3.47.92-.25.94-.29.07-.68-.69-4.89,1.3-.17.41-.85-.14-4.3,1.14-.23.75-2.84.71-.65-.47-3.55.94-.11.6-.28.07-.65-.4-.83.22-.29.62-.85.21-.64-.36-.32.08-.43.62-1.35.34-.28-.05-.27-.29-3.11.83-.11.26-.73-.04-2.35.62-.14.4-.4.1-.25-.29-3.25.86-.26.37-1.48.37-.39-.17-2.13.56-.04.25-.42.1-.21-.17-8.47,2.25-.04.1-.52.13-.05-.06-4.67,1.24-1.86.46-6.78-5.97a3.687,3.687,0,0,0-1.77-.87,2.888,2.888,0,0,0-.29-.04v-.09a.665.665,0,0,0-.07-.03,6.2,6.2,0,0,0-4.63,1.56c-1.35,1.53-.83,3.5.63,4.9l.74-.3a3.974,3.974,0,0,0,.44.48l2.73,2.4-1.67-.24.5.52-3.45,1.03-6.24-6.26a3.669,3.669,0,0,0-3.96-.84c-.17-.03-.34-.06-.48-.08l-.39.42-.84-.18a2.843,2.843,0,0,0-.57.48,6.242,6.242,0,0,0-.78.95l.08.16-.46.8-.16.13a2.792,2.792,0,0,0-.13,1.21l1.2.17-.67,1.08a3.051,3.051,0,0,0,.29.36l.37.53.84-.35a4.032,4.032,0,0,0,.26.32l.19.89-.2.7,1.45,2.07-2.1.52-2.24-2.43a3.741,3.741,0,0,0-4.51-.77c-.04,0-.08-.01-.11-.01l-.19.23s-.04.03-.07.05l-.88-.11a3.849,3.849,0,0,0-1.53.84c-1.43,1.31-2.94,2.41.45,4.25l1.22.47a.866.866,0,0,0,.09.12l-.37.13-.78,1.37a8.54,8.54,0,0,0-1.46,3.57l1,.76-1.09.85a5.907,5.907,0,0,0,.13.94l1.71.26.1.98.27,1.12-.02.48a10.668,10.668,0,0,0,1.69.16,9.093,9.093,0,0,0,3.08,2.1l-.7,2.03.77.59-1.31.98-.03.09a3.383,3.383,0,0,0,.01.45l.47.71.85.86,1.21-.59a3.691,3.691,0,0,0,2.81,1.63,3.749,3.749,0,0,0,4.01-3.46l.27-3.72,2.75-.95.08.26.93-.32-.31,3.17c-.01.1,0,.2,0,.31l1.39.22-.49,1.75,1.21.37,1.14.16.2-.09a3.845,3.845,0,0,0,1.49.48,4.005,4.005,0,0,0,.49,0l.5.36a3.477,3.477,0,0,0,.52-.41l.03-.12a3.748,3.748,0,0,0,2.55-3.19l.63-6.49.48-.16.22.21h.03l.03-.3.39-.13.19.22,1.39-.48-.24,2.56a3.8,3.8,0,0,0,.69,2.54l1.09.56.69.82a4.031,4.031,0,0,0,.62.17l.4-1.14a3.635,3.635,0,0,0,1.18.33,3.738,3.738,0,0,0,4.07-3.38l.52-5.57,2.53-.87.12-.33,1.75-.6h.01l2.1-.72.22.13.02-.22,9.36-3.22.74-.24h0l1.93-.68.26.23.32-.11.07-.34,1.78-.61.25.19.05-.29,8.87-3.05h.07l.03-.03,9.91-3.41.24.27.29-.1.06-.38,7.37-2.53.26.28.2-.07.05-.39,1.81-.62.29.27.48-.17.65-.27.27-.42,12.81-4.4a12.41,12.41,0,0,1,6.83-.2l.09.35.75.39a26.062,26.062,0,0,1,2.66.99l.38-.31c.57.26,1.15.53,1.74.82l.26.58c1,.48,2.04.97,3.12,1.44l.37-.3c.75.31,1.53.62,2.35.89a20.457,20.457,0,0,0,2.97.74l.46.67c.6.1,1.2.16,1.8.2l.3-.6a21.772,21.772,0,0,0,6.25-.7l.67.34.07-.55a24.97,24.97,0,0,0,2.52-.89l.78-.14.08-.24a25.236,25.236,0,0,0,2.83-1.54l.25-.1v-.05a1.153,1.153,0,0,1,.11-.07,57.67,57.67,0,0,0,10.1-7.76l.66.2-.08-.81q.525-.585,1.02-1.2l.44-.08-.13-.31c.42-.55.81-1.12,1.17-1.7l.53.05-.26-.5a13.459,13.459,0,0,0,1.59-4.24l.19-.08Z" fill="#f3f0ff"/>
        <path id="Контур_36228" data-name="Контур 36228" d="M644.59,20.55a2.06,2.06,0,0,0-2.36-1.72l-.23.03a.031.031,0,0,1-.02-.01,1.425,1.425,0,0,1-.38-.03c-.2-.08-.36.06-.54.18l-.87.13a1.6,1.6,0,0,0-.78-.22l-2.08.32a1.914,1.914,0,0,1-.13.36l-.98.15a1,1,0,0,0-.66-.24l-3.13.48c-.05.11-.09.24-.14.36l-1.47.22a.688.688,0,0,0-.44-.07,1.413,1.413,0,0,1-.76-.08l-.96.15a3.676,3.676,0,0,0-.31.38l-1.54.23-.47-2.73,14.91-2.95a2.065,2.065,0,0,0-.64-4.08l-3.06.61a1.26,1.26,0,0,1-.3-.34l-3.31.66a.974.974,0,0,0-.39.48l-2.38.47c-.09-.11-.17-.23-.26-.35l-1.25.25a.662.662,0,0,1-.46.36.618.618,0,0,0-.37.21l-1.28.25c-.07-.11-.13-.23-.2-.36l-1.47.29a1.538,1.538,0,0,1-.09.28c-.04-.56-.09-2.66,1.49-2.95,1.83-.33,11.5-2.18,11.5-2.18a2.065,2.065,0,0,0-.64-4.08l-.91.18a3.085,3.085,0,0,1-.29-.32h-.18l-2.02.41a1.293,1.293,0,0,1-.24.45l-.53.11a1.23,1.23,0,0,1-.36-.33l-3.83.77a.945.945,0,0,1-.19.44l-.35.07a.922.922,0,0,1-.36-.33l-1.34.27c-.01.14-.02.28-.04.41l-1.07.21a3.3,3.3,0,0,0-.28-.35l-4.06.82c-.3.09-.41.31-.55.51l-.84.17a2.121,2.121,0,0,1-.26-.35l-1.39.28c-.02.17-.04.32-.07.46a7.181,7.181,0,0,0-.73.27c-.17-.13-.34-.3-.51-.43a13.513,13.513,0,0,0-3.13,1.42,2.73,2.73,0,0,1-.44.39.54.54,0,0,1-.29.06c-.51.33-1.02.68-1.53,1.06a.557.557,0,0,1-.17.28.338.338,0,0,1-.25.03c-.61.46-1.22.93-1.83,1.42-.22.33-.01,1.19-.31,1.43-.2.16-.73-.08-1.18-.23q-.855.705-1.71,1.38c.06.46.17,1-.02,1.15-.33.26-.67.51-1,.76s-1.04.03-1.37.26a.6.6,0,0,1-.47-.02,13.843,13.843,0,0,1-4.66,2.26c-.06.12-.11.24-.17.36l-2.87.34h-.04a.7.7,0,0,1-.57-.21l-8.48,1.01a1.645,1.645,0,0,0-.2.31l-1.03.12c-.05-.08-.11-.17-.16-.27l-4.1.49a.418.418,0,0,1-.27.14.521.521,0,0,0-.37.23l-2.87.34a.578.578,0,0,0-.47-.19.561.561,0,0,0-.41.29l-4,.48a.925.925,0,0,0-.3-.26l-9.58,1.14a2.223,2.223,0,0,1-.14.31l-.75.09a1.394,1.394,0,0,1-.21-.27l-4.39.52a.62.62,0,0,0-.47.35l-2.66.32a.865.865,0,0,0-.57-.13.735.735,0,0,1-.41-.05l-3.09.37s-.03,0-.04.01c-.02-.02-.03-.05-.05-.07l-5.01-5.84a3.036,3.036,0,0,0-1.33-.9,3.078,3.078,0,0,0-2.36.17,2.985,2.985,0,0,0-.3,0,1.93,1.93,0,0,0-.86.11.747.747,0,0,1-.47-.06,3.866,3.866,0,0,0-.37.24,3.016,3.016,0,0,0-.84,1.21c.23.28.66.57.64.84-.03.4-.72.6-.6.98a2.377,2.377,0,0,0,.6.84c.34.39.21.66.34,1l.59.69a2.657,2.657,0,0,1,.6.52c.44.51,1.61.8,1.37,1.43a.313.313,0,0,1-.08.11l-1.48.18c-.14,0-.28-.01-.4,0a.7.7,0,0,1-.56-.18l-.73.09-4.69-6.24a3.018,3.018,0,0,0-3.72-.93c-.08-.12-.16-.26-.23-.39a2.95,2.95,0,0,0-2.7,1.91c.33.29.62.56.6.72-.03.24-.48.44-.81.65a3.062,3.062,0,0,0,.6,1.6l.24.32c.32-.08.61-.13.75.06.34.46.24.53.59.99.28.37.08.63.17.96l.34.45c.5.35,1.46.62,1.3,1.08,0,.01-.02.02-.02.03l-1.81.21h-.09l-.51.06-2.73-3.96a3.094,3.094,0,0,0-1.35-1.09,3.459,3.459,0,0,0-5.08,4.44l.24.35c.28-.03.54-.04.69.17s.04.43-.13.64l.57.82a4.825,4.825,0,0,0-2.03,4.77l.15.99a4.88,4.88,0,0,0,1.02,2.33c.4-.13.8-.25.94-.13s.07.57,0,1.02a4.964,4.964,0,0,0,1.4.7,1.09,1.09,0,0,1,.44-.06c.07.55.69.83.57,1.37-.05.23-.49.27-.98.29l-.14.66a3.055,3.055,0,0,0,1.59,3.36,2.674,2.674,0,0,0,.5.17.646.646,0,0,1,.19.09c.02,0,.04.02.07.02a3.031,3.031,0,0,0,1.08.03c.1.03.19.07.3.1a3.061,3.061,0,0,0,3.64-2.34l.87-4.03,3.08-.54-.03.03-.29,1.21a.887.887,0,0,1,.15.69.589.589,0,0,1-.41.4l-.18.74a3.067,3.067,0,0,0,.07,1.65,1.222,1.222,0,0,1,.37.34c.15.25.17.58.31.83a2.263,2.263,0,0,0,.28.25c.22.03.53-.28.83-.48a3.069,3.069,0,0,0,.97.89c.04.1.07.2.11.3a2.418,2.418,0,0,0,.47-.04,1.691,1.691,0,0,0,.24.08,3.054,3.054,0,0,0,3.69-2.26l1.46-6.04,1.9-.34-.57,2.41v.05a3.093,3.093,0,0,0,.16.94c.06.4.4.46.61.8s-.02.85.31,1.09a.633.633,0,0,1,.17.33,3.077,3.077,0,0,0,1.04.47c.05.01.1.01.15.02.06-.13.11-.26.17-.38a3.008,3.008,0,0,0,1.06.48,3.051,3.051,0,0,0,3.68-2.27l1.27-5.37,1.65-.29c.18.25.36.45.61.41.2-.04.3-.28.36-.58l1.66-.29a.443.443,0,0,0,.4.19.461.461,0,0,0,.33-.32l2.74-.48a.735.735,0,0,0,.66.3c.22-.04.33-.24.41-.49l10.58-1.87h.09c.62-.11.66.11,1.28,0s.66.13,1.28.03.56-.44,1.18-.55.64,0,1.26-.1a.628.628,0,0,0,.45-.35l5.09-.9a.8.8,0,0,0,.7.31c.27-.05.39-.27.49-.51l2.81-.5a1.546,1.546,0,0,0,.35-.03.285.285,0,0,0,.14-.06l1.94-.34a.477.477,0,0,0,.45.18,1.292,1.292,0,0,0,.7-.39l3.86-.68c.13.17.27.27.43.24.45-.08.54-.3.8-.46l3.61-.64c.18.3.38.54.62.5.22-.03.39-.39.57-.71l.87-.15a1.087,1.087,0,0,0,.18-.01,1.3,1.3,0,0,0,.63.42c.25.04.56-.25.86-.45a15.687,15.687,0,0,1,3.68.74,1.266,1.266,0,0,0,.45.42.673.673,0,0,0,.51-.1c.42.14.84.29,1.27.45.04.58.04,1.26.27,1.36.39.16.76.36,1.16.52s1.23-.76,1.62-.6c.31.13.35.92.55,1.33.18.05.35.11.53.16.32-.16.73-.54,1.04-.7.19.08.37.15.56.22a7.556,7.556,0,0,0,.42,1.06c1.1.31,2.19.57,3.24.76.15-.12.29-.25.43-.36.28.09.56.16.84.23.07.11.13.23.2.35a14.334,14.334,0,0,0,1.94.1,9.718,9.718,0,0,0,2.79.04s16.27-1.99,17.49-2.18a2.619,2.619,0,0,0,1.66-2.58,2.06,2.06,0,0,0-2.36-1.72s-.18.02-.48.04a.215.215,0,0,0-.04-.12,2.057,2.057,0,0,0-.86-.05s-.29.03-.75.07a1.5,1.5,0,0,1-.24.27c-.98.09-2.15.2-3.31.31a2,2,0,0,1-.58-.2c-.37.04-.75.07-1.12.11a3.466,3.466,0,0,0-.25.29c-.47.05-.91.09-1.31.14a1.137,1.137,0,0,0-.6-.19.735.735,0,0,0-.43.31c-.24.03-.46.06-.59.08-1.55.27-2.64-2.77-2.64-2.77l15.42-2.35a2.06,2.06,0,0,0,1.72-2.36Z" fill="#d3e2f4"/>
      </g>
    </g>
  </g>
</svg>
