<svg id="Layer_1" data-name="Layer 1" xmlns="http://www.w3.org/2000/svg" xmlns:xlink="http://www.w3.org/1999/xlink" viewBox="0 0 1080 1080"><defs><style>.cls-1{fill:url(#linear-gradient);}</style><linearGradient id="linear-gradient" x1="288.3343" y1="540" x2="760.16449" y2="540" gradientUnits="userSpaceOnUse"><stop offset="0.03073" stop-color="#fed0af"/><stop offset="0.38547" stop-color="#fea094"/><stop offset="1" stop-color="#fe93c7"/></linearGradient></defs><title>IGRIK_Bar&amp;amp;Yoga_logo_ALLLL</title><path class="cls-1" d="M599.19282,446.38574H587.23037c11.6141,49.49711-9.37826,112.68365-62.98163,112.68365-53.60223,0-74.59459-63.18654-62.98049-112.68365H449.3058c-13.16121,50.4659,11.27713,114.2114,73.31387,115.31338-.00341,14.755-1.47652,26.50684-3.89,35.86916A78.22324,78.22324,0,0,0,502.76914,585.936a53.72849,53.72849,0,0,0-12.55443-4.93844,38.11294,38.11294,0,0,0-10.12392-1.15549,32.99147,32.99147,0,0,0-5.27427.61361,42.37972,42.37972,0,0,0-12.30284,3.72261,30.69012,30.69012,0,0,0-13.398,12.79464,23.9254,23.9254,0,0,0-2.673,16.33738c1.79983,9.10048,7.45433,16.05961,16.99538,20.57456a36.1551,36.1551,0,0,0,21.68338,3.06119c1.40025-.22768,2.75724-.52139,4.08121-.86975a35.06309,35.06309,0,0,0,14.84151-6.86463q1.016-.67621,2.01044-1.38659c2.18347-1.56191,9.60366-10.29354,11.893-17.69893.16051-.37681.32217-.75249.47927-1.13841,1.37634,1.497,2.35083,2.5842,2.35083,2.5842s1.8465,2.43734,1.91481,2.37132c1.91709,2.01954,2.83351,3.084,4.81321,5.03634a77.52525,77.52525,0,0,0,17.57484,13.43215,90.43792,90.43792,0,0,0,8.38215,3.83646,34.48239,34.48239,0,0,0,5.3403,1.67119,38.52834,38.52834,0,0,0,9.62529.9722c11.78031-.255,21.03448-4.48876,27.9344-12.50206a26.27014,26.27014,0,0,0,5.272-9.80061,19.94367,19.94367,0,0,0,.469-3.48924c.13091-1.16346.2311-2.32806.3438-3.49265a19.15153,19.15153,0,0,0-1.678-8.91606,28.08926,28.08926,0,0,0-10.96521-13.19308,36.7799,36.7799,0,0,0-21.1597-6.09849,40.25413,40.25413,0,0,0-17.63859,4.43754,61.75611,61.75611,0,0,0-10.54627,6.62671,6.081,6.081,0,0,1,1.2181,1.92278c1.00978-.67166,2.03207-1.33081,3.08738-1.96149a48.37515,48.37515,0,0,1,15.79891-6.45594,32.70246,32.70246,0,0,1,14.12886.099,32.14517,32.14517,0,0,1,11.72908,5.37787,30.356,30.356,0,0,1,6.8783,7.71731,8.38829,8.38829,0,0,1,.78323,1.86016,24.07008,24.07008,0,0,1,1.24315,3.56666,32.12748,32.12748,0,0,1,.31078,4.0721,19.44064,19.44064,0,0,1-2.83579,10.4939C588.691,625.875,582.2646,630.045,573.41913,631.59548a30.34593,30.34593,0,0,1-13.84881-.9392,47.865,47.865,0,0,1-13.949-6.86122,82.9497,82.9497,0,0,1-17.543-16.29753c-.55327-.68533-3.99242-4.6231-5.36877-6.04043-.42462-.43715-.86064-.86519-1.2921-1.29552,2.7618-9.94063,4.4569-22.53035,4.46031-38.46246C587.91455,560.59828,612.35517,496.85164,599.19282,446.38574ZM495.92272,630.40242a38.98625,38.98625,0,0,1-11.06311,2.96215c-.67508.07172-1.34674.1184-2.01613.15255-.25956.00683-.51343.01138-.75932.01138v.0148a30.74327,30.74327,0,0,1-14.49315-2.94849c-8.55063-4.14155-13.52095-10.33-14.50682-18.69731a18.67136,18.67136,0,0,1,2.65934-12.25617c5.06367-8.2296,13.24659-12.44742,24.222-12.86067a34.88586,34.88586,0,0,1,3.54616.156,40.44787,40.44787,0,0,1,13.02,4.19619A67.02306,67.02306,0,0,1,511.35848,601.678c1.3012,1.21241,2.99972,2.961,4.59578,4.6527C510.688,620.044,503.06285,626.986,495.92272,630.40242ZM733.17848,431.23686a232.47458,232.47458,0,0,0-54.61315-68.8843c-46.88558-40.31922-98.7745-57.49789-149.32692-58.26745-44.34806.2163-82.54072,9.36345-118.97794,29.91524a238.249,238.249,0,0,0-89.435,87.19114c-41.49291,69.38976-43.37585,156.20409-4.8929,228.79848a228.3653,228.3653,0,0,0,46.5065,61.00306c42.47309,39.41646,89.93244,59.49353,141.46162,63.9766,45.76994,3.98331,90.02579-4.5047,132.46245-27.70444,38.41237-21.00033,71.6165-51.55423,96.06964-96.94052A232.99076,232.99076,0,0,0,733.17848,431.23686Zm16.62465,157.626c-9.25254,28.60608-19.23772,63.36983-51.19234,73.02586-15.97675,5.79453-35.94824-3.8615-51.925,7.72528-41.94093,28.97036-61.9113,83.04731-115.91176,92.79555a107.349,107.349,0,0,1-20.77718.14458,240.8911,240.8911,0,0,1-43.51636-7.45775c-33.648-8.89443-66.23978-25.70881-96.51559-52.523a227.2435,227.2435,0,0,1-55.72983-74.41813c-18.79386-40.21334-22.76726-76.40011-19.295-110.43984A205.31086,205.31086,0,0,1,331.45014,419.23c9.202-13.19422,20.10521-24.978,30.2376-37.40146,30.83092-27.97425,66.76231-49.63486,112.22378-59.64266,33.8739-7.45775,70.57389-8.54266,112.73844,3.74994,44.25012,12.90051,84.35717,37.51757,118.23219,78.4356,21.9582,26.52391,35.356,53.97107,42.98147,81.8053,8.71316,31.80729,9.43682,60.46117,5.114,87.00558Q751.68139,581.14494,749.80313,588.86282Z"/></svg>