<svg id="Layer_1" data-name="Layer 1" xmlns="http://www.w3.org/2000/svg" xmlns:xlink="http://www.w3.org/1999/xlink" viewBox="0 0 1080 1080"><defs><style>.cls-1{fill:none;}.cls-2{fill:#feaead;}.cls-3{clip-path:url(#clip-path);}.cls-4{fill:url(#linear-gradient);}.cls-5{fill:#fafafa;}.cls-6{clip-path:url(#clip-path-2);}.cls-7{fill:#2f2f35;}</style><clipPath id="clip-path"><rect class="cls-1" width="1080" height="1080"/></clipPath><linearGradient id="linear-gradient" x1="-41.39719" y1="528.24172" x2="1165.76628" y2="528.24172" gradientUnits="userSpaceOnUse"><stop offset="0.03073" stop-color="#fed0af"/><stop offset="0.38547" stop-color="#fea094"/><stop offset="1" stop-color="#fe93c7"/></linearGradient><clipPath id="clip-path-2"><rect class="cls-1" x="1397.10638" width="1080" height="1080"/></clipPath></defs><title>IGRIK_Bar&amp;amp;Yoga_logo_ALLLL</title><rect class="cls-2" width="1080" height="1080"/><g class="cls-3"><rect class="cls-4" x="-41.39719" y="-83.88055" width="1207.16347" height="1224.24454"/><path class="cls-5" d="M310.52867,186.6519c26.97888,139.08758,63.41518,276.25171,109.64892,409.30732,30.31188,87.23424,68.77391,178.2225,140.55783,234.61635,64.36022,50.56175,150.83066,69.41488,221.73247,22.73477,115.54118-76.07076,83.236-212.22449,89.374-333.67112,1.78151-35.2479,3.95115-70.67083,7.64342-105.76163,4.33133-41.16352,14.14005-78.58831,44.80111-106.33424,35.16921-31.82555,81.53267-33.39341,125.22028-30.44518,60.91149,4.11062,117.0519,15.59053,174.6143-13.87364,111.99633-57.3268,145.15528-197.31246,155.07619-319.62171,2.8988-35.73909,5.05228-71.66872,4.27506-107.5634a526.83112,526.83112,0,0,0-3.80542-53.95625q-.28446-2.26368-.54463-4.47041h-80.70689c5.30888,10.34039,10.06121,21.02994,14.37894,31.63171,16.63425,40.84281,26.17875,87.67856,27.6556,135.02946,3.506,112.40171-38.449,227.70652-138.94846,272.64342-108.18622,48.36632-219.68365,5.33566-323.3939-32.90556-37.2372-13.73056-104.879-28.61278-125.653,20.45545-7.0541,16.6615-4.99893,36.00075-2.08507,54.04832,9.20744,57.02849,25.3641,112.57538,40.56773,167.98566,15.16095,55.25187,38.04154,111.41893,43.95055,168.91866,4.052,39.428-2.56941,81.05668-22.88223,114.64183-22.0559,36.45442-58.1038,61.282-98.15122,66.87742-147.8837,20.66215-219.46813-208.16-256.05038-323.91786-36.93344-116.86924-59.65145-238.25462-77.98258-359.937C371.27837,36.377,363.88963-19.74016,359.83977-76.8341q-3.38268-47.68938-4.804-95.50736c-.14906-5.09619,1.00141-28.44268,1.42391-50.04578H259.50185A3097.03726,3097.03726,0,0,0,310.52867,186.6519Z"/><path class="cls-2" d="M355.03577-172.34146q1.39764,47.80562,4.804,95.50736c4.04986,57.09394,11.4386,113.21107,19.98151,169.91834,18.33113,121.68241,41.04914,243.06779,77.98258,359.937,36.58225,115.75789,108.16668,344.58,256.05038,323.91786,40.04742-5.59546,76.09532-30.423,98.15122-66.87742,20.31282-33.58515,26.93424-75.2138,22.88223-114.64183-5.909-57.49973-28.7896-113.66679-43.95055-168.91866-15.20363-55.41028-31.36029-110.95717-40.56773-167.98566-2.91386-18.04757-4.969-37.38682,2.08507-54.04832,20.77407-49.06823,88.41584-34.186,125.653-20.45545,103.71025,38.24122,215.20768,81.27188,323.3939,32.90556,100.49944-44.9369,142.45447-160.24171,138.94846-272.64342-1.47685-47.3509-11.02135-94.18665-27.6556-135.02946-4.31773-10.60177-9.07006-21.29132-14.37894-31.63171h-60.8234a435.43537,435.43537,0,0,1,25.4625,66.76624c12.79455,43.89824,21.96343,107.43081,16.1588,165.80115-13.38487,134.55533-133.18642,175.73419-244.05291,149.45042-40.73377-9.657-73.23416-37.75906-109.06362-59.22081C876.5717,70.7445,806.80886,32.98985,749.137,54.07114c-37.99663,13.8893-63.83147,54.56369-71.37607,97.103-11.21113,63.21427,11.49515,125.0289,33.25913,182.46835q17.05221,45.00423,34.13686,89.99155c10.65545,28.20114,21.03532,56.73479,27.30261,86.52721,9.3545,44.46794,10.39493,102.20459-23.1893,137.42921a62.2103,62.2103,0,0,1-59.07983,18.2525C628.38892,652.53491,596.82,576.86424,576.07264,520.306c-26.28993-71.66822-48.05085-146.70676-66.262-221.1427-41.56635-169.89762-63.34544-346.5602-77.49212-521.55058h-75.8588C356.03718-200.78414,354.88671-177.43765,355.03577-172.34146Z"/><path class="cls-5" d="M576.07264,520.306c20.74732,56.5582,52.31628,132.22887,114.11777,145.53689a62.2103,62.2103,0,0,0,59.07983-18.2525c33.58423-35.22462,32.5438-92.96127,23.1893-137.42921-6.26729-29.79242-16.64716-58.32607-27.30261-86.52721q-17.0036-45.03121-34.13686-89.99155c-21.764-57.43945-44.47026-119.25408-33.25913-182.46835,7.5446-42.53928,33.37944-83.21367,71.37607-97.103,57.67185-21.08129,127.43469,16.67336,176.9597,46.33862,35.82946,21.46175,68.32985,49.56376,109.06362,59.22081,110.86649,26.28377,230.668-14.89509,244.05291-149.45042,5.80463-58.37034-3.36425-121.90291-16.1588-165.80115a435.43537,435.43537,0,0,0-25.4625-66.76624H1177.2055q10.50407,13.98505,20.05029,28.69928c26.66081,41.12171,45.904,96.37568,45.23142,148.4319-.6057,46.87294-17.35852,91.15329-59.38292,120.1894C1096.44636,134.799,989.047,32.03308,929.30163-28.4011,869.52632-88.86535,776.2859-206.44231,682.50222-146.93054c-133.48263,84.70518-67.14346,340.96141-18.57536,459.41312,18.3441,44.73891,95.49755,174.61526,48.87467,222.35123-7.838,8.008-19.74025,8.72511-29.79712,6.31188-49.04642-11.75841-64.9861-87.96842-80.51473-130.60437-72.46379-198.9595-101.96735-424.47357-50.26107-632.92856H432.31848c14.14668,174.99038,35.92577,351.653,77.49212,521.55058C528.02179,373.59928,549.78271,448.63782,576.07264,520.306Z"/><path class="cls-2" d="M1242.487-45.25433c-.607,46.87336-17.35729,91.14974-59.38362,120.18657-86.65856,59.86737-194.05656-42.898-253.80065-103.33133-59.77617-60.46526-153.01618-178.04116-246.79945-118.5298-133.48181,84.70522-67.14254,340.96145-18.576,459.41366,18.34318,44.73736,95.49937,174.61352,48.87248,222.3495-7.83652,8.00544-19.73975,8.72657-29.79448,6.31211C633.95945,529.38924,618.01708,453.17782,602.49,410.54,530.02566,211.58154,500.52328-13.93088,552.23-222.38724h624.97661q10.50208,13.98671,20.05007,28.69909C1223.91569-152.56556,1243.15791-97.31251,1242.487-45.25433Z"/><path class="cls-5" d="M212.584-222.38724H181.882q-5.09957,14.8674-9.21233,30.11972c-22.54179,84.29167-20.77689,174.02114-8.04829,259.99126,13.26274,89.572,38.59023,176.32922,61.4234,263.436,11.627,44.3379,23.07524,88.9732,31.22076,134.23776,6.94606,38.59909,8.66061,85.27163-8.60088,120.58885-7.38695,15.1139-18.24916,28.1482-33.66387,37.5802-14.05393,8.58344-29.87212,12.55252-45.77122,14.6683-79.89219,10.632-133.03,21.82172-185.332,92.773q-2.30867,3.12807-4.54479,6.32V858.00826c32.93412-39.7,78.276-68.25327,125.46463-83.20263,48.04716-15.22872,98.57207-18.568,148.38453-15.99791,27.89375,1.4392,56.51064,9.64518,84.44174,5.51357,38.07407-5.632,59.14326-32.98866,59.61806-73.60226.85618-73.233-54.06091-177.29411-72.01308-221.364-20.17755-49.53259-40.59822-98.99562-56.43548-150.38214-16.53392-53.60669-28.809-108.62967-39.01127-164.02019C219.69687,100.05216,211.422,44.74954,203.38947-10.536c-7.64347-52.60984-14.25069-107.45815-3.69232-160.173C203.37075-189.05015,209.629-204.33506,212.584-222.38724Z"/><path class="cls-2" d="M169.22956,638.23488c15.8991-2.11578,31.71729-6.08486,45.77122-14.6683,15.41471-9.432,26.27692-22.4663,33.66387-37.5802,17.26149-35.31722,15.54694-81.98976,8.60088-120.58885-8.14552-45.26456-19.5938-89.89986-31.22076-134.23776-22.83317-87.10681-48.16066-173.86406-61.4234-263.436-12.7286-85.97012-14.4935-175.69959,8.04829-259.99126q4.08052-15.23482,9.21233-30.11972h-50.3769c-9.20375,11.72345-14.22385,26.43557-18.00827,41.20538-29.07216,113.46292-1.8857,229.61,15.35967,342.46811,6.51166,42.61386,12.7878,89.73838,12.82235,136.164.03652,49.31579-6.95879,100.38981-30.42231,143.50659C86.82324,485.85563,45.10778,509.571,11.775,545.30948c-12.94782,13.88241-23.42778,29.7037-32.42226,46.53689V737.32785q2.23744-3.19,4.54479-6.32C36.19951,660.0566,89.33737,648.86683,169.22956,638.23488Z"/><path class="cls-5" d="M111.25653,440.95684c23.46352-43.11678,30.45883-94.1908,30.42231-143.50659-.03455-46.42562-6.31069-93.55014-12.82235-136.164C111.61112,48.42817,84.42466-67.71894,113.49682-181.18186c3.78442-14.76981,8.80452-29.48193,18.00827-41.20538H68.631c-4.09687,12.446-8.0802,24.92453-11.86087,37.48039C23.158-73.27834,13.86593,37.95368,41.83686,153.47533c12.82477,52.96721,21.84376,112.29355,10.59407,166.51256-9.89325,47.68157-39.22625,77.75947-73.07821,87.50219V591.84637c8.99448-16.83319,19.47444-32.65448,32.42226-46.53689C45.10778,509.571,86.82324,485.85563,111.25653,440.95684Z"/><path class="cls-2" d="M52.43093,319.98789c11.24969-54.219,2.2307-113.54535-10.59407-166.51256C13.86593,37.95368,23.158-73.27834,56.77016-184.90685c3.78067-12.55586,7.764-25.03435,11.86087-37.48039H-20.64728V407.49008C13.20468,397.74736,42.53768,367.66946,52.43093,319.98789Z"/><path class="cls-5" d="M1628.95594,1335.6736c-13.8783-35.72038-28.89014-71.03847-46.97856-104.52115-34.54178-63.93982-81.30957-120.81619-144.61179-151.93832-56.6787-27.86578-123.91992-32.97744-179.96046-.28092-53.19944,31.036-94.62316,89.66083-155.59353,104.10248-71.47434,16.92306-138.50128-45.93109-204.71188-64.034-68.536-18.73857-139.70784-10.32026-209.51245-6.28733-70.50788,4.07347-144.82187,4.89514-209.20884-30.98265-64.64595-35.99983-109.14688-100.21952-160.757-153.40709-52.0877-53.651-118.90086-101.90628-194.20936-89.44007-57.0561,9.44478-106.28965,46.32922-144.0593,91.44367v172.41933c71.159-84.37223,165.92246-164.56186,276.94083-115.57815,125.5745,55.40617,171.77155,224.75541,327.15121,220.00523,67.25291-2.063,131.81829-27.69485,199.10405-29.42579,30.995-.78667,61.37471,4.49323,89.95732,17.67646,28.54962,13.16566,54.47611,31.80419,81.98954,47.155,28.97116,16.173,60.30611,28.00995,93.342,22.92212,35.3834-5.45529,66.68641-26.27888,95.98088-47.17249,53.32682-38.02839,107.43054-83.68,171.57447-97.37043,62.881-13.42778,121.95644,13.81285,165.32379,62.89136,23.62705,26.75063,41.78041,58.51985,57.11594,91.40747,13.652,29.277,28.11886,60.55385,37.21083,91.87543q1.18335,4.077,2.05407,7.91566h68.33666C1639.97775,1361.03131,1633.56035,1347.52475,1628.95594,1335.6736Z"/><path class="cls-2" d="M1577.09972,1375.04945H995.55979a248.24682,248.24682,0,0,0-17.84114-24.06652,257.98174,257.98174,0,0,0-99.98118-72.52358c-44.97013-18.36139-94.16666-23.48241-141.84325-18.60338a387.37124,387.37124,0,0,0-71.78885,14.65082c-24.62787,7.36181-48.88618,16.24365-73.89286,22.13591-106.64031,25.13-149.44249-57.61726-206.71287-136.01033-24.13043-32.97565-52.84321-63.94315-89.4382-80.09547-63.66014-28.10124-150.65654-1.49707-210.26375,27.69494-36.15227,17.70416-72.10829,46.28924-104.445,79.72131v-85.20736c71.159-84.372,165.92346-164.55871,276.94075-115.57683,125.57672,55.40828,171.77009,224.75473,327.15052,220.00354,67.252-2.063,131.82043-27.69494,199.10451-29.42473,30.99479-.785,61.37347,4.49569,89.95841,17.67673,28.54852,13.16749,54.4772,31.80277,81.98963,47.15638,28.96837,16.17057,60.30547,28.00986,93.34055,22.92093,35.3855-5.45411,66.686-26.28016,95.983-47.17007,53.327-38.028,107.42995-83.68282,171.57388-97.37057,62.87967-13.42755,121.95744,13.811,165.321,62.88885,23.62837,26.75013,41.78438,58.52091,57.11973,91.4098,13.65133,29.27421,28.11493,60.552,37.20658,91.87543Q1576.2257,1371.20871,1577.09972,1375.04945Z"/><path class="cls-5" d="M877.73669,1278.45812c-44.97058-18.35848-94.16784-23.48118-141.84266-18.60307a387.34362,387.34362,0,0,0-71.78775,14.6516c-24.63083,7.36131-48.88928,16.243-73.89259,22.13536-106.64227,25.132-149.4459-57.61849-206.71552-136.01023-24.12878-32.97552-52.84056-63.94023-89.439-80.09566-63.658-28.10023-150.65589-1.49807-210.26086,27.69494-36.153,17.70686-72.10929,46.28833-104.44561,79.72141v187.097h69.432c6.586-13.66178,11.0203-28.87476,14.23307-43.37282,11.7596-53.06685,24.28491-111.1297,64.8-149.42783,46.21936-43.6904,117.89465-35.23352,161.64224,9.20721,34.39587,34.94137,51.8904,84.55191,84.52863,121.78214a355.68609,355.68609,0,0,0,70.42406,61.8113H995.56134a248.7409,248.7409,0,0,0-17.84346-24.06652A258.01687,258.01687,0,0,0,877.73669,1278.45812Z"/><path class="cls-5" d="M2489.61037,812.82015v196.75861c-12.8343-11.59748-23.90226-22.64248-30.55677-27.42575-37.275-26.805-91.91632-45.96506-130.90756-14.52746-77.777,62.70163-144.81453,142.39551-219.33267,209.8256-32.615,29.516-65.23014,60.84855-102.49154,83.47286-60.72089,36.86884-134.10248,45.96962-202.1259,32.90263-77.74044-14.93827-114.48149-56.0609-166.71306-115.38969-52.11751-59.19644-94.76446-141.13125-164.13438-177.62584-64.10285-33.72421-143.97469-37.42566-209.03134-4.58236-32.45084,16.38062-57.03315,41.06782-81.39173,68.81758-21.2779,24.23535-45.54977,51.474-77.90923,55.79161a63.85673,63.85673,0,0,1-48.53017-13.79272c-14.2217-11.45134-22.962-28.44807-34.86515-42.29561-27.95067-32.55571-71.05864-31.31427-108.53441-24.249-43.286,8.16523-85.72763,21.09986-128.968,29.70324-79.33331,15.78715-163.363,22.06736-239.862-10.6481-52.866-22.606-98.06436-63.58716-128.86294-115.16611-15.97893-26.75473-17.40293-60.39214,12.07209-76.82292,31.77066-17.6859,74.2214,12.42806,99.78038,30.794,35.71412,25.66852,71.07224,48.14213,112.37739,62.70619,54.249,19.12821,109.89,19.863,165.04721,4.58236,54.31284-15.057,105.01553-41.87566,155.29823-68.05085,91.20455-47.48494,198.79867-99.607,301.33589-63.71025,23.30437,8.16514,44.13033,21.506,65.08418,34.93366,22.072,14.16233,45.50413,29.128,71.62445,31.76613,28.03273,2.83426,53.58716-10.648,79.70748-19.2331a214.04257,214.04257,0,0,1,66.89613-10.97671c42.91628.05025,86.41225,15.43584,114.45862,51.98054,16.3897,21.34632,26.76843,46.85519,37.58545,71.75229,29.56618,68.05085,78.11461,138.02771,146.412,166.10152,49.37435,20.30113,103.2673,14.68728,151.42778-6.88724,103.43179-46.31653,164.48112-152.02581,232.57765-241.75607,30.58868-40.301,65.39-79.83541,109.7759-102.14466,42.008-21.10442,90.12276-23.35909,133.60056-5.80555A166.76379,166.76379,0,0,1,2489.61037,812.82015Z"/><path class="cls-5" d="M1471.74526-53.98459c-1.57069,77.3859-17.97495,154.946-49.52068,224.60352-27.80525,61.4046-69.13167,119.26029-126.00494,151.69368-32.06406,18.28851-67.7717,26.244-103.91617,25.89436a300.76867,300.76867,0,0,1-58.9786-6.80161c-39.575-8.368-82.27278-28.37641-122.83444-16.11622-42.56466,12.86594-55.7609,58.21758-60.98251,100.7392-9.58676,77.98088,8.4535,158.129-8.696,235.25194-7.41676,33.35379-29.13806,62.34827-33.68012,96.09454-6.06661,45.07313,28.75746,68.20064,66.65834,60.843,17.7462-3.44508,35.03854-10.99716,51.87771-17.79741,48.00868-19.4167,88.34473-48.08252,107.30156-100.729,6.39614-17.76332,10.83308-36.22622,16.16081-54.35648a465.73523,465.73523,0,0,1,16.08076-46.24634c25.91982-62.86553,70.27219-117.52424,138.3109-120.6936,85.26606-3.97187,169.72373,24.77359,255.13611,25.03717,75.47779.23277,183.41663-7.045,238.234-71.76525,46.56031-54.97159,43.30436-139.0816,44.20381-208.52391,1.08822-84.00842,60.17444-141.74166,121.1213-183.74215,78.7843-54.293,170.09671-100.59684,265.20681-102.57227,88.253-1.833,178.9784,20.30086,262.18641,57.94984V-59.45408c-7.888-3.26735-15.5719-6.71375-22.9108-9.74176-145.77764-60.18078-311.83018-73.7836-457.88286-7.23831C1944.41445-47.0959,1885.437-3.10642,1839.5274,54.0134c-26.131,32.51181-43.42673,70.62094-53.74923,112.0291-9.8806,39.63478-8.95906,83.76976-22.429,121.96575-23.31906,66.16067-79.15559,111.56731-143.67282,120.64166-79.81578,11.22588-160.66931-9.58512-241.17327-.48991-67.73369,7.65245-137.98015,30.89616-195.06222,73.92522-27.35542,20.62094-56.06337,50.57612-74.38656,80.89063-18.41027,30.45851-19.62565,71.42747-44.68418,97.5367-32.65453,33.99679-31.64568-57.73843-31.96457-68.87663-1.63642-57.158-21.08156-171.65265,42.36228-199.85822,29.99115-13.35827,64.11153-5.50778,95.204-2.25554,74.86446,7.8504,154.52224-.59461,217.77576-48.16933,57.26148-43.06361,94.60467-110.43062,121.29222-178.63683,46.03941-117.61333,74.31645-261.693,33.8129-385.10324h-91.75229A593.95665,593.95665,0,0,1,1471.74526-53.98459Z"/><path class="cls-2" d="M1509.03988,162.716c-26.68755,68.20621-64.03074,135.57322-121.29222,178.63683-63.25352,47.57472-142.9113,56.01973-217.77576,48.16933-31.09251-3.25224-65.21289-11.10273-95.204,2.25554-63.44384,28.20557-43.9987,142.70025-42.36228,199.85822.31889,11.1382-.69,102.87342,31.96457,68.87663,25.05853-26.10923,26.27391-67.07819,44.68418-97.5367,18.32319-30.31451,47.03114-60.26969,74.38656-80.89063,57.08207-43.02906,127.32853-66.27277,195.06222-73.92522,80.504-9.09521,161.35749,11.71579,241.17327.48991,64.51723-9.07435,120.35376-54.481,143.67282-120.64166,13.46991-38.196,12.54837-82.331,22.429-121.96575,10.3225-41.40816,27.61818-79.51729,53.74923-112.0291C1885.437-3.10642,1944.41445-47.0959,2008.81671-76.43415c146.05268-66.54529,312.10522-52.94247,457.88286,7.23831,7.3389,3.028,15.0228,6.47441,22.9108,9.74176V-130.742c-219.51094-76.095-530.79293-71.22167-712.45607,106.24186-65.24868,63.74028-66.77934,133.22216-66.116,221.93462.37955,50.75034-11.03226,100.16809-53.39067,127.61087-32.91947,21.32756-84.31357,31.62377-112.68793-3.61473-33.96009-42.17835,3.73522-93.96625,25.51033-129.844,20.196-33.27607,33.07269-71.37534,41.09753-110.04153,12.62642-60.8376,16.26542-125.77527,17.24255-188.01711.61876-39.41757-3.3276-78.33318-12.57068-115.91521h-73.38661C1583.35633-98.977,1555.07929,45.10267,1509.03988,162.716Z"/><path class="cls-2" d="M2489.61037,848.04144V928.219a143.73666,143.73666,0,0,0-30.28735-19.04145c-47.93688-22.08109-95.76861-5.235-137.0602,22.61519-58.08267,39.17818-104.16187,93.30851-149.97183,146.32511-83.651,96.81383-209.61565,224.1661-353.1886,177.845-54.22618-17.49426-97.32967-59.39736-130.98538-105.37154-51.2868-70.059-78.64409-152.5735-165.257-185.508-69.13249-26.28929-148.3471-23.36361-220.03554-10.34692-62.19962,11.29616-113.63252,51.12268-173.75547,68.384-70.09552,20.12319-126.95053-26.344-194.74574-14.98843-44.54115,7.45766-85.075,18.57586-128.49781,30.77115-49.48407,13.90227-101.21363,20.62976-152.57351,15.518-85.07947-8.46641-169.835-42.5831-206.15144-119.99027-3.06256-6.52672-5.59559-14.80148-1.11825-20.4518a10.77718,10.77718,0,0,1,2.00364-1.95344c6.33042-4.7102,16.68185-1.0999,24.13494,3.1219,83.08958,47.06956,154.67761,99.68,254.12941,99.77585,126.22944.11866,231.09888-82.50537,349.22709-116.9095,65.58162-19.10083,124.60006-14.08949,190.15425,1.13185,58.96363,13.68775,124.59094,35.96975,185.06076,18.08294,78.75363-23.2951,148.40639-25.14357,194.74118,55.01115,42.52386,73.55968,57.63095,174.59531,148.18745,205.403,99.67087,33.90674,216.91821,14.29939,298.33266-53.06685,80.917-66.95085,122.48223-170.22285,194.23452-246.90894,32.86156-35.12535,72.78857-47.97326,120.967-44.03448C2427.502,835.2939,2459.88441,839.219,2489.61037,848.04144Z"/></g><g class="cls-6"><path class="cls-5" d="M732.539,347.86009V206.01859c9.25214,8.36052,17.23093,16.32276,22.0281,19.771,26.87121,19.32347,66.26165,33.13579,94.37008,10.47271,56.06874-45.201,104.39548-102.65163,158.11493-151.26137,23.5119-21.27783,47.02382-43.86517,73.88522-60.17483C1124.71047-1.75233,1177.61059-8.313,1226.64806,1.10687c56.04238,10.76886,82.52866,40.41379,120.18193,83.18339,37.571,42.67417,68.31484,101.74024,118.323,128.04885,46.21116,24.31148,103.79,26.97982,150.6888,3.30338,23.39351-11.80864,41.11468-29.60541,58.67456-49.61,15.33905-17.47105,32.83641-37.10716,56.16405-40.21967a46.03371,46.03371,0,0,1,34.985,9.94305c10.25229,8.25516,16.5531,20.50795,25.134,30.49051,20.14938,23.46912,51.22553,22.57418,78.24147,17.48092,31.2045-5.88624,61.80027-15.2107,92.97183-21.4128,57.19067-11.38081,117.76688-15.90815,172.91432,7.67612,38.11064,16.29647,70.69371,45.83941,92.89612,83.0222,11.51907,19.28725,12.54562,43.53615-8.70266,55.38095-22.90317,12.74961-53.50553-8.95927-71.93077-22.19912-25.746-18.50421-51.23533-34.70523-81.01184-45.20433-39.10761-13.78935-79.21867-14.319-118.981-3.30338-39.15364,10.85444-75.70474,30.18778-111.95308,49.05724-65.74854,34.23147-143.31216,71.8058-217.23032,45.92814-16.7999-5.88618-31.81315-15.50346-46.9186-25.18336-15.91148-10.20949-32.80351-20.99813-51.63341-22.89991-20.20855-2.0432-38.6305,7.676-57.4604,13.865a154.30132,154.30132,0,0,1-48.22482,7.913c-30.93795-.03623-62.2938-11.12757-82.51218-37.47231-11.81519-15.38836-19.29712-33.77748-27.095-51.72557-21.314-49.05724-56.31211-99.50292-105.54706-119.74108-35.59352-14.6349-74.44446-10.58793-109.16291,4.965-74.563,33.38917-118.57295,109.594-167.66313,174.27976-22.0511,29.05265-47.139,57.55262-79.13645,73.63516a116.3093,116.3093,0,0,1-96.31143,4.18516A120.21867,120.21867,0,0,1,732.539,347.86009Z"/><path class="cls-5" d="M732.539,23.53355c7.69363-6.10942,17.80737-8.89318,29.46644-6.65273,16.9228,3.25205,30.43166,14.56989,47.8366,16.30472a106.83714,106.83714,0,0,0,28.82317-1.475c19.99773-3.45352,39.37645-10.19663,59.43525-13.28506,9.38-1.438,30.646-2.296,25.58467,15.24755-3.04536,10.53154-22.4964,13.52429-30.53721,17.95253a119.91278,119.91278,0,0,0-21.247,14.89836c-15.39208,13.52959-24.66975,30.61136-34.512,48.87025-26.2511,48.69831-78.1553,25.82245-104.85-11.30757v77.50881a31.81449,31.81449,0,0,0,5.21583,2.61418,3.0393,3.0393,0,0,0,1.15575.75636,194.63073,194.63073,0,0,0,47.80512,10.32277c24.21718,2.10617,47.39587-1.64159,64.64723-21.69589,11.51222-13.38258,18.40468-30.15764,26.784-45.8a160.32182,160.32182,0,0,1,24.37525-33.75426c9.59629-10.2723,20.07953-19.49874,30.62094-28.599,16.3176-14.08675,37.99562-29.06769,48.99779-48.5384,11.19863-19.81925,8.04772-40.691-11.40605-50.22794-13.40268-6.56728-28.24033-7.73965-42.70461-5.685C877.41091-31.82115,837.139,8.041,785.07587-14.21984c-18.80954-8.04249-37.2767-12.49873-52.53688-8.6063Z"/><path class="cls-2" d="M837.389,115.3942c9.84224-18.25889,19.11991-35.34066,34.512-48.87025a119.91278,119.91278,0,0,1,21.247-14.89836c8.04081-4.42824,27.49185-7.421,30.53721-17.95253,5.06132-17.54357-16.20464-16.68557-25.58467-15.24755-20.0588,3.08843-39.43752,9.83154-59.43525,13.28506a106.83714,106.83714,0,0,1-28.82317,1.475c-17.40494-1.73483-30.9138-13.05267-47.8366-16.30472-11.65907-2.24045-21.77281.54331-29.46644,6.65273v80.55308C759.23365,141.21665,811.13785,164.09251,837.389,115.3942Z"/><path class="cls-5" d="M1466.30873,972.73178c1.1323-55.7868,12.958-111.69915,35.699-161.91465,20.04456-44.266,49.8364-85.97366,90.83582-109.3546,23.1147-13.184,48.856-18.919,74.91223-18.667a216.82152,216.82152,0,0,1,42.51713,4.90322c28.52925,6.03243,59.30971,20.4563,88.55024,11.618,30.68447-9.27494,40.19753-41.96852,43.96174-72.622,6.911-56.21571-6.09405-113.99375,6.26886-169.591,5.34667-24.04445,21.00537-44.94631,24.2797-69.27368,4.37336-32.49282-20.731-49.16522-48.0534-43.86116-12.79307,2.48353-25.259,7.92776-37.39817,12.83-34.609,13.99733-63.68692,34.66226-77.35272,72.61464-4.61092,12.80541-7.80948,26.11515-11.65019,39.18509a335.74327,335.74327,0,0,1-11.59247,33.33857c-18.68536,45.31919-50.65859,84.72216-99.70708,87.00692-61.46753,2.86329-122.35229-17.85906-183.9253-18.04907-54.41126-.1678-132.22339,5.07866-171.74077,51.73492-33.5649,39.62852-31.21772,100.26267-31.86612,150.323-.78449,60.56091-43.37921,102.18027-87.31525,132.458-56.79489,39.13932-122.62117,72.51935-191.18518,73.94342C857.926,980.67589,792.5229,964.71979,732.539,937.579v39.0957c5.68639,2.35541,11.22565,4.83988,16.51619,7.02275,105.08979,43.38378,224.79556,53.18992,330.08361,5.218,46.427-21.14968,88.94332-52.8613,122.03913-94.03846,18.83764-23.43746,31.30594-50.91,38.74733-80.76076,7.12284-28.57235,6.45851-60.38886,16.16884-87.924,16.8105-47.69463,57.06255-80.42786,103.57244-86.96948,57.53847-8.09263,115.82505,6.90983,173.85963.35318,48.8286-5.51659,99.46863-22.27277,140.61858-53.292,19.72028-14.86546,40.41557-36.45987,53.6246-58.31333,13.2718-21.95726,14.148-51.49141,32.21242-70.31332,23.54035-24.508,22.81308,41.62311,23.043,49.65254,1.17968,41.20466,15.1975,123.74284-30.53859,144.076-21.62034,9.62986-46.21742,3.97051-68.63172,1.626-53.96912-5.65928-111.39369.42865-156.99258,34.72483-41.27928,31.04417-68.19965,79.60843-87.43846,128.77767-33.18939,84.78639-53.57406,188.65214-24.37541,277.61744h66.14339A428.178,428.178,0,0,1,1466.30873,972.73178Z"/><path class="cls-2" d="M1439.42338,816.51428c19.23881-49.16924,46.15918-97.7335,87.43846-128.77767,45.59889-34.29618,103.02346-40.38411,156.99258-34.72483,22.4143,2.34451,47.01138,8.00386,68.63172-1.626,45.73609-20.33314,31.71827-102.87132,30.53859-144.076-.22989-8.02943.49738-74.16052-23.043-49.65254-18.06447,18.82191-18.94062,48.35606-32.21242,70.31332-13.209,21.85346-33.90432,43.44787-53.6246,58.31333-41.14995,31.01925-91.79,47.77543-140.61858,53.292-58.03458,6.55665-116.32116-8.44581-173.85963-.35318-46.50989,6.54162-86.76194,39.27485-103.57244,86.96948-9.71033,27.53515-9.046,59.35166-16.16884,87.924-7.44139,29.85077-19.90969,57.3233-38.74733,80.76076-33.09581,41.17716-75.61213,72.88878-122.03913,94.03846-105.288,47.97189-224.99382,38.16575-330.08361-5.218-5.29054-2.18287-10.8298-4.66734-16.51619-7.02275v51.39083c158.24345,54.85622,382.64382,51.34306,513.60314-76.58879,47.03717-45.9498,48.14061-96.03865,47.66245-159.99066-.27362-36.58546,7.95305-72.21027,38.48885-91.99352,23.73135-15.37484,60.78089-22.79729,81.2357,2.60583,24.48152,30.406-2.69268,67.73941-18.39016,93.60335-14.55914,23.98842-23.84181,51.45384-29.62684,79.32794-9.10227,43.85728-11.72559,90.67026-12.43,135.53983a327.939,327.939,0,0,0,9.0621,83.56223H1415.048C1385.84932,1005.16642,1406.234,901.30067,1439.42338,816.51428Z"/><path class="cls-5" d="M1353.08213,1010.56949c.70441-44.86957,3.32773-91.68255,12.43-135.53983,5.785-27.8741,15.0677-55.33952,29.62684-79.32794,15.69748-25.86394,42.87168-63.19736,18.39016-93.60335-20.45481-25.40312-57.50435-17.98067-81.2357-2.60583-30.5358,19.78325-38.76247,55.40806-38.48885,91.99352.47816,63.952-.62528,114.04086-47.66245,159.99066-130.95932,127.93185-355.35969,131.445-513.60314,76.58879v66.06621h385.63407c10.89886-5.96113,21.81539-11.88488,32.4765-18.43041,24.29414-14.91569,44.86928-35.76231,66.25763-54.92259,18.08579-16.20177,38.97291-42.17176,64.1587-45.83262,35.93192-5.22287,31.49486,35.06139,29.57261,61.72407-1.48734,20.63206-1.7981,38.7364-.17494,57.46155h51.68067A327.939,327.939,0,0,1,1353.08213,1010.56949Z"/><path class="cls-5" d="M1033.25869,894.82c45.40167-17.50727,87.47377-48.41232,115.25976-91.432a197.90929,197.90929,0,0,0,28.24981-71.54259c5.21826-28.28274,5.67563-57.22024,9.07108-85.7695,4.73469-39.79852,17.01709-74.75055,48.985-97.21947,44.57263-31.33279,93.2185-29.01976,143.94062-24.56477,74.89592,6.57818,188.30124,31.465,248.18673-26.53123,16.42278-15.8995,27.93195-38.45394,28.636-62.25873,3.03036-102.22061-200.83511-64.4587-250.12263-69.45658-38.035-3.85614-75.37243-16.01351-99.51605-50.087-37.88687-53.47927-38.22586-124.26184-89.619-169.63068-50.80773-44.86879-122.949-18.07325-167.01169,23.173-43.76653,40.97313-75.05657,97.46624-98.302,154.13373-18.18828,44.34232-47.06991,73.40159-86.91453,95.20918a241.52584,241.52584,0,0,1-99.80891,28.84206c-10.053.67137-20.82352-.58833-31.75387-2.148v24.231q1.54422.50444,3.091,1.00529c45.85234,14.80748,96.92967,13.54815,140.80705-7.90265C963.3116,420.39984,970.3814,324.66442,1024.64449,251.598c24.07133-32.40491,58.42746-57.6131,97.73308-60.18527,62.7822-4.10827,73.71722,48.48007,87.36329,102.07351,6.5478,25.71594,14.74476,53.14616,36.02325,68.89428,28.43423,21.0441,67.46288,23.36383,100.41853,29.52826a581.17166,581.17166,0,0,0,135.41641,9.19245c43.16719-2.12887,82.95558-6.50694,124.4201,10.88087,26.805,11.24048,29.34434,38.99636,3.8215,54.89416-80.81124,50.33614-179.18367,50.15581-268.60782,35.52139-48.08534-7.865-96.05415-16.46124-144.20947-23.73362-35.82759-5.41991-90.13536-19.34768-109.56083,25.57378-16.65886,38.51873,2.43969,80.41532,18.65513,114.67357,9.51433,20.09145,19.07558,40.7371,22.49593,63.2232a136.47238,136.47238,0,0,1-3.53731,56.36623c-10.44824,38.22886-35.349,71.35291-66.08687,92.94384-34.89356,24.49-76.80322,34.83838-117.8494,38.01466a448.97869,448.97869,0,0,1-125.64758-8.0669c-28.79586-6.02617-57.086-15.76878-82.95344-30.58314V884.8c35.114,13.13841,74.05378,19.40052,108.04105,23.7402C902.19267,916.4071,974.16305,917.59487,1033.25869,894.82Z"/><path class="cls-2" d="M941.14,869.45935c41.04618-3.17628,82.95584-13.52466,117.8494-38.01466,30.73787-21.59093,55.63863-54.715,66.08687-92.94384a136.47238,136.47238,0,0,0,3.53731-56.36623c-3.42035-22.4861-12.9816-43.13175-22.49593-63.2232-16.21544-34.25825-35.314-76.15484-18.65513-114.67357,19.42547-44.92146,73.73324-30.99369,109.56083-25.57378,48.15532,7.27238,96.12413,15.86858,144.20947,23.73362,89.42415,14.63442,187.79658,14.81475,268.60782-35.52139,25.52284-15.8978,22.98351-43.65368-3.8215-54.89416-41.46452-17.38781-81.25291-13.00974-124.4201-10.88087a581.17166,581.17166,0,0,1-135.41641-9.19245c-32.95565-6.16443-71.9843-8.48416-100.41853-29.52826-21.27849-15.74812-29.47545-43.17834-36.02325-68.89428-13.64607-53.59344-24.58109-106.18178-87.36329-102.07351-39.30562,2.57217-73.66175,27.78036-97.73308,60.18527C970.3814,324.66442,963.3116,420.39984,876.437,462.87111c-43.87738,21.4508-94.95471,22.71013-140.807,7.90265q-1.54683-.4995-3.091-1.00529v35.38011a153.74065,153.74065,0,0,0,13.255,10.804c32.72745,22.80815,69.97845,34.36281,108.81784,29.71557,32.03357-3.81909,64.90732-14.53258,87.9294-39.99373,32.2906-35.71181,53.96431-80.02876,74.84886-124.04534,19.00265-40.05053,38.28127-95.21666,72.12637-123.50848,34.64324-28.95909,60.23373-3.84759,68.59744,34.41585,9.56333,43.75248,39.99146,87.63164,79.4555,103.79413,42.30538,17.32614,88.12524,20.00971,132.65016,25.589,38.86933,4.87061,81.28.52962,120.03259,12.75461,19.72334,6.22194,56.95466,26.122,21.51127,38.07964-31.47607,10.619-64.54329,2.42131-96.30117-1.75395-57.43138-7.55063-115.26272-9.78374-172.63606-18.00561-45.44024-6.51184-97.73163-30.33736-142.82567-11.12233a87.90859,87.90859,0,0,0-28.85821,20.62068c-18.305,19.272-28.8582,44.97193-33.18961,71.9074-5.043,31.42234-1.529,63.12228,3.21036,94.29262,8.08773,53.29808,14.13285,107.86621-25.64941,149.046-70.209,72.67561-177.57351,10.33972-236.74785-46.48544-14.08146-13.52235-30.266-27.68435-46.22683-42.84655V830.80931c25.86743,14.81436,54.15758,24.557,82.95344,30.58314A448.97869,448.97869,0,0,0,941.14,869.45935Z"/><path class="cls-5" d="M1015.51367,777.73872c39.78226-41.17982,33.73714-95.74795,25.64941-149.046-4.73933-31.17034-8.25335-62.87028-3.21036-94.29262,4.33141-26.93547,14.88456-52.63542,33.18961-71.9074a87.90859,87.90859,0,0,1,28.85821-20.62068c45.094-19.215,97.38543,4.61049,142.82567,11.12233,57.37334,8.22187,115.20468,10.455,172.63606,18.00561,31.75788,4.17526,64.8251,12.373,96.30117,1.75395,35.44339-11.95765-1.78793-31.8577-21.51127-38.07964-38.75263-12.225-81.16326-7.884-120.03259-12.75461-44.52492-5.5793-90.34478-8.26287-132.65016-25.589-39.464-16.16249-69.89217-60.04165-79.4555-103.79413-8.36371-38.26344-33.9542-63.37494-68.59744-34.41585-33.8451,28.29182-53.12372,83.458-72.12637,123.50848-20.88455,44.01658-42.55826,88.33353-74.84886,124.04534-23.02208,25.46115-55.89583,36.17464-87.9294,39.99373-38.83939,4.64724-76.09039-6.90742-108.81784-29.71557a153.74065,153.74065,0,0,1-13.255-10.804v26.42749c21.648,5.78253,38.28384,26.35978,57.55687,37.12729,45.02656,25.15543,89.45386,29.70258,139.23857,26.22886,65.62673-4.57916,69.35732,77.94164,30.13251,118.2614-28.45607,29.24892-71.82353,20.35746-102.95213,1.93886-11.54552-6.83139-22.414-14.88539-33.20087-23.028-29.18065-22.02754-58.19662-44.31037-87.23329-66.56625q-1.798-1.37814-3.54166-2.65475v65.52322c15.9608,15.1622,32.14537,29.3242,46.22683,42.84655C837.94016,788.07844,945.30467,850.41433,1015.51367,777.73872Z"/><path class="cls-2" d="M823.31394,692.10451c10.78686,8.14258,21.65535,16.19658,33.20087,23.028,31.1286,18.4186,74.49606,27.31006,102.95213-1.93886,39.22481-40.31976,35.49422-122.84056-30.13251-118.2614-49.78471,3.47372-94.212-1.07343-139.23857-26.22886-19.273-10.76751-35.90889-31.34476-57.55687-37.12729v91.30744q1.74351,1.28116,3.54166,2.65475C765.11732,647.79414,794.13329,670.077,823.31394,692.10451Z"/><path class="cls-2" d="M732.539,322.46938V264.67009a103.6187,103.6187,0,0,0,21.83388,13.7268c34.55727,15.91806,69.03873,3.77389,98.80546-16.30308,41.87127-28.2432,75.08935-67.26526,108.11334-105.48445,60.30328-69.79221,151.11-161.59931,254.61046-128.20684,39.09115,12.61145,70.16407,42.819,94.42617,75.96138,36.97219,50.5049,56.69381,109.98886,119.13229,133.73107,49.837,18.95171,106.94208,16.84261,158.62162,7.459,44.83915-8.1433,81.91666-36.85387,125.25875-49.29742,50.53122-14.50662,91.51748,18.99112,140.39044,10.805,32.10931-5.37616,61.32977-13.39117,92.6329-22.18264,35.67262-10.022,72.964-14.87181,109.98886-11.18676,61.333,6.10336,122.43248,30.69777,148.61271,86.4999,2.20777,4.705,4.03381,10.67026.80614,14.74352a7.76924,7.76924,0,0,1-1.44441,1.40821c-4.56354,3.39555-12.02579.79291-17.39866-2.25054-59.89852-33.932-111.50568-71.85841-183.19958-71.92751-90.99767-.08554-166.5971,59.47738-251.75465,84.279-47.2772,13.76961-89.82306,10.157-137.08048-.81594-42.50634-9.86738-89.81647-25.93027-133.40862-13.03583-56.77278,16.79323-106.98482,18.12577-140.38716-39.657-30.65506-53.0285-41.54563-125.86418-106.827-148.07318-71.85183-24.44305-156.37438-10.30829-215.06532,38.25541-58.33234,48.26427-88.29633,122.71212-140.0219,177.99442-23.6896,25.32155-52.47263,34.58349-87.204,31.74406C777.31236,331.659,753.96817,328.82941,732.539,322.46938Z"/></g><path class="cls-7" d="M324.71218,447.49019H442.92445v13.19338c-20.05415-6.33261-37.73264-10.55471-105.01889-10.55471l.00425,168.87316H324.71218Z"/><path class="cls-7" d="M337.90314,449.18785H324.71252v170.1123c-.00141.149-.00565.2614-.00707.42864-.00565,3.1045,3.07334,2.69835,2.932,11.01683-.03533,2.094,1.72813,2.54376,1.7578.14335.07065-5.786,2.73421-8.44075,4.86506-8.44075s3.63713-1.68366,3.63855-2.7124h.00424Z"/><path class="cls-7" d="M779.68579,447.49019h13.19232v73.88187l25.3315-18.20665a478.36725,478.36725,0,0,0,63.59125-55.67522h17.94257l-84.70065,60.95257L915.57549,619.002H897.63292L804.22505,516.35879l-11.34694,8.18011V619.002H779.68579Z"/><path class="cls-7" d="M745.855,447.49H732.66267V572.29789c0,18.88263-11.08027,31.47792-26.31565,38.14822-3.04708,1.33406-6.2586,2.42044-9.41225,2.26951-17.09561-3.96312-16.25164-25.90647-30.59921-33.50225-2.53193-.844-5.90783.844-8.43975,1.688-10.1277,5.90783-23.63131,22.78733-33.77412,9.8076a29.41148,29.41148,0,0,1-3.6468-8.44181,38.55012,38.55012,0,0,1-1.27423-9.96922V552.50782c0-51.45312,4.22209-79.68632,10.5547-105.01782H616.562V572.29789a44.14163,44.14163,0,0,0,.94221,9.19786,40.05347,40.05347,0,0,0,2.69631,8.22668c2.24835,5.52647,5.62425,10.59032,13.22,9.74634,13.5036-2.53192,21.09938-21.94335,33.759-15.19155,14.34758,7.59578,14.34758,34.603,33.45567,34.29886a82.09666,82.09666,0,0,0,9.08912-2.44906,61.33453,61.33453,0,0,0,22.93835-13.18739v16.1306H745.855V447.49Z"/><path class="cls-7" d="M293.71752,447.49H280.5252V572.29789c0,60.42442-113.462,56.4664-113.462,0V552.50782c0-51.45312,4.22209-79.68632,10.5547-105.01782H164.42451V572.29789c0,51.64509,83.18246,61.85193,116.10069,30.64174v16.1306h13.19232V447.49Z"/><path class="cls-7" d="M460.33455,447.49021h32.46782a72.29946,72.29946,0,0,1,7.53938.27152c14.45264,2.8838,13.75083,21.131,25.68168,28.14913,1.40363.70182,3.50908,0,4.91271-.70181,10.52722-7.01815,21.75626-20.35263,34.47008-11.67059a69.537,69.537,0,0,1,5.586,4.40149c14.01778,12.26984,21.01028,28.62963,21.01028,44.98942,0,27.60612-19.91224,55.2131-59.89422,63.16631q-2.22122.44184-4.525.80173a170.53466,170.53466,0,0,1-19.753,1.46982s-1.31933,0-3.29833.00008H486.721a54.6128,54.6128,0,0,0-13.1932.79149v39.843H460.33455Zm13.19321,2.63913V576.25625c4.22211-.26464,8.70766-.52807,13.1932-.52807h10.55468c12.606-.1596,25.23872-.1596,37.20993-4.019a68.6628,68.6628,0,0,0,7.46367-2.93839c23.69369-10.98535,35.54054-33.41369,35.54054-55.8414a61.77668,61.77668,0,0,0-12.7946-37.89973,43.49039,43.49039,0,0,0-4.65288-5.1638c-10.15716-7.99128-19.98257,2.536-28.40435,8.15047-4.21089,2.10544-7.72,0-10.52722-2.80726-7.01815-8.42178-9.1236-23.86171-22.25152-24.78336a71.90548,71.90548,0,0,0-8.18017-.29635Z"/></svg>