<svg id="Layer_1" data-name="Layer 1" xmlns="http://www.w3.org/2000/svg" viewBox="0 0 1080 1080"><defs><style>.cls-1{fill:#2f2f35;}</style></defs><title>IGRIK_Bar&amp;amp;Yoga_logo_ALLLL</title><path class="cls-1" d="M250.35833,406.52767H237.27769V576.13879c-.00141.14853-.00561.26063-.007.42738-.00561,3.09535,3.04771,2.69039,2.90759,10.98437-.035,2.08786,1.71372,2.53626,1.74315.14293.07006-5.76893,2.71141-8.41589,4.82449-8.41589s3.60681-1.67869,3.60821-2.70441h.0042Z"/><path class="cls-1" d="M410.98319,453.35665V562.18418c-11.77148,8.372-26.68377,13.34346-44.47294,13.34346-.91743,0-1.82487-.01682-2.726-.04258-.28548-.00841-.56676-.02156-.85013-.0326q-.93374-.03549-1.85589-.0878-.47318-.02839-.94319-.061-.89351-.06229-1.77492-.142c-.29337-.02628-.58779-.05047-.87958-.07991q-1.04492-.1041-2.07407-.23448c-.1572-.01946-.3165-.03523-.47317-.05573-1.81751-.25867-3.59979-.56571-5.32717-.96316-16.75526-7.4509.47242-27.90877-10.29488-39.7528-9.69057-12.92076-26.91825-7.53711-40.91574-10.7673-3.23019,0-4.30692-2.15346-5.49009-4.73664a65.73933,65.73933,0,0,1-2.43292-7.91862q-.44793-2.24048-.78178-4.51879c-.02051-.13933-.04154-.27865-.06152-.4185-.08674-.60671-.16613-1.215-.24184-1.82434-.021-.16666-.04364-.3328-.06361-.49946q-.1317-1.108-.23922-2.2197c-.02155-.22713-.0389-.45425-.05941-.68137-.04-.45057-.08044-.90061-.11461-1.3517-.021-.27234-.03733-.54572-.05573-.81859-.02786-.41008-.05573-.82016-.07834-1.23024-.01629-.28759-.02839-.57517-.04206-.86276-.0184-.39483-.0368-.78967-.051-1.185-.01052-.29862-.01788-.59777-.02577-.89692-.01051-.38485-.02-.7697-.02576-1.15454-.00473-.30441-.00683-.60935-.00893-.91375q-.00395-.57018-.00158-1.13982.00237-.45977.00894-.919.00787-.57175.02208-1.1435.011-.45425.02628-.909c.01262-.38327.02892-.76654.04627-1.14981q.01971-.45267.04364-.90481c.0205-.3859.04521-.7718.07045-1.1577.01945-.29705.03838-.59357.06046-.89061.02944-.39432.06309-.7881.09674-1.18188.02471-.28654.04784-.57307.07518-.85908.0389-.41323.08307-.82542.12723-1.2376.02892-.26656.0552-.53364.0857-.79966.052-.45372.11093-.90692.16929-1.35959.02891-.224.05467-.44793.08517-.6719q.27444-2.02438.63247-4.03353c.04-.22607.08465-.45057.12671-.67611.082-.44373.164-.88746.25235-1.32962.05258-.2655.11041-.53.16562-.79493.08306-.40009.16613-.80018.25393-1.1987.06257-.28075.12828-.55992.19295-.84014.08833-.38275.17665-.76549.26971-1.14718.0694-.28654.14248-.57149.215-.8575q.14037-.556.28653-1.1109.11671-.43768.23816-.87327.15063-.54494.307-1.08829.12538-.43374.25551-.86644.16246-.54334.33228-1.08461.13405-.4298.27233-.858.17428-.53863.35593-1.07463c.09516-.28285.19085-.5657.28917-.8475.12512-.35961.25393-.71765.38326-1.07515.10042-.27707.19979-.55414.30284-.82963.13564-.36382.276-.72553.41586-1.08725.103-.2655.20452-.53153.31019-.79545.14984-.37539.30441-.74814.459-1.1209.103-.24762.20346-.49683.30861-.7434.1735-.408.3533-.81281.53311-1.21763.092-.2082.18138-.418.27549-.62512q.39984-.88325.81912-1.75547c.01892-.04.03785-.07991.0573-.11987q.42192-.87458.8638-1.73917c.09937-.19505.20347-.387.30441-.581.20662-.39746.41377-.79545.62722-1.18924.12618-.23343.25709-.46476.3859-.69714.19452-.3512.38852-.7024.58778-1.05044.1409-.24552.28548-.48842.429-.73289.19348-.33017.38748-.66034.58621-.98788.15141-.25026.30651-.49841.46108-.74709q.29494-.47632.5962-.949.23973-.3738.48421-.74393.30519-.46528.6167-.92637.24921-.36907.50367-.73394.31545-.45582.6372-.90586.26025-.36356.52365-.72448.32727-.44715.66191-.888c.17823-.23659.357-.47317.53837-.70766.22817-.29494.46-.58778.69293-.87957.18138-.22765.36224-.45582.54625-.68084.24185-.29652.4879-.58884.73395-.88115.18243-.21609.36276-.43375.5473-.64773.26024-.30177.52522-.5983.78967-.89587.17718-.19926.35225-.40009.53206-.59725.29652-.32649.59935-.64719.90218-.9679.15352-.16245.30441-.32806.4595-.48947q1.38246-1.43764,2.84692-2.80118c.16246-.15141.32912-.2981.49315-.44793.32912-.30073.65824-.60146.99367-.89588.19873-.17507.40219-.34541.60355-.51838.306-.2634.612-.5268.92321-.78494.21977-.18244.44374-.36067.6656-.54047.29968-.2429.59988-.48527.90429-.72343.23185-.18138.46686-.35961.70134-.53837.30231-.23027.60461-.4595.91112-.685.24132-.17771.48527-.35278.72921-.52785q.46056-.32966.92637-.65351.373-.25866.75024-.51155.4708-.317.9474-.62669.38247-.24841.76864-.49262c.32228-.20347.64719-.40325.97421-.602.25919-.15773.51891-.31545.78073-.47.33385-.19663.67138-.38958,1.00944-.58148.26129-.14879.52206-.29757.78651-.4432.348-.19138.7003-.378,1.05308-.56466.26024-.13774.51943-.27706.78231-.41166.3717-.19032.74866-.37485,1.12562-.55939.24973-.1225.49736-.24763.74972-.3675.42112-.19978.84855-.39273,1.276-.58515.21345-.09674.42427-.19663.63983-.29127q1.93607-.85013,3.95519-1.59722c.224-.08254.45215-.15982.67822-.24026.45109-.16193.90323-.32386,1.36063-.47791.27286-.092.55046-.1777.82542-.26655.418-.13512.83594-.27076,1.25917-.399.29389-.08938.592-.173.88851-.2592.41008-.11882.82069-.23763,1.23551-.35014.31071-.08465.62511-.16456.93846-.24553.40745-.10515.8149-.20872,1.22656-.30756.32281-.07781.64772-.15142.97316-.22555q.61591-.13958,1.23814-.27128c.33016-.0694.66191-.13564.99418-.20136q.62775-.123,1.26074-.23711.50394-.08991,1.01049-.1756c.42743-.071.85749-.13775,1.28913-.20294.34016-.051.68032-.102,1.02311-.14879.43847-.06046.88062-.11514,1.3233-.16876.34174-.04154.683-.08412,1.02784-.122.45582-.04942.91637-.09253,1.37745-.13511.33648-.031.67138-.06467,1.01049-.092.48684-.03943.97842-.071,1.47051-.10252.31966-.0205.63721-.04469.95949-.062.54993-.02944,1.1067-.04889,1.66347-.06887.26918-.00946.53521-.02366.806-.031q1.246-.03312,2.51254-.03417c25.63753,0,46.82829,18.05205,57.29171,30.34822V421.43959c-14.64942-10.2037-33.74665-16.744-57.29171-16.744-1.1109,0-2.20866.01787-3.29959.04627-.33963.00841-.67558.02208-1.01311.03364q-1.14823.03864-2.28227.09674-.54651.0284-1.08882.061-1.164.071-2.31066.16508c-.29494.02366-.592.04416-.88536.07045q-1.56225.13722-3.09612.31282c-.16246.01893-.32123.04206-.48316.06151q-1.29177.15458-2.563.33648c-.32859.04732-.654.09832-.98052.14826q-1.03861.1593-2.06356.33543c-.33227.05731-.664.11461-.99366.17455q-1.12851.20661-2.23705.43532c-.225.04626-.45214.08832-.67611.13564q-1.43214.30441-2.83483.644c-.22134.05415-.439.11251-.65929.16771q-1.07409.26735-2.13138.55519c-.30914.08465-.61617.17192-.92321.25919q-.94871.26971-1.88322.55624c-.29179.08938-.58463.17771-.87485.26971q-1.12142.35489-2.22075.735c-.14038.04836-.28391.09358-.42375.14247q-1.30044.455-2.56986.94477c-.23921.09148-.47475.18769-.71238.28128q-.92032.362-1.82592.74077-.42507.17745-.8454.35961-.87065.37539-1.725.76707c-.2492.11409-.50051.22607-.74761.34173q-2.40372,1.12615-4.68756,2.37218c-.23449.12775-.46582.25919-.69872.389q-.80045.44635-1.58671.90639-.38012.22239-.756.44793-.80124.48107-1.58565.97789c-.20189.12776-.40693.25289-.60777.38222q-1.06857.68767-2.10929,1.40112c-.10989.0757-.21661.154-.32649.23027q-.8738.608-1.72708,1.23341c-.21976.1614-.43637.32491-.654.48789q-.69793.52285-1.38114,1.05833c-.21976.17192-.439.34384-.65666.51786q-.74288.59461-1.46736,1.20448c-.15089.12671-.30493.25131-.45477.37854q-.93689.79809-1.84327,1.6193c-.14405.13091-.285.265-.428.39642q-.6932.6372-1.36957,1.2865c-.19715.18979-.39168.38064-.58621.572q-.60643.5962-1.19765,1.20239c-.184.18874-.36907.37643-.55045.56623q-.70819.7405-1.39481,1.49522c-.08517.09358-.173.18559-.25762.2797q-.80676.89508-1.582,1.81172c-.14721.1735-.29074.34962-.43584.52417q-.55993.67111-1.1046,1.35117-.25551.321-.50735.64352-.52049.6648-1.02468,1.3396c-.14773.19715-.29757.39326-.4432.592q-1.41478,1.92423-2.70918,3.91892c-.132.20294-.26024.408-.3901.612q-.45345.71133-.89167,1.42951-.209.343-.41429.68767-.44241.7421-.86695,1.49207c-.10988.19348-.22239.3859-.3307.58043q-.57411,1.02915-1.11984,2.073c-.05888.11356-.11514.2287-.1735.34278q-.455.88248-.889,1.7744c-.112.22975-.22082.46108-.3307.69241q-.35251.74287-.69136,1.491c-.1083.24079-.21713.48053-.32333.72185q-.36593.83042-.71239,1.66714c-.071.17087-.1451.34016-.2145.511q-.444,1.08829-.858,2.18658c-.06519.1735-.12671.34805-.19085.52154q-.31308.84777-.60987,1.70079c-.08674.25026-.17086.50157-.255.75235q-.261.77521-.5063,1.55516c-.07676.24289-.154.48526-.2287.72921q-.2902.94871-.55887,1.90425c-.03364.1183-.06992.23659-.10252.35541q-.31386,1.13088-.59514,2.26965c-.05258.21188-.10147.42428-.15247.63615q-.20109.83436-.387,1.67188-.086.38958-.16824.77968-.17192.8115-.32754,1.62561c-.04574.23817-.09358.4758-.13722.714q-.42428,2.30672-.72868,4.63288c-.03155.24027-.05941.48053-.08886.7208q-.10093.82253-.18769,1.64716-.041.39669-.07939.79388-.08122.85172-.14615,1.70605c-.0163.21871-.03575.4369-.051.65561q-.08044,1.16874-.13354,2.338c-.00526.1246-.00736.2492-.01209.3738q-.03944.98893-.05731,1.97891c-.0042.25341-.00578.50682-.00841.76076q-.00789.81937-.00105,1.63928c.0021.26182.0042.52312.00841.78494q.01576.90217.04942,1.80436c.00683.18559.01051.37065.0184.55572q.05048,1.16952.12986,2.33694c.01262.184.02944.368.04311.55151q.067.90139.15142,1.80069c.02471.26129.05152.52206.07833.78283q.08439.81308.183,1.62509c.0305.25341.06046.50682.09306.7597q.12776.98026.27654,1.95736c.01893.12407.0347.24815.05415.3717q.1814,1.1569.39326,2.30751c.04.21713.0836.43321.12513.65034q.16009.8399.3349,1.67766.082.38958.16824.77811.17823.81228.37276,1.62193c.05573.23343.10988.46686.16771.69977q.56544,2.27989,1.25075,4.52931c.06993.23028.14406.4595.21608.68925q.24842.79177.51156,1.57935.12776.38169.25866.76181.27839.80834.57464,1.61141c.07624.20714.14984.41481.22713.62143q.41323,1.10013.85539,2.18974c.00736.01787.01367.03575.021.05415.03364.08149.06992.16141.10357.2429,6.85574,17.15933,27.31361,10.69895,42.38783,13.92914,2.15346,1.07673,5.38365,2.15346,6.46038,4.30692,4.30692,10.7673-1.07673,29.07171,15.53513,32.31936a67.00939,67.00939,0,0,0,9.05038,1.44622c.132.01472.26077.0326.39326.04679.11356.011.23027.0184.34436.02892.53731.05047,1.07989.09411,1.62246.13722.39851.03207.79545.06677,1.19712.09516.572.04,1.15034.0715,1.72813.10357.38012.021.7576.04627,1.14035.06362.643.03,1.29281.04942,1.94263.06939.32492.01.64615.02471.97264.0326q1.47.03312,2.96311.0347c23.80582,0,42.90411-6.54029,57.55353-16.744V453.35665Z"/><path class="cls-1" d="M651.39575,565.06318c-33.82288,24.29425-63.74788-19.5-124.31814-27.53653,92.25283-13.99223,86.00013-130.99934-18.78179-130.99934H461.20571V576.57283h13.08059v-36.94a76.09832,76.09832,0,0,1,13.08059-.73079h20.92894c46.04282,0,88.42329,64.35565,144.66982,28.25366Zm-158.273-28.77729h-5.75588c-4.47621,0-8.79154.16718-13.08059.52995V409.14342h8.81728a75.32614,75.32614,0,0,1,8.23439.3144c20.25008,2.94734,23.48027,29.86559,43.93814,32.019,7.53711,1.07673,12.92076-11.844,22.61133-8.61384,6.46038,1.07673,12.92076,7.53711,14.35172,14.65757a56.21173,56.21173,0,0,1,2.83778,8.0475,65.649,65.649,0,0,1,1.71234,25.80076c-2.75089,18.25143-12.44146,34.40238-27.39739,43.84321a64.516,64.516,0,0,1-8.56169,4.62595c-9.13246,4.08365-19.97725,6.44787-32.53438,6.44787Z"/><rect class="cls-1" x="626.28082" y="406.52731" width="13.08059" height="124.26557"/><path class="cls-1" d="M676.49913,406.52731h13.08059V479.7786l25.11494-18.05205a474.20221,474.20221,0,0,0,63.04759-55.19923h17.78918l-83.97653,60.43146,99.67323,109.61406H793.43894l-92.60929-101.7657-11.24994,8.11122v93.65448H676.49912Z"/><path class="cls-1" d="M409.82773,639.47878h10.09675c7.4396,0,8.14814,6.81968,2.16986,8.14814,14.83512,2.21425,13.81654,20.63631-3.05558,20.63631h-9.211Zm2.21417.44281v8.76822a18.10615,18.10615,0,0,1,6.99686-1.28422h.88572c5.004,0,5.004-7.484,0-7.484Zm0,27.89882h6.99686c14.7465,0,14.7465-19.972,0-19.972a11.91262,11.91262,0,0,0-6.99686,1.99277Z"/><path class="cls-1" d="M453.75525,651.5682l5.26974,16.695h-2.08131l-1.99276-6.19977c-.97426,3.49847-4.25125,6.42125-9.74248,6.42125-13.90509,0-13.90509-17.58081,0-17.58081a10.90385,10.90385,0,0,1,6.90832,2.17l-.84141-2.61283a5.779,5.779,0,0,0-6.11114-4.42834c-2.08139,0-4.29556,1.63857-5.26982,2.52421v-2.25849a24.48377,24.48377,0,0,1,5.26982-.70854C448.48543,645.63416,452.3824,647.27272,453.75525,651.5682Zm-8.54681-.26572c-10.93807,0-10.93807,16.78365,0,16.78365C456.58941,668.08613,456.58941,651.30248,445.20844,651.30248Z"/><path class="cls-1" d="M463.9386,668.26323h-1.99276V645.85564h1.32845l.39859,2.83417c2.61275-3.40985,8.50249-3.76419,11.82378-2.12563v2.43558c-3.94128-4.42834-11.55806-4.02975-11.55806,3.80843Z"/><path class="cls-1" d="M512.55956,644.39433a9.94573,9.94573,0,0,0-8.36963-4.82708c-5.26982,0-8.50249,5.18127-4.87124,8.90107l14.43654,14.83512a10.88852,10.88852,0,0,0,2.037-6.15538,9.75071,9.75071,0,0,0-4.87116-8.32539h2.61275a12.91249,12.91249,0,0,1,2.657,8.32539,11.36743,11.36743,0,0,1-2.12562,6.4211l4.5612,4.69407h-2.78985l-3.09989-3.14412a11.99928,11.99928,0,0,1-8.50249,3.40984c-17.2707,0-16.03071-17.58066-5.88973-18.20073-3.80843-4.5612-.26572-11.1594,5.8455-11.1594a12.91284,12.91284,0,0,1,8.32531,2.65691ZM498.743,650.77119l-.04431-.04439c-7.484.31-8.94531,17.40357,5.53546,17.40357a11.478,11.478,0,0,0,8.23677-3.32122Z"/><path class="cls-1" d="M534.078,639.47878h2.967l12.488,13.77223,2.92279-3.23275a68.51786,68.51786,0,0,0,7.57254-10.53948H562.641l-12.93083,14.25928v14.52517h-2.21417v-13.9051Z"/><path class="cls-1" d="M573.13522,645.63416c16.56216,0,16.56216,22.85055,0,22.85055S556.57306,645.63416,573.13522,645.63416Zm0,.35434c-13.59514,0-13.59514,22.09763,0,22.09763S586.73036,645.9885,573.13522,645.9885Z"/><path class="cls-1" d="M594.56637,662.5949c-2.47989.88564-4.64983,4.78269-.39859,4.78269,3.71981,0,9.56531-2.39134,12.57664-2.39134,6.77538,0,5.934,10.31815-4.29555,10.31815a12.82487,12.82487,0,0,1-8.3254-2.65707l-.04423-2.56844a9.983,9.983,0,0,0,8.36963,4.87116c8.72389,0,10.18529-8.01528,4.73837-8.01528-3.32129,0-8.98962,2.39119-12.7095,2.39119-4.7383,0-4.11838-5.004-.35427-6.90816-9.07817-3.98552-7.04109-16.78364,6.19977-16.78364a16.10159,16.10159,0,0,1,4.82693.6643,11.12169,11.12169,0,0,1,6.50973-3.23275l1.2399,2.12563a7.826,7.826,0,0,0-7.351,1.24c10.18522,3.45408,8.45818,17.18208-5.22551,17.18208A15.032,15.032,0,0,1,594.56637,662.5949Zm5.75687-16.6064c-12.70942,0-12.70942,17.22632,0,17.22632S613.03267,645.9885,600.32324,645.9885Z"/><path class="cls-1" d="M633.40131,651.5682l5.26975,16.695h-2.08131l-1.99276-6.19977c-.97427,3.49847-4.25125,6.42125-9.74248,6.42125-13.90509,0-13.90509-17.58081,0-17.58081a10.90382,10.90382,0,0,1,6.90831,2.17l-.8414-2.61283a5.779,5.779,0,0,0-6.11115-4.42834c-2.08138,0-4.29555,1.63857-5.26982,2.52421v-2.25849a24.48386,24.48386,0,0,1,5.26982-.70854C628.13149,645.63416,632.02847,647.27272,633.40131,651.5682Zm-8.5468-.26572c-10.93807,0-10.93807,16.78365,0,16.78365C636.23548,668.08613,636.23548,651.30248,624.85451,651.30248Z"/></svg>