<svg id="Layer_1" data-name="Layer 1" xmlns="http://www.w3.org/2000/svg" viewBox="0 0 1080 600"><defs><style>.cls-1{fill:#2f2f35;}</style></defs><title>IGRIK_Bar&amp;amp;Yoga_logo_ALLLL</title><path class="cls-1" d="M295.88882,195.1047H429.92769v14.95975c-22.73906-7.18044-42.7844-11.9678-119.07912-11.9678l.00481,191.48239H295.88882Z"/><path class="cls-1" d="M310.84582,197.02966H295.8892V389.91709c-.0016.16891-.00641.29639-.008.486-.00641,3.52014,3.4848,3.0596,3.32458,12.49179-.04,2.37438,1.9595,2.88432,1.99315.16254.08011-6.56062,3.10027-9.57082,5.5164-9.57082s4.12409-1.90907,4.12569-3.07555h.00481Z"/><path class="cls-1" d="M811.77562,195.1047h14.95855v83.7734l28.723-20.64422c31.116-22.43962,55.94874-46.374,72.105-63.12918h20.34478l-96.04063,69.11308L965.85863,389.579H945.51386L839.60027,273.19363l-12.8661,9.27529V389.579H811.77562Z"/><path class="cls-1" d="M773.41546,195.10449H758.45691V336.622c0,21.41069-12.56373,35.69227-29.83887,43.25561-3.455,1.51267-7.09651,2.7445-10.67239,2.57336-19.38442-4.49372-18.42745-29.37491-34.69592-37.98763-2.87091-.957-6.69878.957-9.56969,1.91394-11.48363,6.69878-26.79513,25.83816-38.29589,11.12067a33.34879,33.34879,0,0,1-4.135-9.572,43.71123,43.71123,0,0,1-1.44483-11.30392V314.18241c0-58.34182,4.78736-90.355,11.9678-119.07792H626.81232V336.622a50.05154,50.05154,0,0,0,1.06835,10.42929,45.41631,45.41631,0,0,0,3.0573,9.32809c2.54938,6.26637,6.37725,12.00818,14.99,11.05122,15.3115-2.87091,23.92422-24.8812,38.27876-17.22544,16.26847,8.61272,16.26847,39.23572,37.93481,38.89088a93.08946,93.08946,0,0,0,10.306-2.77694c10.0085-3.33321,19.01077-8.31758,26.0094-14.953v18.29022h14.95855V195.10449Z"/><path class="cls-1" d="M260.7445,195.10449H245.786V336.622c0,68.51421-128.65264,64.02628-128.65264,0V314.18241c0-58.34182,4.78736-90.355,11.96779-119.07792H114.14137V336.622c0,58.55948,94.31917,70.13284,131.64459,34.74414v18.29022H260.7445V195.10449Z"/><path class="cls-1" d="M449.66871,195.10473h36.8147a81.97991,81.97991,0,0,1,8.54878.30787c16.3876,3.26989,15.59183,23.96006,29.12,31.91782,1.59155.79578,3.97888,0,5.57043-.79578,11.93664-7.95775,24.66905-23.0775,39.085-13.23307a78.8475,78.8475,0,0,1,6.33392,4.99077c15.89452,13.91256,23.82319,32.46265,23.82319,51.01273,0,31.30211-22.57814,62.6052-67.913,71.6232q-2.5186.501-5.13086.90908a193.3704,193.3704,0,0,1-22.39755,1.6666s-1.496,0-3.73992.00009H479.58781a61.92442,61.92442,0,0,0-14.95955.89746v45.17734H449.66871Zm14.95955,2.99246V341.11034c4.78738-.30007,9.87346-.59876,14.95955-.59876h11.96777c14.29378-.181,28.61775-.181,42.1917-4.55711a77.85442,77.85442,0,0,0,8.46293-3.33178c26.86587-12.45611,40.29881-37.88722,40.29881-63.31762a70.04748,70.04748,0,0,0-14.50758-42.97385,49.31272,49.31272,0,0,0-5.27582-5.85514c-11.517-9.06118-22.65789,2.87546-32.20721,9.24167-4.77465,2.38733-8.75353,0-11.93663-3.18311-7.95776-9.54931-10.34509-27.05638-25.23062-28.10142a81.53154,81.53154,0,0,0-9.27536-.336Z"/></svg>