<svg id="Layer_1" data-name="Layer 1" xmlns="http://www.w3.org/2000/svg" xmlns:xlink="http://www.w3.org/1999/xlink" viewBox="0 0 1080 1080"><defs><style>.cls-1{fill:none;}.cls-2{fill:#feaead;}.cls-3{clip-path:url(#clip-path);}.cls-4{fill:url(#linear-gradient);}.cls-5{fill:#fafafa;}.cls-6{fill:#2f2f35;}</style><clipPath id="clip-path"><rect class="cls-1" width="1080" height="1080"/></clipPath><linearGradient id="linear-gradient" x1="-87.16499" y1="4374.94808" x2="1064.83425" y2="4374.94808" gradientTransform="translate(4902.43991 49.2479) rotate(90)" gradientUnits="userSpaceOnUse"><stop offset="0.03073" stop-color="#fed0af"/><stop offset="0.38547" stop-color="#fea094"/><stop offset="1" stop-color="#fe93c7"/></linearGradient></defs><title>IGRIK_Bar&amp;amp;Yoga_logo_ALLLL</title><rect class="cls-2" width="1080" height="1080"/><g class="cls-3"><rect class="cls-4" x="-50.04008" y="-37.9171" width="1155.06384" height="1151.99925"/><path class="cls-5" d="M762.04112-943.88511C622.95354-916.90623,485.78941-880.46993,352.7338-834.23619c-87.23424,30.31188-178.2225,68.77391-234.61635,140.55783C67.5557-629.31814,48.70257-542.84771,95.38268-471.94589c76.07076,115.54118,212.22449,83.236,333.67112,89.374,35.2479,1.78151,70.67083,3.95114,105.76163,7.64341,41.16352,4.33134,78.58831,14.14006,106.33424,44.80112,31.82555,35.16921,33.39341,81.53267,30.44518,125.22028-4.11062,60.91149-15.59053,117.0519,13.87364,174.6143C742.79529,81.70358,882.781,114.86253,1005.0902,124.78343c35.73909,2.8988,71.66872,5.05229,107.5634,4.27506a526.83111,526.83111,0,0,0,53.95625-3.80541q2.26368-.28446,4.47041-.54463V44.00156c-10.34039,5.30888-21.02994,10.06121-31.63171,14.37894-40.84281,16.63425-87.67856,26.17875-135.02946,27.6556-112.40171,3.506-227.70652-38.449-272.64342-138.94847C683.40935-161.09858,726.44-272.596,764.68123-376.30626c13.73056-37.23721,28.61278-104.879-20.45545-125.653-16.6615-7.0541-36.00075-4.99893-54.04832-2.08507-57.02849,9.20744-112.57538,25.3641-167.98566,40.56773-55.25187,15.16095-111.41893,38.04154-168.91866,43.95055-39.428,4.052-81.05668-2.56941-114.64183-22.88224-36.45442-22.0559-61.282-58.10379-66.87741-98.15121-20.66216-147.8837,208.16-219.46813,323.91785-256.05039,116.86924-36.93343,238.25462-59.65144,359.937-77.98257,56.70727-8.54291,112.8244-15.93165,169.91834-19.98151q47.68938-3.38268,95.50736-4.804c5.09619-.14907,28.44268,1.00141,50.04578,1.42391v-96.95784A3097.03916,3097.03916,0,0,0,762.04112-943.88511Z"/><path class="cls-2" d="M1121.03448-899.378q-47.80561,1.39764-95.50736,4.804c-57.09394,4.04986-113.21107,11.4386-169.91834,19.98151-121.68241,18.33113-243.06779,41.04914-359.937,77.98257-115.75789,36.58226-344.58,108.16669-323.91785,256.05039,5.59545,40.04742,30.423,76.09531,66.87741,98.15121,33.58515,20.31283,75.2138,26.93425,114.64183,22.88224,57.49973-5.909,113.66679-28.7896,168.91866-43.95055,55.41028-15.20363,110.95717-31.36029,167.98566-40.56773,18.04757-2.91386,37.38682-4.969,54.04832,2.08507,49.06823,20.77407,34.186,88.41583,20.45545,125.653C726.44-272.596,683.40935-161.09858,731.77567-52.91237,776.71257,47.58708,892.01738,89.54211,1004.41909,86.0361c47.3509-1.47685,94.18665-11.02135,135.02946-27.6556,10.60177-4.31773,21.29132-9.07006,31.63171-14.37894v-60.8234A435.43537,435.43537,0,0,1,1104.314,8.64066c-43.89824,12.79455-107.43081,21.96343-165.80115,16.1588C803.95754,11.41458,762.77868-108.387,789.06245-219.25345c9.65705-40.73377,37.75906-73.23416,59.22081-109.06362,29.66526-49.525,67.41991-119.28785,46.33862-176.9597-13.8893-37.99663-54.56369-63.83147-97.103-71.37607C734.30464-587.864,672.49-565.15769,615.05056-543.39371Q570.04633-526.3415,525.059-509.25685c-28.20114,10.65545-56.73479,21.03532-86.52721,27.30261-44.46794,9.3545-102.20459,10.39493-137.42921-23.1893a62.2103,62.2103,0,0,1-18.2525-59.07983c13.308-61.80149,88.97869-93.37045,145.53689-114.11777,71.66822-26.28993,146.70676-48.05085,221.1427-66.262,169.89762-41.56636,346.5602-63.34544,521.55058-77.49213V-897.9541C1149.47716-898.3766,1126.13067-899.52708,1121.03448-899.378Z"/><path class="cls-5" d="M428.387-678.34114c-56.5582,20.74732-132.22887,52.31628-145.53689,114.11777a62.2103,62.2103,0,0,0,18.2525,59.07983c35.22462,33.58423,92.96127,32.5438,137.42921,23.1893,29.79242-6.26729,58.32607-16.64716,86.52721-27.30261q45.03122-17.0036,89.99155-34.13686c57.43945-21.764,119.25408-44.47026,182.46835-33.25913,42.53928,7.5446,83.21367,33.37944,97.103,71.37607,21.08129,57.67185-16.67336,127.43469-46.33862,176.9597-21.46175,35.82946-49.56376,68.32985-59.22081,109.06362C762.77868-108.387,803.95754,11.41458,938.51287,24.79946c58.37034,5.80463,121.90291-3.36425,165.80115-16.1588a435.43537,435.43537,0,0,0,66.76624-25.4625V-77.20828Q1157.09521-66.70423,1142.381-57.158c-41.12171,26.66081-96.37568,45.904-148.4319,45.23142-46.87294-.6057-91.15329-17.35852-120.1894-59.38293C813.894-157.96742,916.65994-265.36674,977.09412-325.11216c60.46425-59.7753,178.04121-153.01572,118.52944-246.7994-84.70518-133.48263-340.96141-67.14346-459.41312-18.57536-44.73891,18.3441-174.61526,95.49755-222.35123,48.87467-8.00795-7.838-8.72511-19.74025-6.31188-29.79712,11.75841-49.04642,87.96842-64.9861,130.60437-80.51474,198.9595-72.46379,424.47357-101.96735,632.92856-50.26106V-822.09531c-174.99038,14.14669-351.653,35.92577-521.55058,77.49213C575.09374-726.392,500.0552-704.63107,428.387-678.34114Z"/><path class="cls-5" d="M-386.98058,374.54216c35.72038-13.8783,71.03847-28.89015,104.52115-46.97856,63.93982-34.54179,120.81619-81.30957,151.93832-144.61179,27.86578-56.6787,32.97744-123.91992.28092-179.96046-31.036-53.19944-89.66083-94.62316-104.10248-155.59353-16.92306-71.47434,45.93109-138.50128,64.034-204.71188,18.73857-68.536,10.32026-139.70784,6.28733-209.51245-4.07347-70.50789-4.89514-144.82187,30.98265-209.20884C-97.03888-840.6813-32.81919-885.18223,20.36838-936.7924c53.651-52.08771,101.90628-118.90086,89.44007-194.20936-9.44478-57.0561-46.32922-106.28965-91.44367-144.0593H-154.05455c84.37223,71.159,164.56186,165.92245,115.57815,276.94083C-93.88257-872.54573-263.23181-826.34869-258.48163-670.969c2.063,67.25291,27.69485,131.81829,29.42579,199.104.78667,30.995-4.49323,61.37471-17.67646,89.95732-13.16566,28.54962-31.80419,54.47611-47.155,81.98954-16.173,28.97115-28.01,60.30611-22.92212,93.342,5.45529,35.38341,26.27888,66.68641,47.17249,95.98089,38.02839,53.32682,83.68,107.43054,97.37043,171.57447,13.42778,62.881-13.81285,121.95644-62.89136,165.32379-26.75063,23.627-58.51985,41.78041-91.40747,57.11594-29.277,13.652-60.55385,28.11885-91.87543,37.21083q-4.077,1.18335-7.91566,2.05407v68.33665C-412.33829,385.564-398.83173,379.14656-386.98058,374.54216Z"/><path class="cls-5" d="M135.87287,1235.19659H-60.88574c11.59748-12.83431,22.64248-23.90226,27.42575-30.55677,26.805-37.275,45.96506-91.91632,14.52746-130.90756-62.70163-77.777-142.39551-144.81453-209.8256-219.33267-29.516-32.615-60.84855-65.23014-83.47286-102.49154-36.86884-60.7209-45.96962-134.10248-32.90263-202.1259,14.93827-77.74044,56.0609-114.48149,115.38969-166.71306,59.19644-52.11751,141.13125-94.76446,177.62584-164.13438C-18.39388,154.83186-14.69243,74.96-47.53573,9.90336c-16.38062-32.45083-41.06782-57.03314-68.81758-81.39172-24.23535-21.27791-51.474-45.54977-55.79161-77.90923a63.85672,63.85672,0,0,1,13.79272-48.53017c11.45134-14.22171,28.44807-22.962,42.29561-34.86515,32.55571-27.95067,31.31427-71.05864,24.249-108.53441-8.16523-43.286-21.09986-85.72763-29.70324-128.968-15.78715-79.33332-22.06736-163.363,10.6481-239.862,22.606-52.866,63.58716-98.06435,115.16611-128.86293,26.75473-15.97893,60.39214-17.40293,76.82292,12.07209,17.6859,31.77065-12.42806,74.22139-30.794,99.78038C24.6638-691.45359,2.19019-656.09547-12.37387-614.79032c-19.12821,54.249-19.863,109.88995-4.58236,165.0472,15.057,54.31285,41.87566,105.01554,68.05085,155.29824C98.57956-203.24033,150.70164-95.64622,114.80487,6.891c-8.16514,23.30436-21.506,44.13033-34.93366,65.08418-14.16233,22.072-29.128,45.50412-31.76613,71.62445-2.83426,28.03273,10.648,53.58716,19.2331,79.70748a214.04257,214.04257,0,0,1,10.97671,66.89613c-.05025,42.91628-15.43584,86.41224-51.98054,114.45862C4.988,421.05157-20.52084,431.4303-45.41794,442.24732c-68.05085,29.56618-138.02771,78.11461-166.10152,146.412-20.30113,49.37435-14.68728,103.2673,6.88724,151.42777C-158.31569,843.51885-52.60641,904.56818,37.12385,972.66472c40.301,30.58868,79.83541,65.39,102.14466,109.77589,21.10442,42.008,23.35909,90.12277,5.80555,133.60057A166.76459,166.76459,0,0,1,135.87287,1235.19659Z"/><path class="cls-5" d="M1002.67761,217.33148c-77.3859-1.5707-154.946-17.975-224.60352-49.52068C716.66949,140.00554,658.8138,98.67913,626.38041,41.80586c-18.28851-32.06407-26.244-67.77171-25.89436-103.91618a300.76866,300.76866,0,0,1,6.80161-58.97859c8.368-39.575,28.37641-82.27278,16.11622-122.83444-12.86594-42.56466-58.21758-55.7609-100.7392-60.98251-77.98088-9.58676-158.129,8.4535-235.25194-8.696-33.35379-7.41676-62.34827-29.13806-96.09454-33.68012-45.07313-6.06661-68.20064,28.75746-60.843,66.65834,3.44508,17.74619,10.99716,35.03854,17.79741,51.87771,19.4167,48.00868,48.08252,88.34473,100.729,107.30156,17.76332,6.39613,36.22622,10.83308,54.35648,16.16081A465.73773,465.73773,0,0,1,349.60446-89.2028C412.47-63.283,467.1287-18.9306,470.29806,49.10811c3.97187,85.26606-24.77359,169.72372-25.03717,255.13611-.23277,75.47779,7.045,183.41663,71.76525,238.234,54.97159,46.5603,139.0816,43.30436,208.52391,44.20381,84.00842,1.08822,141.74166,60.17444,183.74215,121.1213,54.293,78.7843,100.59684,170.0967,102.57227,265.20681,1.833,88.253-20.30086,178.9784-57.94984,262.18641h54.23247c3.26735-7.888,6.71375-15.5719,9.74176-22.9108,60.18078-145.77764,73.7836-311.83018,7.23831-457.88286-29.33825-64.40226-73.32773-123.37971-130.44755-169.28931-32.51181-26.13106-70.62094-43.42673-112.0291-53.74923-39.63478-9.8806-83.76976-8.95906-121.96575-22.429C594.5241,485.61636,549.11746,429.77983,540.04311,365.2626c-11.22588-79.81578,9.58512-160.66931.48991-241.17328C532.88057,56.35564,509.63686-13.89082,466.6078-70.97289c-20.62094-27.35542-50.57612-56.06337-80.89063-74.38656-30.45851-18.41028-71.42747-19.62565-97.5367-44.68418-33.99679-32.65453,57.73843-31.64568,68.87663-31.96458,57.158-1.63641,171.65265-21.08155,199.85822,42.36229,13.35827,29.99114,5.50778,64.11153,2.25554,95.204-7.8504,74.86447.59461,154.52225,48.16933,217.77576C650.4038,190.59536,717.77081,227.93855,785.977,254.6261c117.61333,46.0394,261.693,74.31645,385.10324,33.8129V196.68671A593.957,593.957,0,0,1,1002.67761,217.33148Z"/><path class="cls-2" d="M785.977,254.6261c-68.20621-26.68755-135.57322-64.03074-178.63683-121.29223C559.76547,70.08036,551.32046-9.57742,559.17086-84.44189c3.25224-31.0925,11.10273-65.21289-2.25554-95.204-28.20557-63.44384-142.70025-43.9987-199.85822-42.36229-11.1382.3189-102.87342-.69-68.87663,31.96458,26.10923,25.05853,67.07819,26.2739,97.5367,44.68418,30.31451,18.32319,60.26969,47.03114,80.89063,74.38656C509.63686-13.89082,532.88057,56.35564,540.533,124.08932c9.09521,80.504-11.71579,161.3575-.48991,241.17328,9.07435,64.51723,54.481,120.35376,120.64166,143.67282,38.196,13.46991,82.331,12.54837,121.96575,22.429,41.40816,10.3225,79.51729,27.61817,112.0291,53.74923,57.11982,45.9096,101.1093,104.88705,130.44755,169.28931,66.54529,146.05268,52.94247,312.10522-7.23831,457.88286-3.028,7.3389-6.47441,15.0228-9.74176,22.9108H1079.435c76.095-219.51094,71.22167-530.79293-106.24186-712.45608-63.74028-65.24867-133.22216-66.77933-221.93462-66.116-50.75034.37955-100.16809-11.03226-127.61087-53.39067-21.32756-32.91947-31.62377-84.31358,3.61473-112.68793,42.17835-33.96009,93.96625,3.73522,129.844,25.51033,33.27607,20.196,71.37534,33.07269,110.04153,41.09753,60.8376,12.62641,125.77527,16.26542,188.01711,17.24255,39.41757.61876,78.33318-3.3276,115.91521-12.57069V288.439C1047.67006,328.94255,903.59035,300.6655,785.977,254.6261Z"/><path class="cls-5" d="M1055.16505,374.39629c-62.24184-.97713-127.17951-4.61614-188.01711-17.24255-38.66619-8.02484-76.76546-20.9015-110.04153-41.09753-35.87774-21.77511-87.66564-59.47042-129.844-25.51033-35.2385,28.37435-24.94229,79.76846-3.61473,112.68793,27.44278,42.35841,76.86053,53.77022,127.61087,53.39067,88.71246-.6633,158.19434.86736,221.93462,66.116,177.46353,181.66315,182.3369,492.94514,106.24186,712.45608h91.64522V700.25567c-8.26911-15.1186-16.48637-30.26171-25.56616-45.0505-20.69063-33.70017-49.60848-62.24143-76.18709-91.91076-22.47466-25.08811-58.4995-54.06214-63.57775-88.99918-7.245-49.84376,48.63619-43.68879,85.62192-41.02231,28.62022,2.06321,53.73407,2.49429,79.70908.24268v-71.69C1133.49823,371.06869,1094.58262,375.015,1055.16505,374.39629Z"/><path class="cls-2" d="M1091.37118,433.27292c-36.98573-2.66648-92.86694-8.82145-85.62192,41.02231,5.07825,34.937,41.10309,63.91107,63.57775,88.99918,26.57861,29.66933,55.49646,58.21059,76.18709,91.91076,9.07979,14.78879,17.297,29.9319,25.56616,45.0505V433.5156C1145.10525,435.76721,1119.9914,435.33613,1091.37118,433.27292Z"/><path class="cls-5" d="M894.60048,818.04654c-24.2856-62.98-67.15624-121.3412-126.83191-159.88516a274.53427,274.53427,0,0,0-99.2419-39.18736c-39.233-7.23862-79.37434-7.87308-118.97708-12.58314-55.20741-6.56784-103.6919-23.60564-134.86017-67.95058-43.464-61.82992-40.2554-129.31012-34.07556-199.67045,9.12506-103.89354,43.64735-261.20628-36.80339-344.27778C321.75512-28.28916,290.46822-44.25435,257.44688-45.231c-141.79761-4.20364-89.41533,278.59291-96.34825,346.9632-5.34913,52.7611-22.2135,104.55456-69.47933,138.04592-74.18495,52.55562-172.37259,53.02586-235.307,124.317-62.24075,70.47909-25.07072,170.55151,32.14494,231.674,56.8368,60.71173,135.20248,104.11641,213.81006,136.36176C163.77776,957.36118,204.088,997.425,234.33886,1052.69634a335.038,335.038,0,0,1,40.0089,138.45217c.93131,13.94526-.81611,28.88581-2.97958,44.04808H304.9808q.69975-2.14209,1.39452-4.28775c20.54052-63.60509,18.79361-134.45816-10.96234-195.32365-58.915-120.51-191.71651-130.317-293.07218-205.58928-44.95118-33.39108-79.9193-81.049-83.48733-135.57262C-86.84541,607.33355-13.89632,592.16479,60.447,573.23535c35.67245-9.08293,73.72289-20.45353,95.56824-49.97047,29.19179-39.44317,32.40967-93.58263,40.96079-139.2978a806.18655,806.18655,0,0,0,12.75152-187.84591C206.77445,136.24084,200.70132,81.04749,224.8212,23.529c15.59249-37.18317,54.09468-40.70565,76.14766-5.30107,69.82492,112.09912,69.57476,248.55864,49.2743,372.60535C339.333,457.536,327.40858,524.077,317.32054,590.87671c-7.51836,49.699-26.83858,125.03329,35.47524,151.97976,53.43211,23.1087,111.54991-3.38428,159.072-25.87788,27.8703-13.198,56.50937-26.46113,87.70147-31.20574a189.31081,189.31081,0,0,1,78.18969,4.90687c53.03,14.49349,98.97877,49.03514,128.92911,91.67388C840.65993,830.757,855.0149,888.8929,859.421,945.831a622.8105,622.8105,0,0,1-11.19018,174.29486c-8.35934,39.94482-21.874,79.18813-42.42408,115.07071h74.89436c18.22524-48.70913,26.91187-102.72535,32.93175-149.87155C924.54557,999.8577,926.19321,900.02238,894.60048,818.04654Z"/><path class="cls-2" d="M859.421,945.831c-4.406-56.93812-18.761-115.074-52.73289-163.47742-29.95034-42.63874-75.8991-77.18039-128.92911-91.67388a189.31081,189.31081,0,0,0-78.18969-4.90687c-31.1921,4.74461-59.83117,18.00772-87.70147,31.20574-47.5221,22.4936-105.6399,48.98658-159.072,25.87788C290.482,715.91,309.80218,640.57575,317.32054,590.87671,327.40858,524.077,339.333,457.536,350.24316,390.83332c20.30046-124.04671,20.55062-260.50623-49.2743-372.60535-22.053-35.40458-60.55517-31.8821-76.14766,5.30107-24.11988,57.51845-18.04675,112.7118-15.09363,172.59213A806.18655,806.18655,0,0,1,196.976,383.96708c-8.55112,45.71517-11.769,99.85463-40.96079,139.2978-21.84535,29.51694-59.89579,40.88754-95.56824,49.97047-74.34334,18.92944-147.29243,34.0982-141.59355,121.18794C-77.5785,748.947-42.61038,796.60483,2.3408,829.99591c101.35567,75.27227,234.1572,85.0793,293.07218,205.58928,29.75595,60.86549,31.50286,131.71856,10.96234,195.32365q-.69291,2.14574-1.39452,4.28775h49.07832a213.2613,213.2613,0,0,0,14.98706-18.387c31.63883-45.3986,47.66715-97.07216,41.22062-150.94909-5.29774-44.43608-20.15919-90.03765-55.4782-121.97324-49.53843-44.79262-111.01368-74.8578-172.07227-103.82827-55.557-26.35994-132.08191-53.10272-171.32755-100.05171-40.17125-48.05614-5.33727-83.55456,47.74072-95.15647,60.69223-13.266,121.56018-55.47505,143.98034-110.21848,24.03435-58.68485,27.75693-122.24489,35.49637-184.00864,6.75638-53.91846.73468-112.74932,17.69284-166.50589,8.63091-27.35966,36.23571-79.00593,52.823-29.83984,14.73037,43.66273,3.35877,89.53267-2.433,133.58632-10.474,79.66723-13.57173,159.88927-24.97688,239.476-9.03305,63.03344-42.08314,135.57062-15.42859,198.12382,6.382,14.97953,16.50549,28.55017,28.60443,40.03131,26.73356,25.39226,62.38383,40.03131,99.748,46.03972,43.5882,6.9955,87.56148,2.12094,130.80012-4.45333,73.93361-11.21907,149.629-19.6047,206.75253,35.58016,100.81359,97.392,14.343,246.32506-64.48331,328.41008-18.75783,19.53341-38.403,41.98419-59.43556,64.12457H805.80669c20.55006-35.88258,34.06474-75.12589,42.42408-115.07071A622.8105,622.8105,0,0,0,859.421,945.831Z"/><path class="cls-5" d="M732.18863,842.66194c-57.12351-55.18486-132.81892-46.79923-206.75253-35.58016-43.23864,6.57427-87.21192,11.44883-130.80012,4.45333-37.36414-6.00841-73.01441-20.64746-99.748-46.03972-12.09894-11.48114-22.22244-25.05178-28.60443-40.03131-26.65455-62.5532,6.39554-135.09038,15.42859-198.12382,11.40515-79.58671,14.50286-159.80875,24.97688-239.476,5.79181-44.05365,17.16341-89.92359,2.433-133.58632-16.58733-49.16609-44.19213,2.48018-52.823,29.83984-16.95816,53.75657-10.93646,112.58743-17.69284,166.50589-7.73944,61.76375-11.462,125.32379-35.49637,184.00864-22.42016,54.74343-83.28811,96.9525-143.98034,110.21848-53.078,11.60191-87.912,47.10033-47.74072,95.15647,39.24564,46.949,115.77057,73.69177,171.32755,100.05171,61.05859,28.97047,122.53384,59.03565,172.07227,103.82827,35.319,31.93559,50.18046,77.53716,55.4782,121.97324,6.44653,53.87693-9.58179,105.55049-41.22062,150.94909a213.2613,213.2613,0,0,1-14.98706,18.387H390.7186c8.02137-30.02948,36.56556-53.10628,51.502-79.8413,34.89491-62.45959,41.20259-124.08792,36.38394-193.14789-6.35209-91.03559,108.11849-96.21056,164.049-41.799,40.57329,39.47348,28.2393,99.63163,2.68953,142.81235-9.47631,16.01562-20.6486,31.09209-31.94375,46.05533-30.556,40.47859-61.46613,80.72875-92.33887,121.00761q-1.91172,2.49412-3.6826,4.91289h90.892c21.03259-22.14038,40.67773-44.59116,59.43556-64.12457C746.53161,1088.987,833.00222,940.05392,732.18863,842.66194Z"/><path class="cls-2" d="M613.39923,1109.27609c11.29515-14.96324,22.46744-30.03971,31.94375-46.05533,25.54977-43.18072,37.88376-103.33887-2.68953-142.81235-55.93046-54.41157-170.401-49.2366-164.049,41.799,4.81865,69.06-1.489,130.6883-36.38394,193.14789-14.9364,26.735-43.48059,49.81182-51.502,79.8413H517.37776q1.7772-2.41854,3.6826-4.91289C551.9331,1190.00484,582.84323,1149.75468,613.39923,1109.27609Z"/><path class="cls-2" d="M100.65158,1235.19659H20.474a143.73691,143.73691,0,0,0,19.04145-30.28735c22.08109-47.93689,5.235-95.76861-22.61519-137.06021-39.17818-58.08266-93.30851-104.16186-146.32511-149.97183-96.81383-83.65105-224.1661-209.61564-177.845-353.18859,17.49426-54.22618,59.39736-97.32967,105.37154-130.98538,70.059-51.2868,152.5735-78.64409,185.508-165.257C9.899,199.31371,6.97333,120.09911-6.04336,48.41067-17.33952-13.78895-57.166-65.22185-74.42739-125.3448c-20.12319-70.09552,26.344-126.95053,14.98843-194.74574-7.45766-44.54115-18.57586-85.075-30.77115-128.49781-13.90227-49.48407-20.62976-101.21364-15.518-152.57351C-97.26166-686.24134-63.145-770.99681,14.2622-807.3133c6.52672-3.06256,14.80148-5.59559,20.4518-1.11825a10.77718,10.77718,0,0,1,1.95344,2.00364c4.7102,6.33041,1.0999,16.68185-3.1219,24.13494-47.06956,83.08958-99.68,154.67761-99.77585,254.1294-.11866,126.22945,82.50537,231.09889,116.9095,349.2271C69.78-113.35485,64.76868-54.33641,49.54734,11.21778,35.85959,70.1814,13.57759,135.80871,31.4644,196.27854,54.7595,275.03217,56.608,344.68493-23.54675,391.01972c-73.55968,42.52385-174.59531,57.63095-205.403,148.18744-33.90674,99.67088-14.29939,216.91821,53.06685,298.33267,66.95085,80.917,170.22285,122.48223,246.90894,194.23452,35.12535,32.86155,47.97326,72.78857,44.03448,120.967C113.39912,1173.08821,109.474,1205.47062,100.65158,1235.19659Z"/></g><path class="cls-6" d="M226.31231,387.134H211.33105V581.38979c-.00161.17011-.00642.2985-.008.48947-.00642,3.54512,3.49054,3.08132,3.33006,12.58042-.04012,2.39122,1.96273,2.90478,1.99643.16369.08024-6.60716,3.10538-9.63872,5.5255-9.63872s4.13088-1.92261,4.13248-3.09736h.00482Z"/><path class="cls-6" d="M410.27612,440.76729V565.40757c-13.48188,9.58845-30.56094,15.28227-50.9349,15.28227-1.05073,0-2.09-.01927-3.12209-.04877-.327-.00964-.6491-.02469-.97366-.03733q-1.06939-.04065-2.12555-.10056-.54192-.03252-1.08023-.06985-1.02335-.07135-2.03282-.16258c-.336-.0301-.67319-.0578-1.00738-.09152q-1.19675-.11922-2.37544-.26856c-.18-.02227-.36248-.04034-.54192-.06382-2.08159-.29625-4.12284-.6479-6.10121-1.10311-19.18982-8.53352.54106-31.96394-11.79074-45.52891-11.09861-14.79816-30.82949-8.63226-46.86083-12.3318-3.69954,0-4.93272-2.46636-6.28781-5.42488a75.29192,75.29192,0,0,1-2.78642-9.0692q-.513-2.566-.89538-5.17538c-.02348-.15957-.04757-.31914-.07045-.47931-.09935-.69486-.19027-1.39154-.277-2.08942-.02409-.19087-.05-.38115-.07286-.572q-.15084-1.269-.274-2.54223c-.02469-.26012-.04456-.52024-.068-.78037-.04577-.516-.09213-1.03146-.13127-1.5481-.02409-.3119-.04275-.625-.06383-.93753-.03191-.46966-.06382-.93933-.08972-1.409-.01866-.32937-.03251-.65874-.04817-.98811-.02107-.45221-.04215-.90441-.0584-1.35722-.012-.342-.02048-.68463-.02951-1.02725-.012-.44076-.02288-.88153-.0295-1.3223-.00542-.34863-.00783-.69787-.01024-1.04651q-.00452-.653-.00181-1.30544.00272-.52657.01024-1.05254.009-.65483.02529-1.30965.01265-.52024.03011-1.0411c.01445-.439.03311-.87791.053-1.31687q.02258-.51845.05-1.03628c.02349-.442.05179-.88394.08069-1.32591.02228-.34021.044-.67982.06925-1.02.03372-.4516.07225-.9026.11079-1.3536.0283-.32817.05479-.65633.0861-.9839.04456-.47328.09514-.94536.14572-1.41743.03312-.30529.06323-.61117.09815-.91585.05961-.51965.127-1.03869.19389-1.55713.03312-.25652.06262-.513.09755-.76954q.31431-2.31853.72437-4.61961c.04576-.25891.09694-.516.14511-.77435.09394-.5082.18787-1.01641.289-1.5228.06021-.30408.12645-.607.18967-.91044.09514-.45823.19028-.91645.29084-1.37287.07165-.32155.14692-.64128.221-.96222.10116-.43836.20232-.87671.3089-1.31387.07948-.32816.16318-.65452.24627-.98209q.16077-.63675.32817-1.27231.13368-.50129.27277-1.00016.17252-.6241.35165-1.24642.14361-.49677.29264-.99233.18606-.6223.38055-1.24221.15354-.49226.31191-.98269.1996-.61689.40764-1.23077c.109-.32395.21858-.6479.33118-.97065.14331-.41186.29083-.82192.439-1.23137.115-.31733.22881-.63466.34683-.95018.15535-.41668.31612-.83095.47629-1.24522.118-.30408.23424-.60876.35527-.911.1716-.42993.34863-.85685.52566-1.28376.118-.28361.233-.569.35346-.85143.1987-.46726.40463-.9309.61057-1.39455.10537-.23845.20773-.4787.31552-.71594q.45792-1.0116.93813-2.01054c.02168-.04577.04335-.09153.06563-.13729q.48323-1.00166.98932-1.99188c.1138-.22339.233-.44317.34863-.66536.23664-.45522.47389-.911.71836-1.362.14451-.26735.29444-.53229.442-.79843.2228-.40223.445-.80446.6732-1.20308.16137-.28119.327-.55938.49134-.83938.22159-.37814.44378-.75628.67139-1.13142.17341-.28661.351-.57082.52807-.85563q.3378-.54555.68283-1.08686.27457-.42813.55457-.852.34953-.53289.7063-1.061.28542-.4227.57685-.84058.36129-.52206.7298-1.03749.298-.41637.59973-.82975.37482-.51211.75809-1.017c.20412-.271.40885-.54192.61659-.81048q.392-.5067.79362-1.00737c.20773-.26073.41487-.52206.62562-.77977.277-.33961.55878-.6744.84058-1.00919.209-.24748.41548-.49676.62683-.74183.29806-.34563.60154-.68524.90441-1.026.20292-.22821.40344-.45822.60937-.684.3396-.37392.68643-.74123,1.03327-1.10853.17582-.18606.34863-.37574.52627-.56059q1.58331-1.64655,3.26058-3.2082c.18606-.17341.37694-.34141.5648-.513.37694-.34442.75388-.68885,1.138-1.026.22761-.20052.46064-.39561.69126-.59371.35044-.30167.70089-.60335,1.05735-.899.2517-.20894.50821-.41306.76231-.619.34322-.27819.687-.55578,1.03568-.82855.26554-.20774.5347-.41186.80325-.61659.34623-.26373.69246-.52627,1.04351-.78458.27638-.20353.55577-.404.83517-.60455q.52747-.37753,1.061-.74846.42723-.29625.85926-.58588.5392-.36309,1.08505-.71775.43806-.2845.88033-.5642c.36911-.233.74123-.46184,1.11576-.68945.29685-.18064.59431-.36128.89418-.53831.38235-.2252.76893-.44619,1.1561-.666.29926-.1704.59792-.34081.9008-.5076.39862-.21918.80205-.43294,1.20608-.6467.29806-.15776.59492-.31733.896-.47147.42571-.218.85744-.42933,1.28918-.64068.286-.1403.56962-.28361.85864-.42089.48232-.22882.97186-.4498,1.4614-.67018.24446-.1108.48592-.2252.7328-.33359q2.21738-.97365,4.52989-1.82929c.25651-.09454.51784-.18305.77676-.27518.51663-.18546,1.03447-.37092,1.55833-.54735.31251-.10537.63044-.20352.94536-.30528.4787-.15475.9574-.3101,1.44212-.457.33659-.10237.678-.19811,1.01761-.29686.46967-.13608.93994-.27216,1.415-.401.35586-.09695.71594-.18847,1.07482-.2812.46665-.12043.93331-.239,1.40479-.35225.36971-.08912.74183-.17342,1.11455-.25832q.7054-.15987,1.418-.3107c.37814-.07948.75809-.15535,1.13865-.23062q.719-.14091,1.44392-.27157.57716-.103,1.15731-.20111c.48954-.08129.98209-.15776,1.47645-.23243.38958-.0584.77916-.11681,1.17176-.1704.50218-.06925,1.00858-.13187,1.51558-.19329.39139-.04757.78218-.09634,1.17718-.13969.52206-.0566,1.04953-.106,1.57761-.15475.38536-.03553.76893-.07407,1.15731-.10538.55758-.04516,1.12058-.08129,1.68418-.11741.3661-.02349.72979-.05119,1.0989-.07106.62984-.03372,1.2675-.056,1.90517-.07888.30829-.01084.613-.02709.92308-.03552q1.42707-.03794,2.87762-.03914c29.36268,0,53.63248,20.675,65.61624,34.75785V404.21266c-16.778-11.68631-38.65007-19.17691-65.61624-19.17691-1.27232,0-2.52959.02047-3.779.053-.389.00964-.77374.02529-1.16032.03854q-1.31506.04427-2.61388.1108-.62592.03251-1.247.06984-1.33314.0813-2.6464.18907c-.3378.0271-.678.05058-1.014.08069q-1.78926.15715-3.546.35827c-.18606.02168-.36791.04817-.55337.07045q-1.47945.177-2.93542.38537c-.37634.05419-.74907.1126-1.123.16981q-1.18953.18244-2.3634.38416c-.38055.06563-.7605.13127-1.138.19991q-1.29249.23664-2.5621.49857c-.25771.053-.51784.10116-.77435.15535q-1.64022.34865-3.24673.73762c-.2535.062-.50279.12886-.75508.19208q-1.23016.30619-2.44107.63586c-.35406.09695-.70571.1969-1.05736.29686q-1.08656.30889-2.15686.63706c-.33418.10236-.66958.20352-1.002.3089q-1.28436.40644-2.54343.84179c-.16077.05539-.32515.10718-.48532.16318q-1.4894.52114-2.94326,1.082c-.274.10477-.54373.215-.81589.32214q-1.05405.41457-2.09123.84842-.48683.20322-.96824.41186-.99714.42993-1.97562.87852c-.28541.13066-.57323.25892-.85624.39139q-2.753,1.28977-5.36867,2.71685c-.26855.14632-.53349.29685-.80024.44558q-.91676.51122-1.81725,1.03809-.43535.2547-.86588.513-.91765.551-1.81605,1.12c-.23122.14632-.466.28963-.69607.43775q-1.22385.7876-2.41578,1.6047c-.12585.08671-.24808.17643-.37393.26374q-1.00076.69637-1.978,1.41261c-.2517.18486-.49978.37213-.74906.55879q-.79935.59883-1.58182,1.2121c-.2517.1969-.50279.3938-.75207.59311q-.85083.681-1.68057,1.3795c-.17282.14512-.34924.28782-.52085.43354q-1.073.914-2.1111,1.85459c-.165.14993-.32636.30347-.49014.454q-.79392.7298-1.56857,1.47343c-.2258.21737-.4486.43595-.67139.65513q-.69456.68283-1.37167,1.37709c-.21075.21617-.4227.43113-.63044.6485q-.81108.84811-1.59747,1.71248c-.09755.10719-.1981.21256-.29505.32034q-.924,1.02515-1.81183,2.075c-.1686.19871-.333.40042-.49918.60033q-.64128.76863-1.26509,1.5475-.29263.36761-.58106.737-.59613.7614-1.17357,1.53425c-.1692.2258-.34081.4504-.50761.678q-1.62034,2.20381-3.10282,4.48834c-.15113.23242-.298.46726-.44678.70089q-.51934.81468-1.02123,1.63721-.23935.3929-.47448.7876-.5067.84991-.99293,1.70887c-.12585.22158-.25471.442-.37875.66476q-.65752,1.17869-1.28255,2.37423c-.06744.13006-.13187.26193-.19871.39259q-.52115,1.0107-1.01821,2.03222c-.12826.26314-.2529.52808-.37875.793q-.40372.85081-.79181,1.70766c-.124.27578-.24868.55036-.37032.82674q-.41908.95108-.81589,1.90938c-.08129.1957-.16619.38959-.24568.58528q-.5085,1.24642-.98269,2.50429c-.07466.19871-.14511.39862-.21857.59733q-.35857.97093-.69848,1.94791c-.09936.28662-.1957.57444-.292.86166q-.299.88786-.57986,1.78113c-.08791.27819-.17643.55577-.26193.83517q-.33238,1.08655-.64007,2.18094c-.03854.13548-.08009.271-.11742.40705q-.35948,1.29519-.68162,2.59943c-.06022.24266-.11622.48593-.17462.72859q-.23032.95559-.44318,1.9148-.09844.44619-.19268.893-.1969.9294-.37513,1.86181c-.05239.27277-.10718.54494-.15716.81771q-.48592,2.64187-.83457,5.306c-.03612.27518-.068.55036-.10176.82553q-.11561.942-.215,1.8865-.047.45432-.09092.90923-.093.97546-.1674,1.95394c-.01867.25049-.04094.50038-.05841.75087q-.09212,1.33856-.15294,2.67771c-.006.14271-.00843.28541-.01385.42812q-.04516,1.13262-.06563,2.26645c-.00482.29023-.00663.58046-.00964.8713q-.009.93843-.0012,1.87746c.00241.29987.00482.59913.00963.899q.01807,1.03326.0566,2.06654c.00783.21255.012.4245.02108.63646q.05781,1.33945.14873,2.6765c.01445.21075.03372.4215.04937.63165q.07677,1.03236.17342,2.06232c.0283.29926.059.59792.08972.89658q.09665.93122.20954,1.86122c.03493.29023.06925.58046.10658.87009q.14632,1.12268.31672,2.24176c.02168.1421.03975.28421.062.42571q.20773,1.325.45039,2.64279c.04577.24868.09574.49616.14331.74484q.18336.96192.38357,1.92143.09393.44617.19268.89116.20412.9303.42692,1.8576c.06382.26735.12584.5347.19208.80144q.6476,2.61118,1.43249,5.18743c.08008.26374.165.52627.24748.7894q.28451.90682.58588,1.80883.14631.43714.29625.8725.31883.92578.65814,1.84555c.08731.23724.1716.47509.26012.71173q.47328,1.26.97968,2.50791c.00843.02047.01565.04094.02408.062.03854.09333.08009.18485.11863.27818,7.85188,19.6526,31.2823,12.25352,48.54682,15.95306,2.46636,1.23318,6.1659,2.46636,7.39908,4.93272,4.93271,12.3318-1.23319,33.29586,17.7924,37.01539a76.74344,76.74344,0,0,0,10.3654,1.65636c.15114.01686.29866.03734.4504.05359.13006.01265.26374.02108.3944.03312.61539.05781,1.23679.10778,1.8582.15716.45642.03673.911.07647,1.37107.109.65513.04576,1.31748.08189,1.97923.11862.43535.02408.86768.053,1.306.07286.73641.03432,1.48066.0566,2.2249.07948.37212.01144.74.0283,1.114.03733q1.68357.03794,3.39365.03974c27.26484,0,49.13812-7.4906,65.91611-19.1769V440.76729Z"/><path class="cls-6" d="M685.62084,568.70489c-38.73738,27.82422-73.0105-22.33333-142.38169-31.53762,105.65726-16.02531,98.496-150.03366-21.51079-150.03367H467.796V581.8869h14.98121V539.57944a87.15507,87.15507,0,0,1,14.98121-.837h23.96993c52.73289,0,101.27128,73.70659,165.69048,32.35894ZM504.35063,535.74622h-6.59221c-5.12661,0-10.069.19148-14.98121.607V390.12984h10.09844a86.27163,86.27163,0,0,1,9.43085.36008c23.19244,3.37559,26.892,34.20509,50.3224,36.67145,8.63225,1.23318,14.79815-13.565,25.89677-9.86544,7.39908,1.23318,14.79816,8.63226,16.437,16.78733a64.37958,64.37958,0,0,1,3.25012,9.21681A75.18824,75.18824,0,0,1,600.174,472.8497c-3.1506,20.90338-14.24922,39.40108-31.37826,50.21367a73.89039,73.89039,0,0,1-9.80571,5.29811c-10.45941,4.677-22.88,7.38474-37.26166,7.38474Z"/><rect class="cls-6" x="656.85669" y="387.13361" width="14.98121" height="142.32148"/><path class="cls-6" d="M714.37176,387.13361H729.353v83.89476l28.76416-20.675c31.16067-22.47182,56.029-46.43934,72.20846-63.21974h20.374l-96.17839,69.21222L868.677,581.88691H848.303L742.23753,465.33455l-12.88456,9.2898V581.88691h-14.9812Z"/><path class="cls-6" d="M408.95277,653.93313h11.56381c8.52058,0,9.33207,7.81059,2.48514,9.33208,16.99068,2.536,15.8241,23.63478-3.49955,23.63478h-10.5494Zm2.53589.50716v10.04224a20.73712,20.73712,0,0,1,8.01351-1.47081h1.01441c5.73111,0,5.73111-8.57143,0-8.57143Zm0,31.95254h8.01351c16.88917,0,16.88917-22.874,0-22.874a13.64351,13.64351,0,0,0-8.01351,2.28231Z"/><path class="cls-6" d="M459.263,667.77917,465.29843,686.9H462.9147l-2.28231-7.1006c-1.11582,4.0068-4.86895,7.35427-11.15806,7.35427-15.92552,0-15.92552-20.13532,0-20.13532a12.48819,12.48819,0,0,1,7.91209,2.48531l-.96366-2.99247c-1.268-4.00663-4.0068-5.07179-6.9991-5.07179-2.38381,0-4.9197,1.87666-6.03553,2.891v-2.58665a28.04184,28.04184,0,0,1,6.03553-.81149C453.22746,660.9829,457.69067,662.85955,459.263,667.77917Zm-9.78866-.30434c-12.52738,0-12.52738,19.22233,0,19.22233C462.509,686.69716,462.509,667.47483,449.47433,667.47483Z"/><path class="cls-6" d="M470.926,686.9h-2.28231V661.23656h1.52148l.4565,3.246c2.99239-3.90529,9.73791-4.31113,13.54179-2.43447v2.78947c-4.514-5.07178-13.23746-4.61529-13.23746,4.36179Z"/><path class="cls-6" d="M526.61162,659.56292a11.39084,11.39084,0,0,0-9.58574-5.52846c-6.03554,0-9.73791,5.93411-5.579,10.19441L527.981,681.21954a12.47061,12.47061,0,0,0,2.333-7.04976,11.1675,11.1675,0,0,0-5.57895-9.53508h2.99239a14.78866,14.78866,0,0,1,3.04306,9.53508,13.01914,13.01914,0,0,1-2.43448,7.3541L533.56,686.9h-3.19522l-3.5503-3.601a13.74278,13.74278,0,0,1-9.73791,3.90529c-19.78015,0-18.36-20.13514-6.74552-20.84531-4.3618-5.224-.30433-12.78087,6.69486-12.78087a14.78908,14.78908,0,0,1,9.535,3.043Zm-15.8241,7.30343-.05076-.05084c-8.57142.355-10.24507,19.93232,6.33978,19.93232a13.14583,13.14583,0,0,0,9.43358-3.8038Z"/><path class="cls-6" d="M551.25672,653.93313h3.39814l14.30253,15.77335,3.34748-3.70246a78.4728,78.4728,0,0,0,8.67283-12.07089H583.97l-14.80969,16.33118V686.9h-2.53589V670.97447Z"/><path class="cls-6" d="M595.989,660.9829c18.96866,0,18.96866,26.17076,0,26.17076S577.02032,660.9829,595.989,660.9829Zm0,.40583c-15.57052,0-15.57052,25.30843,0,25.30843S611.5595,661.38873,595.989,661.38873Z"/><path class="cls-6" d="M620.53409,680.40805c-2.84022,1.01432-5.32545,5.47762-.45649,5.47762,4.26029,0,10.95514-2.73881,14.404-2.73881,7.75984,0,6.79618,11.81739-4.9197,11.81739a14.68833,14.68833,0,0,1-9.53509-3.04314l-.05066-2.94164a11.43361,11.43361,0,0,0,9.58575,5.57895c9.99149,0,11.66522-9.17991,5.42686-9.17991-3.80388,0-10.29582,2.73863-14.5562,2.73863-5.42678,0-4.71679-5.73111-.40575-7.91192-10.39723-4.56462-8.06417-19.22232,7.10061-19.22232a18.44125,18.44125,0,0,1,5.52828.76082,12.73765,12.73765,0,0,1,7.4556-3.70246l1.42007,2.43447a8.96317,8.96317,0,0,0-8.41917,1.42016c11.66513,3.956,9.68716,19.67865-5.98478,19.67865A17.21639,17.21639,0,0,1,620.53409,680.40805Zm6.59336-19.01932c-14.55611,0-14.55611,19.72931,0,19.72931S641.68356,661.38873,627.12745,661.38873Z"/><path class="cls-6" d="M665.01179,667.77917,671.04723,686.9h-2.38372l-2.28231-7.1006c-1.11583,4.0068-4.869,7.35427-11.15807,7.35427-15.92552,0-15.92552-20.13532,0-20.13532a12.48824,12.48824,0,0,1,7.9121,2.48531l-.96366-2.99247c-1.268-4.00663-4.0068-5.07179-6.9991-5.07179-2.38382,0-4.91971,1.87666-6.03553,2.891v-2.58665a28.04175,28.04175,0,0,1,6.03553-.81149C658.97626,660.9829,663.43947,662.85955,665.01179,667.77917Zm-9.78866-.30434c-12.52738,0-12.52738,19.22233,0,19.22233C668.25776,686.69716,668.25776,667.47483,655.22313,667.47483Z"/></svg>