<svg xmlns="http://www.w3.org/2000/svg" xmlns:xlink="http://www.w3.org/1999/xlink" viewBox="0 0 1080 1080"><defs><style>.cls-1{isolation:isolate;}.cls-2{fill:#fafafa;}.cls-3{fill:#feaead;}.cls-4{mix-blend-mode:multiply;fill:url(#linear-gradient);}.cls-5{fill:#2f2f35;}</style><linearGradient id="linear-gradient" x1="423.33814" y1="215.25395" x2="656.66186" y2="215.25395" gradientUnits="userSpaceOnUse"><stop offset="0.03073" stop-color="#fed0af"/><stop offset="0.38547" stop-color="#fea094"/><stop offset="1" stop-color="#fe93c7"/></linearGradient></defs><title>IGRIK_Bar&amp;amp;Yoga_logo_ALLLL</title><g class="cls-1"><g id="Layer_1" data-name="Layer 1"><circle class="cls-2" cx="540" cy="540" r="540"/><path class="cls-3" d="M234.49,746.21321l23.59028,28.22432c17.38257,20.79668-.02548,38.71054-17.70732,25.1042,28.47173,46.64179-25.40435,86.83681-64.825,39.67207l-21.52046-25.74756ZM160.43861,818.621l16.34722,19.55918c34.454,41.22158,90.28345-5.44131,55.829-46.66289-6.82822-8.17031-14.31342-12.84785-21.91816-14.90273Zm77.98711-65.1832-24.51006,20.48643A65.952,65.952,0,0,1,233.85277,790.482c.72422.8666,1.34517,1.60928,2.06939,2.47588,11.69165,13.98867,32.61225-3.49805,20.92016-17.48584Z"/><path class="cls-3" d="M314.30478,884.16106,293.041,944.287l-6.05567-4.56152,7.79239-22.40684c-10.50381,8.04375-26.44541,9.363-42.42173-2.67363-40.45738-30.48047-1.92041-81.63282,38.5374-51.15235,8.50386,6.40811,13.35938,13.90254,15.34351,21.45762l3.2792-9.44648c4.4477-12.60616-.47154-20.55323-8.07364-26.28018-6.05566-4.56328-16.08969-4.64941-20.86567-4.2082l4.95044-6.57071a89.17288,89.17288,0,0,1,16.886,9.49043C311.97963,855.34436,319.72631,868.65452,314.30478,884.16106Zm-24.28506-19.50732c-31.82476-23.97656-68.61533,24.85459-36.79014,48.83291C286.34281,938.43264,323.13383,889.60061,290.01972,864.65374Z"/><path class="cls-3" d="M317.69032,956.07053l-6.49072-3.25107,36.55283-72.98965,4.32774,2.16738-3.32535,9.88155c14.07349-6.84405,33.83614,1.60928,41.9814,12.36357l-3.97266,7.93477c-5.61445-20.85469-31.075-31.98164-43.86137-6.44942Z"/><path class="cls-3" d="M513.5058,924.734c-4.75224-10.12764-13.65688-19.7042-27.71323-21.70283-19.00811-2.70352-33.32549,14.32617-22.13569,29.60684l44.46254,60.91347a39.66367,39.66367,0,0,0,10.50469-21.157c1.99907-14.05723-4.71621-25.27822-13.29961-32.52832l9.42364,1.34121c4.86562,8.187,7.131,18.6126,5.3143,31.391a41.42439,41.42439,0,0,1-10.96084,22.07109l14.04448,19.27-10.063-1.43-9.56866-12.93135a43.71482,43.71482,0,0,1-32.41713,7.93828c-62.29424-8.85761-48.80479-71.63525-11.90874-68.66982-11.39678-18.40606,4.76587-40.38838,26.808-37.25332,12.77841,1.8167,22.15942,6.89853,28.66684,13.8542Zm-53.10659,15.91348-.13667-.18194c-27.15337-2.72109-41.19258,58.18536,11.03906,65.613A41.81733,41.81733,0,0,0,502.715,998.324Z"/><path class="cls-3" d="M574.98573,908.63069l10.5148-2.50488,55.88305,38.2667,7.62891-13.92364c7.39028-13.53515,12.4708-27.01757,17.9398-43.74316l9.25971-2.20605-33.78955,61.44961,12.26162,51.47666-7.84731,1.86943L635.099,950.03509Z"/><path class="cls-3" d="M709.71371,890.215c54.29268-26.33643,90.628,48.571,36.3353,74.90566C691.75634,991.45706,655.4206,916.55139,709.71371,890.215Zm.56294,1.161c-44.5667,21.61758-9.42759,94.057,35.13911,72.43946C789.982,942.197,754.84291,869.75755,710.27665,891.376Z"/><path class="cls-3" d="M810.48031,901.38323c-4.91133,8.2415-1.96567,24.2209,9.97515,14.35869,10.44888-8.63,21.32007-28.9081,29.77866-35.89277,19.031-15.71836,40.605,15.21474,11.87139,38.947-9.951,8.21953-20.15069,11.83008-29.54883,11.85117l-6.08291-7.11211c10.6853,3.31,23.86406,3.30557,34.81-5.73486,24.50435-20.2377,10.01382-46.1417-5.2853-33.50566-9.32915,7.70449-19.70288,27.57128-30.15176,36.20127-13.30972,10.99248-23.1772-4.50176-17.02134-18.58272-34.74536,9.8666-58.71357-30.80742-21.52177-61.52519a58.6809,58.6809,0,0,1,15.09917-9.33223c.88725-9.312,5.10117-18.65039,10.785-24.18135l8.41377,3.09287c-9.53965,3.9041-16.3916,12.07442-17.771,20.53653,36.62182-13.92627,63.61875,28.64,25.18286,60.38525A54.76887,54.76887,0,0,1,810.48031,901.38323Zm-22.355-60.00029c-35.69941,29.48467,4.264,77.87109,39.96343,48.38642C863.7873,860.28469,823.82431,811.89827,788.12533,841.38294Z"/><path class="cls-3" d="M881.42431,769.79778l59.86977,21.98057-4.63491,6.00117L914.34682,789.72c7.91718,10.59873,9.04746,26.55527-3.17989,42.38789-30.96254,40.09131-81.65127.94394-50.68916-39.14736,6.5083-8.427,14.06162-13.19327,21.63955-15.08643l-9.40693-3.3917c-12.55166-4.59756-20.55806.22676-26.376,7.75986-4.634,6.0003-4.84013,16.033-4.45605,20.81426l-6.51182-5.0291a89.18793,89.18793,0,0,1,9.6917-16.77217C852.58124,771.77884,865.98236,764.19124,881.42431,769.79778Zm-19.79693,24.05039c-24.35625,31.53692,24.03457,68.90977,48.39038,37.372C935.35971,798.40618,886.96933,761.03509,861.62738,793.84817Z"/><path class="cls-4" d="M577.06011,168.961h-5.91553c5.74327,24.47671-4.63762,55.723-31.1449,55.723-26.50673,0-36.88761-31.24624-31.14435-55.72295h-5.91552c-6.50832,24.95579,5.57662,56.47844,36.25428,57.02338a71.53854,71.53854,0,0,1-1.92362,17.73757,38.68206,38.68206,0,0,0-7.89262-5.75227,26.56951,26.56951,0,0,0-6.20827-2.4421,18.84716,18.84716,0,0,0-5.00635-.5714,16.3137,16.3137,0,0,0-2.60817.30344,20.95684,20.95684,0,0,0-6.08385,1.84086,15.17649,15.17649,0,0,0-6.62542,6.32705,11.83132,11.83132,0,0,0-1.32182,8.079c.89,4.50026,3.68623,7.9416,8.40435,10.17428a17.879,17.879,0,0,0,10.7226,1.51379c.69244-.1126,1.36348-.25784,2.0182-.4301a17.339,17.339,0,0,0,7.33924-3.39462q.50242-.3344.99417-.68568a23.24128,23.24128,0,0,0,5.88119-8.75225c.07938-.18634.15932-.37212.237-.563.68061.74029,1.1625,1.27791,1.1625,1.27791s.91311,1.20528.94689,1.17263c.948.99868,1.40119,1.52505,2.38017,2.49051a38.337,38.337,0,0,0,8.6909,6.64231,44.72135,44.72135,0,0,0,4.145,1.89715,17.05084,17.05084,0,0,0,2.64082.82642,19.05286,19.05286,0,0,0,4.75978.48077c5.82546-.12611,10.40172-2.21974,13.81379-6.18237a12.991,12.991,0,0,0,2.607-4.84648,9.862,9.862,0,0,0,.23194-1.72546c.06474-.57534.11428-1.15124.17-1.72714a9.47048,9.47048,0,0,0-.8298-4.40906,13.89031,13.89031,0,0,0-5.42238-6.52409,18.18794,18.18794,0,0,0-10.46364-3.01574,19.906,19.906,0,0,0-8.72242,2.19439,30.5399,30.5399,0,0,0-5.21521,3.277,3.00736,3.00736,0,0,1,.60236.95083c.49934-.33214,1.00488-.65809,1.52674-.97a23.92176,23.92176,0,0,1,7.81268-3.19251,16.17161,16.17161,0,0,1,6.98683.049,15.89624,15.89624,0,0,1,5.80013,2.6594,15.01167,15.01167,0,0,1,3.40137,3.81627,4.14857,4.14857,0,0,1,.38731.91987,11.90341,11.90341,0,0,1,.61475,1.76374,15.88645,15.88645,0,0,1,.15368,2.01369,9.61357,9.61357,0,0,1-1.40232,5.18931,13.28193,13.28193,0,0,1-9.58486,6.15141,15.00633,15.00633,0,0,1-6.84835-.46444,23.6696,23.6696,0,0,1-6.89788-3.39293,41.01908,41.01908,0,0,1-8.67513-8.05926c-.2736-.3389-1.97429-2.28616-2.6549-2.987-.21-.21618-.42559-.42785-.639-.64065a71.51311,71.51311,0,0,0,2.20565-19.02C571.48292,225.44,583.569,193.91675,577.06011,168.961Zm-51.06787,90.99769a19.27909,19.27909,0,0,1-5.4708,1.46481c-.33383.03547-.666.05855-.997.07544-.12835.00337-.25389.00563-.37549.00563v.00731a15.20273,15.20273,0,0,1-7.167-1.45805c-4.22835-2.048-6.68621-5.10825-7.17373-9.246a9.23316,9.23316,0,0,1,1.31506-6.06077c2.504-4.0696,6.55055-6.15534,11.978-6.3597a17.251,17.251,0,0,1,1.75361.07713,20.00162,20.00162,0,0,1,6.43851,2.07505,33.14342,33.14342,0,0,1,7.33192,5.21465c.64346.59955,1.48339,1.46424,2.27265,2.30079C533.29376,254.83633,529.52309,258.26922,525.99224,259.95865Zm117.32483-98.48892a114.96061,114.96061,0,0,0-27.00663-34.06383c-23.18529-19.93817-48.84477-28.43316-73.84333-28.81371-21.93047.107-40.817,4.6303-58.83553,14.79332a117.816,117.816,0,0,0-44.22628,43.1167c-20.51857,34.31378-21.4497,77.24414-2.41958,113.14264a112.92861,112.92861,0,0,0,22.99783,30.16649c21.00327,19.49175,44.47229,29.42,69.95387,31.63693a113.13278,113.13278,0,0,0,65.50373-13.70006,116.50062,116.50062,0,0,0,47.87592-156.27848ZM652.996,239.417c-4.63537,14.14592-9.63779,31.33687-25.64653,36.11185-8.00409,2.86544-18.00949-1.90954-26.01358,3.82021-21.01172,14.32608-31.01655,41.06755-58.0699,45.88813a54.4815,54.4815,0,0,1-10.409.0715,122.1239,122.1239,0,0,1-21.801-3.68792,118.14456,118.14456,0,0,1-48.35274-25.973,112.5025,112.5025,0,0,1-27.91974-36.80035c-9.41542-19.88581-11.406-37.78045-9.66649-54.61336a100.73429,100.73429,0,0,1,18.291-48.70178c4.61-6.52464,10.07238-12.35179,15.14855-18.49531,15.44578-13.83349,33.44682-24.54483,56.22228-29.49376a112.02148,112.02148,0,0,1,56.48012,1.85437c22.1686,6.3794,42.26158,18.55274,59.23241,38.787a106.41174,106.41174,0,0,1,21.533,40.45336,98.231,98.231,0,0,1,2.562,43.02494Q653.93693,235.60045,652.996,239.417Z"/><path class="cls-5" d="M291.3952,438.09131H427.90147v15.23513c-23.15764-7.31262-43.572-12.18811-121.27114-12.18811l.0049,195.00722h-15.24Z"/><path class="cls-5" d="M306.62753,440.05169H291.39559V636.48981c-.00164.172-.00653.30186-.00816.495-.00653,3.58494,3.54895,3.11593,3.38578,12.72175-.04079,2.41809,1.99557,2.93741,2.02984.16553.08158-6.68139,3.15734-9.747,5.618-9.747s4.2-1.94421,4.20163-3.13215h.0049Z"/><path class="cls-5" d="M816.77849,438.09131H832.0124v85.3155l29.25169-21.02423c31.68883-22.8527,56.97865-47.22768,73.43235-64.29127h20.71929l-97.80856,70.38532L973.69788,636.14555H952.97859L845.11535,517.61771l-13.103,9.446V636.14555H816.77849Z"/><path class="cls-5" d="M777.71219,438.09109h-15.2339V582.2137c0,21.80482-12.795,36.34929-30.38815,44.05186-3.51863,1.54052-7.22715,2.795-10.86885,2.62074-19.74125-4.57644-18.76666-29.91565-35.33461-38.68692-2.92375-.97458-6.82209.97459-9.74584,1.94917-11.695,6.8221-27.28838,26.3138-39.00085,11.32538a33.96287,33.96287,0,0,1-4.21117-9.74822,44.51618,44.51618,0,0,1-1.47142-11.512V559.361c0-59.41579,4.87548-92.01823,12.1881-121.26992H628.41037V582.2137a50.97252,50.97252,0,0,0,1.088,10.62127,46.2521,46.2521,0,0,0,3.11358,9.4998c2.5963,6.38173,6.49464,12.22924,15.2659,11.25465,15.59336-2.92375,24.36463-25.33921,38.9834-17.54253,16.56794,8.77127,16.56794,39.958,38.63312,39.6068a94.804,94.804,0,0,0,10.49571-2.82807c10.19274-3.39456,19.36073-8.47068,26.48819-15.22821v18.62691h15.2339V438.09109Z"/><path class="cls-5" d="M255.60394,438.09109H240.37V582.2137c0,69.77542-131.0209,65.20489-131.0209,0V559.361c0-59.41579,4.87549-92.01823,12.18811-121.26992H106.30212V582.2137c0,59.63745,96.05541,71.42386,134.06792,35.38371v18.62691h15.2339V438.09109Z"/><path class="cls-5" d="M448.00588,438.09133h37.49239a83.48959,83.48959,0,0,1,8.70615.31354c16.68927,3.33008,15.87884,24.40112,29.65606,32.50537,1.62085.81042,4.05212,0,5.673-.81043,12.15637-8.10424,25.12317-23.50231,39.80453-13.47667a80.30052,80.30052,0,0,1,6.45051,5.08264c16.18711,14.16867,24.26173,33.06023,24.26173,51.95178,0,31.87832-22.99376,63.75764-69.16318,72.94165q-2.565.51022-5.22531.92581a196.92768,196.92768,0,0,1-22.80984,1.69728l-3.80878.00009H478.47573a63.06455,63.06455,0,0,0-15.23492.914v46.009H448.00588Zm15.23493,3.04755V586.78463c4.87551-.30559,10.05522-.60978,15.23492-.60978h12.18808c14.5569-.18431,29.14455-.18431,42.96837-4.641a79.287,79.287,0,0,0,8.61872-3.39311c27.36042-12.68541,41.04063-38.58465,41.04063-64.48318a71.337,71.337,0,0,0-14.77463-43.76492,50.22214,50.22214,0,0,0-5.37294-5.96292c-11.729-9.228-23.075,2.9284-32.80008,9.41179-4.86255,2.43128-8.91467,0-12.15637-3.2417-8.10425-9.72509-10.53552-27.55443-25.69506-28.61871a83.03144,83.03144,0,0,0-9.4461-.34222Z"/></g></g></svg>