<svg id="Layer_1" data-name="Layer 1" xmlns="http://www.w3.org/2000/svg" viewBox="0 0 1080 600"><defs><style>.cls-1{fill:#2f2f35;}</style></defs><title>IGRIK_Bar&amp;amp;Yoga_logo_ALLLL</title><path class="cls-1" d="M716.47561,220.36453H731.5882c11.13519,0,12.19625,10.2072,3.248,12.19556,22.20489,3.31415,20.68054,30.88843-4.57377,30.88843H716.47561Zm3.31415.66255v13.12424a27.09514,27.09514,0,0,1,10.47264-1.92216h1.3258c7.49011,0,7.49011-11.20208,0-11.20208Zm0,41.75889H730.2624c22.07253,0,22.07253-29.89426,0-29.89426a17.83456,17.83456,0,0,0-10.47264,2.98253Z"/><path class="cls-1" d="M782.23127,238.45965l7.88723,24.98887h-3.1149l-2.98323-9.27991c-1.45817,5.23632-6.36286,9.61154-14.58241,9.61154-20.81291,0-20.81291-26.31467,0-26.31467a16.32075,16.32075,0,0,1,10.34027,3.248l-1.25892-3.91122c-1.65742-5.23632-5.23632-6.62831-9.14753-6.62831-3.1149,0-6.42906,2.453-7.88723,3.77815v-3.38034a36.63913,36.63913,0,0,1,7.88723-1.06036C774.34335,229.57756,780.176,232.0299,782.23127,238.45965Zm-12.79331-.39781c-16.37151,0-16.37151,25.12124,0,25.12124C786.47342,263.18308,786.47342,238.06184,769.438,238.06184Z"/><path class="cls-1" d="M797.47763,263.44852H794.4951V229.90918h1.98836l.59636,4.24214c3.91052-5.10394,12.72643-5.63413,17.698-3.18178v3.64578c-5.89957-6.62831-17.3002-6.03194-17.3002,5.70032Z"/><path class="cls-1" d="M745.50737,280.9013c-2.51854-3.84434-6.6945-7.22468-12.52718-7.22468-7.88792,0-12.72643,7.75486-7.29156,13.3228l21.60853,22.2049a16.29766,16.29766,0,0,0,3.04941-9.213c0-5.83338-3.381-10.00934-7.29155-12.46169h3.91052a19.32505,19.32505,0,0,1,3.9774,12.46169,17.01491,17.01491,0,0,1-3.18178,9.61083l6.82756,7.02612h-4.176l-4.63995-4.70614a17.96229,17.96229,0,0,1-12.72644,5.10395c-25.85067,0-23.99469-26.31467-8.81591-27.24266-5.70031-6.82686-.39781-16.70313,8.74973-16.70313a19.32671,19.32671,0,0,1,12.461,3.9767Zm-20.68054,9.54464-.06619-.06618c-11.20137.464-13.389,26.04992,8.28573,26.04992a17.18055,17.18055,0,0,0,12.32863-4.97157Z"/><path class="cls-1" d="M711.83566,326.72327h4.4407l18.69218,20.61366,4.37452-4.83851a102.55407,102.55407,0,0,0,11.33444-15.77515h3.91122L735.234,348.06636v21.7409h-3.31415v-20.8129Z"/><path class="cls-1" d="M770.30116,335.9363c24.78961,0,24.78961,34.20259,0,34.20259C745.51085,370.13889,745.51085,335.9363,770.30116,335.9363Zm0,.53018c-20.34891,0-20.34891,33.07535,0,33.07535S790.65007,336.46648,770.30116,336.46648Z"/><path class="cls-1" d="M802.38372,361.323c-3.71126,1.3258-6.95923,7.15848-.59636,7.15848,5.56794,0,14.31767-3.57889,18.82455-3.57889,10.14171,0,8.8821,15.44352-6.42975,15.44352-5.3025,0-9.47846-1.52436-12.461-3.97671l-.06619-3.84433c2.51854,3.84433,6.6945,7.29086,12.52718,7.29086,13.05806,0,15.24566-11.997,7.0923-11.997-4.97088,0-13.45516,3.5789-19.02311,3.5789-7.0923,0-6.16431-7.49011-.53018-10.34027-13.58824-5.96506-10.53883-25.12124,9.27991-25.12124a24.10778,24.10778,0,0,1,7.22467.99418,16.64853,16.64853,0,0,1,9.7439-4.83851l1.856,3.18178c-4.04358-1.25962-8.35191-.464-11.00351,1.856,15.24566,5.17013,12.66024,25.7176-7.821,25.7176A22.50582,22.50582,0,0,1,802.38372,361.323Zm8.61736-24.8565c-19.02381,0-19.02381,25.78449,0,25.78449C830.02419,362.251,830.02419,336.46648,811.00108,336.46648Z"/><path class="cls-1" d="M860.51621,344.8184l7.88792,24.98886h-3.1156l-2.98253-9.2799c-1.45817,5.23632-6.36356,9.61153-14.58241,9.61153-20.81291,0-20.81291-26.31467,0-26.31467a16.32222,16.32222,0,0,1,10.34027,3.248l-1.25961-3.91122c-1.65673-5.23632-5.23632-6.6283-9.14684-6.6283-3.1156,0-6.42975,2.453-7.88792,3.77814v-3.38033a36.64534,36.64534,0,0,1,7.88792-1.06037C852.62829,335.9363,858.46167,338.38865,860.51621,344.8184Zm-12.79262-.39781c-16.37221,0-16.37221,25.12124,0,25.12124C864.75835,369.54183,864.75835,344.42059,847.72359,344.42059Z"/><path class="cls-1" d="M191.613,220.37362H180.10085l0,149.2735c-.00123.13072-.00493.22938-.00616.37613-.00494,2.7242,2.68226,2.3678,2.55894,9.66727-.03083,1.83751,1.50824,2.23214,1.53414.12579.06166-5.0772,2.38629-7.40676,4.246-7.40676s3.17432-1.47741,3.17556-2.38013h.0037Z"/><path class="cls-1" d="M332.97778,261.58747v95.77831c-10.36,7.36813-23.48419,11.74348-39.14031,11.74348-.80743,0-1.60606-.01481-2.39913-.03748-.25125-.0074-.4988-.019-.7482-.02869q-.82176-.03123-1.63335-.07727-.41644-.025-.8301-.05367-.78636-.05484-1.56209-.12493c-.25819-.02314-.51731-.04442-.77411-.07034q-.91963-.09161-1.82538-.20636c-.13835-.01712-.27855-.031-.41643-.049-1.59958-.22765-3.16815-.49787-4.6884-.84767-14.74618-6.55748.41577-24.5623-9.06045-34.98614-8.5286-11.37147-23.69055-6.63336-36.00964-9.47623-2.84286,0-3.79049-1.89524-4.83179-4.16868a57.85629,57.85629,0,0,1-2.14119-6.96912q-.39422-1.97181-.688-3.97695c-.01805-.12262-.03656-.24524-.05414-.36832-.07634-.534-.14621-1.06931-.21284-1.60559-.01851-.14668-.03841-.29289-.056-.43957q-.1159-.97515-.21053-1.95355c-.019-.19988-.03424-.39977-.05229-.59966-.03516-.39654-.07079-.79262-.10087-1.18962-.01851-.23968-.03285-.48029-.049-.72043-.02453-.36091-.049-.72182-.069-1.08274-.01434-.2531-.025-.5062-.037-.7593-.0162-.34749-.03239-.695-.04489-1.04294-.00925-.26281-.01573-.52609-.02267-.78937-.00925-.3387-.01758-.6774-.02267-1.0161-.00416-.26791-.006-.53628-.00787-.80419q-.00347-.5018-.00138-1.00315.00207-.40463.00786-.80881.00694-.50319.01944-1.00638.0097-.39978.02313-.8c.01111-.33731.02545-.67463.04072-1.01194q.01736-.39839.0384-.79632c.018-.33962.0398-.67925.062-1.01887.01712-.26143.03377-.5224.05321-.78383.02591-.347.05552-.69359.08514-1.04016.02174-.25218.0421-.50435.06616-.75606.03424-.36369.07311-.72645.112-1.08921.02545-.2346.04858-.46965.07542-.70378.04581-.39932.09763-.79817.149-1.19656.02545-.19711.04812-.39422.075-.59134q.24153-1.78164.55663-3.54988c.03517-.199.0745-.39654.11152-.595.07218-.39052.14436-.781.2221-1.17018.04627-.23367.09716-.46641.14575-.69961.07311-.35212.14621-.70424.22349-1.055.05506-.24709.1129-.49278.16981-.73941.07773-.33685.15547-.6737.23737-1.00962.06107-.25218.12539-.503.18924-.75468q.12356-.4893.25218-.97769.10272-.38521.2096-.76856.13257-.4796.27022-.9578.11037-.38173.22488-.76254.143-.4782.29243-.95456.118-.37827.23968-.75514.15339-.474.31325-.94577c.08375-.24894.168-.49787.25449-.74588.11013-.31649.22349-.6316.33732-.94624.08837-.24384.17582-.48769.26651-.73015.11938-.32019.24293-.63853.366-.95687.09069-.23367.18-.4678.273-.70008.13187-.33037.26791-.65843.40394-.98649.09069-.21793.17907-.43725.27161-.65426.1527-.35906.31094-.71535.46919-1.07163.081-.18323.15963-.36785.24246-.55016q.35189-.77735.72089-1.545c.01666-.03517.03332-.07033.05044-.1055q.37131-.76971.76022-1.53063c.08745-.17167.17907-.34055.26791-.51129.18184-.34981.36415-.70008.552-1.04664.11105-.20544.22626-.409.33962-.61355.17121-.30909.34194-.61818.51731-.92449.124-.21608.25125-.42985.37757-.645.17027-.29058.341-.58116.51592-.86943.13325-.22024.26975-.43864.40579-.6575q.25957-.41921.52471-.83518.211-.329.42615-.65473.2686-.4095.54275-.81529.21933-.32482.44328-.64594.27762-.40116.5608-.79724.229-.32.46085-.63761.288-.39354.58255-.78151c.15686-.20822.31418-.41644.47381-.6228.20081-.25958.40487-.51731.60985-.77411.15963-.20035.3188-.40117.48075-.59921.21284-.261.42939-.51823.64594-.77549.16056-.19017.31926-.38173.48167-.57006.229-.26559.46225-.52655.695-.78845.15593-.17536.31-.35212.46826-.52563.261-.28734.52748-.56959.794-.85184.13511-.143.26791-.28873.40441-.43078q1.21668-1.26527,2.50555-2.4653c.143-.13326.28965-.26235.434-.39423.28965-.26466.57931-.52933.87451-.78845.17491-.15408.354-.304.53119-.45622.26929-.23182.53859-.46364.81251-.69082.19341-.16056.39053-.31742.58579-.47567.26374-.21377.52794-.42707.79585-.63668.20406-.15963.41088-.31649.61725-.47381.26606-.20267.53211-.40441.80187-.60291.21238-.15639.42708-.31047.64177-.46455q.40535-.29013.81529-.57515c.21886-.15177.43911-.30122.66028-.45021q.41436-.279.8338-.55155.33661-.21863.67648-.43355.42546-.2686.85739-.5298c.22812-.13881.45669-.27762.68712-.41366.29382-.17305.59088-.34286.8884-.51175.23-.131.45946-.26189.6922-.39006.30632-.16843.61633-.33269.92681-.49695.229-.12123.45715-.24385.6885-.3623.32714-.1675.6589-.32991.99066-.49232.21978-.10781.43772-.21793.65981-.32343.37063-.17583.74681-.34564,1.123-.515.18786-.08514.37341-.173.56312-.25634q1.70391-.7482,3.48093-1.4057c.19712-.07265.39793-.14066.59689-.21146.397-.14251.79493-.285,1.19749-.4206.24014-.081.48445-.15639.72645-.23459.36785-.11891.7357-.23829,1.10818-.35119.25865-.07866.521-.15223.782-.22812.36091-.10457.72229-.20914,1.08736-.30816.27346-.0745.55016-.14483.82593-.21608.3586-.09254.7172-.1837,1.07949-.27069.28411-.06848.57006-.13326.85647-.1985q.54207-.12285,1.08968-.23875c.29058-.06108.58254-.11938.875-.17722q.55248-.10827,1.10957-.20868.4435-.07913.88932-.15454c.37618-.06247.75468-.12123,1.13456-.17861.29937-.04488.59874-.08976.90043-.13094.38589-.05322.775-.10134,1.16463-.14853.30076-.03656.601-.074.90459-.10735.40116-.04349.80649-.08144,1.21229-.11892.29613-.0273.59087-.05691.88932-.081.42846-.0347.86109-.06246,1.29419-.09023.28132-.018.5608-.03933.84444-.0546.484-.02591.974-.043,1.464-.06061.2369-.00833.471-.02082.70933-.0273q1.09661-.02914,2.21127-.03008c22.5634,0,41.21323,15.88749,50.422,26.70926V233.49751c-12.89284-8.9802-29.70018-14.73627-50.422-14.73627-.9777,0-1.94383.01573-2.90394.04072-.29891.0074-.59458.01943-.89164.02961q-1.01055.034-2.00861.08514-.481.025-.95826.05367-1.02443.06246-2.03359.14529c-.25958.02082-.521.03887-.7792.062q-1.37493.12077-2.72488.27531c-.143.01666-.28271.037-.42522.05414q-1.13688.136-2.2557.29613c-.28919.04165-.5756.08653-.86294.13048q-.91409.14021-1.81612.29521c-.29243.05044-.5844.10087-.87452.15362q-.99319.18185-1.96881.38312c-.198.04072-.39793.07773-.595.11938q-1.26042.2679-2.49492.56681c-.19479.04766-.38635.099-.58023.14761q-.9453.23527-1.87581.48861c-.27207.0745-.54229.15131-.81251.22812q-.835.23736-1.65741.48954c-.25681.07866-.51453.1564-.76995.23737q-.987.31233-1.95447.64686c-.12354.04257-.24986.08236-.37294.12539q-1.1445.40048-2.26171.83149c-.21053.08051-.41782.16518-.627.24755q-.81.31857-1.607.65195-.3741.15617-.744.31649-.76625.33037-1.51814.67509c-.21933.1004-.4405.199-.658.30076q-2.11549.99111-4.12549,2.08773c-.20637.11243-.41.22811-.61493.3424q-.70448.39283-1.39645.7977-.33455.19574-.66537.39423-.70516.42338-1.39553.86063c-.17767.11244-.35813.22256-.53488.33639q-.94045.60522-1.85638,1.23311c-.09671.06663-.19064.13557-.28734.20267q-.769.53511-1.52,1.0855c-.19341.14206-.38405.286-.57561.4294q-.61424.46016-1.21553.93142c-.19341.15131-.38636.30261-.57792.45577q-.65381.52332-1.29141,1.06006c-.1328.11151-.26837.22117-.40024.33315q-.82453.70239-1.62225,1.42513c-.12678.11522-.25078.23321-.37664.34888q-.61008.56081-1.20535,1.13224c-.17351.167-.34472.335-.51592.50343q-.53373.5247-1.054,1.05821c-.16195.16611-.32482.33129-.48445.49833q-.62328.65172-1.22756,1.31594c-.075.08236-.15223.16333-.22673.24616q-.71.78776-1.39228,1.59448c-.12956.15269-.25588.3077-.38359.46132q-.49278.59064-.97214,1.18915-.22488.2825-.44651.56636-.45808.58509-.90182,1.179c-.13.17352-.26189.34611-.39006.521q-1.24514,1.6935-2.38432,3.449c-.11614.1786-.229.35906-.34333.53859q-.39909.626-.78475,1.2581-.18393.3019-.36461.60522-.38937.6531-.763,1.31316c-.0967.17027-.19572.33962-.291.51082q-.50528.90576-.98556,1.82445c-.05183.09995-.10134.20128-.1527.30169q-.40047.77666-.78243,1.56163c-.09856.2022-.19434.4058-.291.60939q-.31025.65379-.60846,1.31223c-.09532.21192-.1911.42291-.28457.6353q-.322.73084-.627,1.46724c-.06247.15038-.12771.29937-.18879.44975q-.39075.9578-.75514,1.92439c-.05737.15269-.11151.30631-.168.459q-.27553.74612-.53674,1.49685c-.07634.22025-.15038.44142-.22441.66213q-.22973.68226-.44559,1.36869c-.06755.21377-.13557.42708-.20127.64177q-.25542.835-.49186,1.67592c-.02961.10411-.06154.20822-.09023.31279q-.27623.99528-.52378,1.9975c-.04627.18647-.0893.37341-.13419.55988q-.177.73431-.34055,1.4714-.07564.34287-.14806.6862-.15131.71418-.28827,1.43068c-.04025.20961-.08236.41875-.12077.62836q-.3734,2.03011-.64131,4.07737c-.02776.21145-.05228.42291-.07819.63437q-.08884.7239-.16519,1.44965-.03609.34911-.06987.69869-.07149.74958-.12863,1.50148c-.01435.19249-.03147.38451-.04488.577q-.0708,1.02859-.11753,2.05765c-.00463.10966-.00648.21932-.01064.329q-.03471.87036-.05044,1.74163c-.0037.223-.00509.446-.0074.66954q-.00695.72112-.00093,1.44271c.00185.23043.0037.4604.00741.69082q.01388.794.04349,1.588c.006.16334.00925.32621.01619.48908q.04443,1.02929.11429,2.05673c.01111.16195.02591.32389.03794.48538q.059.79331.13326,1.58477c.02175.23.04535.45946.069.689q.07426.71557.161,1.43022c.02684.223.05321.44605.0819.66861q.11244.86271.24338,1.72266c.01666.10919.03054.21839.04766.32713q.15963,1.01819.3461,2.03082c.03517.19109.07357.38127.11013.57236q.1409.73918.29474,1.4765.07218.34287.14807.6848.15685.71488.32806,1.42745c.049.20544.0967.41089.1476.61586q.49764,2.00653,1.10078,3.98622c.06154.20266.12678.4044.19017.6066q.21862.69684.45021,1.39.11244.33592.22765.67047.245.71141.50574,1.41819c.06709.18231.13187.36507.19989.54692q.36369.96821.75282,1.92717l.01851.04766c.02961.07172.06154.142.09115.21377,6.03369,15.1018,24.03851,9.41607,37.30522,12.25894,1.89524.94762,4.73811,1.89524,5.68573,3.79049,3.79049,9.47622-.94762,25.58579,13.67236,28.444a58.97577,58.97577,0,0,0,7.96517,1.27281c.11613.01295.2295.02868.3461.04118.09994.00971.20266.01619.30307.02544.47289.04442.9504.08283,1.42791.12077.35073.02823.70008.05877,1.05358.08375.50343.03517,1.01241.06293,1.52092.09115.33454.01851.66676.04072,1.00361.056.56589.02638,1.13779.0435,1.7097.06108.28595.00879.56866.02175.856.02869q1.29373.02915,2.60782.03054c20.95133,0,37.75959-5.75606,50.65244-14.73626v-95.088Z"/><path class="cls-1" d="M544.56309,359.89958c-29.76727,21.38118-56.104-17.16177-109.41148-24.2347,81.191-12.31446,75.68808-115.29155-16.52971-115.29156H377.17824V370.02913h11.51213V337.51847a66.97371,66.97371,0,0,1,11.51213-.64316h18.4194c40.522,0,77.82069,56.63894,127.32284,24.86584ZM405.2682,334.57289h-5.06571c-3.93948,0-7.73737.14714-11.51213.4664V222.67574h7.76a66.29418,66.29418,0,0,1,7.247.2767c17.82195,2.59393,20.66481,26.28449,38.66963,28.17973,6.63336.94762,11.37147-10.42384,19.90007-7.581,5.68573.94762,11.37146,6.63335,12.63084,12.9a49.47066,49.47066,0,0,1,2.49751,7.08254,57.77734,57.77734,0,0,1,1.507,22.70706c-2.421,16.063-10.94964,30.27728-24.11224,38.58608a56.77928,56.77928,0,0,1-7.53508,4.07127,69.62577,69.62577,0,0,1-28.63327,5.67472Z"/><rect class="cls-1" x="522.45963" y="220.37333" width="11.51213" height="109.36522"/><path class="cls-1" d="M566.65639,220.37333h11.51213v64.46792L600.272,268.95377a417.34153,417.34153,0,0,0,55.48772-48.58043h15.65612l-73.90712,53.18528,87.72166,96.47053H669.57425L588.0695,280.4659l-9.901,7.13863v82.42461H566.65638Z"/></svg>