<svg xmlns="http://www.w3.org/2000/svg" xmlns:xlink="http://www.w3.org/1999/xlink" viewBox="0 0 1928.68085 968.17021"><defs><style>.cls-1{isolation:isolate;}.cls-2{fill:url(#linear-gradient);}.cls-3{fill:#fafafa;}.cls-4{fill:#2f2f35;}.cls-5{opacity:0.9;mix-blend-mode:multiply;}</style><linearGradient id="linear-gradient" x1="240.12766" y1="1208.29787" x2="1688.55319" y2="-240.12766" gradientUnits="userSpaceOnUse"><stop offset="0.03073" stop-color="#fed0af"/><stop offset="0.38547" stop-color="#fea094"/><stop offset="1" stop-color="#fe93c7"/></linearGradient></defs><title>IGRIK_Bar&amp;amp;Yoga_logo_ALLLL</title><g class="cls-1"><g id="Layer_1" data-name="Layer 1"><rect class="cls-2" width="1928.68085" height="968.17021"/><path class="cls-3" d="M254.44907,247.90936a1509.6346,1509.6346,0,0,0,84.24544,248.0719c23.28922,52.8707,52.84036,108.01662,107.99338,142.19566,49.44923,30.64433,115.88619,42.07079,170.36146,13.779,88.77259-46.10477,63.95187-128.62446,68.66784-202.23051,1.36877-21.363,3.03575-42.832,5.87259-64.09973,3.32785-24.94828,10.86408-47.6306,34.42159-64.44678,27.0212-19.28874,62.64317-20.239,96.20923-18.45213,46.79951,2.49135,89.9333,9.44906,134.15963-8.4085,86.049-34.74448,111.52569-119.58662,119.14812-193.71548,2.22721-21.66066,3.88177-43.43679,3.28461-65.19175a253.11075,253.11075,0,0,0-2.92377-32.70166q-.21855-1.372-.41845-2.70941H1013.462a220.98682,220.98682,0,0,1,11.04763,19.17126,196.608,196.608,0,0,1,21.24834,81.8383c2.69374,68.12413-29.54114,138.00777-106.75686,165.243-83.12163,29.31373-168.78732,3.23383-248.47-19.94331-28.61009-8.32178-80.5806-17.34156-96.54173,12.39759-5.41981,10.09815-3.84078,21.81923-1.602,32.75746,7.07426,34.56367,19.48774,68.22938,31.169,101.8123,11.64846,33.48691,29.22807,67.52849,33.76808,102.37778,3.11324,23.89643-1.97413,49.12662-17.58087,69.48181-16.946,22.0942-44.6423,37.14161-75.41153,40.53289C450.71013,618.192,395.7104,479.508,367.60352,409.34981,339.22683,338.518,321.77213,264.94907,307.688,191.20012c-6.56368-34.369-12.2406-68.38032-15.35218-102.98366q-2.599-28.90345-3.691-57.88485c-.11453-3.08868.7694-17.23846,1.094-30.33161H215.24414A1502.34307,1502.34307,0,0,0,254.44907,247.90936Z"/><path class="cls-3" d="M458.47177,450.12958c15.94059,34.27865,40.19564,80.14092,87.679,88.20661,16.53907,2.80864,33.2487-1.02731,45.3922-11.06242C617.34637,505.92492,616.547,470.932,609.35974,443.981c-4.81529-18.05651-12.79035-35.3501-20.97714-52.44218q-13.06421-27.29239-26.228-54.54184c-16.7217-34.81275-34.16739-72.2772-25.55365-110.58994,5.79667-25.78209,25.64609-50.43392,54.83965-58.85191C635.751,154.77827,689.35118,177.66051,727.40223,195.64c27.52848,13.00748,52.49918,30.03948,83.79575,35.8924,85.18092,15.93,177.22683-9.02758,187.5107-90.57852,4.45981-35.37694-2.58482-73.88259-12.41513-100.48833A232.851,232.851,0,0,0,966.7302,0H920.3341q8.07048,8.476,15.405,17.394c20.484,24.92294,35.269,58.41112,34.7522,89.96121-.46537,28.40864-13.3369,55.24595-45.62509,72.84408-66.581,36.28323-149.098-26.00087-195.00162-62.62866-45.92656-36.646-117.565-107.90675-189.62089-71.838-102.55736,51.33789-51.58765,206.649-14.27182,278.43989,14.09414,27.11524,73.37267,105.83035,37.55138,134.762-6.02211,4.85344-15.16683,5.28809-22.89372,3.82549-37.68334-7.1265-49.93011-53.31566-61.86107-79.15635C423.09314,263.01882,400.425,126.33985,440.15194,0H348.0226c10.86917,106.05771,27.60248,213.1289,59.53873,316.1C421.55335,361.21393,438.2727,406.69309,458.47177,450.12958Z"/><path class="cls-3" d="M179.19622,0h-23.589c-2.61206,6.00719-4.98791,12.09922-7.078,18.25488-17.31931,51.08727-15.9633,105.47027-6.18366,157.57482,10.19,54.28754,29.64964,106.86914,47.19282,159.66261,8.93322,26.8722,17.72917,53.92464,23.98752,81.35846,5.3368,23.394,6.65413,51.68121-6.60822,73.08618-5.67554,9.16019-14.02119,17.06-25.86462,22.77651-10.79791,5.20222-22.95134,7.6078-35.16694,8.89012C84.5034,528.04736,43.67652,534.82923,3.49186,577.83117Q1.71807,579.727,0,581.66159v73.14166C25.30394,630.742,60.141,613.43649,96.397,604.376c36.91559-9.22978,75.73488-11.25368,114.00678-9.696,21.43133.87226,43.41825,5.84573,64.87827,3.34165,29.25307-3.41344,45.44094-19.99368,45.80574-44.60866.65782-44.38485-41.53607-107.454-55.32908-134.16372-15.50281-30.02058-31.19242-59.999-43.3605-91.14321-12.70334-32.4898-22.13456-65.838-29.97314-99.40893-7.76385-33.274-14.12159-66.79162-20.29315-100.29892C166.25926,96.51263,161.1828,63.27031,169.295,31.321,172.11751,20.20485,176.92585,10.941,179.19622,0Z"/><path class="cls-3" d="M101.34432,402.03783c18.02749-26.13211,23.40212-57.08692,23.37407-86.9761-.02655-28.13752-4.84863-56.69862-9.85167-82.52592-13.25-68.40072-34.13786-138.79486-11.80114-207.56216C105.97323,16.022,109.83027,7.10532,116.90169,0H68.5943c-3.14771,7.54326-6.20817,15.10619-9.11294,22.716C33.6565,90.37152,26.51719,157.78674,48.00781,227.80179c9.85353,32.10223,16.783,68.05858,8.13963,100.91949C48.54626,357.62,26.00914,375.84954,0,381.75438V493.48856a137.02666,137.02666,0,0,1,24.91067-28.205C50.52092,443.62331,82.57174,429.25,101.34432,402.03783Z"/><path class="cls-3" d="M1267.42294,944.3054c-10.663-21.64931-22.19687-43.05481-36.09456-63.3479-26.53914-38.75248-62.47176-73.224-111.10811-92.08638-43.54737-16.88882-95.21014-19.98688-138.2672-.17026-40.87418,18.81022-72.70085,54.3414-119.5456,63.09416-54.91516,10.25668-106.41328-27.8378-157.28421-38.80955-52.65758-11.357-107.34031-6.25487-160.97257-3.8106-54.17262,2.46883-111.26953,2.96683-160.73932-18.77789-49.66876-21.81868-83.85971-60.74078-123.51283-92.97656-40.02-32.51664-91.35389-61.76309-149.21492-54.2076C66.84629,648.93708,29.01918,671.29191,0,698.63475V803.1342c54.67291-51.13609,127.48152-99.73721,212.77915-70.0493,96.48138,33.58043,131.97549,136.21917,251.35677,133.34019,51.67175-1.25032,101.27861-16.78522,152.97561-17.8343,23.81408-.47678,47.1554,2.72324,69.116,10.7133,21.93524,7.97941,41.85508,19.2758,62.99419,28.57958,22.25912,9.80212,46.33438,16.97621,71.71649,13.89258,27.18577-3.30633,51.23649-15.927,73.744-28.59017,40.97206-23.04815,82.541-50.71658,131.82408-59.014,48.31275-8.13827,93.70156,8.37166,127.02155,38.117,18.15313,16.21295,32.10072,35.46756,43.88331,55.4,10.48908,17.74413,21.60428,36.70032,28.58982,55.68362q.90919,2.471,1.57819,4.7975h52.50441C1275.89122,959.67413,1270.9606,951.48811,1267.42294,944.3054Z"/><path class="cls-3" d="M690.24626,909.62839c-34.55179-11.12665-72.351-14.23141-108.98053-11.2749a368.45615,368.45615,0,0,0-55.156,8.88c-18.92436,4.46152-37.5626,9.84452-56.77314,13.41574C387.40125,935.88116,354.51437,885.728,310.513,838.21651c-18.53862-19.98571-40.59845-38.75272-68.71774-48.54416-48.90973-17.03092-115.75192-.908-161.5476,16.78528C52.4706,817.18935,24.84464,834.51194,0,854.775V968.17021H53.346a104.88691,104.88691,0,0,0,10.93555-26.28728c9.03513-32.16262,18.65858-67.3532,49.78714-90.56483,35.51126-26.47976,90.58081-21.35424,124.193,5.58028,26.427,21.17718,39.86842,51.245,64.945,73.8094a264.488,264.488,0,0,0,54.1082,37.46243H780.77328A159.34144,159.34144,0,0,0,767.0638,953.584C746.13607,933.91627,719.3233,918.98545,690.24626,909.62839Z"/><path class="cls-3" d="M1928.68085,627.41576V746.6667c-9.86085-7.029-18.36458-13.72309-23.47738-16.62213-28.63912-16.24589-70.62113-27.85838-100.57888-8.80476-59.75761,38.002-111.26388,86.30269-168.51765,127.17054-25.05878,17.889-50.11761,36.87893-78.74628,50.591-46.65307,22.34537-103.0336,27.86114-155.29735,19.94154-59.72953-9.05375-87.9584-33.97725-128.089-69.93509-40.04293-35.87762-72.80942-85.53645-126.10771-107.655-49.2515-20.43949-110.61862-22.68285-160.60294-2.77727-24.93262,9.92792-43.8197,24.89028-62.53488,41.70878-16.34824,14.68849-34.99679,31.19723-59.85921,33.814a58.74808,58.74808,0,0,1-37.28669-8.35946c-10.92682-6.94039-17.64217-17.24173-26.78759-25.63441-21.47506-19.73128-54.59577-18.97887-83.38915-14.69679-33.25751,4.94876-65.86624,12.78814-99.08864,18.00246-60.95337,9.56823-125.515,13.37452-184.29072-6.45357-40.618-13.701-75.34479-38.53874-99.00795-69.79957-12.27693-16.21544-13.371-36.60231,9.27523-46.56064,24.41-10.719,57.02577,7.53237,76.66324,18.66356,27.43987,15.55711,54.60622,29.17786,86.34179,38.0048,41.68058,11.59318,84.43063,12.03851,126.809,2.77727,41.72964-9.1257,80.68553-25.37989,119.31872-41.24408,70.07427-28.77955,152.741-60.36956,231.52236-38.61334,17.9052,4.94871,33.90621,13.03428,50.00547,21.1725,16.95833,8.58347,34.96172,17.65384,55.03049,19.25273,21.5381,1.71778,41.17207-6.45352,61.24084-11.65674a204.91188,204.91188,0,0,1,51.39762-6.65274c32.97343.03045,66.39225,9.35531,87.94084,31.50423,12.59253,12.93752,20.56671,28.39787,28.87765,43.48744,22.71628,41.24408,60.017,83.65546,112.49122,100.67036,37.93529,12.30406,79.34232,8.90164,116.345-4.17419,79.4687-28.07141,126.37411-92.13941,178.694-146.52288,23.50189-24.42555,50.24042-48.38644,84.343-61.90757a154.31725,154.31725,0,0,1,102.648-3.51861A145.43731,145.43731,0,0,1,1928.68085,627.41576Z"/><path class="cls-3" d="M1928.68085,900.088c-8.1998,5.13639-18.97895,7.47679-31.40509,5.59318-18.03619-2.73412-32.43382-12.2494-50.98388-13.70794a143.886,143.886,0,0,0-30.7195,1.24006c-21.31343,2.90349-41.96711,8.57265-63.34563,11.1692-9.99716,1.209-32.66224,1.93034-27.26793-12.81913,3.24572-8.85422,23.97648-11.37033,32.54631-15.0933A132.63982,132.63982,0,0,0,1780.15,863.94456c16.40477-11.37478,26.29283-25.736,36.78261-41.08688,27.97822-40.94231,83.29731-21.7098,111.74826,9.50666V767.20007a38.16681,38.16681,0,0,0-5.559-2.19783,3.41206,3.41206,0,0,0-1.2318-.6359,255.99158,255.99158,0,0,0-50.95031-8.6787c-25.81049-1.77073-50.51415,1.38014-68.90051,18.24046-12.26964,11.25119-19.61556,25.35456-28.54616,38.50563a141.22512,141.22512,0,0,1-25.97895,28.37834c-10.22765,8.63627-21.4006,16.39325-32.63556,24.04412-17.39116,11.84321-40.49542,24.43819-52.22145,40.80788-11.93541,16.6627-8.57719,34.21026,12.15648,42.22832,14.28447,5.52133,30.09832,6.507,45.51423,4.7796,53.94966-6.04539,96.87119-39.55882,152.35962-20.8434,20.04706,6.76159,39.72921,10.5081,55.99339,7.2356Z"/><path class="cls-3" d="M1146.63485,102.065a288.46306,288.46306,0,0,1-38.04772,136.12711c-21.36333,37.21594-53.11524,72.281-96.8121,91.93811-24.63546,11.08425-52.07035,15.90587-79.84086,15.694a290.50748,290.50748,0,0,1-45.31443-4.1223c-30.40625-5.07166-63.21181-17.1983-94.37614-9.76768-32.70327,7.79776-42.84221,35.28436-46.85407,61.05575-7.36571,47.26244,6.495,95.83839-6.6813,142.58088-5.69845,20.215-22.38736,37.78787-25.87712,58.24072-4.66109,27.31781,22.09494,41.33486,51.21493,36.87556,13.63476-2.088,26.92081-6.66514,39.85868-10.78661,36.886-11.768,67.877-29.14173,82.44192-61.04958,4.91428-10.76594,8.32328-21.95589,12.41667-32.94423a244.9602,244.9602,0,0,1,12.35517-28.02886c19.91471-38.10137,53.99152-71.22878,106.267-73.14966,65.5116-2.40726,130.40211,15.01472,196.02614,15.17447,57.99108.14107,140.92264-4.2698,183.03995-43.4953,35.7732-33.317,33.2716-84.29421,33.96266-126.38162.8361-50.9156,46.23322-85.90641,93.05991-111.362,60.53154-32.90576,130.68867-60.96947,203.76366-62.16674,67.80656-1.11093,137.51266,12.3039,201.443,35.12209V98.7501c-6.06051-1.98027-11.9642-4.06906-17.60282-5.90426-112.00387-36.47421-239.58533-44.71857-351.80051-4.387-49.48153,17.78125-94.79508,44.44228-130.06834,79.06131a162.16709,162.16709,0,0,0-41.2966,67.8983c-7.59146,24.02174-6.88343,50.771-17.23262,73.92068-17.9165,40.09849-60.81682,67.61842-110.38668,73.11818-61.32406,6.80375-123.44543-5.80933-185.29823-.29692-52.04114,4.638-106.01289,18.72546-149.87018,44.8044-21.01771,12.49788-43.07459,30.653-57.15267,49.026-14.145,18.46021-15.07877,43.29057-34.33174,59.11478-25.08913,20.60469-24.314-34.99395-24.559-41.74456-1.25729-34.64216-16.19738-104.03479,32.54779-121.12955,23.04279-8.09614,49.25816-3.33814,73.14715-1.367,57.51985,4.75795,118.72251-.36038,167.32144-29.19434,43.99514-26.09988,72.68665-66.9295,93.19123-108.26774C1210.662,162.11958,1232.38786,74.79613,1201.26817,0h-70.49511A288.655,288.655,0,0,1,1146.63485,102.065Z"/><path class="cls-3" d="M1267.31087,70.25358c-.75075,37.72337-3.54667,77.08063-13.24779,113.95292-6.16565,23.4347-16.059,46.52581-31.576,66.69368-16.73026,21.74468-45.69231,53.13215-19.6001,78.6955,21.80058,21.35725,61.28769,15.11695,86.58038,2.1908,32.54481-16.63244,41.31273-46.58342,41.02111-77.342-.50963-53.76662.66641-95.878,50.79826-134.50955C1520.86209,12.37825,1760.02623,9.42461,1928.68085,55.54409V0H1517.6751c-11.61591,5.01172-23.25066,9.992-34.61319,15.49507-25.8925,12.54012-47.82133,30.06658-70.61686,46.17527-19.27569,13.62138-41.537,35.45522-68.37984,38.533-38.29595,4.391-33.567-29.4773-31.51825-51.89351,1.5852-17.34607,1.9164-32.567.18645-48.30987h-55.08085A220.32991,220.32991,0,0,1,1267.31087,70.25358Z"/><path class="cls-3" d="M1608.17617,167.56813c-48.38874,14.719-93.22885,40.70188-122.84294,76.87a148.2042,148.2042,0,0,0-30.10843,60.14827c-5.56158,23.77826-6.049,48.107-9.66788,72.10932-5.0462,33.46-18.13668,62.84531-52.20777,81.73569-47.50517,26.34253-99.35154,24.39789-153.41079,20.65243-79.82347-5.53049-200.69-26.45368-264.51545,22.3057-17.50327,13.36725-29.76965,32.32953-30.52,52.343-3.22973,85.94032,214.04848,54.1926,266.57873,58.39449,40.5374,3.242,80.33135,13.4631,106.06342,42.10984,40.37953,44.96183,40.74082,104.47113,95.51525,142.61424,54.15049,37.72271,131.03812,15.1948,177.99975-19.48232,46.646-34.4475,79.9947-81.94316,104.76945-129.58543,19.38492-37.28009,50.16674-61.7112,92.63282-80.04558,32.998-14.2487,69.48851-22.30385,106.37555-24.24849,10.71442-.56444,22.19354.49463,33.843,1.80586V524.92327q-1.64581-.4241-3.29436-.84518c-48.86906-12.44915-103.30688-11.39039-150.071,6.644-92.59022,35.707-100.12516,116.195-157.95833,177.62441-25.655,27.2439-62.27153,48.43728-104.16315,50.59979-66.91277,3.454-78.56723-40.75884-93.1111-85.81665-6.9786-21.62026-15.71486-44.68177-38.3933-57.92175-30.305-17.69248-71.9014-19.64276-107.02527-24.8254a782.173,782.173,0,0,0-144.32575-7.72841c-46.00724,1.78982-88.4134,5.47061-132.606-9.14791-28.56857-9.45025-31.275-32.78556-4.07292-46.15137,86.128-42.3193,190.97254-42.16769,286.2801-29.864,51.249,6.61241,102.37374,13.83952,153.69731,19.95365,38.18476,4.55671,96.06556,16.26626,116.76907-21.50073,17.75488-32.384-2.60021-67.60788-19.88249-96.40995-10.1403-16.89155-20.33061-34.24905-23.976-53.15387a91.42041,91.42041,0,0,1,3.77-47.389c11.13565-32.14029,37.67468-59.9888,70.43487-78.141,37.18928-20.58958,81.85626-29.2898,125.60295-31.96021a604.07918,604.07918,0,0,1,133.91421,6.78211c30.69039,5.06641,60.84181,13.25735,88.41111,25.71228V175.99227c-37.42419-11.04591-78.92593-16.31068-115.14929-19.95919C1747.8653,149.41909,1671.15984,148.42049,1608.17617,167.56813Z"/><path class="cls-3" d="M1627.08868,266.00228c-42.39963,34.62127-35.95678,80.49854-27.337,125.308,5.05115,26.206,8.79636,52.85717,3.42159,79.275-4.61639,22.64556-15.86386,44.25238-35.37324,60.455a96.57444,96.57444,0,0,1-30.75685,17.3365c-48.06087,16.15472-103.79262-3.87619-152.22247-9.35092-61.14805-6.9124-122.78424-8.78985-183.99415-15.13792-33.8473-3.51028-69.09008-10.40235-102.637-1.47461-37.77528,10.05321,1.90557,26.78385,22.92654,32.01485,41.30225,10.278,86.50316,6.62834,127.92979,10.72323,47.45432,4.6907,96.28876,6.94687,141.3775,21.51354,42.06046,13.58836,74.49053,50.479,84.683,87.26323,8.914,32.16937,36.18812,53.28145,73.11061,28.93457,36.07184-23.78589,56.61885-70.16592,76.87172-103.83775,22.25859-37.00623,45.35826-74.265,79.77332-104.28911,24.53675-21.406,59.57334-30.41324,93.71446-33.62408,41.39472-3.90709,81.09655,5.80731,115.97719,24.98289a162.52613,162.52613,0,0,1,14.1271,9.08331V472.95953c-23.07225-4.86157-40.80261-22.16155-61.34366-31.21417-47.98894-21.149-95.33922-24.972-148.39936-22.05148-69.94446,3.84986-73.92049-65.52817-32.115-99.42635,30.32827-24.59056,76.549-17.11521,109.72557-1.63007,12.30512,5.74338,23.88867,12.51465,35.38523,19.36039q46.65075,27.77895,92.97255,55.9645,1.91628,1.15864,3.77467,2.23193V341.1067c-17.01089-12.74737-34.26028-24.65385-49.26819-36.02255C1816.34512,257.30932,1701.91687,204.90144,1627.08868,266.00228Z"/><path class="cls-3" d="M1149.08,968.17021H905.95049a13.47472,13.47472,0,0,1,.11576-2.83535c.68377-4.53383,3.56977-8.59462,7.45172-11.70936,13.02031-10.4424,34.01491-10.23494,48.61675-19.2527,13.59544-8.39545,23.21076-20.70227,29.83143-33.67572,9.51362-18.64149,15.25762-40.02969,41.98913-45.24124,35.57189-6.93763,59.9399,22.14069,71.68027,46.30893,10.10282,20.79635,14.39851,42.82082,35.21428,58.40562,2.99471,2.24057,6.291,4.40376,7.96369,7.48534C1148.9082,967.83,1148.99587,968.0015,1149.08,968.17021Z"/><path class="cls-3" d="M868.32014,100.59012C798.37568,109.6273,736.33528,51.61454,695.88909,0H857.95786C902.07205,42.3284,936.40966,91.7936,868.32014,100.59012Z"/><path class="cls-4" d="M982.019,133.47186h-3.10713c3.01665,12.85638-2.43591,29.26846-16.35885,29.26846-13.92264,0-19.3752-16.41208-16.35855-29.26846h-3.10713c-3.41849,13.108,2.92912,29.66528,19.04255,29.95151a37.57614,37.57614,0,0,1-1.01038,9.31665,20.31756,20.31756,0,0,0-4.1456-3.02138,13.95591,13.95591,0,0,0-3.26089-1.28271,9.89956,9.89956,0,0,0-2.62959-.30013,8.57033,8.57033,0,0,0-1.36993.15938,11.008,11.008,0,0,0-3.19555.96691,7.9715,7.9715,0,0,0-3.48,3.32328,6.21444,6.21444,0,0,0-.69429,4.24348,7.36022,7.36022,0,0,0,4.41439,5.344,9.39086,9.39086,0,0,0,5.632.79512c.3637-.05914.71616-.13543,1.06005-.22591a9.10729,9.10729,0,0,0,3.85493-1.783q.26391-.17565.5222-.36015a12.20771,12.20771,0,0,0,3.08909-4.59712c.04169-.09788.08368-.19546.12448-.2957.3575.38884.61061.67122.61061.67122s.47961.63308.49735.61593c.49795.52456.736.801,1.25019,1.30814a20.13676,20.13676,0,0,0,4.56488,3.48887,23.49041,23.49041,0,0,0,2.17718.99648,8.95547,8.95547,0,0,0,1.38709.43407,10.00686,10.00686,0,0,0,2.50008.25252,9.36979,9.36979,0,0,0,7.25568-3.24728,6.82353,6.82353,0,0,0,1.36935-2.54561,5.18,5.18,0,0,0,.12182-.9063c.034-.30219.06-.60469.0893-.90718a4.97434,4.97434,0,0,0-.43585-2.31586,7.296,7.296,0,0,0-2.8481-3.42677,9.55327,9.55327,0,0,0-5.496-1.584,10.4557,10.4557,0,0,0-4.58145,1.15261,16.04028,16.04028,0,0,0-2.73929,1.72122,1.57939,1.57939,0,0,1,.31639.49942c.26228-.17446.52781-.34566.80192-.50947a12.56475,12.56475,0,0,1,4.10361-1.67687,8.49412,8.49412,0,0,1,3.66983.02572,8.34952,8.34952,0,0,1,3.04651,1.39685,7.88468,7.88468,0,0,1,1.78657,2.00449,2.17948,2.17948,0,0,1,.20344.48316,6.25255,6.25255,0,0,1,.32289.92641,8.34269,8.34269,0,0,1,.08072,1.05769,5.04947,5.04947,0,0,1-.73656,2.72568,6.97635,6.97635,0,0,1-5.03445,3.231,7.88211,7.88211,0,0,1-3.59709-.24395,12.43256,12.43256,0,0,1-3.62311-1.78213,21.54535,21.54535,0,0,1-4.55661-4.23313c-.14371-.178-1.037-1.2008-1.39448-1.56894-.1103-.11354-.22355-.22472-.33561-.33649a37.563,37.563,0,0,0,1.15852-9.99024C979.08958,163.13743,985.43779,146.57988,982.019,133.47186Zm-26.82338,47.7965a10.12607,10.12607,0,0,1-2.87353.76939c-.17535.01863-.34981.03075-.52367.03962-.06742.00178-.13336.003-.19723.003v.00385a7.98531,7.98531,0,0,1-3.76445-.76585,6.06868,6.06868,0,0,1-3.768-4.85644,4.84965,4.84965,0,0,1,.69074-3.18341,7.19041,7.19041,0,0,1,6.29143-3.34043,9.05753,9.05753,0,0,1,.92108.04051,10.50594,10.50594,0,0,1,3.38183,1.08992,17.40831,17.40831,0,0,1,3.85108,2.739c.338.31491.77915.76909,1.19371,1.20849C959.03074,178.57786,957.0502,180.381,955.19562,181.26836Zm61.62482-51.73127a60.383,60.383,0,0,0-14.18522-17.892c-12.17806-10.47251-25.65569-14.9345-38.78618-15.13439-11.519.05618-21.43913,2.43207-30.90334,7.77019a61.88272,61.88272,0,0,0-23.22983,22.647A60.558,60.558,0,0,0,908.445,186.356a59.31579,59.31579,0,0,0,12.0796,15.84494c11.032,10.238,23.35906,15.45285,36.74325,16.61729a59.423,59.423,0,0,0,34.4058-7.196,61.19189,61.19189,0,0,0,25.14681-82.08521Zm4.31809,40.94178c-2.40326,7.43014-4.99681,16.45968-13.2967,18.96773-4.1498,1.50507-9.3372-1.003-13.487,2.00657-10.89374,7.52476-16.08084,21.57071-30.10693,24.10272a27.88278,27.88278,0,0,1-5.39666.03755,62.56918,62.56918,0,0,1-11.30294-1.93708,61.00389,61.00389,0,0,1-25.069-13.64233,59.0244,59.0244,0,0,1-14.47527-19.32936,54.04107,54.04107,0,0,1,4.47145-54.26624c2.39012-3.42707,5.22212-6.48777,7.85391-9.71465,8.008-7.266,17.34085-12.89216,29.149-15.49159a57.35407,57.35407,0,0,1,29.28269.974,61.27227,61.27227,0,0,1,30.70963,20.37286,56.13989,56.13989,0,0,1,11.164,21.24812,52.24894,52.24894,0,0,1,1.3283,22.59883Q1021.62639,168.47423,1021.13853,170.47887Z"/><g class="cls-5"><path class="cls-4" d="M726.67548,404.63522H715.4103V550.706c-.00121.12792-.00483.22446-.006.36807-.00483,2.66575,2.62472,2.317,2.504,9.45985-.03016,1.79808,1.47588,2.18425,1.50122.12309.06034-4.96826,2.3351-7.24785,4.15491-7.24785s3.10622-1.44571,3.10742-2.32906h.00362Z"/><path class="cls-4" d="M865.00721,444.96481v93.72336c-10.13771,7.21-22.98033,11.49152-38.30054,11.49152-.7901,0-1.5716-.01449-2.34766-.03668-.24586-.00724-.4881-.01856-.73214-.02807q-.80414-.03056-1.59831-.07561-.4075-.02445-.81229-.05253-.7695-.05366-1.52858-.12225c-.25265-.02263-.5062-.04346-.7575-.06882q-.8999-.08964-1.78621-.20194c-.13538-.01675-.27257-.03033-.4075-.048-1.56525-.22277-3.10017-.48719-4.58781-.82948-14.4298-6.41679.40685-24.03531-8.86605-34.23551-8.34562-11.12749-23.18227-6.491-35.237-9.27291-2.78188,0-3.70917-1.85458-4.72813-4.07924a56.61606,56.61606,0,0,1-2.09525-6.81959q-.38577-1.92951-.67328-3.89163c-.01766-.12-.03577-.24-.053-.36041-.07471-.52251-.14308-1.04638-.20828-1.57115-.01811-.14353-.03758-.2866-.05479-.43014q-.11342-.95422-.206-1.91163c-.01857-.1956-.03351-.3912-.05117-.5868-.03441-.388-.06927-.77561-.0987-1.16409-.01811-.23454-.03215-.47-.048-.705-.024-.35317-.048-.70633-.06746-1.0595-.014-.24767-.02445-.49534-.03622-.743-.01585-.34-.0317-.68007-.04392-1.02056-.00906-.25718-.0154-.51481-.02219-.77244-.00905-.33144-.0172-.66287-.02218-.9943-.00408-.26216-.00589-.52477-.0077-.78693q-.0034-.491-.00136-.98163.002-.396.0077-.79145.0068-.4924.019-.9848.00951-.3912.02264-.78285c.01087-.33008.02491-.66015.03985-.99023q.017-.38983.03758-.77923c.01766-.33234.03894-.66468.06067-.997.01675-.25582.03305-.51119.05207-.767.02536-.33958.05433-.67871.08331-1.01784.02128-.24677.0412-.49353.06475-.73984.0335-.35589.07154-.71087.10957-1.06584.0249-.22956.04754-.45957.0738-.68868.04483-.39075.09554-.781.1458-1.17089.0249-.19288.04709-.38576.07335-.57865q.23636-1.74342.54469-3.47371c.03441-.1947.0729-.388.10912-.58228.07064-.38214.14127-.76429.21734-1.14507.04527-.22866.09508-.45641.14262-.68461.07154-.34456.14308-.68912.21869-1.03233.05388-.24178.11048-.48221.16617-.72354.07607-.32962.15214-.65925.23228-.988.05976-.24677.1227-.49217.18518-.73849q.1209-.47881.24677-.95672.10052-.37693.20511-.75206.12972-.46931.26442-.93725.108-.37354.22005-.74618.1399-.468.28616-.93409.11545-.37014.23454-.73893.15009-.46388.30653-.92548c.082-.24359.16436-.48719.249-.72988.10776-.3097.21869-.618.33007-.92593.08648-.23862.17206-.47723.2608-.71449.11682-.31332.23771-.62483.35815-.93634.08874-.22866.17613-.45776.26714-.68506.129-.32328.26216-.6443.39527-.96532.08875-.21326.17523-.42788.26579-.64023.14941-.35136.30426-.7.45911-1.04863.07924-.1793.15621-.36.23726-.53836q.34434-.76066.70543-1.51183c.0163-.03441.0326-.06882.04935-.10323q.36336-.7532.74392-1.49779c.08557-.168.17522-.33325.26216-.50032.17794-.3423.35633-.68506.54016-1.02419.10867-.201.22141-.40025.33234-.60038.16753-.30246.3346-.60491.50621-.90465.12134-.21145.24586-.42063.36946-.63118.16663-.28434.3337-.56869.50485-.85077.1304-.21552.264-.42923.39709-.6434q.254-.4102.51345-.81726.20646-.32193.417-.64068.26283-.40071.53111-.7978.21462-.31785.43376-.63208.27166-.39255.54877-.78013.22411-.31311.451-.62393.28185-.38509.57-.76475c.1535-.20375.30744-.4075.46365-.60944q.29476-.381.59676-.7575c.15621-.19605.312-.39255.47044-.58634.20828-.25537.42018-.50712.63208-.75886.15711-.18609.31241-.37354.47134-.55782.22413-.2599.45233-.51527.68007-.77154.15259-.1716.30337-.34456.45822-.51435.25536-.28118.51616-.55738.777-.83357.13221-.13991.26216-.28253.39573-.42154q1.19058-1.23812,2.4518-2.4124c.13991-.1304.28344-.25673.4247-.38577.28344-.259.56688-.518.85576-.77153.17115-.15078.34637-.29748.51979-.44644.26351-.22685.527-.45369.79508-.676.18926-.15712.38214-.31061.57321-.46546.25809-.20918.51662-.41791.77878-.623.19968-.15621.40207-.3097.604-.46365.26035-.19831.52069-.39572.78466-.59.20783-.153.41792-.30381.628-.45459q.39663-.28389.79779-.5628.32125-.22277.64612-.44055.40546-.273.81591-.53972.32938-.21393.662-.42425.41632-.26283.839-.51843c.22322-.13583.44689-.27167.67237-.40479.28752-.16933.5782-.3355.86934-.50077.225-.12813.44961-.25627.67736-.38169.29973-.16481.6031-.32555.90691-.48628.22413-.11863.44735-.23862.67374-.35453.32011-.16391.64475-.32283.96939-.48176.21507-.10549.42833-.21326.64567-.31649.36267-.17205.73078-.33822,1.09889-.50394.18383-.08331.36539-.16934.551-.25084q1.66736-.73215,3.40626-1.37554c.19288-.07109.38939-.13765.58408-.20692.38848-.13946.77787-.27891,1.17179-.41158.235-.07923.47406-.153.71086-.22956.36-.11636.71992-.23318,1.08441-.34366.2531-.077.50983-.149.76519-.22322.35317-.10232.70679-.20465,1.064-.30155.2676-.07289.53836-.14172.80821-.21144.35091-.09056.70181-.17976,1.05634-.26488.278-.067.55782-.1304.83809-.19424q.53043-.12021,1.06629-.23363c.28435-.05977.57-.11682.85621-.17342q.54062-.10595,1.08576-.2042.434-.07743.87024-.15123c.36811-.06112.73848-.11863,1.11021-.17477.293-.04392.5859-.08784.88111-.12814.37762-.05207.75841-.09916,1.13964-.14534.29431-.03577.58816-.07245.88519-.10505.39256-.04256.78919-.07968,1.18628-.11636.28978-.02671.5782-.05569.87024-.07924.41927-.034.84262-.06112,1.26642-.08829.27529-.01766.54877-.03848.82632-.05343.47361-.02535.9531-.0421,1.43259-.05931.23182-.00815.46093-.02037.69411-.02671q1.07309-.02853,2.16383-.02943c22.0793,0,40.329,15.5466,49.34019,26.13619V417.47752c-12.61622-8.78752-29.06295-14.42009-49.34019-14.42009-.95672,0-1.90212.01539-2.84164.03984-.29249.00725-.58182.019-.8725.029q-.98888.03328-1.96551.08331-.47067.02445-.93771.05253-1.00245.06113-1.99.14217c-.254.02037-.50983.038-.76248.06067q-1.34542.11817-2.66641.2694c-.13991.0163-.27665.03623-.41611.053q-1.11248.13311-2.20729.28978c-.283.04075-.56326.08467-.84443.12768q-.89447.13719-1.77716.28887c-.28616.04936-.57186.09871-.85575.15033q-.97189.17793-1.92658.3749c-.19378.03984-.38938.07606-.58227.11681q-1.23336.26217-2.44138.55466c-.19062.04663-.37807.09689-.56779.14443q-.925.23025-1.83556.47814c-.26623.07289-.53066.14806-.79508.22322q-.817.23228-1.62185.479c-.25129.077-.50349.153-.75343.23227q-.96578.30563-1.91253.633c-.12089.04165-.2445.08059-.36494.1227q-1.11995.39188-2.21318.81364c-.206.07879-.40886.16164-.61352.24224q-.79258.31173-1.5725.638-.36608.15282-.72807.30971-.74979.32328-1.48556.6606c-.21462.09825-.43105.19469-.64385.29431q-2.0701.96984-4.037,2.04293c-.20194.11-.40116.22322-.60174.33506q-.68936.3844-1.36649.78059-.32736.19152-.65109.38577-.69.41428-1.36558.84216c-.17387.11-.35045.21779-.52342.32917q-.92026.59224-1.81654,1.20666c-.09463.0652-.18655.13266-.28118.19832q-.75252.52363-1.48738,1.06221c-.18926.139-.3758.27982-.56325.42018q-.60107.4503-1.18945.91145c-.18926.14805-.37807.29611-.56552.446q-.63978.5121-1.26371,1.03732c-.13.10912-.26261.21643-.39165.326q-.80685.68732-1.58744,1.39456c-.12406.11274-.24541.2282-.36857.34139q-.597.54877-1.17948,1.108c-.1698.16345-.33732.32781-.50485.49263q-.52228.51345-1.03143,1.0355c-.15847.16255-.31785.32419-.47406.48764q-.6099.63774-1.20122,1.2877c-.07335.0806-.149.15984-.22186.24088q-.6948.77087-1.36241,1.56028c-.12678.14941-.25039.3011-.37536.45142q-.48221.578-.95129,1.16364-.22005.27642-.43693.5542-.44825.57254-.88246,1.15368c-.12723.16979-.25628.33868-.3817.50983q-1.21842,1.65717-2.33316,3.375c-.11365.17477-.22413.35136-.336.527q-.39051.61262-.76791,1.23111-.18.29544-.35679.59223-.381.6391-.74663,1.285c-.09463.16662-.19152.33234-.2848.49987q-.49443.8863-.96442,1.7853c-.05071.0978-.09915.197-.14941.29521q-.39189.76-.76565,1.52813c-.09644.19787-.19017.39709-.2848.59631q-.30358.63978-.5954,1.28408c-.09328.20737-.187.41384-.27846.62167q-.31514.71515-.61352,1.43576c-.06112.14715-.125.293-.18473.4401q-.38238.93724-.73894,1.88311c-.05614.14941-.10912.29973-.16435.44915q-.26964.73011-.52523,1.46474c-.07471.21552-.14715.43195-.2196.64793q-.22479.66762-.436,1.33932c-.06611.20918-.13267.41791-.197.628q-.24993.817-.4813,1.64c-.029.10188-.06022.20375-.0883.30608q-.2703.97393-.51254,1.95465c-.04528.18247-.08739.36539-.13131.54786q-.17318.71856-.33324,1.43984-.074.33551-.14489.67147-.14806.69885-.28208,1.4c-.03939.20511-.0806.40976-.11818.61487q-.36539,1.98657-.62755,3.98989c-.02717.20692-.05116.41384-.07652.62076q-.08693.70836-.16164,1.41855-.03531.34163-.06837.6837-.07.7335-.12587,1.46926c-.014.18836-.03079.37626-.04392.56462q-.06928,1.00653-.115,2.0135c-.00453.10731-.00634.21462-.01041.32193q-.034.85167-.04935,1.70426c-.00363.21824-.005.43648-.00725.65517q-.0068.70566-.0009,1.41176c.00181.22549.00362.45052.00724.676q.01359.777.04256,1.55394c.00589.15983.00906.31921.01585.47858q.04347,1.00722.11183,2.01261c.01087.15847.02536.31694.03713.475q.05773.7763.1304,1.55077c.02128.225.04438.44961.06747.67418q.07266.70023.15756,1.39954c.02626.21824.05207.43648.08015.65427q.11.8442.23816,1.68569c.0163.10686.02988.21371.04663.32012q.15621.99633.33868,1.98724c.03441.187.072.37309.10776.56009q.13788.72332.28842,1.44482.07064.33551.14489.67011.15349.69954.321,1.39682c.048.201.09463.40207.14444.60265q.487,1.96347,1.07716,3.90069c.06022.19831.12406.39573.18609.59359q.21394.68188.44055,1.36015.11.32871.22277.65607.23974.69615.49489,1.38777c.06565.17839.129.35724.1956.53518q.35588.94745.73667,1.88583l.01811.04663c.029.07018.06022.139.0892.20919,5.90423,14.77778,23.52275,9.214,36.50482,11.99591,1.85458.92729,4.63645,1.85458,5.56374,3.70917,3.70916,9.2729-.92729,25.03684,13.379,27.83375a57.708,57.708,0,0,0,7.79428,1.2455c.11365.01268.22458.02807.33868.0403.0978.00951.19831.01584.29657.0249.46274.04347.93.08105,1.39727.11818.34321.02761.68506.0575,1.031.082.49262.03441.99068.06158,1.48828.0892.32736.01811.65246.03984.98208.05478.55375.02581,1.11338.04256,1.673.05977.27982.0086.55647.02128.83765.02807q1.266.02853,2.55186.02988c20.50181,0,36.94945-5.63256,49.56567-14.42009V444.96481Z"/><path class="cls-4" d="M1072.0529,541.16759c-29.1286,20.92245-54.90031-16.79356-107.064-23.71473,79.44906-12.05025,74.06417-112.81794-16.17506-112.81795H908.25934v146.4449h11.26513V519.26668a65.537,65.537,0,0,1,11.26513-.62936h18.02421c39.65254,0,76.151,55.42373,124.59109,24.33233ZM935.74662,516.3843h-4.957c-3.855,0-7.57136.144-11.26513.4564V406.88794H927.118a64.87248,64.87248,0,0,1,7.09153.27076c17.43958,2.53828,20.22145,25.72054,37.84,27.57513,6.491.92729,11.12748-10.2002,19.4731-7.41833,5.56374.92729,11.12749,6.491,12.35985,12.62325a48.41024,48.41024,0,0,1,2.44392,6.93059,56.53776,56.53776,0,0,1,1.47468,22.21987c-2.36909,15.71831-10.71471,29.62767-23.5949,37.7582a55.56049,55.56049,0,0,1-7.37341,3.98392,68.132,68.132,0,0,1-28.01894,5.553Z"/><rect class="cls-4" x="1050.42367" y="404.63492" width="11.26513" height="107.01875"/><path class="cls-4" d="M1093.67218,404.63492h11.26513v63.08474l21.62924-15.54661a408.38638,408.38638,0,0,0,54.29721-47.53813H1196.184l-72.32142,52.04418,85.83958,94.40072h-15.32022l-79.756-87.64164-9.68856,6.98547v80.65617h-11.26513Z"/></g><path class="cls-4" d="M89.0619,741.41916H76.73418V776.564H87.98057c20.60013,0,21.84377-22.49277,3.73067-25.196C99.01054,749.74593,98.1455,741.41916,89.0619,741.41916Zm-1.08133,34.60407H79.43763v-21.952a14.54532,14.54532,0,0,1,8.54294-2.433C105.98546,751.6382,105.98546,776.02323,87.98057,776.02323Zm1.08133-24.92558H87.98057a22.11044,22.11044,0,0,0-8.54294,1.5679V741.96H89.0619C95.17165,741.96,95.17165,751.09765,89.0619,751.09765Zm110.02894,91.836c-1.6761-5.24472-6.43413-7.24544-10.48931-7.29942a29.88509,29.88509,0,0,0-6.43425.86516v2.75743c1.18954-1.08133,3.893-3.0818,6.43425-3.0818,3.19,0,6.10975,1.13531,7.46148,5.4069l1.02735,3.19a13.31354,13.31354,0,0,0-8.43473-2.64947c-16.97766,0-16.97766,21.46542,0,21.46542,6.70453,0,10.7056-3.56861,11.89514-7.84l2.43305,7.56957h2.54127Zm-10.43521,20.16767c-13.35506,0-13.35506-20.4923,0-20.4923C202.55124,842.609,202.55124,863.10132,188.65563,863.10132ZM90.25144,820.26525a14.65012,14.65012,0,0,0,10.38122-4.16338l3.78478,3.839h3.4063l-5.56909-5.73128a13.87893,13.87893,0,0,0,2.59537-7.84,15.76647,15.76647,0,0,0-3.24411-10.16506H98.41577a11.90564,11.90564,0,0,1,5.94757,10.16506,13.29488,13.29488,0,0,1-2.48716,7.51558L84.24976,795.772c-4.43365-4.54174-.48656-10.86779,5.94757-10.86779a12.14366,12.14366,0,0,1,10.219,5.89347l-.05411-3.136a15.76578,15.76578,0,0,0-10.16493-3.244c-7.46148,0-11.78693,8.05613-7.1371,13.62522C70.67853,798.79983,69.16462,820.26525,90.25144,820.26525Zm-6.75863-21.73556.0541.054,16.76125,17.13985a14.0143,14.0143,0,0,1-10.05672,4.05517C72.57092,819.77869,74.35523,798.908,83.49281,798.52969Zm97.43-65.07188a16.07964,16.07964,0,0,0,10.16494-3.24424v-3.19a11.90582,11.90582,0,0,1-10.16494,5.94769c-10.27313,0-14.166-10.32724-11.73294-18.22143H193.629a12.82932,12.82932,0,0,0-12.7062-9.24566C160.701,705.50416,160.701,733.45781,180.92276,733.45781Zm0-27.46709c5.461,0,8.70513,3.893,9.94864,8.27254H169.352A11.79065,11.79065,0,0,1,180.92276,705.99072ZM125.39543,701.503a1.396,1.396,0,0,0,1.40583-1.4057,1.36374,1.36374,0,0,0-1.40583-1.40571,1.39592,1.39592,0,0,0-1.40571,1.40571A1.4313,1.4313,0,0,0,125.39543,701.503Zm93.10326,204.97522c-10.27314,0-14.166-10.32725-11.73294-18.22143h24.43914a12.8293,12.8293,0,0,0-12.7062-9.24566c-20.22178,0-20.22178,27.95365,0,27.95365a16.07961,16.07961,0,0,0,10.16493-3.24424v-3.19A11.90579,11.90579,0,0,1,218.49869,906.47818Zm0-26.98053c5.461,0,8.70513,3.893,9.94864,8.27254h-21.5194A11.79065,11.79065,0,0,1,218.49869,879.49765ZM124.15191,733.18742H126.585V705.82853h-2.43306Zm-37.95565,0,9.13758-29.68374,9.1377,29.68374h2.43306l10.8138-35.14487h-2.97384a114.96367,114.96367,0,0,1-3.73068,19.8433l-4.21736,13.78765L96.46927,698.04255H93.65774l1.40583,4.542-8.97539,29.14294L75.707,698.04255H72.8953l10.8138,35.14487Zm86.23929,101.96025-1.51391-2.59525a13.57811,13.57811,0,0,0-7.948,3.947,19.656,19.656,0,0,0-5.89359-.81118c-16.1666,0-18.65376,15.62594-7.56957,20.4923-4.596,2.32484-5.35292,8.43472.43246,8.43472,4.54186,0,11.46268-2.91986,15.51786-2.91986,6.65042,0,4.86611,9.78645-5.78538,9.78645a12.18871,12.18871,0,0,1-10.219-5.94744l.0541,3.136a15.659,15.659,0,0,0,10.16494,3.244c12.4899,0,13.51713-12.59811,5.24459-12.59811-3.6767,0-10.81368,2.91987-15.35555,2.91987-5.19061,0-2.54126-4.75816.48669-5.83949a18.35655,18.35655,0,0,0,7.0289,1.24352c16.70727,0,18.816-16.76125,6.38015-20.97861A9.555,9.555,0,0,1,172.43555,835.14767ZM157.08,857.15363c-15.51773,0-15.51773-21.03284,0-21.03284S172.59774,857.15363,157.08,857.15363Zm-67.74772,6.16386h2.70345V845.58287l15.788-17.41025h-3.19a83.65679,83.65679,0,0,1-9.24579,12.86851l-3.56849,3.947L76.572,828.17262H72.9494l16.38289,18.16721Zm63.90846-151.86564,6.92081,21.73557h2.54127l-6.43426-20.38385c-2.81153-8.92153-13.8956-9.1377-18.059-3.4604l-.48656-3.51464H136.1009v27.35889h2.43318V714.31749C138.53408,704.639,150.5914,703.0711,153.24075,711.45185ZM154.267,879.01109a29.88509,29.88509,0,0,0-6.43425.86516v2.75743c1.18954-1.08133,3.893-3.08181,6.43425-3.08181,3.19,0,6.10976,1.13531,7.46148,5.40691l1.02735,3.19a13.31351,13.31351,0,0,0-8.43472-2.64947c-16.97767,0-16.97767,21.46542,0,21.46542,6.70452,0,10.70559-3.56862,11.89513-7.84l2.43306,7.56956h2.54126l-6.43425-20.38384C163.08019,881.06579,158.32216,879.06506,154.267,879.01109Zm.05411,27.46709c-13.35507,0-13.35507-20.4923,0-20.4923C168.21669,885.98588,168.21669,906.47818,154.32109,906.47818Zm-8.59642-153.81263-.48656-3.46041H143.616V776.564h2.43318V757.69409c0-9.57028,9.29976-10.05684,14.1119-4.64994V750.0703C156.10589,748.06983,148.9148,748.50216,145.72467,752.66555Zm-24.222-3.78478a29.88528,29.88528,0,0,0-6.43426.86516v2.75743c1.18954-1.08133,3.893-3.08181,6.43426-3.08181,3.19,0,6.10975,1.13531,7.46148,5.40691l1.02735,3.19a13.31354,13.31354,0,0,0-8.43473-2.64947c-16.97766,0-16.97766,21.46542,0,21.46542,6.70452,0,10.7056-3.56862,11.89514-7.84L135.885,776.564h2.54127L131.992,756.18018C130.31589,750.93547,125.55786,748.93474,121.50269,748.88077Zm.0541,27.46709c-13.35507,0-13.35507-20.4923,0-20.4923C135.4524,755.85556,135.4524,776.34786,121.55679,776.34786Zm.54029,102.7172c-6.16385,0-10.32711,2.91987-12.544,6.86684l-.43259-6.59644H107.2281v35.14486h2.43318V900.26009c2.16266,3.893,6.38,6.75863,12.48991,6.75863,10.11082,0,15.13925-7.029,15.13925-14.00382S132.20791,879.06506,122.09708,879.06506Zm.05411,27.4671c-16.59919,0-16.65329-26.98029-.05411-26.98029,8.32665,0,12.4358,6.75863,12.4358,13.463C134.53288,899.77353,130.42373,906.53216,122.15119,906.53216Zm.10932-70.84395c-20.22177,0-20.22177,27.89967,0,27.89967S142.48229,835.68821,122.26051,835.68821Zm0,27.41311c-16.59918,0-16.59918-26.98053,0-26.98053S138.8597,863.10132,122.26051,863.10132ZM75.86914,877.389c0-3.02782,3.6226-5.67729,10.219-5.67729,5.83936,0,10.11082,4.27159,11.841,6.86683l-.05411-3.62259c-2.43305-2.10868-6.38015-3.78478-11.78692-3.78478-7.786,0-12.05745,3.56861-12.05745,7.46135,0,10.54366,23.73629,9.51631,23.73629,20.4923,0,3.83876-3.62259,7.3534-11.62486,7.3534-5.83936,0-10.11083-4.27159-11.841-6.81286v3.56862c2.48716,2.10868,6.43413,3.78478,11.841,3.78478,9.0836,0,13.67944-4.59572,13.67944-9.35387C99.8216,885.9319,75.86914,886.58065,75.86914,877.389Zm113.54134,29.57578a16.07964,16.07964,0,0,0,10.16493-3.24424v-3.19a11.90582,11.90582,0,0,1-10.16493,5.94769c-16.59919,0-16.59919-26.98053,0-26.98053a11.90582,11.90582,0,0,1,10.16493,5.94769v-3.19a15.76469,15.76469,0,0,0-10.16493-3.24424C169.1887,879.01109,169.1887,906.96474,189.41048,906.96474Z"/></g></g></svg>