<svg id="Layer_1" data-name="Layer 1" xmlns="http://www.w3.org/2000/svg" viewBox="0 0 1080 600"><defs><style>.cls-1{fill:#2f2f35;}</style></defs><title>IGRIK_Bar&amp;amp;Yoga_logo_ALLLL</title><path class="cls-1" d="M247.20621,215.4043H356.41684V227.593c-18.52707-5.85039-34.85938-9.751-97.0219-9.751l.00392,156.01379H247.20621Z"/><path class="cls-1" d="M259.39269,216.97269H247.20652V374.13127c-.00131.13762-.00523.24149-.00653.396-.00522,2.8681,2.83931,2.49287,2.70876,10.17792-.03263,1.93457,1.59654,2.35005,1.624.13243.06527-5.34538,2.526-7.798,4.49459-7.798s3.36017-1.55544,3.36148-2.50585h.00391Z"/><path class="cls-1" d="M667.53445,215.4043H679.7222v68.25591L703.12476,266.84a441.94056,441.94056,0,0,0,58.7489-51.43566h16.57628l-78.25087,56.31115,92.87735,102.14039H776.50013l-86.295-94.82715-10.4829,7.55721v87.26994H667.53445Z"/><path class="cls-1" d="M636.2798,215.40412H624.09205v115.304c0,17.44476-10.23653,29.08093-24.31176,35.2433a19.90416,19.90416,0,0,1-8.69553,2.0967c-15.79381-3.66134-15.0141-23.93375-28.26914-30.95112-2.33912-.77971-5.458.77971-7.79708,1.55941-9.3565,5.458-21.83182,21.05212-31.20228,9.06077a27.17172,27.17172,0,0,1-3.36911-7.799,35.61456,35.61456,0,0,1-1.1772-9.21008V312.42505c0-47.53507,3.90059-73.61837,9.751-97.02093H516.8322v115.304a40.78,40.78,0,0,0,.87047,8.49746,37.00284,37.00284,0,0,0,2.491,7.60023c2.07714,5.10564,5.196,9.78389,12.21335,9.00418,12.47533-2.33912,19.4927-20.27241,31.18832-14.03474,13.255,7.01737,13.255,31.968,30.90808,31.68706a75.84324,75.84324,0,0,0,8.397-2.26257,56.66386,56.66386,0,0,0,21.19164-12.18319v14.90229H636.2798V215.40412Z"/><path class="cls-1" d="M218.57173,215.40412H206.384v115.304c0,55.82321-104.82211,52.16659-104.82211,0V312.42505c0-47.53507,3.90059-73.61837,9.751-97.02093H99.12413v115.304c0,47.71242,76.84828,57.142,107.25985,28.30843v14.90229h12.18775V215.40412Z"/><path class="cls-1" d="M372.5012,215.40432h29.99545a66.79181,66.79181,0,0,1,6.96527.25085c13.3521,2.6642,12.70373,19.5219,23.72607,26.00563,1.29675.64837,3.24187,0,4.53861-.64838,9.7256-6.48373,20.09957-18.80282,31.84526-10.78189a64.243,64.243,0,0,1,5.16068,4.06632c12.95035,11.33552,19.41038,26.44954,19.41038,41.56356,0,25.504-18.396,51.00874-55.33339,58.35632q-2.05207.40819-4.18047.74069a157.55034,157.55034,0,0,1-18.2488,1.35789l-3.04718.00007H396.87833a50.45358,50.45358,0,0,0-12.18857.73123v36.80906H372.5012Zm12.18856,2.43816v116.5226c3.90061-.24449,8.04459-.48786,12.18857-.48786h9.751c11.64612-.14745,23.31684-.14745,34.37646-3.713a63.43074,63.43074,0,0,0,6.89533-2.71463c21.88946-10.14884,32.8342-30.8693,32.8342-51.58919A57.0725,57.0725,0,0,0,468.915,240.84667a40.17942,40.17942,0,0,0-4.29857-4.77058c-9.38371-7.38276-18.46094,2.34284-26.24141,7.52982-3.89024,1.94512-7.13211,0-9.7256-2.59349-6.48373-7.78047-8.42885-22.04468-20.5571-22.89615a66.42858,66.42858,0,0,0-7.55727-.27379Z"/><path class="cls-1" d="M817.05853,227.886c0-11.2586-.29388-12.44336-1.47029-12.73989V214.85h26.46084l2.35194,5.333h-.58777c-3.11656-3.55563-10.937-3.2591-15.81773-3.2591h-5.93923c-1.76418,0-1.76418.29608-1.76418,2.66649v17.77636h2.94059c8.05536,0,16.17056,2.66649,16.17056,9.48078s-8.1152,9.48078-16.17056,9.48078h-7.64446v-.29608c1.17641-.29652,1.47029-1.48173,1.47029-12.73988Zm3.23358,11.55467v12.14728c0,2.37041,0,2.6665,1.76418,2.6665h.88252c6.76193,0,12.64222-2.0739,12.64222-7.40689s-5.88029-7.40689-12.64222-7.40689Z"/><path class="cls-1" d="M884.6796,244.95136c1.82224,3.61458,4.586,10.90312,6.82088,11.02147v.35547h-6.586v-.23713c2.058-.41487-1.58732-6.87368-3.29342-10.13234l-5.17373-10.07338H860.33577l-5.17462,10.07338c-2.64582,5.15482-4.46894,9.362-1.82312,10.07339v.29608h-7.4676v-.35547c2.70477-.41487,5.5864-7.40689,7.40864-11.02147l15.69983-31.28658Zm-23.28533-11.13981h13.9946L868.39113,220.183Z"/><path class="cls-1" d="M894.4393,215.14607V214.85h7.64446c8.05536,0,16.17056,2.6665,16.17056,9.48078s-8.1152,9.48078-16.17056,9.48078h-2.94058v9.48079c0,11.25815.29476,12.44336,1.47029,12.73988v.29608H894.4393v-.29608c1.17641-.29652,1.47029-1.48173,1.47029-12.73988V227.886C895.90959,216.62736,895.61571,215.4426,894.4393,215.14607Zm7.35058,16.59159c6.76193,0,12.64221-2.07389,12.64221-7.40689s-5.88028-7.40688-12.64221-7.40688h-.88253c-1.76417,0-1.76417.29608-1.76417,2.66649v12.14728Z"/><path class="cls-1" d="M819.11659,309.36172l35.5747-37.33052v29.62755c0,11.25816.58777,12.44336,1.76418,12.73988v.29609h-5.58641v-.29609c1.17641-.29652,1.76418-1.48172,1.76418-12.73988V278.5494l-35.57471,37.33052V286.25237c0-11.25859-.58776-12.44336-1.76417-12.73988v-.29608h5.5864v.29608c-1.17641.29652-1.76417,1.48129-1.76417,12.73988Z"/><path class="cls-1" d="M819.11659,344.61835V367.7277l35.5747-37.33052v29.62755c0,11.25815.58777,12.44336,1.76418,12.73988v.29608h-5.58641v-.29608c1.17641-.29652,1.76418-1.48173,1.76418-12.73988V336.91538L817.05853,374.2459V344.61835c0-11.25859-.58776-12.44336-1.76417-12.73988v-.29608h5.5864v.29608C819.70435,332.175,819.11659,333.35976,819.11659,344.61835Zm7.64357-21.332a10.29123,10.29123,0,0,0,8.82087,4.74083c7.64358,0,10.29028-7.99949,10.29028-7.99949s-2.94059,5.333-8.52611,5.333a8.64174,8.64174,0,0,1-7.93834-4.44431Z"/><path class="cls-1" d="M882.032,330.39718c12.58326,0,21.757,9.83625,21.757,21.92414,0,12.08833-9.1737,21.92458-21.757,21.92458s-21.75609-9.83625-21.75609-21.92458C860.27593,340.23343,869.44876,330.39718,882.032,330.39718ZM863.50952,350.544c0,13.332,10.29028,21.33154,19.99279,21.33154s17.05221-7.11037,17.05221-17.77636c0-13.33248-10.29028-21.332-19.99191-21.332C870.86009,332.76715,863.50952,339.878,863.50952,350.544Z"/><path class="cls-1" d="M909.37362,344.61835c0-11.25859-.29388-12.44336-1.47029-12.73988v-.29608h23.52026l2.35194,5.333h-.58777c-3.11656-3.55562-10.937-3.2591-15.81773-3.2591h-2.99865c-1.76417,0-1.76417.29608-1.76417,2.6665v23.70195c0,11.25815.29476,12.44336,1.47029,12.73988v.29608h-6.17417v-.29608c1.17641-.29652,1.47029-1.48173,1.47029-12.73988Z"/><path class="cls-1" d="M974.055,361.68376c1.82224,3.61457,4.586,10.90267,6.82088,11.02146v.35547h-6.58595v-.23713c2.058-.41486-1.58732-6.87323-3.29342-10.13233l-5.17373-10.07339H949.71116l-5.17462,10.07339c-2.64582,5.15525-4.46894,9.362-1.82312,10.07338v.29608h-7.4676v-.35547c2.70477-.41487,5.5864-7.40689,7.40864-11.02146l15.69983-31.28658ZM950.76966,350.544h13.9946l-6.99774-13.62857Z"/></svg>