<svg id="Layer_1" data-name="Layer 1" xmlns="http://www.w3.org/2000/svg" xmlns:xlink="http://www.w3.org/1999/xlink" viewBox="0 0 1080 1080"><defs><style>.cls-1{fill:none;}.cls-2{clip-path:url(#clip-path);}.cls-3{fill:#fafafa;}.cls-4{fill:#feaead;}.cls-5{fill:url(#linear-gradient);}.cls-6{fill:#fff;}</style><clipPath id="clip-path"><rect class="cls-1" x="15.8911" y="1266.11245" width="1080" height="1080"/></clipPath><linearGradient id="linear-gradient" y1="1080" x2="1080" gradientUnits="userSpaceOnUse"><stop offset="0.03073" stop-color="#fed0af"/><stop offset="0.38547" stop-color="#fea094"/><stop offset="1" stop-color="#fe93c7"/></linearGradient></defs><title>IGRIK_Bar&amp;amp;Yoga_logo_ALLLL</title><g class="cls-2"><path class="cls-3" d="M777.93222,322.22734C638.84464,349.20622,501.68051,385.64252,368.6249,431.87626c-87.23424,30.31188-178.2225,68.77391-234.61635,140.55783C83.4468,636.79431,64.59367,723.26475,111.27378,794.16656c76.07076,115.54118,212.22449,83.236,333.67112,89.374,35.2479,1.78151,70.67083,3.95115,105.76163,7.64342,41.16352,4.33133,78.58831,14.14005,106.33424,44.80111,31.82555,35.16921,33.39341,81.53267,30.44518,125.22028-4.11062,60.91149-15.59053,117.0519,13.87364,174.6143,57.3268,111.99633,197.31246,145.15528,319.62171,155.07619,35.73909,2.8988,71.66872,5.05228,107.5634,4.27506a526.83112,526.83112,0,0,0,53.95625-3.80542q2.26368-.28446,4.47041-.54463V1310.114c-10.34039,5.30888-21.02994,10.06121-31.63171,14.37894-40.84281,16.63425-87.67856,26.17875-135.02946,27.6556-112.40171,3.506-227.70652-38.449-272.64342-138.94846-48.36632-108.18622-5.33566-219.68365,32.90556-323.3939,13.73056-37.2372,28.61278-104.879-20.45545-125.653-16.6615-7.0541-36.00075-4.99893-54.04832-2.08507-57.02849,9.20744-112.57538,25.3641-167.98566,40.56773C482.831,817.79676,426.664,840.67735,369.16424,846.58636c-39.428,4.052-81.05668-2.56941-114.64183-22.88223-36.45442-22.0559-61.282-58.1038-66.87741-98.15122-20.66216-147.8837,208.16-219.46813,323.91785-256.05038,116.86924-36.93344,238.25462-59.65145,359.937-77.98258,56.70727-8.54291,112.8244-15.93165,169.91834-19.98151q47.68938-3.38268,95.50736-4.804c5.09619-.14906,28.44268,1.00141,50.04578,1.42391V271.20052A3097.03746,3097.03746,0,0,0,777.93222,322.22734Z"/><path class="cls-4" d="M1136.92558,366.73444q-47.80561,1.39764-95.50736,4.804C984.32428,375.5883,928.20715,382.977,871.49988,391.52c-121.68241,18.33113-243.06779,41.04914-359.937,77.98258C395.805,506.08478,166.98284,577.66921,187.645,725.55291c5.59545,40.04742,30.423,76.09532,66.87741,98.15122,33.58515,20.31282,75.2138,26.93424,114.64183,22.88223,57.49973-5.909,113.66679-28.7896,168.91866-43.95055,55.41028-15.20363,110.95717-31.36029,167.98566-40.56773,18.04757-2.91386,37.38682-4.969,54.04832,2.08507,49.06823,20.77407,34.186,88.41584,20.45545,125.653-38.24122,103.71025-81.27188,215.20768-32.90556,323.3939,44.9369,100.49944,160.24171,142.45447,272.64342,138.94846,47.3509-1.47685,94.18665-11.02135,135.02946-27.6556,10.60177-4.31773,21.29132-9.07006,31.63171-14.37894v-60.8234a435.435,435.435,0,0,1-66.76624,25.4625c-43.89824,12.79455-107.43081,21.96343-165.80115,16.1588C819.84864,1277.527,778.66978,1157.72549,804.95355,1046.859c9.65705-40.73377,37.75906-73.23416,59.22081-109.06362,29.66527-49.525,67.41991-119.28785,46.33862-176.9597-13.8893-37.99663-54.56369-63.83147-97.103-71.37607-63.21427-11.21113-125.0289,11.49515-182.46835,33.25913q-45.00423,17.05221-89.99155,34.13686c-28.20114,10.65545-56.73479,21.03532-86.52721,27.30261-44.46793,9.3545-102.20459,10.39493-137.42921-23.1893a62.2103,62.2103,0,0,1-18.2525-59.07983c13.308-61.80149,88.97869-93.37045,145.53689-114.11777,71.66822-26.28993,146.70676-48.05085,221.1427-66.262,169.89762-41.56635,346.5602-63.34544,521.55058-77.49212v-75.8588C1165.36826,367.73585,1142.02177,366.58538,1136.92558,366.73444Z"/><path class="cls-3" d="M444.27808,587.77131c-56.5582,20.74732-132.22887,52.31628-145.53689,114.11777a62.2103,62.2103,0,0,0,18.2525,59.07983c35.22462,33.58423,92.96128,32.5438,137.42921,23.1893,29.79242-6.26729,58.32607-16.64716,86.52721-27.30261q45.03121-17.0036,89.99155-34.13686c57.43945-21.764,119.25408-44.47026,182.46835-33.25913,42.53928,7.5446,83.21367,33.37944,97.103,71.37607,21.08129,57.67185-16.67335,127.43469-46.33862,176.9597-21.46175,35.82946-49.56376,68.32985-59.22081,109.06362-26.28377,110.86649,14.89509,230.668,149.45042,244.05291,58.37034,5.80463,121.90291-3.36425,165.80115-16.1588a435.435,435.435,0,0,0,66.76624-25.4625v-60.38644q-13.98506,10.50406-28.69928,20.05029c-41.12171,26.66081-96.37568,45.904-148.4319,45.23142-46.87294-.6057-91.15329-17.35852-120.1894-59.38292C829.78511,1108.145,932.551,1000.74571,992.98522,941.0003c60.46425-59.77531,178.04121-153.01573,118.52944-246.79941-84.70518-133.48263-340.96141-67.14346-459.41312-18.57536-44.73891,18.3441-174.61526,95.49755-222.35123,48.87467-8.00795-7.838-8.72511-19.74025-6.31188-29.79712,11.75841-49.04642,87.96842-64.9861,130.60437-80.51473,198.9595-72.46379,424.47357-101.96735,632.92856-50.26107V444.01715c-174.99038,14.14668-351.653,35.92577-521.55058,77.49212C590.98484,539.72046,515.9463,561.48138,444.27808,587.77131Z"/><path class="cls-4" d="M1009.83845,1254.18566c-46.87336-.607-91.14974-17.35729-120.18657-59.38362-59.86737-86.65856,42.898-194.05656,103.33133-253.80065,60.46526-59.77617,178.04117-153.01618,118.5298-246.79945-84.70522-133.48181-340.96145-67.14254-459.41366-18.576-44.73736,18.34318-174.61352,95.49937-222.3495,48.87248-8.00544-7.83652-8.72657-19.73975-6.31211-29.79448,11.75714-49.04587,87.96856-64.98824,130.60638-80.51537,198.95846-72.46429,424.47088-101.96667,632.92724-50.26v624.97661q-13.98671,10.50208-28.69909,20.05007C1117.14968,1235.61436,1061.89663,1254.85658,1009.83845,1254.18566Z"/><path class="cls-3" d="M1186.97136,224.28266v-30.702q-14.86739-5.09957-30.11972-9.21233C1072.56,161.82654,982.8305,163.59144,896.86038,176.32c-89.572,13.26274-176.32922,38.59023-263.436,61.4234-44.3379,11.627-88.9732,23.07524-134.23776,31.22076-38.59909,6.94606-85.27162,8.66061-120.58885-8.60088-15.1139-7.38695-28.1482-18.24916-37.5802-33.66387-8.58344-14.05393-12.55252-29.87212-14.6683-45.77122-10.632-79.89219-21.82172-133.03005-92.773-185.332q-3.12808-2.30866-6.32-4.54479H106.57586c39.7,32.93412,68.25327,78.276,83.20263,125.46463,15.22873,48.04716,18.56805,98.57207,15.99791,148.38453-1.4392,27.89375-9.64518,56.51064-5.51357,84.44174,5.632,38.07407,32.98866,59.14326,73.60226,59.61806,73.233.85618,177.29411-54.06091,221.364-72.01308,49.53259-20.17755,98.99562-40.59822,150.38215-56.43548,53.60668-16.53392,108.62966-28.809,164.02018-39.01127,54.90053-10.105,110.20315-18.37983,165.48865-26.41239,52.60984-7.64346,107.45815-14.25068,160.173-3.69231C1153.63427,215.06942,1168.91918,221.32768,1186.97136,224.28266Z"/><path class="cls-4" d="M326.34924,180.92823c2.11578,15.8991,6.08486,31.71729,14.6683,45.77122,9.432,15.41471,22.4663,26.27692,37.5802,33.66387,35.31723,17.26149,81.98976,15.54694,120.58885,8.60088,45.26456-8.14552,89.89986-19.5938,134.23776-31.22076,87.10681-22.83317,173.86406-48.16066,263.436-61.4234,85.97012-12.7286,175.6996-14.4935,259.99126,8.04829q15.23482,4.08053,30.11972,9.21233v-50.3769c-11.72345-9.20375-26.43557-14.22385-41.20538-18.00827-113.46292-29.07216-229.61-1.8857-342.46811,15.35967-42.61386,6.51166-89.73838,12.7878-136.164,12.82235-49.31579.03652-100.38981-6.9588-143.50659-30.42231-44.89879-24.43329-68.61415-66.14875-104.35264-99.48155C405.39223,10.52583,389.57094.04587,372.73775-8.94861H227.25627q3.19,2.23745,6.32,4.54479C304.52752,47.89818,315.71729,101.036,326.34924,180.92823Z"/><path class="cls-3" d="M523.62728,122.9552c43.11678,23.46351,94.1908,30.45883,143.50659,30.42231,46.42562-.03455,93.55014-6.31069,136.164-12.82235C916.156,123.30979,1032.30306,96.12333,1145.766,125.19549c14.76981,3.78442,29.48193,8.80452,41.20538,18.00827V80.3297c-12.446-4.09687-24.92453-8.0802-37.48039-11.86087C1037.86246,34.85671,926.63044,25.5646,811.10879,53.53553,758.14158,66.3603,698.81524,75.37929,644.59623,64.1296,596.91467,54.23635,566.83676,24.90335,557.094-8.94861H372.73775c16.83319,8.99448,32.65448,19.47444,46.53689,32.42226C455.01313,56.80645,478.72849,98.52191,523.62728,122.9552Z"/><path class="cls-4" d="M644.59623,64.1296c54.219,11.24969,113.54535,2.2307,166.51256-10.59407C926.63044,25.5646,1037.86246,34.85671,1149.491,68.46883c12.55586,3.78067,25.03435,7.764,37.48039,11.86087V-8.94861H557.094C566.83676,24.90335,596.91467,54.23635,644.59623,64.1296Z"/><path class="cls-3" d="M-371.08948,1640.65461c35.72038-13.8783,71.03847-28.89014,104.52115-46.97856,63.93982-34.54178,120.81619-81.30957,151.93832-144.61179,27.86578-56.6787,32.97744-123.91992.28092-179.96046-31.036-53.19944-89.66083-94.62316-104.10248-155.59353-16.92306-71.47434,45.9311-138.50128,64.034-204.71188,18.73857-68.536,10.32026-139.70784,6.28733-209.51245-4.07347-70.50789-4.89514-144.82187,30.98265-209.20884,35.99983-64.64595,100.21952-109.14688,153.40709-160.757,53.651-52.0877,101.90628-118.90086,89.44007-194.20936C116.25477,78.05459,79.37033,28.821,34.25588-8.94861H-138.16345C-53.79122,62.21044,26.39841,156.97385-22.5853,267.99222c-55.40617,125.5745-224.75541,171.77155-220.00523,327.15121,2.063,67.25291,27.69485,131.81829,29.42579,199.10405.78667,30.995-4.49323,61.37471-17.67646,89.95732-13.16566,28.54962-31.80419,54.47611-47.155,81.98954-16.173,28.97116-28.01,60.30611-22.92212,93.342,5.45529,35.3834,26.27889,66.68641,47.17249,95.98088,38.0284,53.32682,83.68,107.43054,97.37043,171.57447,13.42778,62.881-13.81285,121.95644-62.89136,165.32379-26.75063,23.62705-58.51985,41.78041-91.40747,57.11594-29.277,13.652-60.55385,28.11886-91.87543,37.21083q-4.077,1.18335-7.91566,2.05407V1657.133C-396.44719,1651.67642-382.94063,1645.259-371.08948,1640.65461Z"/><path class="cls-3" d="M151.764,2501.309H-44.99464c11.59748-12.8343,22.64248-23.90226,27.42575-30.55677,26.805-37.275,45.96506-91.91632,14.52746-130.90756-62.70163-77.777-142.39551-144.81453-209.82559-219.33267-29.516-32.615-60.84856-65.23014-83.47287-102.49154-36.86884-60.72089-45.96962-134.10248-32.90263-202.1259,14.93827-77.74044,56.0609-114.48149,115.38969-166.71306,59.19644-52.11751,141.13125-94.76446,177.62584-164.13438,33.72421-64.10285,37.42566-143.97469,4.58236-209.03135-16.38062-32.45083-41.06782-57.03314-68.81758-81.39172-24.23535-21.2779-51.474-45.54977-55.79161-77.90923a63.85673,63.85673,0,0,1,13.79272-48.53017c11.45134-14.2217,28.44807-22.962,42.29561-34.86515,32.55571-27.95067,31.31428-71.05864,24.249-108.53441-8.16523-43.286-21.09986-85.72763-29.70324-128.968-15.78715-79.33331-22.06735-163.363,10.6481-239.862,22.606-52.866,63.58716-98.06436,115.16611-128.86294,26.75473-15.97893,60.39214-17.40293,76.82292,12.07209,17.6859,31.77066-12.42806,74.22139-30.794,99.78038C40.5549,574.65886,18.08129,610.017,3.51723,651.32213c-19.12821,54.249-19.863,109.89-4.58236,165.04721,15.057,54.31284,41.87566,105.01553,68.05085,155.29823,47.485,91.20455,99.607,198.79867,63.71025,301.33589-8.16514,23.30436-21.506,44.13033-34.93366,65.08418-14.16233,22.072-29.128,45.50413-31.76613,71.62445-2.83426,28.03273,10.648,53.58716,19.2331,79.70748A214.04228,214.04228,0,0,1,94.206,1556.3157c-.05025,42.91628-15.43584,86.41225-51.98054,114.45862-21.34632,16.3897-46.85519,26.76843-71.75229,37.58545-68.05085,29.56618-138.02771,78.11461-166.10151,146.412-20.30114,49.37435-14.68729,103.2673,6.88723,151.42778,46.31654,103.43179,152.02581,164.48112,241.75607,232.57765,40.301,30.58868,79.83541,65.39,102.14466,109.7759,21.10443,42.008,23.35909,90.12276,5.80555,133.60056A166.76459,166.76459,0,0,1,151.764,2501.309Z"/><path class="cls-3" d="M1018.56871,1483.44393c-77.3859-1.57069-154.946-17.97495-224.60352-49.52068-61.4046-27.80525-119.26029-69.13167-151.69368-126.00494-18.28851-32.06406-26.244-67.7717-25.89436-103.91617a300.76867,300.76867,0,0,1,6.80161-58.9786c8.368-39.575,28.37641-82.27278,16.11622-122.83444-12.86594-42.56466-58.21758-55.7609-100.7392-60.98251-77.98088-9.58676-158.129,8.4535-235.25194-8.696-33.35379-7.41676-62.34827-29.13806-96.09454-33.68012-45.07313-6.06661-68.20064,28.75746-60.843,66.65834,3.44508,17.7462,10.99716,35.03854,17.79741,51.87771,19.4167,48.00868,48.08252,88.34473,100.729,107.30156,17.76332,6.39614,36.22622,10.83308,54.35648,16.16081a465.73434,465.73434,0,0,1,46.24634,16.08076c62.86553,25.91982,117.52424,70.27219,120.6936,138.3109,3.97187,85.26606-24.77359,169.72373-25.03717,255.13611-.23277,75.47779,7.045,183.41663,71.76525,238.234,54.97159,46.5603,139.08161,43.30436,208.52391,44.20381,84.00842,1.08822,141.74166,60.17444,183.74215,121.1213,54.293,78.7843,100.59684,170.09671,102.57227,265.20681,1.833,88.253-20.30086,178.9784-57.94984,262.18641h54.23247c3.26735-7.888,6.71375-15.5719,9.74176-22.9108,60.18078-145.77764,73.7836-311.83018,7.23831-457.88286-29.33825-64.40226-73.32773-123.37971-130.44755-169.28931-32.51181-26.131-70.62094-43.42673-112.0291-53.74923-39.63478-9.8806-83.76976-8.95906-121.96575-22.429-66.16067-23.31906-111.56731-79.15559-120.64166-143.67282-11.22587-79.81578,9.58512-160.66931.48991-241.17327-7.65245-67.73369-30.89616-137.98015-73.92522-195.06222-20.62094-27.35542-50.57612-56.06337-80.89063-74.38656-30.45851-18.41027-71.42747-19.62565-97.5367-44.68418-33.99679-32.65453,57.73843-31.64568,68.87663-31.96457,57.158-1.63642,171.65265-21.08156,199.85822,42.36228,13.35827,29.99115,5.50778,64.11153,2.25554,95.204-7.8504,74.86447.59461,154.52225,48.16933,217.77576,43.06361,57.26149,110.43062,94.60468,178.63683,121.29223,117.61333,46.03941,261.693,74.31645,385.10324,33.8129v-91.75229A593.95665,593.95665,0,0,1,1018.56871,1483.44393Z"/><path class="cls-4" d="M801.86812,1520.73855c-68.20621-26.68755-135.57322-64.03074-178.63683-121.29223-47.57472-63.25351-56.01973-142.91129-48.16933-217.77576,3.25224-31.0925,11.10273-65.21288-2.25554-95.204-28.20557-63.44384-142.70025-43.9987-199.85822-42.36228-11.1382.31889-102.87342-.69-68.87663,31.96457,26.10923,25.05853,67.07819,26.27391,97.5367,44.68418,30.31451,18.32319,60.26969,47.03114,80.89063,74.38656,43.02906,57.08207,66.27277,127.32853,73.92522,195.06222,9.09521,80.504-11.71578,161.35749-.48991,241.17327,9.07435,64.51723,54.481,120.35376,120.64166,143.67282,38.196,13.46991,82.331,12.54837,121.96575,22.429,41.40816,10.3225,79.51729,27.61818,112.0291,53.74923,57.11982,45.9096,101.1093,104.88705,130.44755,169.28931,66.54529,146.05268,52.94247,312.10522-7.23831,457.88286-3.028,7.3389-6.47441,15.0228-9.74176,22.9108h71.28794c76.095-219.51094,71.22167-530.79293-106.24186-712.45607-63.74028-65.24868-133.22216-66.77934-221.93462-66.116-50.75034.37955-100.16809-11.03226-127.61087-53.39067-21.32755-32.91947-31.62376-84.31357,3.61473-112.68793,42.17835-33.96009,93.96625,3.73522,129.844,25.51033,33.27607,20.196,71.37534,33.07269,110.04153,41.09753,60.8376,12.62642,125.77527,16.26542,188.01711,17.24255,39.41757.61876,78.33318-3.3276,115.91521-12.57068v-73.38661C1063.56116,1595.055,919.48145,1566.778,801.86812,1520.73855Z"/><path class="cls-4" d="M116.54268,2501.309H36.36509a143.73666,143.73666,0,0,0,19.04145-30.28735c22.08109-47.93688,5.235-95.76861-22.61519-137.0602-39.17818-58.08267-93.30851-104.16187-146.32511-149.97183-96.81383-83.65105-224.1661-209.61565-177.845-353.1886,17.49426-54.22618,59.39736-97.32967,105.37154-130.98538,70.059-51.2868,152.5735-78.64409,185.508-165.257,26.28929-69.13249,23.36361-148.3471,10.34692-220.03554-11.29616-62.19962-51.12268-113.63252-68.384-173.75547-20.12319-70.09552,26.344-126.95053,14.98843-194.74574C-51.00552,901.48076-62.12372,860.947-74.319,817.5241-88.22128,768.04-94.94877,716.31047-89.837,664.95059c8.46642-85.07947,42.5831-169.835,119.99027-206.15144,6.52672-3.06256,14.80148-5.59559,20.4518-1.11825a10.77718,10.77718,0,0,1,1.95344,2.00364c4.7102,6.33042,1.0999,16.68185-3.1219,24.13494-47.06956,83.08958-99.68,154.67761-99.77585,254.12941-.11866,126.22944,82.50537,231.09888,116.9095,349.22709,19.10083,65.58162,14.08949,124.60006-1.13185,190.15425C51.75069,1336.29386,29.46869,1401.92117,47.3555,1462.391c23.2951,78.75363,25.14357,148.40639-55.01115,194.74118-73.55968,42.52386-174.59531,57.63095-205.403,148.18745-33.90674,99.67087-14.29939,216.91821,53.06685,298.33266C-93.041,2184.5693,10.231,2226.13451,86.91712,2297.8868c35.12535,32.86156,47.97326,72.78857,44.03448,120.967C129.29022,2439.20066,125.36514,2471.58308,116.54268,2501.309Z"/><path class="cls-3" d="M1021.00225,1121.20585c-14.91093-91.03559,80.80748-171.78373,165.96911-224.42612v210.93919C1117.13143,1165.13536,1035.5161,1209.82717,1021.00225,1121.20585Z"/></g><rect class="cls-5" width="1080" height="1080"/><path class="cls-6" d="M392.91723,478.21564H478.094V487.722c-14.44983-4.5629-27.18791-7.60509-75.67039-7.60509l.00306,121.68h-9.50943Z"/><path class="cls-6" d="M402.42185,479.43888h-9.50438V602.01173c-.001.10734-.00407.18835-.00509.30886-.00407,2.23692,2.21447,1.94426,2.11265,7.93807-.02545,1.50883,1.24519,1.83288,1.26657.10329.05091-4.169,1.97011-6.08191,3.50548-6.08191a2.58187,2.58187,0,0,0,2.62172-1.95439h.00305Z"/><path class="cls-6" d="M720.74427,478.21564h9.50561v53.23491l18.25238-13.11864a344.68261,344.68261,0,0,0,45.82009-40.11627h12.92836l-61.03028,43.91882,72.43792,79.66246H805.73l-67.30417-73.95864-8.17594,5.8941v68.06454h-9.50561Z"/><path class="cls-6" d="M696.3678,478.21551h-9.5056v89.92918c0,13.6057-7.98379,22.68112-18.9615,27.48734a15.52383,15.52383,0,0,1-6.78191,1.63528c-12.31809-2.85559-11.71-18.66667-22.048-24.13974-1.82436-.60812-4.25683.60812-6.08119,1.21624-7.29742,4.25683-17.02731,16.4192-24.33563,7.06677a21.19244,21.19244,0,0,1-2.62767-6.08266,27.77716,27.77716,0,0,1-.91813-7.18323V553.88514c0-37.07408,3.04219-57.41725,7.60509-75.66963h-9.50636v89.92918a31.80551,31.80551,0,0,0,.6789,6.62743,28.85965,28.85965,0,0,0,1.9428,5.92765c1.62,3.98205,4.0525,7.63076,9.52557,7.02264,9.72989-1.82435,15.203-15.81108,24.32474-10.94613,10.338,5.47307,10.338,24.93286,24.10617,24.71373a59.15578,59.15578,0,0,0,6.54908-1.76465,44.194,44.194,0,0,0,16.528-9.50205v11.62276h9.5056V478.21551Z"/><path class="cls-6" d="M370.58431,478.21551h-9.5056v89.92918c0,43.53825-81.754,40.68634-81.754,0V553.88514c0-37.07408,3.04219-57.41725,7.60509-75.66963h-9.50637v89.92918c0,37.21239,59.93636,44.56684,83.65529,22.07862v11.62276h9.5056V478.21551Z"/><path class="cls-6" d="M490.63868,478.21566h23.39439a52.09566,52.09566,0,0,1,5.43243.19564c10.41372,2.07789,9.908,15.22574,18.5047,20.2826,1.01137.50569,2.52843,0,3.5398-.50569,7.5853-5.05686,15.67628-14.6649,24.83711-8.40913a50.10775,50.10775,0,0,1,4.025,3.17145,42.93962,42.93962,0,0,1,15.13876,32.41671c0,19.89134-14.34758,39.7833-43.15623,45.51391q-1.60049.31836-3.26048.57768a122.88015,122.88015,0,0,1-14.23281,1.05907l-2.37658,0H509.65116a39.351,39.351,0,0,0-9.50624.5703v28.70854h-9.50624Zm9.50624,1.9016v90.87959c3.04221-.19069,6.27423-.3805,9.50624-.3805h7.60508c9.08317-.115,18.18553-.115,26.81127-2.89587a49.47276,49.47276,0,0,0,5.37788-2.11723,43.75865,43.75865,0,0,0,25.60841-40.236,44.51261,44.51261,0,0,0-9.219-27.3083,31.33649,31.33649,0,0,0-3.35259-3.72072c-7.31865-5.758-14.39826,1.82725-20.46649,5.87274-3.03412,1.51706-5.56255,0-7.5853-2.02275-5.05686-6.06823-6.57392-17.19333-16.03312-17.85741a51.80906,51.80906,0,0,0-5.89415-.21354Z"/><path class="cls-6" d="M448.00113,649.059c0-6.48009-.17049-7.16207-.8526-7.33245v-.17086H462.496l1.36422,3.06967h-.34106c-1.80756-2.04645-6.34361-1.87608-9.17433-1.87608h-3.44468c-1.02316,0-1.02316.17087-1.02316,1.53484v10.23175h1.70527c4.67248,0,9.379,1.53484,9.379,5.45687s-4.70648,5.45687-9.379,5.45687h-4.4337v-.17037c.68211-.17087.8526-.85286.8526-7.33295Zm1.87583,6.65047v6.9917c0,1.364,0,1.53484,1.02316,1.53484h.51155c3.92216,0,7.3327-1.1936,7.3327-4.26327s-3.41054-4.26327-7.3327-4.26327Z"/><path class="cls-6" d="M487.22077,658.88136c1.05723,2.08052,2.66022,6.27515,3.95623,6.34379v.20445h-3.81981v-.1363c1.19366-.239-.92082-3.95611-1.9099-5.83218L482.446,653.663h-9.34489l-3.00128,5.79811c-1.53471,2.96745-2.592,5.38872-1.0573,5.79811v.17037h-4.33135v-.20445c1.56885-.239,3.24-4.26327,4.29728-6.34379l9.10618-18.00767ZM473.715,652.46941h8.11709l-4.05858-7.84406Z"/><path class="cls-6" d="M492.88017,641.72654v-.17086h4.4337c4.67248,0,9.379,1.53483,9.379,5.45686s-4.70649,5.45687-9.379,5.45687H495.6086v5.45687c0,6.48009.1705,7.16208.85261,7.33295v.17037h-3.581v-.17037c.68211-.17087.8526-.85286.8526-7.33295V649.059C493.73277,642.5789,493.56228,641.89692,492.88017,641.72654Zm4.26315,9.54927c3.92215,0,7.33269-1.19359,7.33269-4.26327,0-3.06918-3.41054-4.26327-7.33269-4.26327h-.51155c-1.02317,0-1.02317.17087-1.02317,1.53484v6.9917Z"/><path class="cls-6" d="M520.67335,662.35992l20.63381-21.48623v17.05259c0,6.48009.341,7.16208,1.0231,7.33295v.17037h-3.24v-.17037c.6821-.17087,1.02316-.85286,1.02316-7.33295V644.62535l-20.63375,21.48623V649.059c0-6.48009-.34112-7.16207-1.02323-7.33245v-.17086h3.24v.17086c-.68211.17038-1.02316.85236-1.02316,7.33245Z"/><path class="cls-6" d="M556.13966,649.059v13.30093l20.63381-21.48623v17.05259c0,6.48009.341,7.16208,1.0231,7.33295v.17037h-3.24v-.17037c.68211-.17087,1.02316-.85286,1.02316-7.33295V644.62535L554.946,666.11158V649.059c0-6.48009-.34112-7.16207-1.02323-7.33245v-.17086h3.24v.17086C556.48071,641.89692,556.13966,642.5789,556.13966,649.059Zm4.4337-12.2782a5.97285,5.97285,0,0,0,5.11582,2.72893c4.4337,0,5.96841-4.60451,5.96841-4.60451s-1.70521,3.06967-4.94525,3.06967a5.01375,5.01375,0,0,1-4.60427-2.55806Z"/><path class="cls-6" d="M592.63018,640.87369a12.61895,12.61895,0,1,1-12.619,12.619A12.42035,12.42035,0,0,1,592.63018,640.87369ZM581.887,652.46941a11.87073,11.87073,0,0,0,11.59585,12.2782c5.62736,0,9.89051-4.0929,9.89051-10.23175a11.87073,11.87073,0,0,0-11.59585-12.2782C586.15015,642.23766,581.887,646.33056,581.887,652.46941Z"/><path class="cls-6" d="M608.48676,649.059c0-6.48009-.17049-7.16207-.8526-7.33245v-.17086h13.64217l1.36422,3.06967h-.34106c-1.80762-2.04645-6.34361-1.87608-9.17439-1.87608h-1.73934c-1.02317,0-1.02317.17087-1.02317,1.53484v13.64217c0,6.48009.1705,7.16208.85261,7.33295v.17037h-3.581v-.17037c.68211-.17087.8526-.85286.8526-7.33295Z"/><path class="cls-6" d="M646.00113,658.88136c1.0573,2.08052,2.66022,6.27515,3.95623,6.34379v.20445h-3.81981v-.1363c1.19372-.239-.92088-3.95611-1.9099-5.83218l-3.00128-5.79811h-9.34489l-3.00128,5.79811c-1.53477,2.96745-2.592,5.38872-1.05723,5.79811v.17037h-4.33142v-.20445c1.56885-.239,3.24-4.26327,4.29728-6.34379l9.10612-18.00767Zm-13.50575-6.41195h8.11709l-4.05851-7.84406Z"/><path class="cls-6" d="M838.89408,384.40338a332.57828,332.57828,0,0,0-78.1296-98.54593C693.68993,228.17676,619.45761,203.60094,547.13729,202.5c-63.44437.30944-118.08281,13.39537-170.20992,42.79677-49.98874,28.19623-93.83434,67.6918-127.9457,124.7357-59.3598,99.269-62.05353,223.46567-6.9998,327.31926a326.70009,326.70009,0,0,0,66.53223,87.271c60.762,56.3892,128.65741,85.11147,202.37508,91.525,65.47851,5.69853,128.791-6.44443,189.50088-39.634,54.95276-30.04308,102.4546-73.75351,137.43728-138.68317C890.43326,600.19338,890.65638,482.81088,838.89408,384.40338Zm28.0008,225.49981C853.48485,650.82705,839.013,700.5601,792.7,714.374c-23.15567,8.28966-52.10106-5.52426-75.25672,11.05179-60.78647,41.445-89.73023,118.80754-167.995,132.75338a157.61139,157.61139,0,0,1-30.11312.20683A353.30116,353.30116,0,0,1,456.2654,847.717c-48.76728-12.72438-96.00366-36.779-139.88346-75.13946a325.467,325.467,0,0,1-80.77121-106.46263c-27.23861-57.52923-32.99739-109.298-27.965-157.9953a291.42243,291.42243,0,0,1,52.91537-140.8932c13.33673-18.87566,29.13919-35.73347,43.82442-53.50655,44.68434-40.02,96.761-71.00766,162.64989-85.32482,49.09463-10.66907,102.28523-12.22114,163.39579,5.36466,64.13327,18.45547,122.26183,53.67267,171.35809,112.21,31.82479,37.94513,51.24278,77.21106,62.29457,117.03072,12.62828,45.50353,13.67711,86.4958,7.41183,124.47024Q869.6171,598.862,866.89488,609.90319Z"/></svg>