<svg id="Layer_1" data-name="Layer 1" xmlns="http://www.w3.org/2000/svg" xmlns:xlink="http://www.w3.org/1999/xlink" viewBox="0 0 1080 1080"><defs><style>.cls-1{fill:#2f2f35;}.cls-2{fill:url(#linear-gradient);}</style><linearGradient id="linear-gradient" x1="355" y1="420.12671" x2="725" y2="420.12671" gradientUnits="userSpaceOnUse"><stop offset="0.03073" stop-color="#fed0af"/><stop offset="0.38547" stop-color="#fea094"/><stop offset="1" stop-color="#fe93c7"/></linearGradient></defs><title>IGRIK_Bar&amp;amp;Yoga_logo_ALLLL</title><path class="cls-1" d="M449.76019,816.61679h7.96338c5.86792,0,6.42676,5.3789,1.71155,6.42676,11.70056,1.74633,10.89734,16.27612-2.41,16.27612h-7.2649Zm1.74634.34936v6.91553a14.28254,14.28254,0,0,1,5.51856-1.0127h.69848c3.9469,0,3.9469-5.90283,0-5.90283Zm0,22.00415h5.51856c11.63085,0,11.63085-15.75219,0-15.75219a9.39564,9.39564,0,0,0-5.51856,1.57177Z"/><path class="cls-1" d="M484.40485,826.15194l4.15637,13.16773h-1.6416l-1.57178-4.88989c-.76843,2.75927-3.353,5.06445-7.684,5.06445-10.96729,0-10.96729-13.866,0-13.866a8.60007,8.60007,0,0,1,5.44861,1.71143l-.66358-2.06079a4.5579,4.5579,0,0,0-4.82006-3.49268,7.17618,7.17618,0,0,0-4.15625,1.99072v-1.78125a19.31613,19.31613,0,0,1,4.15625-.55883A6.92047,6.92047,0,0,1,484.40485,826.15194Zm-6.741-.20947c-8.62708,0-8.62708,13.23755,0,13.23755C486.6402,839.18,486.6402,825.94247,477.66388,825.94247Z"/><path class="cls-1" d="M492.435,839.31967h-1.57178V821.64633h1.04785l.31433,2.23535c2.06067-2.68921,6.70606-2.96875,9.32556-1.67651v1.92114c-3.10852-3.49268-9.116-3.17847-9.116,3.00366Z"/><path class="cls-1" d="M530.78131,820.49374a7.84479,7.84479,0,0,0-6.60132-3.80688c-4.15637,0-6.70605,4.08642-3.842,7.02026L531.7243,835.4078a8.58823,8.58823,0,0,0,1.60669-4.855,7.69034,7.69034,0,0,0-3.842-6.56616h2.06079a10.1837,10.1837,0,0,1,2.09558,6.56616,8.96429,8.96429,0,0,1-1.67651,5.06446l3.59754,3.70239h-2.20044l-2.44495-2.47974a9.46469,9.46469,0,0,1-6.70606,2.68921c-13.6217,0-12.64367-13.866-4.64526-14.355-3.00378-3.59766-.20959-8.80176,4.61035-8.80176a10.18359,10.18359,0,0,1,6.56641,2.09571ZM519.884,825.52328l-.03491-.03491c-5.90283.24463-7.05542,13.72656,4.36584,13.72656a9.0525,9.0525,0,0,0,6.49646-2.61963Z"/><path class="cls-1" d="M547.75055,816.61679h2.34021l9.84949,10.86255,2.30517-2.54981a54.03229,54.03229,0,0,0,5.97254-8.31274h2.06079L560.0799,827.86361v11.45606h-1.74634V828.35238Z"/><path class="cls-1" d="M578.55389,821.47177c13.06287,0,13.06287,18.02246,0,18.02246S565.49115,821.47177,578.55389,821.47177Zm0,.27954c-10.72265,0-10.72265,17.42871,0,17.42871S589.27667,821.75131,578.55389,821.75131Z"/><path class="cls-1" d="M595.45526,834.849c-1.95593.69848-3.66736,3.77221-.31433,3.77221,2.934,0,7.54431-1.88623,9.91931-1.88623,5.344,0,4.6803,8.13818-3.38794,8.13818a10.11535,10.11535,0,0,1-6.56628-2.0957l-.03491-2.02563a7.87394,7.87394,0,0,0,6.60119,3.84179c6.88074,0,8.03333-6.32177,3.73731-6.32177-2.61963,0-7.09034,1.88623-10.02417,1.88623-3.73731,0-3.24829-3.947-.27942-5.44873-7.16016-3.14356-5.55347-13.23755,4.88977-13.23755a12.69611,12.69611,0,0,1,3.80713.52392,8.77255,8.77255,0,0,1,5.13427-2.5498l.978,1.67651a6.17294,6.17294,0,0,0-5.798.978c8.03332,2.72437,6.67114,13.55176-4.12146,13.55176A11.857,11.857,0,0,1,595.45526,834.849Zm4.54053-13.09766c-10.02417,0-10.02417,13.58667,0,13.58667S610.02,821.75131,599.99579,821.75131Z"/><path class="cls-1" d="M626.08344,826.15194l4.15637,13.16773h-1.6416l-1.57178-4.88989c-.76843,2.75927-3.353,5.06445-7.684,5.06445-10.96729,0-10.96729-13.866,0-13.866a8.60009,8.60009,0,0,1,5.44861,1.71143l-.66358-2.06079a4.55785,4.55785,0,0,0-4.81994-3.49268,7.17617,7.17617,0,0,0-4.15638,1.99072v-1.78125a19.31644,19.31644,0,0,1,4.15638-.55883A6.92042,6.92042,0,0,1,626.08344,826.15194Zm-6.741-.20947c-8.62708,0-8.62708,13.23755,0,13.23755C628.31879,839.18,628.31879,825.94247,619.34247,825.94247Z"/><path class="cls-2" d="M598.76917,346.71623h-9.38073c9.10756,38.81467-7.35424,88.36432-49.38895,88.36432-42.03382,0-58.49562-49.54965-49.38807-88.36432H481.2307c-10.32076,39.57438,8.8433,89.56235,57.4913,90.4265-.00268,11.57058-1.15786,20.78615-3.05043,28.12789a61.34082,61.34082,0,0,0-12.516-9.12183,42.13317,42.13317,0,0,0-9.84494-3.87263,29.88733,29.88733,0,0,0-7.939-.90611,25.8711,25.8711,0,0,0-4.136.48117,33.23376,33.23376,0,0,0-9.64765,2.9192,24.06663,24.06663,0,0,0-10.50645,10.03331,18.76184,18.76184,0,0,0-2.09611,12.81145c1.4114,7.13642,5.84555,12.59363,13.32745,16.13417a28.35209,28.35209,0,0,0,17.00368,2.40053c1.09805-.17854,2.16217-.40887,3.20041-.682a27.496,27.496,0,0,0,11.63842-5.38311q.79676-.53028,1.57654-1.08734c1.71224-1.22481,7.531-8.072,9.32627-13.87915.12587-.29549.25264-.59009.37584-.89272,1.0793,1.17393,1.84347,2.02648,1.84347,2.02648s1.448,1.91131,1.50156,1.85954c1.50334,1.58369,2.222,2.41838,3.77443,3.9494a60.79391,60.79391,0,0,0,13.78184,10.53323,70.91789,70.91789,0,0,0,6.57311,3.00847,27.041,27.041,0,0,0,4.18776,1.31052,30.21329,30.21329,0,0,0,7.548.76238c9.23788-.2,16.49482-3.52,21.90561-9.80387a20.60056,20.60056,0,0,0,4.1342-7.68545,15.63877,15.63877,0,0,0,.3678-2.73619c.10266-.91236.18122-1.82562.2696-2.73887a15.01821,15.01821,0,0,0-1.31587-6.9918,22.02708,22.02708,0,0,0-8.5987-10.34576,28.84209,28.84209,0,0,0-16.593-4.78231,31.56654,31.56654,0,0,0-13.83183,3.47983,48.428,48.428,0,0,0-8.27018,5.19654,4.76866,4.76866,0,0,1,.95521,1.5078c.79185-.5267,1.59351-1.04359,2.42107-1.53816a37.93493,37.93493,0,0,1,12.38919-5.06262,25.64483,25.64483,0,0,1,11.07958.07766,25.20768,25.20768,0,0,1,9.19771,4.21722,23.80459,23.80459,0,0,1,5.39383,6.05177,6.57839,6.57839,0,0,1,.61419,1.4587,18.87464,18.87464,0,0,1,.97485,2.7969,25.194,25.194,0,0,1,.24372,3.19327,15.24509,15.24509,0,0,1-2.22377,8.22911c-3.22362,5.26885-8.263,8.53889-15.19949,9.75478a23.79673,23.79673,0,0,1-10.86-.7365,37.53512,37.53512,0,0,1-10.93853-5.38044,65.0476,65.0476,0,0,1-13.75685-12.78021c-.43386-.53741-3.13077-3.62534-4.21007-4.73678-.333-.3428-.6749-.67847-1.01324-1.01592,2.16574-7.79525,3.495-17.66786,3.49768-30.16151C589.925,436.27947,609.09082,386.29061,598.76917,346.71623ZM517.78678,491.01851a30.57226,30.57226,0,0,1-8.67548,2.32287c-.52938.05624-1.05609.09284-1.581.11962-.20354.00536-.40262.00893-.59544.00893v.0116a24.10821,24.10821,0,0,1-11.36525-2.31215c-6.70523-3.24772-10.60286-8.10056-11.376-14.66206a14.64174,14.64174,0,0,1,2.0854-9.611c3.97083-6.45349,10.38772-9.761,18.99445-10.08508a27.35761,27.35761,0,0,1,2.78083.1223,31.71876,31.71876,0,0,1,10.21006,3.29057,52.558,52.558,0,0,1,11.62682,8.26929c1.02038.95075,2.35232,2.322,3.60391,3.64855C529.36538,482.89563,523.38593,488.33945,517.78678,491.01851ZM703.8381,334.83678a182.30221,182.30221,0,0,0-42.82656-54.01772c-36.76676-31.61754-77.457-45.08871-117.09925-45.69219-34.77688.16961-64.72682,7.34263-93.30017,23.459A186.83,186.83,0,0,0,380.479,326.9594c-32.53794,54.41409-34.0145,122.49219-3.83692,179.41929a179.07975,179.07975,0,0,0,36.46948,47.83741c33.30657,30.90961,70.52326,46.65365,110.93143,50.16919A179.40359,179.40359,0,0,0,627.91744,582.66c30.12223-16.46805,56.16025-40.42782,75.33592-76.01886A182.70677,182.70677,0,0,0,703.8381,334.83678ZM716.87482,458.444c-7.25566,22.43232-15.08584,49.69337-40.144,57.26544-12.52865,4.544-28.18991-3.02811-40.71856,6.058-32.88925,22.718-48.54963,65.12408-90.89573,72.76846a84.18174,84.18174,0,0,1-16.29306.11338,188.90249,188.90249,0,0,1-34.12467-5.84823c-26.38613-6.97484-51.944-20.16034-75.68564-41.18752a178.2,178.2,0,0,1-43.70225-58.35724c-14.73777-31.53452-17.85364-59.91147-15.13078-86.60476a161.00081,161.00081,0,0,1,28.6305-77.23028c7.216-10.34665,15.76611-19.58721,23.71174-29.32949,24.177-21.93686,52.35369-38.92268,88.00369-46.7706a173.15752,173.15752,0,0,1,88.40727,2.94062c34.70008,10.11633,66.15125,29.42055,92.71537,61.50766a169.49156,169.49156,0,0,1,33.70523,64.15012c6.83269,24.94266,7.40017,47.41247,4.01026,68.22807Q718.34771,452.39177,716.87482,458.444Z"/><path class="cls-1" d="M614.20664,666.97063h-8.43237v80.1075h8.43237ZM541.8232,751.419c59.47053-9.02009,55.43975-84.44833-12.10763-84.44833H499.35906V776.59h8.43238V752.77663a49.0755,49.0755,0,0,1,8.43238-.4711h13.49175c29.68139,0,57.00185,41.48678,93.261,18.21371l-1.012-1.34895C600.16072,784.83154,580.86966,756.59971,541.8232,751.419Zm-21.88889-.7998h-3.71049c-2.88561,0-5.66747.10778-8.43238.34153V668.65713h5.684a48.57456,48.57456,0,0,1,5.30828.20261c13.05417,1.9,15.13651,19.25277,28.3246,20.64106,4.85878.69407,8.32933-7.63526,14.57635-5.5529,4.16463.69408,8.32931,4.85882,9.25178,9.44889a36.24489,36.24489,0,0,1,1.82936,5.18778A42.31946,42.31946,0,0,1,573.8697,715.217c-1.77337,11.76577-8.02037,22.17736-17.66165,28.26337a41.58608,41.58608,0,0,1-5.51929,2.98214,50.999,50.999,0,0,1-20.97319,4.15666h-9.78126ZM355.00452,776.31023c-.0009.09572-.00362.168-.00452.27553-.00361,1.99534,1.96469,1.7343,1.87438,7.081-.02259,1.34586,1.10475,1.635,1.12371.09214.04517-3.71889,1.74788-5.42538,3.1101-5.42538a2.29347,2.29347,0,0,0,2.326-1.74328h.00272V666.97089h-8.4324Zm111.97876-8.99587c-7.58846,5.39706-17.2016,8.60193-28.66937,8.60193-.59139,0-1.17638-.0109-1.7573-.02756-.184-.00538-.36537-.01384-.548-.021q-.602-.02288-1.1964-.05651-.305-.01846-.608-.03934-.576-.04018-1.14419-.09151c-.18911-.017-.37892-.03254-.567-.05152-.44907-.04472-.89476-.096-1.33705-.15122-.10134-.01256-.204-.02267-.305-.03588-1.17165-.16673-2.32057-.36472-3.43412-.6209-10.80124-4.8032.30455-17.99135-6.63656-25.62662-6.247-8.32921-17.35277-4.85868-26.37622-6.94105-2.08233,0-2.77644-1.38816-3.53918-3.05339a42.38517,42.38517,0,0,1-1.56838-5.10474q-.28872-1.44442-.504-2.91306c-.01323-.08984-.02679-.17967-.03966-.26976-.05591-.39113-.1071-.78328-.1559-1.17607-.01355-.10739-.02812-.21453-.041-.32192q-.08492-.71433-.1542-1.431c-.0139-.14649-.02508-.29283-.03832-.43932-.02577-.29039-.05184-.58053-.07388-.87131-.01356-.17557-.02407-.35179-.03592-.52773-.018-.26438-.03591-.52863-.05049-.793-.01051-.18544-.01829-.37075-.02713-.55618-.01185-.25452-.02371-.50916-.03287-.76394-.00677-.19248-.01151-.38535-.0166-.57823-.00679-.2481-.01288-.49621-.0166-.74432-.00308-.1962-.00442-.39278-.00577-.589q-.00255-.36755-.001-.73483c.001-.19761.003-.39471.00578-.59233q.00509-.3687.01422-.73714.00711-.293.01694-.586c.00814-.24708.01865-.49416.02983-.74125q.01275-.29179.02814-.58322c.01323-.24888.02915-.49763.04543-.74637.01253-.19147.02473-.38267.039-.57413.019-.25426.04068-.508.06237-.76188.01592-.18466.03083-.36946.04845-.55375.02508-.26643.05357-.53222.082-.79789.01865-.17185.03561-.344.05527-.51543.03354-.29258.07152-.58463.10912-.87657.01865-.1443.03525-.28873.05492-.43316q.1769-1.30485.40772-2.6001c.02577-.14571.05457-.29053.08168-.43585.05289-.286.10576-.57208.16268-.85709.0339-.17121.07116-.34166.10675-.51248.05357-.258.10711-.51582.16372-.77277.04033-.18095.08269-.361.12437-.54157.05694-.24669.11387-.49352.17387-.73957.04472-.18467.09185-.36831.13863-.55273q.0905-.35852.1847-.71625.07521-.282.15354-.56285.09706-.35139.19793-.70164.08082-.27949.1647-.55849.10471-.35025.21421-.6992.08642-.277.17554-.55311.11236-.34717.22946-.6928c.06136-.18236.123-.3646.18641-.54632.08067-.23183.16371-.46263.24707-.69305.06476-.17865.12879-.3573.19522-.53492.08746-.23453.17794-.46763.2681-.70074.06644-.17121.13184-.34269.2-.51287.09656-.24195.19624-.48224.29588-.72253.06641-.15969.13116-.32039.19892-.4793.11185-.263.22776-.52389.34367-.78493.05931-.13418.11694-.26938.17759-.40292q.25777-.56939.52806-1.13172l.03694-.07728q.27195-.56382.55682-1.12109c.06408-.12572.13116-.24951.19623-.37459.13322-.25619.26676-.51275.40436-.76662.08131-.15045.16574-.29962.24875-.44943.1254-.22632.25048-.45276.37892-.67716.09083-.15827.184-.31487.27655-.47237.12473-.21287.2498-.42573.3779-.6368.09762-.16147.19762-.3214.29726-.48172q.1901-.307.38432-.61168.15456-.24107.31215-.47956.19675-.30007.39756-.59719.16062-.238.32468-.47314.20334-.29392.41077-.584.16776-.23433.33756-.467.211-.28835.42672-.57246.17233-.22875.347-.45622c.14711-.19019.29658-.37883.44671-.567.11694-.14686.23353-.29386.35213-.43892.1559-.19121.31453-.37959.47315-.56811.1176-.13917.23384-.27963.3528-.41752.16778-.19454.33858-.38561.50906-.57746.11422-.12841.22709-.258.343-.385.19114-.21055.38635-.41727.58159-.624.099-.1047.19624-.21158.29619-.31564q.89122-.92674,1.83529-1.80569c.1047-.09765.21215-.19223.31789-.28886.21215-.19377.42435-.38766.64057-.57746.12812-.11278.25925-.22273.38908-.33422.19726-.16967.39452-.33961.59514-.506.14168-.11764.286-.23247.42909-.34844.19316-.15648.3867-.31282.58294-.46636.14946-.11688.301-.23183.45212-.347.19486-.1484.38975-.29616.58733-.44161.15558-.11457.31282-.22735.4701-.34025.19793-.14161.39653-.28271.59716-.42125.16032-.11123.32163-.22068.48365-.32986q.30348-.20434.61076-.40394.24654-.16014.4955-.31757c.20774-.13123.41721-.25989.628-.38805.16708-.10175.33451-.20338.50329-.303.2152-.12688.4328-.25118.65073-.375.16843-.09586.33653-.19172.507-.28565.22436-.12342.45146-.24362.67887-.364.16777-.08881.33486-.17865.50431-.26541.23961-.12277.48262-.24169.72564-.36062.161-.07894.3206-.15968.4833-.23683.27149-.12893.547-.25323.82256-.37729.1376-.06241.27351-.12674.41249-.18774q1.248-.548,2.54968-1.02972c.1444-.05318.29148-.103.43723-.15481.29078-.10445.58226-.20889.8771-.30808.17593-.05934.35486-.11457.53213-.17185.26945-.08715.53888-.17455.8117-.25721.18948-.05767.38164-.1115.57278-.16711.26438-.07664.52906-.15327.79647-.22581.20031-.05447.403-.106.605-.15814.26265-.06793.52533-.13457.79071-.19839.20808-.0501.41752-.09765.62733-.14532q.397-.09.79813-.17493c.21287-.04473.42673-.0874.6409-.12982q.4047-.07918.81275-.15276.32487-.05805.6514-.11328c.27554-.04575.55279-.08881.83105-.13084.21927-.03281.43854-.06575.65954-.09586.28264-.039.56769-.07421.85306-.10881.2203-.02678.44024-.0542.66259-.07868.29385-.03178.59076-.05959.888-.087.2169-.02.4328-.04165.65141-.05933.31384-.02538.63073-.04575.94794-.06613.20608-.0132.4108-.02884.61854-.04.35454-.019.71343-.03153,1.07235-.04434.17351-.00616.345-.01525.51956-.02q.80323-.02153,1.6197-.022c16.52717,0,30.18773,11.63712,36.93294,19.56393V676.58382c-9.44371-6.57774-21.75468-10.794-36.93294-10.794-.71612,0-1.42382.01154-2.12706.02987-.219.00538-.43553.01422-.65311.02165q-.74022.025-1.47127.06229-.35231.01845-.70189.03935-.75036.04573-1.48956.10649c-.19015.01525-.38164.02845-.57073.04537q-1.00713.08842-1.99592.20171c-.10475.01217-.20707.027-.31148.0396q-.83268.09978-1.65222.217c-.21184.0305-.42162.06331-.63208.09561q-.66956.10266-1.33026.2162c-.21422.0369-.42807.07382-.64058.11251q-.72749.13321-1.44211.28053c-.145.02986-.29146.057-.43585.08752q-.92323.19628-1.82747.41509c-.14267.035-.283.07253-.425.10816q-.69242.17244-1.374.35793c-.19928.0546-.39722.11086-.59514.16711q-.6116.17378-1.214.35858c-.18812.05754-.37689.11457-.564.1739q-.72293.22877-1.4316.47379c-.0905.03114-.183.06036-.27319.09188q-.83832.29334-1.65664.609c-.15421.05895-.306.121-.45925.18133q-.59328.23337-1.17706.4775-.274.11438-.545.23183-.56122.242-1.112.49442c-.16063.07355-.32266.14583-.482.22042q-1.54951.72587-3.02182,1.52913c-.15116.0824-.30027.16711-.45043.2508q-.516.28777-1.02287.58438-.245.14322-.48736.28873-.51652.31006-1.02219.63039c-.13013.0824-.26233.163-.39179.24644q-.68886.44328-1.35975.90322c-.07083.0487-.13962.09919-.21046.14841q-.56328.392-1.11336.79507c-.14167.10406-.2813.20952-.42162.31449q-.44993.33717-.89035.68228c-.14168.11086-.283.22171-.42333.33385q-.47889.38329-.94589.77648c-.09727.08176-.1966.162-.29319.244q-.60395.51461-1.18824,1.04394c-.09287.08433-.1837.17083-.27588.25554q-.44688.41079-.88291.82929c-.1271.12239-.25249.24541-.3779.36882q-.39094.38427-.77206.77507c-.1186.12162-.23791.24259-.35485.365q-.45651.47731-.89916.964c-.05488.06036-.11149.11957-.166.18031q-.52008.57689-1.01982,1.16787c-.0949.11188-.18742.22542-.281.33794q-.361.43253-.71208.87093c-.1098.138-.2186.27591-.327.415q-.33553.42848-.66056.8635c-.09522.12712-.19182.25348-.28569.38163q-.912,1.24047-1.74648,2.52629c-.08506.13085-.16775.2631-.25146.39459q-.29233.45848-.57484.92142-.1347.22127-.267.44342-.28523.47826-.5589.96179c-.07081.1247-.14335.24875-.21315.37421q-.37014.66339-.72192,1.33638c-.038.07318-.07424.14738-.11185.22094q-.29334.56882-.57311,1.14389c-.07222.148-.14234.29719-.21318.44636q-.22726.47885-.44568.96115c-.06981.1552-.14.30975-.20845.46533q-.23586.53535-.45924,1.07469c-.04574.11021-.09355.21928-.13827.32949q-.28623.70164-.55311,1.40956c-.042.11188-.0817.22439-.123.33614q-.20184.5467-.39314,1.09649c-.05594.16135-.11019.32333-.16439.48493q-.1683.4998-.32638,1.00255c-.0495.1566-.09931.31282-.14743.47019q-.18709.61147-.36028,1.22745c-.02169.07626-.04507.15251-.06609.22914q-.20233.72894-.38366,1.46313c-.0339.13662-.06539.27348-.09829.4101q-.12962.53785-.24942,1.07777-.05546.25123-.10848.50261-.11082.52305-.21113,1.04791c-.02947.15353-.06033.3068-.08846.46033q-.2735,1.4869-.46974,2.98649c-.02035.15494-.03829.30987-.05729.46469q-.06507.53016-.121,1.06187-.02643.25567-.0512.51172-.05234.54921-.09422,1.09982c-.01051.14109-.023.28167-.03287.42264q-.05185.75336-.08609,1.50721c-.00336.08036-.00474.16071-.00778.24094q-.02542.63743-.03694,1.27576c-.00272.16339-.00371.32667-.00542.49046q-.00508.528-.00066,1.05674c.00134.16866.00268.33717.00541.50595q.01014.58168.03185,1.16312c.00441.1197.00679.239.01185.35832q.03254.75393.08371,1.50645c.00814.11867.019.23721.02781.35562q.0432.58092.09759,1.16082c.016.16839.03323.33654.05053.50454q.0544.52422.11793,1.04766c.01967.16338.039.32678.06.4898q.08238.63186.17829,1.2618c.01221.08.02236.15993.03489.23952q.11692.74584.25352,1.4876c.02576.13994.05388.27924.08067.41919q.10317.54132.21587,1.08149.0529.25124.10848.50159.11487.52363.24029,1.04561c.03592.15044.07084.3009.1081.45109q.36452,1.46981.80632,2.91985c.04507.1484.09285.29616.13929.44431q.16014.51037.32978,1.018.08232.24606.16673.49121.17949.521.37046,1.03869c.04914.13353.09659.26745.14642.4006q.26639.70914.55141,1.41162l.01356.03486c.02169.05253.04508.10405.06677.1566,4.41953,11.0617,17.60765,6.89709,27.32519,8.97946,1.38822.69408,3.47056,1.38816,4.16467,2.77645,2.77644,6.94105-.69411,18.74092,10.01468,20.83455a43.21234,43.21234,0,0,0,5.83429.93232c.08506.00949.1681.021.25352.03012.07321.00718.14843.01191.222.01872.34637.03254.69613.0606,1.04592.08841.25688.02064.51277.04307.77171.06126.36876.02589.74157.04613,1.114.0669.245.01346.4884.02973.73512.041.41448.01923.83342.03179,1.25232.04472.20943.00642.41653.0159.627.02089q.94764.02154,1.91015.02243c15.34636,0,27.658-4.21612,37.10175-10.794V697.159h-8.43238v70.15536ZM660.746,705.92752l54.13525-38.95689H703.41343a305.6913,305.6913,0,0,1-40.64342,35.584l-16.19028,11.63724V666.97063h-8.43237V776.59h8.43237V716.21594L653.832,710.987l59.7003,65.603H725Z"/></svg>