<svg id="Layer_1" data-name="Layer 1" xmlns="http://www.w3.org/2000/svg" xmlns:xlink="http://www.w3.org/1999/xlink" viewBox="0 0 1080 1080"><defs><style>.cls-1{fill:none;}.cls-2{clip-path:url(#clip-path);}.cls-3{fill:#fafafa;}.cls-4{fill:#feaead;}.cls-5{clip-path:url(#clip-path-2);}.cls-6{fill:url(#linear-gradient);}.cls-7{fill:#2f2f35;}.cls-8{fill:#fff;}</style><clipPath id="clip-path"><rect class="cls-1" x="-1385.30039" y="1299.06383" width="1080" height="1080"/></clipPath><clipPath id="clip-path-2"><rect class="cls-1" x="11.80599" y="-1227.27222" width="1080" height="1080"/></clipPath><linearGradient id="linear-gradient" y1="1080" x2="1080" gradientUnits="userSpaceOnUse"><stop offset="0.03073" stop-color="#fed0af"/><stop offset="0.38547" stop-color="#fea094"/><stop offset="1" stop-color="#fe93c7"/></linearGradient></defs><title>IGRIK_Bar&amp;amp;Yoga_logo_ALLLL</title><g class="cls-2"><path class="cls-3" d="M86.44487,1245.07924c-1.57069,77.3859-17.97495,154.946-49.52068,224.60352-27.80525,61.4046-69.13167,119.26029-126.00493,151.69368-32.06407,18.28851-67.77171,26.244-103.91618,25.89436a300.76867,300.76867,0,0,1-58.9786-6.80161c-39.575-8.368-82.27278-28.37641-122.83443-16.11622-42.56466,12.86594-55.76091,58.21758-60.98252,100.7392-9.58676,77.98088,8.4535,158.129-8.696,235.25194-7.41677,33.35379-29.13807,62.34827-33.68013,96.09454-6.06661,45.07313,28.75746,68.20064,66.65834,60.843,17.7462-3.44508,35.03854-10.99716,51.87771-17.79741,48.00868-19.4167,88.34473-48.08252,107.30156-100.729,6.39614-17.76332,10.83309-36.22622,16.16081-54.35648a465.73434,465.73434,0,0,1,16.08076-46.24634c25.91982-62.86553,70.2722-117.52424,138.3109-120.6936,85.26606-3.97187,169.72373,24.77359,255.13611,25.03717,75.47779.23277,183.41663-7.045,238.234-71.76525,46.56031-54.97159,43.30437-139.08161,44.20381-208.52391,1.08822-84.00842,60.17444-141.74166,121.1213-183.74215,78.7843-54.293,170.09671-100.59684,265.20681-102.57227,88.253-1.833,178.9784,20.30086,262.18642,57.94984v-54.23247c-7.888-3.26735-15.57191-6.71375-22.91081-9.74176-145.77764-60.18078-311.83018-73.7836-457.88286-7.23831-64.40226,29.33825-123.37971,73.32773-169.28931,130.44755-26.13105,32.51181-43.42673,70.62094-53.74923,112.0291-9.8806,39.63478-8.95906,83.76976-22.429,121.96575-23.31906,66.16067-79.15559,111.56731-143.67281,120.64166-79.81579,11.22588-160.66932-9.58512-241.17328-.48991-67.73369,7.65245-137.98015,30.89616-195.06222,73.92522-27.35542,20.62094-56.06337,50.57612-74.38656,80.89063-18.41027,30.45851-19.62565,71.42747-44.68418,97.5367-32.65453,33.99679-31.64568-57.73843-31.96457-68.87663-1.63642-57.158-21.08156-171.65265,42.36228-199.85822,29.99115-13.35827,64.11153-5.50778,95.204-2.25554,74.86446,7.8504,154.52224-.59461,217.77576-48.16933,57.26148-43.06361,94.60467-110.43062,121.29222-178.63683,46.03941-117.61333,74.31646-261.693,33.8129-385.10324H65.8001A593.95665,593.95665,0,0,1,86.44487,1245.07924Z"/><path class="cls-4" d="M123.73949,1461.77983C97.05194,1529.986,59.70875,1597.35305,2.44727,1640.41666c-63.25352,47.57472-142.9113,56.01973-217.77576,48.16933-31.09251-3.25224-65.21289-11.10273-95.204,2.25554-63.44384,28.20557-43.9987,142.70025-42.36228,199.85822.31889,11.1382-.69,102.87342,31.96457,68.87663,25.05853-26.10923,26.27391-67.07819,44.68418-97.5367,18.32319-30.31451,47.03114-60.26969,74.38656-80.89063C-144.77743,1738.12-74.531,1714.87628-6.79728,1707.22383c80.504-9.09521,161.35749,11.71579,241.17328.48991,64.51722-9.07435,120.35375-54.481,143.67281-120.64166,13.46991-38.196,12.54837-82.331,22.429-121.96575,10.3225-41.40816,27.61818-79.51729,53.74923-112.0291,45.9096-57.11982,104.887-101.1093,169.28931-130.44755,146.05268-66.54529,312.10522-52.94247,457.88286,7.23831,7.3389,3.028,15.0228,6.47441,22.91081,9.74176v-71.28794c-219.51095-76.095-530.79294-71.22167-712.45608,106.24186-65.24867,63.74028-66.77934,133.22216-66.116,221.93462.37955,50.75034-11.03226,100.16809-53.39067,127.61087-32.91947,21.32756-84.31357,31.62376-112.68793-3.61473-33.96009-42.17835,3.73522-93.96625,25.51034-129.844,20.196-33.27607,33.07269-71.37534,41.09752-110.04153,12.62642-60.8376,16.26542-125.77527,17.24255-188.01711.61876-39.41757-3.3276-78.33318-12.57068-115.91521H157.55239C198.056,1200.08679,169.7789,1344.1665,123.73949,1461.77983Z"/><path class="cls-3" d="M243.50968,1192.5918c-.97713,62.24184-4.61613,127.17951-17.24255,188.01711-8.02483,38.66619-20.9015,76.76546-41.09752,110.04153-21.77512,35.87774-59.47043,87.66564-25.51034,129.844,28.37436,35.23849,79.76846,24.94229,112.68793,3.61473,42.35841-27.44278,53.77022-76.86053,53.39067-127.61087-.6633-88.71246.86737-158.19434,66.116-221.93462C573.51705,1097.10014,884.799,1092.22677,1104.31,1168.32181v-91.64522H569.36906c-15.1186,8.26911-30.26171,16.48637-45.0505,25.56616-33.70016,20.69063-62.24143,49.60848-91.91076,76.18709-25.0881,22.47466-54.06214,58.4995-88.99917,63.57775-49.84377,7.245-43.6888-48.63619-41.02231-85.62192,2.0632-28.62022,2.49428-53.73407.24267-79.70908h-71.69C240.18208,1114.25862,244.12844,1153.17423,243.50968,1192.5918Z"/><path class="cls-4" d="M302.38632,1156.38567c-2.66649,36.98573-8.82146,92.86694,41.02231,85.62192,34.937-5.07825,63.91107-41.10309,88.99917-63.57775,29.66933-26.57861,58.2106-55.49646,91.91076-76.18709,14.78879-9.07979,29.9319-17.297,45.0505-25.56616H302.629C304.8806,1102.6516,304.44952,1127.76545,302.38632,1156.38567Z"/></g><g class="cls-5"><path class="cls-3" d="M1640.76193,108.40138c-13.8783-35.72038-28.89014-71.03847-46.97855-104.52115-34.54179-63.93983-81.30958-120.81619-144.6118-151.93832-56.67869-27.86578-123.91991-32.97744-179.96046-.28092-53.19943,31.036-94.62316,89.66083-155.59353,104.10248-71.47433,16.92306-138.50127-45.9311-204.71187-64.034-68.536-18.73857-139.70785-10.32026-209.51245-6.28733-70.50789,4.07347-144.82188,4.89514-209.20885-30.98265C425.53848-181.54032,381.03754-245.76,329.42738-298.94758c-52.08771-53.651-118.90086-101.90628-194.20937-89.44007C78.16191-378.94287,28.92837-342.05843-8.84129-296.944v172.41932c71.15905-84.37222,165.92246-164.56185,276.94084-115.57815C393.674-184.69663,439.87109-15.34739,595.25076-20.09757c67.2529-2.063,131.81828-27.69485,199.10405-29.42579,30.995-.78667,61.3747,4.49322,89.95732,17.67646,28.54962,13.16566,54.4761,31.80419,81.98953,47.155,28.97116,16.173,60.30611,28.01,93.342,22.92212,35.38341-5.45529,66.68641-26.27889,95.98089-47.17249,53.32682-38.0284,107.43054-83.68,171.57447-97.37043,62.881-13.42778,121.95644,13.81285,165.32379,62.89136,23.627,26.75063,41.7804,58.51985,57.11593,91.40747,13.652,29.277,28.11886,60.55385,37.21083,91.87543q1.18337,4.077,2.05408,7.91566h68.33665C1651.78375,133.75909,1645.36634,120.25253,1640.76193,108.40138Z"/><path class="cls-4" d="M1588.90572,147.77723H1007.36578a248.24673,248.24673,0,0,0-17.84113-24.06652,257.98177,257.98177,0,0,0-99.98119-72.52358c-44.97012-18.3614-94.16666-23.48241-141.84325-18.60338a387.37042,387.37042,0,0,0-71.78885,14.65082c-24.62786,7.36181-48.88617,16.24365-73.89286,22.13591C495.37819,94.50044,452.576,11.75322,395.30563-66.63985c-24.13042-32.97566-52.84321-63.94315-89.4382-80.09547C242.2073-174.83656,155.2109-148.2324,95.60369-119.04038c-36.15228,17.70416-72.1083,46.28924-104.445,79.72131v-85.20737c71.159-84.372,165.92347-164.5587,276.94075-115.57682C393.67619-184.695,439.86955-15.34853,595.25-20.09972c67.252-2.063,131.82043-27.69494,199.10451-29.42474,30.99479-.785,61.37347,4.49569,89.95841,17.67674,28.54853,13.16749,54.47721,31.80277,81.98963,47.15637,28.96837,16.17058,60.30547,28.00987,93.34055,22.92094,35.38551-5.45411,66.68605-26.28016,95.983-47.17007,53.327-38.028,107.42994-83.68282,171.57387-97.37057,62.87967-13.42755,121.95745,13.811,165.321,62.88885,23.62837,26.75013,41.78438,58.52091,57.11972,91.4098,13.65133,29.27421,28.11493,60.552,37.20658,91.87543Q1588.0317,143.93649,1588.90572,147.77723Z"/><path class="cls-3" d="M889.54268,51.1859C844.5721,32.82742,795.37484,27.70472,747.7,32.58283a387.3429,387.3429,0,0,0-71.78776,14.6516c-24.63083,7.36131-48.88927,16.243-73.89258,22.13536C495.37742,94.50176,452.57378,11.7513,395.30416-66.64044c-24.12878-32.97552-52.84056-63.94023-89.439-80.09566-63.658-28.10023-150.6559-1.49808-210.26087,27.69494C59.45136-101.3343,23.495-72.75283-8.84129-39.31976v187.097h69.432c6.586-13.66178,11.02031-28.87476,14.23307-43.37282,11.7596-53.06685,24.28492-111.1297,64.8-149.42784C185.84315-88.71382,257.51845-80.25695,301.266-35.81621,335.66191-.87484,353.15643,48.7357,385.79466,85.96593a355.68609,355.68609,0,0,0,70.42406,61.8113h551.14861a248.73844,248.73844,0,0,0-17.84346-24.06652A258.0168,258.0168,0,0,0,889.54268,51.1859Z"/><path class="cls-4" d="M385.79466,85.96593C353.15643,48.7357,335.66191-.87484,301.266-35.81621c-43.74758-44.44074-115.42288-52.89761-161.64224-9.20722-40.5151,38.29814-53.04042,96.361-64.8,149.42784-3.21276,14.49806-7.64706,29.711-14.23307,43.37282h395.628A355.68609,355.68609,0,0,1,385.79466,85.96593Z"/><path class="cls-3" d="M2501.41637-414.45207v196.75861c-12.83431-11.59748-23.90226-22.64248-30.55677-27.42575-37.275-26.805-91.91633-45.96506-130.90757-14.52746C2262.175-196.945,2195.1375-117.25116,2120.61936-49.82108c-32.615,29.516-65.23014,60.84856-102.49153,83.47287-60.7209,36.86884-134.10249,45.96962-202.1259,32.90263-77.74045-14.93827-114.48149-56.0609-166.71306-115.3897-52.11751-59.19643-94.76446-141.13124-164.13438-177.62583-64.10286-33.72421-143.97469-37.42566-209.03135-4.58236-32.45083,16.38062-57.03315,41.06782-81.39173,68.81757-21.2779,24.23536-45.54976,51.474-77.90922,55.79162A63.85672,63.85672,0,0,1,1068.292-120.227c-14.22171-11.45134-22.962-28.44807-34.86516-42.29561-27.95066-32.55571-71.05863-31.31428-108.53441-24.249-43.286,8.16523-85.72762,21.09986-128.968,29.70324-79.33332,15.78715-163.363,22.06735-239.862-10.6481-52.866-22.606-98.06436-63.58716-128.86294-115.16611-15.97893-26.75473-17.40293-60.39214,12.0721-76.82292,31.77065-17.6859,74.22139,12.42806,99.78038,30.794,35.71412,25.66852,71.07224,48.14213,112.37739,62.70619,54.249,19.12821,109.89,19.863,165.0472,4.58236,54.31285-15.057,105.01553-41.87566,155.29823-68.05085,91.20455-47.485,198.79867-99.607,301.33589-63.71025,23.30437,8.16514,44.13033,21.506,65.08418,34.93366,22.072,14.16233,45.50413,29.128,71.62446,31.76612,28.03273,2.83427,53.58715-10.648,79.70748-19.23309a214.04223,214.04223,0,0,1,66.89613-10.97671c42.91628.05025,86.41224,15.43584,114.45862,51.98054,16.3897,21.34632,26.76843,46.85519,37.58545,71.75229,29.56618,68.05085,78.11461,138.02771,146.412,166.10151,49.37435,20.30114,103.2673,14.68729,151.42778-6.88723C2109.73863-120.26352,2170.788-225.97279,2238.8845-315.703c30.58867-40.301,65.39-79.83541,109.77589-102.14466,42.008-21.10443,90.12277-23.35909,133.60057-5.80555A166.76539,166.76539,0,0,1,2501.41637-414.45207Z"/><path class="cls-4" d="M2501.41637-379.23078v80.17759a143.73651,143.73651,0,0,0-30.28735-19.04145c-47.93689-22.08109-95.76862-5.235-137.06021,22.61519-58.08266,39.17818-104.16186,93.30851-149.97183,146.3251-83.651,96.81384-209.61564,224.16611-353.1886,177.845C1776.68221,11.1964,1733.57871-30.7067,1699.923-76.68088c-51.2868-70.059-78.64409-152.5735-165.257-185.508-69.1325-26.28929-148.3471-23.36361-220.03554-10.34692-62.19962,11.29616-113.63252,51.12268-173.75547,68.384-70.09553,20.12319-126.95054-26.344-194.74575-14.98843-44.54114,7.45766-85.075,18.57586-128.49781,30.77115-49.48407,13.90227-101.21363,20.62976-152.5735,15.518-85.07948-8.46642-169.83495-42.5831-206.15144-119.99027-3.06256-6.52672-5.5956-14.80149-1.11825-20.4518a10.77687,10.77687,0,0,1,2.00364-1.95344c6.33041-4.7102,16.68185-1.0999,24.13494,3.12189,83.08957,47.06957,154.6776,99.68,254.1294,99.77586,126.22945.11866,231.09888-82.50537,349.22709-116.9095,65.58162-19.10083,124.60006-14.08949,190.15426,1.13185,58.96362,13.68775,124.59093,35.96975,185.06075,18.08294,78.75363-23.2951,148.40639-25.14357,194.74118,55.01115,42.52386,73.55968,57.631,174.59531,148.18745,205.403,99.67088,33.90674,216.91821,14.29939,298.33267-53.06685,80.917-66.95085,122.48222-170.22285,194.23452-246.90894,32.86155-35.12535,72.78857-47.97326,120.967-44.03448C2439.308-391.97832,2471.6904-388.05324,2501.41637-379.23078Z"/></g><rect class="cls-6" width="1080" height="1080"/><path class="cls-7" d="M612.50819,449.42768H600.93444c11.23671,47.88873-9.07351,109.02206-60.93507,109.02206-51.86046,0-72.17068-61.13333-60.934-109.02206H467.49165c-12.73354,48.826,10.91069,110.50017,70.93158,111.56634-.0033,14.27554-1.42854,25.64552-3.76356,34.70361a75.68153,75.68153,0,0,0-15.44193-11.25433,51.983,51.983,0,0,0-12.14649-4.778,36.87466,36.87466,0,0,0-9.79494-1.11794,31.91926,31.91926,0,0,0-5.10289.59366,41.00316,41.00316,0,0,0-11.90307,3.60165,29.69289,29.69289,0,0,0-12.96264,12.37889,23.148,23.148,0,0,0-2.58614,15.80651c1.74135,8.80476,7.21212,15.53776,16.44313,19.906a34.98029,34.98029,0,0,0,20.97879,2.96172c1.35475-.22028,2.66765-.50445,3.9486-.84149a33.92372,33.92372,0,0,0,14.35924-6.64157q.983-.65424,1.94511-1.34153c2.11253-1.51115,9.2916-9.95906,11.50656-17.12381.1553-.36457.3117-.728.4637-1.10142,1.33161,1.44837,2.27443,2.50022,2.27443,2.50022s1.78651,2.35815,1.85259,2.29427c1.8548,1.95392,2.74144,2.98375,4.65682,4.87269a75.006,75.006,0,0,0,17.00375,12.99568,87.50052,87.50052,0,0,0,8.10977,3.71179,33.36258,33.36258,0,0,0,5.16677,1.61689,37.27662,37.27662,0,0,0,9.31253.94061c11.39751-.24672,20.351-4.34291,27.02669-12.09582a25.41672,25.41672,0,0,0,5.10069-9.48214,19.29549,19.29549,0,0,0,.45378-3.37586c.12667-1.12565.22359-2.25241.33263-3.37916a18.52924,18.52924,0,0,0-1.62349-8.62634,27.17659,27.17659,0,0,0-10.6089-12.76438,35.58482,35.58482,0,0,0-20.47213-5.90032,38.94627,38.94627,0,0,0-17.06544,4.29335,59.74913,59.74913,0,0,0-10.20357,6.41137,5.88376,5.88376,0,0,1,1.17852,1.86031c.977-.64984,1.966-1.28757,2.98706-1.89775a46.80324,46.80324,0,0,1,15.28553-6.24617,31.64014,31.64014,0,0,1,13.66975.09582,31.10087,31.10087,0,0,1,11.34795,5.20312,29.36988,29.36988,0,0,1,6.6548,7.46654,8.11626,8.11626,0,0,1,.75777,1.79973,23.28773,23.28773,0,0,1,1.20276,3.45075,31.08252,31.08252,0,0,1,.30068,3.93979,18.809,18.809,0,0,1-2.74364,10.15291c-3.97723,6.50059-10.19476,10.5351-18.75281,12.03524a29.35988,29.35988,0,0,1-13.3988-.90868,46.30972,46.30972,0,0,1-13.49572-6.63827,80.25417,80.25417,0,0,1-16.97292-15.768c-.53529-.663-3.86269-4.47287-5.1943-5.84414-.41084-.423-.83268-.83708-1.25012-1.25342,2.67205-9.61762,4.31207-21.79824,4.31537-37.21265C601.5964,559.929,625.24283,498.25372,612.50819,449.42768ZM512.59378,627.46485a37.71966,37.71966,0,0,1-10.70362,2.8659c-.65314.06939-1.303.11454-1.95061.14759-.25113.00661-.49675.011-.73465.011v.01432a29.74442,29.74442,0,0,1-14.02221-2.85268c-8.27278-4.007-13.08159-9.99431-14.03542-18.08976a18.06469,18.06469,0,0,1,2.57292-11.85791c4.89913-7.96218,12.81615-12.043,23.435-12.44276a33.74813,33.74813,0,0,1,3.43093.15089,39.13362,39.13362,0,0,1,12.597,4.05984A64.84564,64.84564,0,0,1,527.528,599.67376c1.25892,1.173,2.90224,2.8648,4.44644,4.50152C526.87923,617.443,519.5019,624.15948,512.59378,627.46485Zm229.54628-192.6938a224.92057,224.92057,0,0,0-52.83852-66.64594C643.93947,329.116,593.73665,312.49558,544.8269,311.751c-42.907.20927-79.85861,9.0592-115.11182,28.94317a230.50707,230.50707,0,0,0-86.52882,84.35792c-40.14464,67.135-41.96639,151.12832-4.73392,221.3638a220.94491,220.94491,0,0,0,44.9953,59.02081c41.093,38.13564,87.01014,57.56032,136.86491,61.89772,44.28267,3.85387,87.10046-4.35833,128.15817-26.80421,37.16418-20.31793,69.28936-49.879,92.94791-93.7905A225.41983,225.41983,0,0,0,742.14006,434.77105Zm18.93675,152.504c-9.06911,27.67653-18.85635,61.31066-50.17749,70.65292-15.66,5.60624-35.23559-3.736-50.89561,7.47425-41.10948,28.029-60.68395,80.34874-113.61389,89.78022a106.59254,106.59254,0,0,1-20.3653.13988,238.93526,238.93526,0,0,1-42.65367-7.21542c-32.981-8.60541-64.92663-24.87341-94.60224-50.81631a220.11109,220.11109,0,0,1-54.625-72C315.7223,586.384,311.82767,551.3731,315.23106,518.43948a197.08707,197.08707,0,0,1,35.78631-95.28513c9.01954-12.76548,19.70664-24.1663,29.63816-36.18612,30.21972-27.06524,65.43879-48.022,109.999-57.7046,33.20237-7.21542,69.17481-8.26507,110.50347,3.62808,43.3729,12.48132,82.68486,36.29847,115.88833,75.88688,21.52289,25.662,34.65514,52.21732,42.12939,79.14709,8.54043,30.77374,9.24975,58.49653,5.01257,84.17839Q762.91784,579.808,761.07681,587.27506Z"/><path class="cls-8" d="M80.75754,888.12222h34.43318c25.37182,0,27.78818,23.25726,7.4,27.78723,50.59273,7.55185,47.11908,70.3773-10.42045,70.3773H80.75754Zm7.5509,1.51v29.90273a61.73931,61.73931,0,0,1,23.86183-4.37954h3.02045c17.06545,0,17.06545-25.52319,0-25.52319Zm0,95.14455h23.86183c50.29044,0,50.29044-68.11137,0-68.11137-9.96726,0-17.82092,2.56679-23.86183,6.79591Z"/><path class="cls-8" d="M230.56922,929.35083l17.97135,56.93592h-7.09771l-6.79638-21.14366c-3.32226,11.93139-14.49818,21.8996-33.225,21.8996-47.4209,0-47.4209-59.9578,0-59.9578,9.96774,0,17.82092,2.86955,23.55954,7.40142L222.112,925.5749c-3.77593-11.92949-11.93091-15.1018-20.84137-15.1018-7.09819,0-14.64909,5.58868-17.97183,8.60866v-7.70228a83.51761,83.51761,0,0,1,17.97183-2.41636C212.5974,909.11354,225.8874,914.70222,230.56922,929.35083Zm-29.14774-.90638c-37.30225,0-37.30225,57.23868,0,57.23868C240.23468,985.68313,240.23468,928.44445,201.42148,928.44445Z"/><path class="cls-8" d="M265.30088,986.28675H258.505V909.86949h4.53092l1.35909,9.66545c8.91046-11.62863,28.99636-12.83776,40.32318-7.24909v8.3059c-13.4409-15.1018-39.41728-13.74224-39.41728,12.98819Z"/><path class="cls-8" d="M431.11977,904.88634c-5.7391-8.761-15.25365-16.46327-28.54365-16.46327-17.97182,0-28.99636,17.67049-16.61226,30.35593L435.197,969.3722a37.12983,37.12983,0,0,0,6.94728-20.99132c0-13.291-7.70227-22.806-16.61273-28.39275H434.442c5.58772,6.94633,9.06136,16.31093,9.06136,28.39275a38.76923,38.76923,0,0,1-7.24909,21.8977l15.55546,16.00817h-9.51455l-10.57183-10.72226A40.92327,40.92327,0,0,1,402.727,987.19312c-58.89862,0-54.67-59.9559-20.0859-62.07141-12.98772-15.555-.9059-38.05629,19.935-38.05629,12.08182,0,21.44547,3.47316,28.39227,9.05993Zm-47.11908,21.74727-.15138-.15234c-25.52272,1.05681-30.50635,59.35229,18.87772,59.35229a39.14379,39.14379,0,0,0,28.09046-11.32587Z"/><path class="cls-8" d="M504.51134,888.12222h10.11817l42.58864,46.96771,9.96726-11.025c9.66546-10.72225,17.21635-21.8977,25.825-35.94269h8.91046l-44.09911,48.62812v49.53641h-7.5509v-47.4209Z"/><path class="cls-8" d="M637.71219,909.11354c56.48273,0,56.48273,77.92915,0,77.92915S581.22945,909.11354,637.71219,909.11354Zm0,1.20914c-46.3641,0-46.3641,75.36045,0,75.36045S684.07628,910.32268,637.71219,910.32268Z"/><path class="cls-8" d="M710.8048,966.95584c-8.45727,3.02-15.85774,16.31093-1.35956,16.31093,12.68543,0,32.62091-8.15547,42.89093-8.15547,23.10588,0,20.23633,35.18865-14.64956,35.18865-12.08182,0-21.59589-3.47316-28.39275-9.06183l-.15043-8.75908c5.73815,8.75908,15.25318,16.61178,28.54318,16.61178,29.75136,0,34.73546-27.334,16.15955-27.334-11.32682,0-30.65773,8.15356-43.34412,8.15356-16.15859,0-14.045-17.065-1.20818-23.55812-30.95954-13.5918-24.01225-57.23868,21.14366-57.23868a54.91826,54.91826,0,0,1,16.46136,2.26594c6.19228-6.19229,14.8-10.4214,22.20045-11.025l4.22816,7.24909c-9.21226-2.86955-19.02814-1.0568-25.06905,4.22912,34.73451,11.779,28.845,58.59633-17.82092,58.59633A51.25515,51.25515,0,0,1,710.8048,966.95584Zm19.63272-56.63316c-43.34316,0-43.34316,58.74676,0,58.74676S773.78068,910.32268,730.43752,910.32268Z"/><path class="cls-8" d="M843.2478,929.35083l17.97135,56.93592h-7.09771l-6.79591-21.14366c-3.32274,11.93139-14.49818,21.8996-33.22547,21.8996-47.4209,0-47.4209-59.9578,0-59.9578,9.96726,0,17.82092,2.86955,23.56,7.40142l-2.86955-8.91141c-3.77593-11.92949-11.93139-15.1018-20.84185-15.1018-7.09771,0-14.64861,5.58868-17.97135,8.60866v-7.70228a83.51291,83.51291,0,0,1,17.97135-2.41636C825.2755,909.11354,838.5655,914.70222,843.2478,929.35083Zm-29.14774-.90638c-37.30226,0-37.30226,57.23868,0,57.23868C852.91325,985.68313,852.91325,928.44445,814.10006,928.44445Z"/><path class="cls-8" d="M913.959,930.2308V895.79762c0-25.37181,23.25726-27.78818,27.78723-7.4,7.55185-50.59273,70.3773-47.11909,70.3773,10.42045V930.2308Zm1.51-7.5509h29.90274a61.73926,61.73926,0,0,1-4.37954-23.86182v-3.02046c0-17.06545-25.5232-17.06545-25.5232,0Zm95.14455,0V898.81808c0-50.29045-68.11136-50.29045-68.11136,0,0,9.96726,2.56679,17.82092,6.7959,23.86182Z"/><path class="cls-8" d="M955.18757,780.41912l56.93592-17.97134v7.09771l-21.14365,6.79638c11.93138,3.32226,21.8996,14.49818,21.8996,33.225,0,47.4209-59.95781,47.4209-59.95781,0,0-9.96773,2.86955-17.82091,7.40143-23.55954l-8.91142,2.86907c-11.92948,3.77593-15.10179,11.93092-15.10179,20.84138,0,7.09818,5.58867,14.64908,8.60865,17.97182h-7.70228a83.5176,83.5176,0,0,1-2.41636-17.97182C934.95029,798.39094,940.539,785.101,955.18757,780.41912Zm-.90637,29.14774c0,37.30226,57.23868,37.30226,57.23868,0C1011.51988,770.75367,954.2812,770.75367,954.2812,809.56686Z"/><path class="cls-8" d="M1012.12349,745.68747v6.7959H935.70623v-4.53092l9.66546-1.35908c-11.62863-8.91046-12.83777-28.99637-7.24909-40.32319h8.30589c-15.1018,13.4409-13.74223,39.41729,12.98819,39.41729Z"/><path class="cls-8" d="M930.72308,579.86857c-8.761,5.7391-16.46326,15.25365-16.46326,28.54365,0,17.97182,17.67049,28.99636,30.35592,16.61226L995.209,575.79131a37.13,37.13,0,0,0-20.99133-6.94728c-13.291,0-22.806,7.70228-28.39274,16.61274v-8.91046c6.94633-5.58772,16.31093-9.06137,28.39274-9.06137a38.76921,38.76921,0,0,1,21.8977,7.2491l16.00817-15.55546v9.51455L1001.40124,579.265a40.9233,40.9233,0,0,1,11.62863,28.99637c0,58.89862-59.9559,54.67-62.07141,20.0859-15.555,12.98771-38.0563.9059-38.0563-19.935,0-12.08182,3.47317-21.44546,9.05994-28.39227Zm21.74727,47.11909-.15233.15138c1.0568,25.52272,59.35228,30.50635,59.35228-18.87772a39.14377,39.14377,0,0,0-11.32587-28.09047Z"/><path class="cls-8" d="M913.959,506.477V496.35884l46.96771-42.58865-11.025-9.96726c-10.72226-9.66545-21.8977-17.21635-35.9427-25.825v-8.91046l48.62813,44.09911h49.5364v7.5509H964.7026Z"/><path class="cls-8" d="M934.95029,373.27616c0-56.48274,77.92915-56.48274,77.92915,0S934.95029,429.75889,934.95029,373.27616Zm1.20913,0c0,46.36409,75.36046,46.36409,75.36046,0S936.15942,326.91206,936.15942,373.27616Z"/><path class="cls-8" d="M992.79258,300.18354c3.02,8.45727,16.31093,15.85774,16.31093,1.35956,0-12.68543-8.15546-32.62091-8.15546-42.89093,0-23.10588,35.18865-20.23633,35.18865,14.64956,0,12.08182-3.47317,21.5959-9.06184,28.39275l-8.75908.15043c8.75908-5.73815,16.61178-15.25318,16.61178-28.54318,0-29.75135-27.334-34.73546-27.334-16.15955,0,11.32683,8.15356,30.65774,8.15356,43.34412,0,16.1586-17.065,14.045-23.55811,1.20818-13.59181,30.95954-57.23868,24.01226-57.23868-21.14365a54.91823,54.91823,0,0,1,2.26593-16.46136c-6.19228-6.19229-10.4214-14.8-11.025-22.20046l7.24909-4.22816c-2.86955,9.21227-1.0568,19.02815,4.22911,25.06906,11.77906-34.73451,58.59634-28.845,58.59634,17.82092A51.25509,51.25509,0,0,1,992.79258,300.18354Zm-56.63316-19.63271c0,43.34316,58.74677,43.34316,58.74677,0S936.15942,237.20766,936.15942,280.55083Z"/><path class="cls-8" d="M955.18757,167.74054l56.93592-17.97134v7.09771l-21.14365,6.7959c11.93138,3.32274,21.8996,14.49818,21.8996,33.22548,0,47.42089-59.95781,47.42089-59.95781,0,0-9.96727,2.86955-17.82092,7.40143-23.56l-8.91142,2.86955c-11.92948,3.77592-15.10179,11.93139-15.10179,20.84185,0,7.09771,5.58867,14.6486,8.60865,17.97134h-7.70228a83.51272,83.51272,0,0,1-2.41636-17.97134C934.95029,185.71284,940.539,172.42284,955.18757,167.74054Zm-.90637,29.14775c0,37.30225,57.23868,37.30225,57.23868,0C1011.51988,158.07509,954.2812,158.07509,954.2812,196.88829Z"/><path class="cls-8" d="M1000.17019,132.531H965.737c-25.37181,0-27.78818-23.25726-7.4-27.78723-50.59273-7.55185-47.11909-70.3773,10.42045-70.3773h31.41272Zm-7.5509-1.51V101.11826a61.73907,61.73907,0,0,1-23.86182,4.37954H965.737c-17.06545,0-17.06545,25.5232,0,25.5232Zm0-95.14455H968.75747c-50.29045,0-50.29045,68.11136,0,68.11136,9.96726,0,17.82092-2.56679,23.86182-6.7959Z"/><path class="cls-8" d="M850.35851,91.30238,832.38717,34.36646h7.09771l6.79638,21.14366c3.32226-11.93139,14.49818-21.89961,33.225-21.89961,47.4209,0,47.4209,59.95781,0,59.95781-9.96773,0-17.82091-2.86955-23.55954-7.40143l2.86907,8.91142c3.77593,11.92948,11.93092,15.10179,20.84138,15.10179,7.09818,0,14.64908-5.58867,17.97182-8.60865v7.70228a83.51751,83.51751,0,0,1-17.97182,2.41636C868.33034,111.53966,855.04034,105.951,850.35851,91.30238Zm29.14774.90638c37.30226,0,37.30226-57.23869,0-57.23869C840.69306,34.97007,840.69306,92.20876,879.50625,92.20876Z"/><path class="cls-8" d="M815.62686,34.36646h6.7959v76.41726h-4.53092l-1.35908-9.66546c-8.91046,11.62863-28.99637,12.83777-40.32319,7.24909v-8.30589c13.4409,15.1018,39.41729,13.74224,39.41729-12.98819Z"/><path class="cls-8" d="M649.808,115.76687c5.7391,8.761,15.25365,16.46326,28.54365,16.46326,17.97182,0,28.99636-17.67049,16.61226-30.35592L645.7307,51.281a37.13,37.13,0,0,0-6.94728,20.99133c0,13.291,7.70228,22.806,16.61274,28.39275H646.4857c-5.58772-6.94634-9.06137-16.31093-9.06137-28.39275a38.76924,38.76924,0,0,1,7.2491-21.8977L629.118,34.36646h9.51455l10.57182,10.72226a40.92325,40.92325,0,0,1,28.99637-11.62863c58.89862,0,54.67,59.9559,20.0859,62.0714,12.98772,15.555.9059,38.0563-19.935,38.0563-12.08182,0-21.44546-3.47317-28.39227-9.05993ZM696.92705,94.0196l.15138.15233c25.52272-1.0568,30.50635-59.35228-18.87772-59.35228a39.14377,39.14377,0,0,0-28.09047,11.32587Z"/><path class="cls-8" d="M576.41639,132.531H566.29823L523.70958,85.56328l-9.96726,11.025c-9.66545,10.72225-17.21635,21.89769-25.825,35.94269h-8.91046L523.106,83.90286V34.36646h7.5509v47.4209Z"/><path class="cls-8" d="M443.21555,111.53966c-56.48274,0-56.48274-77.92915,0-77.92915S499.69828,111.53966,443.21555,111.53966Zm0-1.20913c46.36409,0,46.36409-75.36046,0-75.36046S396.85145,110.33053,443.21555,110.33053Z"/><path class="cls-8" d="M370.12293,53.69737c8.45727-3.02,15.85774-16.31093,1.35956-16.31093-12.68543,0-32.6209,8.15546-42.89093,8.15546-23.10588,0-20.23633-35.18865,14.64957-35.18865,12.08181,0,21.59589,3.47317,28.39274,9.06184l.15043,8.75908c-5.73815-8.75908-15.25318-16.61178-28.54317-16.61178-29.75136,0-34.73547,27.334-16.15955,27.334,11.32682,0,30.65773-8.15356,43.34411-8.15356,16.1586,0,14.045,17.065,1.20818,23.55811,30.95954,13.59181,24.01226,57.23868-21.14365,57.23868a54.91828,54.91828,0,0,1-16.46136-2.26593c-6.19229,6.19229-14.8,10.4214-22.20046,11.025l-4.22816-7.24909c9.21227,2.86955,19.02815,1.0568,25.06906-4.22911-34.73451-11.77906-28.845-58.59634,17.82092-58.59634A51.25509,51.25509,0,0,1,370.12293,53.69737Zm-19.63271,56.63316c43.34316,0,43.34316-58.74677,0-58.74677S307.14705,110.33053,350.49022,110.33053Z"/><path class="cls-8" d="M237.67993,91.30238,219.70859,34.36646h7.09771l6.7959,21.14366c3.32274-11.93139,14.49818-21.89961,33.22548-21.89961,47.42089,0,47.42089,59.95781,0,59.95781-9.96727,0-17.82092-2.86955-23.56-7.40143l2.86955,8.91142c3.77592,11.92948,11.93139,15.10179,20.84185,15.10179,7.09771,0,14.6486-5.58867,17.97134-8.60865v7.70228a83.51272,83.51272,0,0,1-17.97134,2.41636C255.65223,111.53966,242.36223,105.951,237.67993,91.30238Zm29.14775.90638c37.30225,0,37.30225-57.23869,0-57.23869C228.01448,34.97007,228.01448,92.20876,266.82768,92.20876Z"/><path class="cls-8" d="M166.96877,149.7692v34.43318c0,25.37181-23.25726,27.78818-27.78723,7.4-7.55185,50.59273-70.3773,47.11909-70.3773-10.42045V149.7692Zm-1.51,7.5509H135.55605a61.73926,61.73926,0,0,1,4.37954,23.86182v3.02046c0,17.06545,25.52319,17.06545,25.52319,0Zm-95.14455,0v23.86182c0,50.29045,68.11137,50.29045,68.11137,0,0-9.96726-2.56679-17.82092-6.79591-23.86182Z"/><path class="cls-8" d="M125.74016,299.58088,68.80424,317.55222v-7.09771l21.14366-6.79638c-11.93139-3.32226-21.8996-14.49818-21.8996-33.225,0-47.4209,59.9578-47.4209,59.9578,0,0,9.96773-2.86955,17.82091-7.40142,23.55954l8.91141-2.86907c11.92949-3.77593,15.1018-11.93092,15.1018-20.84138,0-7.09818-5.58868-14.64908-8.60866-17.97182h7.70228a83.5176,83.5176,0,0,1,2.41636,17.97182C145.97745,281.60906,140.38877,294.89905,125.74016,299.58088Zm.90638-29.14774c0-37.30226-57.23868-37.30226-57.23868,0C69.40786,309.24633,126.64654,309.24633,126.64654,270.43314Z"/><path class="cls-8" d="M68.80424,334.31253v-6.7959H145.2215v4.53092l-9.66545,1.35908c11.62863,8.91046,12.83776,28.99637,7.24909,40.32319h-8.3059c15.1018-13.4409,13.74224-39.41729-12.98819-39.41729Z"/><path class="cls-8" d="M150.20465,500.13143c8.761-5.7391,16.46327-15.25365,16.46327-28.54365,0-17.97182-17.67049-28.99636-30.35593-16.61226l-50.5932,49.23317a37.1299,37.1299,0,0,0,20.99132,6.94728c13.29095,0,22.806-7.70228,28.39275-16.61274v8.91046c-6.94633,5.58772-16.31093,9.06137-28.39275,9.06137a38.76924,38.76924,0,0,1-21.8977-7.2491L68.80424,520.82142v-9.51455L79.5265,500.73505a40.9233,40.9233,0,0,1-11.62863-28.99637c0-58.89862,59.9559-54.67,62.07141-20.0859,15.555-12.98771,38.05629-.9059,38.05629,19.935,0,12.08182-3.47316,21.44546-9.05993,28.39227Zm-21.74727-47.11909.15234-.15138c-1.05681-25.52272-59.35229-30.50635-59.35229,18.87772A39.14381,39.14381,0,0,0,80.5833,499.82915Z"/><path class="cls-8" d="M166.96877,573.523v10.11816l-46.96771,42.58865,11.025,9.96726c10.72225,9.66545,21.8977,17.21635,35.94269,25.825v8.91046l-48.62812-44.09911H68.80424v-7.5509h47.4209Z"/><path class="cls-8" d="M145.97745,706.72384c0,56.48274-77.92915,56.48274-77.92915,0S145.97745,650.24111,145.97745,706.72384Zm-1.20914,0c0-46.36409-75.36045-46.36409-75.36045,0S144.76831,753.08794,144.76831,706.72384Z"/><path class="cls-8" d="M88.13515,779.81646c-3.02-8.45727-16.31093-15.85774-16.31093-1.35956,0,12.68543,8.15547,32.62091,8.15547,42.89093,0,23.10588-35.18865,20.23633-35.18865-14.64956,0-12.08182,3.47316-21.5959,9.06183-28.39275l8.75908-.15043c-8.75908,5.73815-16.61178,15.25318-16.61178,28.54318,0,29.75135,27.334,34.73546,27.334,16.15955,0-11.32683-8.15356-30.65774-8.15356-43.34412,0-16.1586,17.065-14.045,23.55812-1.20818,13.5918-30.95954,57.23868-24.01226,57.23868,21.14365a54.91822,54.91822,0,0,1-2.26594,16.46136c6.19229,6.19229,10.4214,14.8,11.025,22.20046l-7.24909,4.22816c2.86955-9.21227,1.0568-19.02815-4.22912-25.06906-11.779,34.73451-58.59633,28.845-58.59633-17.82092A51.2551,51.2551,0,0,1,88.13515,779.81646Zm56.63316,19.63271c0-43.34316-58.74676-43.34316-58.74676,0S144.76831,842.79234,144.76831,799.44917Z"/><path class="cls-8" d="M125.74016,912.25946,68.80424,930.2308v-7.09771l21.14366-6.7959c-11.93139-3.32274-21.8996-14.49818-21.8996-33.22548,0-47.42089,59.9578-47.42089,59.9578,0,0,9.96727-2.86955,17.82092-7.40142,23.56l8.91141-2.86955c11.92949-3.77592,15.1018-11.93139,15.1018-20.84185,0-7.09771-5.58868-14.6486-8.60866-17.97134h7.70228a83.51272,83.51272,0,0,1,2.41636,17.97134C145.97745,894.28716,140.38877,907.57716,125.74016,912.25946Zm.90638-29.14775c0-37.30225-57.23868-37.30225-57.23868,0C69.40786,921.92491,126.64654,921.92491,126.64654,883.11171Z"/></svg>