<svg xmlns="http://www.w3.org/2000/svg" xmlns:xlink="http://www.w3.org/1999/xlink" viewBox="0 0 1080 1080"><defs><style>.cls-1{isolation:isolate;}.cls-2{fill:#fafafa;}.cls-3{fill:#feaead;}.cls-4{mix-blend-mode:multiply;fill:url(#linear-gradient);}.cls-5{fill:#2f2f35;}</style><linearGradient id="linear-gradient" x1="423.33814" y1="205.4189" x2="656.66186" y2="205.4189" gradientUnits="userSpaceOnUse"><stop offset="0.03073" stop-color="#fed0af"/><stop offset="0.38547" stop-color="#fea094"/><stop offset="1" stop-color="#fe93c7"/></linearGradient></defs><title>IGRIK_Bar&amp;amp;Yoga_logo_ALLLL</title><g class="cls-1"><g id="Layer_1" data-name="Layer 1"><circle class="cls-2" cx="540" cy="540" r="540"/><path class="cls-3" d="M234.49017,746.21233l23.59028,28.2252c17.38213,20.79668-.02549,38.71054-17.70776,25.10332,28.47217,46.64267-25.40391,86.83681-64.82461,39.673l-21.5209-25.74844ZM160.43836,818.621l16.34766,19.5583c34.454,41.22246,90.28344-5.4413,55.829-46.66289-6.82822-8.17031-14.31343-12.84785-21.91772-14.90273Zm77.98755-65.1832-24.51006,20.48555a65.98479,65.98479,0,0,1,19.93667,16.55771c.72422.8666,1.34561,1.60928,2.06939,2.47588,11.69209,13.98867,32.61269-3.49717,20.9206-17.48408Z"/><path class="cls-3" d="M314.3054,884.16106l-21.26382,60.126-6.0561-4.56152,7.79238-22.40772c-10.50337,8.04375-26.44453,9.36387-42.42129-2.67275-40.45825-30.48047-1.92041-81.63282,38.53741-51.15235,8.50341,6.40723,13.35937,13.90254,15.34306,21.45674l3.28008-9.4456c4.44727-12.60616-.472-20.55323-8.07451-26.28106-6.05523-4.5624-16.08926-4.64941-20.86524-4.20732l4.95044-6.57159a89.19519,89.19519,0,0,1,16.886,9.49131C311.97982,855.34348,319.7265,868.65364,314.3054,884.16106Zm-24.28506-19.5082c-31.82519-23.97656-68.61533,24.85547-36.79057,48.83291C286.34344,938.43177,323.134,889.60061,290.02034,864.65286Z"/><path class="cls-3" d="M317.691,956.07053l-6.4916-3.25195,36.55283-72.98965,4.32861,2.16739-3.32578,9.88242c14.073-6.84492,33.83526,1.60928,41.98184,12.36357l-3.97354,7.93389c-5.61357-20.85381-31.07461-31.98076-43.86181-6.44942Z"/><path class="cls-3" d="M513.506,924.73313c-4.75313-10.12676-13.65645-19.7042-27.71279-21.70283-19.00811-2.70264-33.32637,14.327-22.13614,29.60772l44.463,60.91347a39.66806,39.66806,0,0,0,10.50381-21.15791c1.99951-14.05635-4.71533-25.27734-13.29961-32.52832l9.42451,1.34121c4.86475,8.18789,7.13057,18.61348,5.313,31.3919a41.41428,41.41428,0,0,1-10.96,22.07021l14.044,19.2709-10.0626-1.43086-9.56865-12.93047a43.71513,43.71513,0,0,1-32.41758,7.9374c-62.29423-8.85761-48.80478-71.63437-11.9083-68.66894-11.39765-18.40606,4.76543-40.38926,26.8084-37.2542,12.77842,1.81758,22.159,6.89853,28.66641,13.8542Zm-53.107,15.91436-.13711-.18194c-27.15293-2.72109-41.1917,58.18536,11.03994,65.61387a41.81737,41.81737,0,0,0,31.413-7.75635Z"/><path class="cls-3" d="M574.98548,908.63069l10.51523-2.50576,55.88262,38.26758,7.62979-13.92364c7.389-13.53515,12.46992-27.01757,17.93935-43.744l9.25928-2.20605L642.4222,945.96927l12.26162,51.47666-7.84687,1.86943-11.7378-49.28027Z"/><path class="cls-3" d="M709.713,890.215c54.29355-26.33643,90.62842,48.57012,36.33662,74.90566C691.757,991.45706,655.42122,916.55139,709.713,890.215Zm.56338,1.161c-44.56582,21.61758-9.42715,94.05616,35.13867,72.43858C789.98177,942.19612,754.8431,869.75755,710.2764,891.376Z"/><path class="cls-3" d="M810.4805,901.38323c-4.91133,8.24063-1.96611,24.2209,9.97559,14.35781,10.44843-8.6291,21.31962-28.90722,29.77734-35.89277,19.03184-15.71836,40.60547,15.21562,11.87227,38.94785-9.951,8.21865-20.15069,11.83008-29.54883,11.85029l-6.08291-7.11123c10.68486,3.31,23.86318,3.30557,34.81-5.73486,24.5039-20.23857,10.01426-46.14258-5.28574-33.50654-9.32872,7.70449-19.70332,27.57216-30.15176,36.20127-13.30928,10.99336-23.17676-4.50176-17.0209-18.58184-34.74492,9.86572-58.71445-30.80742-21.52178-61.52607a58.68676,58.68676,0,0,1,15.09873-9.33223c.8877-9.31113,5.10117-18.64951,10.78594-24.18135l8.41377,3.09375c-9.53965,3.90322-16.39248,12.07442-17.77236,20.53653,36.62226-13.92715,63.61875,28.64,25.1833,60.38437A54.75579,54.75579,0,0,1,810.4805,901.38323Zm-22.355-59.99941c-35.69941,29.48379,4.26357,77.87021,39.963,48.38554S823.82405,811.89827,788.12552,841.38382Z"/><path class="cls-3" d="M881.42405,769.79778l59.86934,21.98057-4.63447,6.00029L914.34612,789.72c7.91719,10.59873,9.04747,26.55439-3.179,42.38789-30.963,40.09043-81.65215.94394-50.68916-39.14736,6.50742-8.427,14.06074-13.19327,21.63867-15.08643l-9.40693-3.3917c-12.55166-4.59756-20.55762.22588-26.3751,7.75986-4.63447,5.99942-4.841,16.033-4.45693,20.81338l-6.51094-5.0291a89.12633,89.12633,0,0,1,9.69082-16.77129C852.581,771.77884,865.98167,764.19124,881.42405,769.79778Zm-19.79736,24.05039c-24.35625,31.53692,24.03457,68.90889,48.39082,37.372C935.35989,798.40618,886.96907,761.03421,861.62669,793.84817Z"/><path class="cls-4" d="M577.06011,159.12591h-5.91553c5.74327,24.47671-4.63762,55.723-31.1449,55.723-26.50673,0-36.88761-31.24624-31.14435-55.72295h-5.91552c-6.50832,24.95578,5.57662,56.47843,36.25428,57.02337a71.53857,71.53857,0,0,1-1.92362,17.73758,38.68169,38.68169,0,0,0-7.89262-5.75227,26.56951,26.56951,0,0,0-6.20827-2.4421,18.84716,18.84716,0,0,0-5.00635-.5714,16.31479,16.31479,0,0,0-2.60817.30343,20.95716,20.95716,0,0,0-6.08385,1.84087,15.17647,15.17647,0,0,0-6.62542,6.327,11.83135,11.83135,0,0,0-1.32182,8.079c.89,4.50026,3.68623,7.9416,8.40435,10.17428a17.87894,17.87894,0,0,0,10.7226,1.51378c.69244-.11259,1.36348-.25783,2.0182-.4301a17.339,17.339,0,0,0,7.33924-3.39461q.50242-.3344.99417-.68568a23.24133,23.24133,0,0,0,5.88119-8.75226c.07938-.18634.15932-.37211.237-.563.68061.74028,1.1625,1.2779,1.1625,1.2779s.91311,1.20529.94689,1.17264c.948.99868,1.40119,1.525,2.38017,2.49051a38.33663,38.33663,0,0,0,8.6909,6.6423,44.71879,44.71879,0,0,0,4.145,1.89716,17.05192,17.05192,0,0,0,2.64082.82642,19.05285,19.05285,0,0,0,4.75978.48076c5.82546-.1261,10.40172-2.21973,13.81379-6.18237a12.99093,12.99093,0,0,0,2.607-4.84647,9.862,9.862,0,0,0,.23194-1.72546c.06474-.57534.11428-1.15124.17-1.72715a9.47048,9.47048,0,0,0-.8298-4.40906,13.89029,13.89029,0,0,0-5.42238-6.52408,18.188,18.188,0,0,0-10.46364-3.01575,19.90614,19.90614,0,0,0-8.72242,2.1944,30.53928,30.53928,0,0,0-5.21521,3.277,3.00714,3.00714,0,0,1,.60236.95083c.49934-.33214,1.00488-.65809,1.52674-.97a23.92178,23.92178,0,0,1,7.81268-3.19252,16.17176,16.17176,0,0,1,6.98683.049,15.89624,15.89624,0,0,1,5.80013,2.6594,15.01133,15.01133,0,0,1,3.40137,3.81627,4.14837,4.14837,0,0,1,.38731.91987,11.90329,11.90329,0,0,1,.61475,1.76373,15.88659,15.88659,0,0,1,.15368,2.01369,9.61358,9.61358,0,0,1-1.40232,5.18932,13.28193,13.28193,0,0,1-9.58486,6.15141,15.00647,15.00647,0,0,1-6.84835-.46444,23.6701,23.6701,0,0,1-6.89788-3.39293,41.01908,41.01908,0,0,1-8.67513-8.05926c-.2736-.3389-1.97429-2.28616-2.6549-2.987-.21-.21617-.42559-.42784-.639-.64064a71.51319,71.51319,0,0,0,2.20565-19.02C571.48292,215.6049,583.569,184.08169,577.06011,159.12591ZM525.99224,250.1236a19.27942,19.27942,0,0,1-5.4708,1.46481c-.33383.03546-.666.05854-.997.07543-.12835.00338-.25389.00563-.37549.00563v.00732a15.20285,15.20285,0,0,1-7.167-1.45805c-4.22835-2.048-6.68621-5.10825-7.17373-9.246a9.23316,9.23316,0,0,1,1.31506-6.06077c2.504-4.0696,6.55055-6.15535,11.978-6.3597a17.2539,17.2539,0,0,1,1.75361.07712,20.00188,20.00188,0,0,1,6.43851,2.07506,33.1431,33.1431,0,0,1,7.33192,5.21465c.64346.59954,1.48339,1.46424,2.27265,2.30079C533.29376,245.00127,529.52309,248.43417,525.99224,250.1236Zm117.32483-98.48893a114.96087,114.96087,0,0,0-27.00663-34.06383c-23.18529-19.93816-48.84477-28.43315-73.84333-28.81371-21.93047.107-40.817,4.63031-58.83553,14.79333a117.81592,117.81592,0,0,0-44.22628,43.1167c-20.51857,34.31378-21.4497,77.24414-2.41958,113.14264a112.92876,112.92876,0,0,0,22.99783,30.16649c21.00327,19.49174,44.47229,29.42,69.95387,31.63693a113.13271,113.13271,0,0,0,65.50373-13.70007,116.50061,116.50061,0,0,0,47.87592-156.27848Zm9.67888,77.94727c-4.63537,14.14593-9.63779,31.33688-25.64653,36.11186-8.00409,2.86544-18.00949-1.90954-26.01358,3.82021-21.01172,14.32607-31.01655,41.06755-58.0699,45.88813a54.48068,54.48068,0,0,1-10.409.07149,122.12385,122.12385,0,0,1-21.801-3.68791,118.14468,118.14468,0,0,1-48.35274-25.973,112.50261,112.50261,0,0,1-27.91974-36.80035c-9.41542-19.88582-11.406-37.78046-9.66649-54.61337a100.73429,100.73429,0,0,1,18.291-48.70177c4.61-6.52465,10.07238-12.35179,15.14855-18.49532,15.44578-13.83348,33.44682-24.54482,56.22228-29.49376a112.02149,112.02149,0,0,1,56.48012,1.85438c22.1686,6.3794,42.26158,18.55273,59.23241,38.787a106.41177,106.41177,0,0,1,21.533,40.45337,98.231,98.231,0,0,1,2.562,43.02494Q653.93693,225.76538,652.996,229.58194Z"/><path class="cls-5" d="M182.59862,423.30313H164.59023V656.81027c-.00193.20449-.00772.35882-.00964.58838-.00772,4.26144,4.19584,3.70392,4.00293,15.12242-.04823,2.87439,2.35932,3.49171,2.39983.19677.09646-7.94221,3.73286-11.58633,6.642-11.58633s4.96557-2.31109,4.9675-3.72321h.00579Z"/><path class="cls-5" d="M403.73419,487.77356V637.59868c-16.206,11.5259-36.73609,18.37021-61.22682,18.37021-1.263,0-2.51233-.02316-3.75294-.05862-.393-.01159-.78026-.02968-1.17039-.04488q-1.28548-.04886-2.555-.12088-.65144-.03907-1.29851-.084-1.2301-.08577-2.44357-.19543c-.40389-.03619-.80922-.06948-1.21093-.11q-1.43857-.14333-2.85542-.32282c-.21642-.02678-.43573-.0485-.65143-.07673-2.5022-.35611-4.9559-.77881-7.334-1.326-23.06731-10.2578.65039-38.42257-14.17317-54.72849-13.34121-17.78828-37.05891-10.3765-56.32954-14.82357-4.44707,0-5.92943-2.96471-7.55833-6.521a90.50324,90.50324,0,0,1-3.34944-10.90173q-.61668-3.0845-1.0763-6.22112c-.02823-.1918-.05718-.38361-.08469-.57615-.11943-.83527-.22872-1.67271-.33295-2.51161-.029-.22944-.06008-.45817-.08758-.68761q-.18132-1.52542-.32933-3.05591c-.02968-.31269-.05356-.62537-.08179-.93806-.055-.6203-.11074-1.23988-.15779-1.86091-.029-.37493-.05139-.75131-.07673-1.127-.03836-.56457-.07672-1.12914-.10784-1.69371-.02244-.39592-.03909-.79185-.05791-1.18777-.02533-.54358-.05066-1.08716-.07021-1.63146-.01447-.41112-.02461-.823-.03546-1.23481-.01448-.52983-.02751-1.05966-.03547-1.58948-.00651-.41909-.00941-.8389-.0123-1.258q-.00543-.785-.00218-1.56921.00327-.633.01231-1.26522.01086-.78714.0304-1.57428.01519-.62536.03619-1.25146c.01737-.52765.03981-1.05531.06369-1.583q.02715-.62321.06008-1.24568c.02823-.53127.06225-1.06254.097-1.59382.02678-.409.05284-.81718.08324-1.22613.04053-.54285.08686-1.085.13318-1.62712.034-.39447.06587-.78894.1035-1.1827.05357-.56891.11436-1.13637.17516-1.70384.03981-.367.076-.73466.118-1.10091.07165-.62464.15272-1.24856.23306-1.87176.03981-.30834.07528-.61669.11726-.925q.37782-2.787.87074-5.553c.055-.31124.11653-.62031.17444-.93082.11291-.61089.22582-1.22178.34742-1.83051.07238-.36552.152-.72959.228-1.09439.11436-.55082.22872-1.10164.3496-1.65028.08613-.38651.17661-.77086.26564-1.15664.1216-.52694.2432-1.05387.37131-1.57935.09554-.39448.19615-.78678.296-1.18053q.19326-.76542.39447-1.5294.16069-.60258.32789-1.20225.20736-.75022.4227-1.49828.17264-.59714.35177-1.19283.22365-.748.45745-1.49321.18456-.59172.37493-1.18126.23994-.74154.49-1.47946c.131-.38941.26274-.77881.39809-1.16678.17227-.49508.3496-.988.52765-1.48018.13825-.38145.275-.76289.41692-1.14217.18674-.50087.38-.99885.57253-1.49683.14186-.36552.28156-.73177.427-1.09512.20629-.5168.41909-1.03.63189-1.54316.14186-.34091.28011-.684.42487-1.02346.23886-.56167.4864-1.119.73394-1.67634.12667-.28662.24972-.57542.37928-.8606q.55045-1.216,1.12769-2.41679c.02606-.055.05211-.11.07889-.165q.58086-1.204,1.18922-2.39435c.1368-.26854.28011-.53273.41908-.79981.28446-.5472.56964-1.09512.8635-1.63725.17372-.32137.35395-.63985.53128-.95977.26781-.4835.53489-.967.80921-1.44617.194-.338.393-.67241.59063-1.009.26636-.45455.53345-.9091.807-1.36.20845-.34453.422-.68616.63477-1.02852q.40607-.65577.8208-1.30648.33006-.51462.66663-1.02418.42016-.64058.849-1.27535.3431-.50811.69341-1.01043.43428-.62754.87725-1.24712.35829-.50052.72092-.99741.45057-.6156.91127-1.22251c.24537-.32571.49146-.65143.74118-.97424.31413-.40606.63333-.80922.954-1.21093.24972-.31341.49871-.62754.752-.93733.33295-.40823.67169-.81067,1.01043-1.2131.25117-.29749.49943-.59714.75349-.89173.35828-.41547.72308-.82369,1.08715-1.23337.24393-.27432.485-.55082.7325-.82224.40822-.44949.82514-.891,1.24205-1.33253.21135-.22366.41908-.45166.63261-.67387q1.90325-1.97925,3.91941-3.85644c.22366-.20846.4531-.4104.67893-.61668.45311-.414.90621-.828,1.368-1.23337.2736-.241.55371-.47554.83093-.71367.42125-.36263.84251-.72526,1.271-1.08065.30255-.25116.6109-.49653.91634-.74407.41257-.3344.82587-.66807,1.24495-.996.3192-.24971.64274-.49508.96556-.74118.41619-.317.83238-.6326,1.25436-.94312.33222-.24464.66807-.48567,1.00392-.7267q.634-.45383,1.27534-.89969.51354-.35612,1.03288-.70426.64817-.43645,1.3043-.86278.52656-.342,1.0582-.67821.66554-.42016,1.34122-.82876c.35683-.21714.71439-.43428,1.07485-.64708.45962-.2707.9243-.53634,1.38971-.80053.35973-.20484.71874-.40968,1.08281-.61017.47916-.26347.96411-.52042,1.44979-.77737.35828-.18964.71512-.38145,1.077-.56674.51173-.262,1.0307-.51607,1.54967-.77013.34381-.16865.68472-.34091,1.03215-.50594.57977-.275,1.16823-.54068,1.75668-.8056.29387-.13318.58411-.2707.88087-.401q2.66542-1.17039,5.4452-2.19892c.30834-.11364.62248-.22.93371-.33078.621-.22293,1.2435-.44587,1.87322-.65794.37565-.12667.75782-.24465,1.13637-.367.57543-.186,1.15086-.37276,1.73352-.54937.40461-.123.815-.23813,1.22323-.35684.56457-.16358,1.12987-.32716,1.70095-.48205.42777-.11654.86061-.22655,1.292-.338.561-.14476,1.12191-.28735,1.68865-.42343.44441-.10712.89173-.20845,1.33976-.31051q.84795-.19216,1.70457-.37349c.45455-.09554.91127-.18674,1.36872-.27721q.86423-.16938,1.73569-.32644.69376-.12376,1.39115-.24175c.58846-.09772,1.18053-.18964,1.77478-.27939.4683-.07021.9366-.14042,1.40852-.20484.60366-.08324,1.21238-.15851,1.82183-.23234.47047-.05718.94022-.11581,1.415-.16792.62754-.068,1.26159-.12739,1.89637-.186.46324-.04271.9243-.089,1.39116-.12667.67024-.05428,1.347-.09771,2.02449-.14114.44007-.02823.87725-.06152,1.32094-.08541.75711-.04053,1.52362-.06731,2.29013-.09482.37059-.013.73684-.03257,1.1096-.0427q1.71542-.0456,3.45907-.04705c35.29572,0,64.46947,24.85263,78.87468,41.781V443.83269c-20.16816-14.04764-46.45972-23.0518-78.87468-23.0518-1.52941,0-3.04071.02461-4.54261.06369-.46758.01158-.93009.0304-1.39478.04633q-1.58079.05319-3.142.13318-.7524.03908-1.499.084-1.60251.09771-3.18113.22727c-.40606.03257-.815.0608-1.21889.097q-2.15079.18893-4.2625.43067c-.22366.026-.44224.0579-.66518.08468q-1.77838.21281-3.52856.46324c-.45237.06514-.90041.13535-1.3499.20411q-1.42988.21931-2.84094.46179c-.45744.0789-.91417.15779-1.368.24031q-1.55365.28444-3.0798.59931c-.30979.06369-.62247.1216-.93082.18674q-1.97165.41908-3.90276.88666c-.30473.07455-.60438.1549-.90766.2309q-1.47873.36806-2.93431.76434c-.4256.11653-.8483.23668-1.271.35683q-1.30611.37133-2.59268.76579c-.40171.123-.80487.24465-1.20441.37131q-1.54389.48858-3.05737,1.01189c-.19325.06659-.39085.12883-.58338.19615q-1.79034.62645-3.538,1.30068c-.32933.12594-.6536.2584-.98076.38724q-1.267.49833-2.51378,1.01984-.58519.24429-1.16388.49508-1.19863.5168-2.37481,1.056c-.34309.15706-.68907.31123-1.02926.47047q-3.30924,1.5504-6.45346,3.26582c-.32282.17588-.64129.35683-.96194.53561q-1.102.61452-2.18445,1.24785-.5233.30617-1.04083.61668-1.10309.66228-2.183,1.34628c-.27794.17589-.56023.34815-.83672.52621q-1.47114.94674-2.90392,1.92894c-.15127.10423-.2982.21208-.44948.317q-1.203.83709-2.37771,1.698c-.30255.22221-.60076.44732-.90041.6717q-.96085.71982-1.90144,1.457c-.30255.23668-.60438.47337-.904.71295q-1.02273.81862-2.02014,1.65824c-.20773.17444-.41981.346-.62609.52114q-1.28983,1.09874-2.53767,2.22933c-.19832.18022-.3923.36479-.58918.54575q-.95435.87725-1.88552,1.77115c-.27142.2613-.53923.524-.807.7875q-.83491.8208-1.64883,1.65535c-.25334.25985-.50812.51824-.75783.77954q-.975,1.01948-1.92026,2.05851c-.11726.12883-.23813.2555-.35466.38506q-1.11069,1.23228-2.17794,2.49424c-.20267.23886-.40026.48133-.6.72163q-.77085.92394-1.52071,1.86019-.35178.44189-.69848.88594-.71657.91525-1.4107,1.84426c-.20339.27143-.40967.54141-.61017.815q-1.94777,2.64913-3.72977,5.39526c-.18168.27939-.35829.56167-.53707.84251q-.62428.97932-1.22757,1.968-.28771.47229-.57036.94674-.60909,1.02165-1.19356,2.05417c-.15128.26636-.30617.53127-.45528.79908q-.79039,1.41685-1.5417,2.854c-.08107.15634-.15852.31485-.23886.47192q-.62646,1.21491-1.224,2.44285c-.15417.3163-.304.63478-.45527.95325q-.48531,1.02274-.95181,2.05272c-.1491.3315-.29893.66156-.44514.99379q-.50378,1.14324-.98076,2.29519c-.09771.23523-.19977.4683-.29531.70354q-.61127,1.49827-1.18125,3.01031c-.08976.23886-.17444.47916-.26275.718q-.431,1.16713-.83961,2.34151c-.11943.34453-.23524.69051-.351,1.03577q-.35937,1.06725-.697,2.141c-.10567.3344-.21207.66807-.31485,1.00392q-.39954,1.30611-.76941,2.62163c-.04632.16285-.09626.32571-.14114.48929q-.43212,1.55691-.81935,3.12468c-.07238.29169-.13969.58411-.2099.8758q-.27686,1.14869-.53273,2.30171-.11834.53634-.23161,1.0734-.23668,1.1172-.45094,2.238c-.063.32789-.12883.655-.18891.98293q-.58411,3.17571-1.0032,6.37819c-.04342.33078-.08179.66156-.12232.99234q-.139,1.13239-.2584,2.26769-.05646.54611-.10929,1.09294-.11184,1.17257-.20122,2.34876c-.02244.3011-.04922.60148-.07021.90258q-.11074,1.609-.18385,3.21877c-.00724.17155-.01013.34309-.01665.51463q-.05429,1.36147-.07889,2.72441c-.00579.34887-.008.69775-.01158,1.04735q-.01086,1.128-.00145,2.25683c.0029.36045.00579.72018.01158,1.08064q.02172,1.24206.068,2.48411c.00941.2555.01448.51028.02533.76506q.0695,1.6101.17878,3.21732c.01737.25333.04054.50667.05936.75927q.09228,1.241.20845,2.479c.034.35973.07093.71874.10785,1.07775q.11617,1.11937.25188,2.23729c.042.34887.08324.69775.12812,1.0459q.17588,1.34954.38072,2.69473c.02606.17082.04777.34164.07455.51173q.24972,1.59275.54141,3.17679c.055.29893.11508.59642.17226.89535q.22041,1.15628.46107,2.30967.11292.53634.23162,1.07123.24537,1.11828.51318,2.23295c.07672.32137.15127.64274.23089.96338q.77846,3.1388,1.72194,6.2356c.09626.317.19832.63261.29748.94891q.342,1.09005.70427,2.17432.17587.52548.35611,1.04879.38325,1.11285.79112,2.21847c.105.28518.20628.57108.31268.85554q.56892,1.51456,1.17764,3.01466c.01013.0246.01882.04921.029.07455.04632.11219.09627.22221.14259.3344,9.43844,23.6236,37.60321,14.72947,58.3562,19.17654,2.96472,1.48235,7.41178,2.96471,8.89414,5.92942,5.92943,14.82357-1.48236,40.02363,21.38754,44.49473a92.25208,92.25208,0,0,0,12.45984,1.991c.18167.02027.359.04488.54141.06442.15634.0152.317.02534.47409.03981.73973.06949,1.4867.12956,2.23367.18892.54864.04415,1.09512.09192,1.64811.131.7875.055,1.58369.09843,2.37915.14259.52331.029,1.043.06369,1.56994.08758.88521.04125,1.77984.068,2.67446.09554.44732.01375.88956.034,1.33905.04488q2.02375.0456,4.07937.04777c32.774,0,59.067-9.00416,79.23514-23.0518V487.77356Z"/><path class="cls-5" d="M734.71513,641.56225c-46.56467,33.44639-87.763-26.846-171.15137-37.91011,127.00639-19.26339,118.39816-180.3495-25.85727-180.3495H472.87656v234.1052h18.00831V606.55171a104.765,104.765,0,0,1,18.00832-1.00609h28.8133c63.38811,0,121.73417,88.59975,199.16993,38.89739ZM516.81742,601.944h-7.92423c-6.1625,0-12.1035.23017-18.00832.72959V426.9043h12.13894a103.70539,103.70539,0,0,1,11.33644.43283c27.87871,4.05767,32.32578,41.11658,60.49055,44.08129,10.3765,1.48236,17.78828-16.30592,31.12949-11.85885,8.89414,1.48236,17.78827,10.3765,19.75831,20.17938a77.38842,77.38842,0,0,1,3.90683,11.07916,90.38072,90.38072,0,0,1,2.35741,35.52044c-3.78721,25.12712-17.12842,47.36247-37.71855,60.35985a88.8203,88.8203,0,0,1-11.78706,6.36865c-12.57284,5.622-27.50309,8.87691-44.79075,8.87691Z"/><rect class="cls-5" x="700.13888" y="423.30264" width="18.00831" height="171.07899"/><path class="cls-5" d="M769.27547,423.30264h18.00831V524.14921L821.86,499.29657c37.457-27.01247,67.35023-55.82287,86.79892-75.99392h24.49073L817.53746,506.4999,954.75965,657.40784H930.26892L802.7718,517.30489l-15.488,11.16689V657.40784H769.27546Z"/></g></g></svg>