<svg id="Layer_1" data-name="Layer 1" xmlns="http://www.w3.org/2000/svg" xmlns:xlink="http://www.w3.org/1999/xlink" viewBox="0 0 1928.68085 968.17021"><defs><style>.cls-1{fill:url(#linear-gradient);}.cls-2{fill:#fafafa;}.cls-3{fill:#2f2f35;}</style><linearGradient id="linear-gradient" x1="240.12766" y1="1208.29787" x2="1688.55319" y2="-240.12766" gradientUnits="userSpaceOnUse"><stop offset="0.03073" stop-color="#fed0af"/><stop offset="0.38547" stop-color="#fea094"/><stop offset="1" stop-color="#fe93c7"/></linearGradient></defs><title>IGRIK_Bar&amp;amp;Yoga_logo_ALLLL</title><rect class="cls-1" width="1928.68085" height="968.17021"/><path class="cls-2" d="M254.44907,247.90936a1509.6346,1509.6346,0,0,0,84.24544,248.0719c23.28922,52.8707,52.84036,108.01662,107.99338,142.19566,49.44923,30.64433,115.88619,42.07079,170.36146,13.779,88.77259-46.10477,63.95187-128.62446,68.66784-202.23051,1.36877-21.363,3.03575-42.832,5.87259-64.09973,3.32785-24.94828,10.86408-47.6306,34.42159-64.44678,27.0212-19.28874,62.64317-20.239,96.20923-18.45213,46.79951,2.49135,89.9333,9.44906,134.15963-8.4085,86.049-34.74448,111.52569-119.58662,119.14812-193.71548,2.22721-21.66066,3.88177-43.43679,3.28461-65.19175a253.11075,253.11075,0,0,0-2.92377-32.70166q-.21855-1.372-.41845-2.70941H1013.462a220.98682,220.98682,0,0,1,11.04763,19.17126,196.608,196.608,0,0,1,21.24834,81.8383c2.69374,68.12413-29.54114,138.00777-106.75686,165.243-83.12163,29.31373-168.78732,3.23383-248.47-19.94331-28.61009-8.32178-80.5806-17.34156-96.54173,12.39759-5.41981,10.09815-3.84078,21.81923-1.602,32.75746,7.07426,34.56367,19.48774,68.22938,31.169,101.8123,11.64846,33.48691,29.22807,67.52849,33.76808,102.37778,3.11324,23.89643-1.97413,49.12662-17.58087,69.48181-16.946,22.0942-44.6423,37.14161-75.41153,40.53289C450.71013,618.192,395.7104,479.508,367.60352,409.34981,339.22683,338.518,321.77213,264.94907,307.688,191.20012c-6.56368-34.369-12.2406-68.38032-15.35218-102.98366q-2.599-28.90345-3.691-57.88485c-.11453-3.08868.7694-17.23846,1.094-30.33161H215.24414A1502.34307,1502.34307,0,0,0,254.44907,247.90936Z"/><path class="cls-2" d="M458.47177,450.12958c15.94059,34.27865,40.19564,80.14092,87.679,88.20661,16.53907,2.80864,33.2487-1.02731,45.3922-11.06242C617.34637,505.92492,616.547,470.932,609.35974,443.981c-4.81529-18.05651-12.79035-35.3501-20.97714-52.44218q-13.06421-27.29239-26.228-54.54184c-16.7217-34.81275-34.16739-72.2772-25.55365-110.58994,5.79667-25.78209,25.64609-50.43392,54.83965-58.85191C635.751,154.77827,689.35118,177.66051,727.40223,195.64c27.52848,13.00748,52.49918,30.03948,83.79575,35.8924,85.18092,15.93,177.22683-9.02758,187.5107-90.57852,4.45981-35.37694-2.58482-73.88259-12.41513-100.48833A232.851,232.851,0,0,0,966.7302,0H920.3341q8.07048,8.476,15.405,17.394c20.484,24.92294,35.269,58.41112,34.7522,89.96121-.46537,28.40864-13.3369,55.24595-45.62509,72.84408-66.581,36.28323-149.098-26.00087-195.00162-62.62866-45.92656-36.646-117.565-107.90675-189.62089-71.838-102.55736,51.33789-51.58765,206.649-14.27182,278.43989,14.09414,27.11524,73.37267,105.83035,37.55138,134.762-6.02211,4.85344-15.16683,5.28809-22.89372,3.82549-37.68334-7.1265-49.93011-53.31566-61.86107-79.15635C423.09314,263.01882,400.425,126.33985,440.15194,0H348.0226c10.86917,106.05771,27.60248,213.1289,59.53873,316.1C421.55335,361.21393,438.2727,406.69309,458.47177,450.12958Z"/><path class="cls-2" d="M179.19622,0h-23.589c-2.61206,6.00719-4.98791,12.09922-7.078,18.25488-17.31931,51.08727-15.9633,105.47027-6.18366,157.57482,10.19,54.28754,29.64964,106.86914,47.19282,159.66261,8.93322,26.8722,17.72917,53.92464,23.98752,81.35846,5.3368,23.394,6.65413,51.68121-6.60822,73.08618-5.67554,9.16019-14.02119,17.06-25.86462,22.77651-10.79791,5.20222-22.95134,7.6078-35.16694,8.89012C84.5034,528.04736,43.67652,534.82923,3.49186,577.83117Q1.71807,579.727,0,581.66159v73.14166C25.30394,630.742,60.141,613.43649,96.397,604.376c36.91559-9.22978,75.73488-11.25368,114.00678-9.696,21.43133.87226,43.41825,5.84573,64.87827,3.34165,29.25307-3.41344,45.44094-19.99368,45.80574-44.60866.65782-44.38485-41.53607-107.454-55.32908-134.16372-15.50281-30.02058-31.19242-59.999-43.3605-91.14321-12.70334-32.4898-22.13456-65.838-29.97314-99.40893-7.76385-33.274-14.12159-66.79162-20.29315-100.29892C166.25926,96.51263,161.1828,63.27031,169.295,31.321,172.11751,20.20485,176.92585,10.941,179.19622,0Z"/><path class="cls-2" d="M101.34432,402.03783c18.02749-26.13211,23.40212-57.08692,23.37407-86.9761-.02655-28.13752-4.84863-56.69862-9.85167-82.52592-13.25-68.40072-34.13786-138.79486-11.80114-207.56216C105.97323,16.022,109.83027,7.10532,116.90169,0H68.5943c-3.14771,7.54326-6.20817,15.10619-9.11294,22.716C33.6565,90.37152,26.51719,157.78674,48.00781,227.80179c9.85353,32.10223,16.783,68.05858,8.13963,100.91949C48.54626,357.62,26.00914,375.84954,0,381.75438V493.48856a137.02666,137.02666,0,0,1,24.91067-28.205C50.52092,443.62331,82.57174,429.25,101.34432,402.03783Z"/><path class="cls-2" d="M1267.42294,944.3054c-10.663-21.64931-22.19687-43.05481-36.09456-63.3479-26.53914-38.75248-62.47176-73.224-111.10811-92.08638-43.54737-16.88882-95.21014-19.98688-138.2672-.17026-40.87418,18.81022-72.70085,54.3414-119.5456,63.09416-54.91516,10.25668-106.41328-27.8378-157.28421-38.80955-52.65758-11.357-107.34031-6.25487-160.97257-3.8106-54.17262,2.46883-111.26953,2.96683-160.73932-18.77789-49.66876-21.81868-83.85971-60.74078-123.51283-92.97656-40.02-32.51664-91.35389-61.76309-149.21492-54.2076C66.84629,648.93708,29.01918,671.29191,0,698.63475V803.1342c54.67291-51.13609,127.48152-99.73721,212.77915-70.0493,96.48138,33.58043,131.97549,136.21917,251.35677,133.34019,51.67175-1.25032,101.27861-16.78522,152.97561-17.8343,23.81408-.47678,47.1554,2.72324,69.116,10.7133,21.93524,7.97941,41.85508,19.2758,62.99419,28.57958,22.25912,9.80212,46.33438,16.97621,71.71649,13.89258,27.18577-3.30633,51.23649-15.927,73.744-28.59017,40.97206-23.04815,82.541-50.71658,131.82408-59.014,48.31275-8.13827,93.70156,8.37166,127.02155,38.117,18.15313,16.21295,32.10072,35.46756,43.88331,55.4,10.48908,17.74413,21.60428,36.70032,28.58982,55.68362q.90919,2.471,1.57819,4.7975h52.50441C1275.89122,959.67413,1270.9606,951.48811,1267.42294,944.3054Z"/><path class="cls-2" d="M690.24626,909.62839c-34.55179-11.12665-72.351-14.23141-108.98053-11.2749a368.45615,368.45615,0,0,0-55.156,8.88c-18.92436,4.46152-37.5626,9.84452-56.77314,13.41574C387.40125,935.88116,354.51437,885.728,310.513,838.21651c-18.53862-19.98571-40.59845-38.75272-68.71774-48.54416-48.90973-17.03092-115.75192-.908-161.5476,16.78528C52.4706,817.18935,24.84464,834.51194,0,854.775V968.17021H53.346a104.88691,104.88691,0,0,0,10.93555-26.28728c9.03513-32.16262,18.65858-67.3532,49.78714-90.56483,35.51126-26.47976,90.58081-21.35424,124.193,5.58028,26.427,21.17718,39.86842,51.245,64.945,73.8094a264.488,264.488,0,0,0,54.1082,37.46243H780.77328A159.34144,159.34144,0,0,0,767.0638,953.584C746.13607,933.91627,719.3233,918.98545,690.24626,909.62839Z"/><path class="cls-2" d="M1928.68085,627.41576V746.6667c-9.86085-7.029-18.36458-13.72309-23.47738-16.62213-28.63912-16.24589-70.62113-27.85838-100.57888-8.80476-59.75761,38.002-111.26388,86.30269-168.51765,127.17054-25.05878,17.889-50.11761,36.87893-78.74628,50.591-46.65307,22.34537-103.0336,27.86114-155.29735,19.94154-59.72953-9.05375-87.9584-33.97725-128.089-69.93509-40.04293-35.87762-72.80942-85.53645-126.10771-107.655-49.2515-20.43949-110.61862-22.68285-160.60294-2.77727-24.93262,9.92792-43.8197,24.89028-62.53488,41.70878-16.34824,14.68849-34.99679,31.19723-59.85921,33.814a58.74808,58.74808,0,0,1-37.28669-8.35946c-10.92682-6.94039-17.64217-17.24173-26.78759-25.63441-21.47506-19.73128-54.59577-18.97887-83.38915-14.69679-33.25751,4.94876-65.86624,12.78814-99.08864,18.00246-60.95337,9.56823-125.515,13.37452-184.29072-6.45357-40.618-13.701-75.34479-38.53874-99.00795-69.79957-12.27693-16.21544-13.371-36.60231,9.27523-46.56064,24.41-10.719,57.02577,7.53237,76.66324,18.66356,27.43987,15.55711,54.60622,29.17786,86.34179,38.0048,41.68058,11.59318,84.43063,12.03851,126.809,2.77727,41.72964-9.1257,80.68553-25.37989,119.31872-41.24408,70.07427-28.77955,152.741-60.36956,231.52236-38.61334,17.9052,4.94871,33.90621,13.03428,50.00547,21.1725,16.95833,8.58347,34.96172,17.65384,55.03049,19.25273,21.5381,1.71778,41.17207-6.45352,61.24084-11.65674a204.91188,204.91188,0,0,1,51.39762-6.65274c32.97343.03045,66.39225,9.35531,87.94084,31.50423,12.59253,12.93752,20.56671,28.39787,28.87765,43.48744,22.71628,41.24408,60.017,83.65546,112.49122,100.67036,37.93529,12.30406,79.34232,8.90164,116.345-4.17419,79.4687-28.07141,126.37411-92.13941,178.694-146.52288,23.50189-24.42555,50.24042-48.38644,84.343-61.90757a154.31725,154.31725,0,0,1,102.648-3.51861A145.43731,145.43731,0,0,1,1928.68085,627.41576Z"/><path class="cls-2" d="M1928.68085,900.088c-8.1998,5.13639-18.97895,7.47679-31.40509,5.59318-18.03619-2.73412-32.43382-12.2494-50.98388-13.70794a143.886,143.886,0,0,0-30.7195,1.24006c-21.31343,2.90349-41.96711,8.57265-63.34563,11.1692-9.99716,1.209-32.66224,1.93034-27.26793-12.81913,3.24572-8.85422,23.97648-11.37033,32.54631-15.0933A132.63982,132.63982,0,0,0,1780.15,863.94456c16.40477-11.37478,26.29283-25.736,36.78261-41.08688,27.97822-40.94231,83.29731-21.7098,111.74826,9.50666V767.20007a38.16681,38.16681,0,0,0-5.559-2.19783,3.41206,3.41206,0,0,0-1.2318-.6359,255.99158,255.99158,0,0,0-50.95031-8.6787c-25.81049-1.77073-50.51415,1.38014-68.90051,18.24046-12.26964,11.25119-19.61556,25.35456-28.54616,38.50563a141.22512,141.22512,0,0,1-25.97895,28.37834c-10.22765,8.63627-21.4006,16.39325-32.63556,24.04412-17.39116,11.84321-40.49542,24.43819-52.22145,40.80788-11.93541,16.6627-8.57719,34.21026,12.15648,42.22832,14.28447,5.52133,30.09832,6.507,45.51423,4.7796,53.94966-6.04539,96.87119-39.55882,152.35962-20.8434,20.04706,6.76159,39.72921,10.5081,55.99339,7.2356Z"/><path class="cls-2" d="M1146.63485,102.065a288.46306,288.46306,0,0,1-38.04772,136.12711c-21.36333,37.21594-53.11524,72.281-96.8121,91.93811-24.63546,11.08425-52.07035,15.90587-79.84086,15.694a290.50748,290.50748,0,0,1-45.31443-4.1223c-30.40625-5.07166-63.21181-17.1983-94.37614-9.76768-32.70327,7.79776-42.84221,35.28436-46.85407,61.05575-7.36571,47.26244,6.495,95.83839-6.6813,142.58088-5.69845,20.215-22.38736,37.78787-25.87712,58.24072-4.66109,27.31781,22.09494,41.33486,51.21493,36.87556,13.63476-2.088,26.92081-6.66514,39.85868-10.78661,36.886-11.768,67.877-29.14173,82.44192-61.04958,4.91428-10.76594,8.32328-21.95589,12.41667-32.94423a244.9602,244.9602,0,0,1,12.35517-28.02886c19.91471-38.10137,53.99152-71.22878,106.267-73.14966,65.5116-2.40726,130.40211,15.01472,196.02614,15.17447,57.99108.14107,140.92264-4.2698,183.03995-43.4953,35.7732-33.317,33.2716-84.29421,33.96266-126.38162.8361-50.9156,46.23322-85.90641,93.05991-111.362,60.53154-32.90576,130.68867-60.96947,203.76366-62.16674,67.80656-1.11093,137.51266,12.3039,201.443,35.12209V98.7501c-6.06051-1.98027-11.9642-4.06906-17.60282-5.90426-112.00387-36.47421-239.58533-44.71857-351.80051-4.387-49.48153,17.78125-94.79508,44.44228-130.06834,79.06131a162.16709,162.16709,0,0,0-41.2966,67.8983c-7.59146,24.02174-6.88343,50.771-17.23262,73.92068-17.9165,40.09849-60.81682,67.61842-110.38668,73.11818-61.32406,6.80375-123.44543-5.80933-185.29823-.29692-52.04114,4.638-106.01289,18.72546-149.87018,44.8044-21.01771,12.49788-43.07459,30.653-57.15267,49.026-14.145,18.46021-15.07877,43.29057-34.33174,59.11478-25.08913,20.60469-24.314-34.99395-24.559-41.74456-1.25729-34.64216-16.19738-104.03479,32.54779-121.12955,23.04279-8.09614,49.25816-3.33814,73.14715-1.367,57.51985,4.75795,118.72251-.36038,167.32144-29.19434,43.99514-26.09988,72.68665-66.9295,93.19123-108.26774C1210.662,162.11958,1232.38786,74.79613,1201.26817,0h-70.49511A288.655,288.655,0,0,1,1146.63485,102.065Z"/><path class="cls-2" d="M1267.31087,70.25358c-.75075,37.72337-3.54667,77.08063-13.24779,113.95292-6.16565,23.4347-16.059,46.52581-31.576,66.69368-16.73026,21.74468-45.69231,53.13215-19.6001,78.6955,21.80058,21.35725,61.28769,15.11695,86.58038,2.1908,32.54481-16.63244,41.31273-46.58342,41.02111-77.342-.50963-53.76662.66641-95.878,50.79826-134.50955C1520.86209,12.37825,1760.02623,9.42461,1928.68085,55.54409V0H1517.6751c-11.61591,5.01172-23.25066,9.992-34.61319,15.49507-25.8925,12.54012-47.82133,30.06658-70.61686,46.17527-19.27569,13.62138-41.537,35.45522-68.37984,38.533-38.29595,4.391-33.567-29.4773-31.51825-51.89351,1.5852-17.34607,1.9164-32.567.18645-48.30987h-55.08085A220.32991,220.32991,0,0,1,1267.31087,70.25358Z"/><path class="cls-2" d="M1608.17617,167.56813c-48.38874,14.719-93.22885,40.70188-122.84294,76.87a148.2042,148.2042,0,0,0-30.10843,60.14827c-5.56158,23.77826-6.049,48.107-9.66788,72.10932-5.0462,33.46-18.13668,62.84531-52.20777,81.73569-47.50517,26.34253-99.35154,24.39789-153.41079,20.65243-79.82347-5.53049-200.69-26.45368-264.51545,22.3057-17.50327,13.36725-29.76965,32.32953-30.52,52.343-3.22973,85.94032,214.04848,54.1926,266.57873,58.39449,40.5374,3.242,80.33135,13.4631,106.06342,42.10984,40.37953,44.96183,40.74082,104.47113,95.51525,142.61424,54.15049,37.72271,131.03812,15.1948,177.99975-19.48232,46.646-34.4475,79.9947-81.94316,104.76945-129.58543,19.38492-37.28009,50.16674-61.7112,92.63282-80.04558,32.998-14.2487,69.48851-22.30385,106.37555-24.24849,10.71442-.56444,22.19354.49463,33.843,1.80586V524.92327q-1.64581-.4241-3.29436-.84518c-48.86906-12.44915-103.30688-11.39039-150.071,6.644-92.59022,35.707-100.12516,116.195-157.95833,177.62441-25.655,27.2439-62.27153,48.43728-104.16315,50.59979-66.91277,3.454-78.56723-40.75884-93.1111-85.81665-6.9786-21.62026-15.71486-44.68177-38.3933-57.92175-30.305-17.69248-71.9014-19.64276-107.02527-24.8254a782.173,782.173,0,0,0-144.32575-7.72841c-46.00724,1.78982-88.4134,5.47061-132.606-9.14791-28.56857-9.45025-31.275-32.78556-4.07292-46.15137,86.128-42.3193,190.97254-42.16769,286.2801-29.864,51.249,6.61241,102.37374,13.83952,153.69731,19.95365,38.18476,4.55671,96.06556,16.26626,116.76907-21.50073,17.75488-32.384-2.60021-67.60788-19.88249-96.40995-10.1403-16.89155-20.33061-34.24905-23.976-53.15387a91.42041,91.42041,0,0,1,3.77-47.389c11.13565-32.14029,37.67468-59.9888,70.43487-78.141,37.18928-20.58958,81.85626-29.2898,125.60295-31.96021a604.07918,604.07918,0,0,1,133.91421,6.78211c30.69039,5.06641,60.84181,13.25735,88.41111,25.71228V175.99227c-37.42419-11.04591-78.92593-16.31068-115.14929-19.95919C1747.8653,149.41909,1671.15984,148.42049,1608.17617,167.56813Z"/><path class="cls-2" d="M1627.08868,266.00228c-42.39963,34.62127-35.95678,80.49854-27.337,125.308,5.05115,26.206,8.79636,52.85717,3.42159,79.275-4.61639,22.64556-15.86386,44.25238-35.37324,60.455a96.57444,96.57444,0,0,1-30.75685,17.3365c-48.06087,16.15472-103.79262-3.87619-152.22247-9.35092-61.14805-6.9124-122.78424-8.78985-183.99415-15.13792-33.8473-3.51028-69.09008-10.40235-102.637-1.47461-37.77528,10.05321,1.90557,26.78385,22.92654,32.01485,41.30225,10.278,86.50316,6.62834,127.92979,10.72323,47.45432,4.6907,96.28876,6.94687,141.3775,21.51354,42.06046,13.58836,74.49053,50.479,84.683,87.26323,8.914,32.16937,36.18812,53.28145,73.11061,28.93457,36.07184-23.78589,56.61885-70.16592,76.87172-103.83775,22.25859-37.00623,45.35826-74.265,79.77332-104.28911,24.53675-21.406,59.57334-30.41324,93.71446-33.62408,41.39472-3.90709,81.09655,5.80731,115.97719,24.98289a162.52613,162.52613,0,0,1,14.1271,9.08331V472.95953c-23.07225-4.86157-40.80261-22.16155-61.34366-31.21417-47.98894-21.149-95.33922-24.972-148.39936-22.05148-69.94446,3.84986-73.92049-65.52817-32.115-99.42635,30.32827-24.59056,76.549-17.11521,109.72557-1.63007,12.30512,5.74338,23.88867,12.51465,35.38523,19.36039q46.65075,27.77895,92.97255,55.9645,1.91628,1.15864,3.77467,2.23193V341.1067c-17.01089-12.74737-34.26028-24.65385-49.26819-36.02255C1816.34512,257.30932,1701.91687,204.90144,1627.08868,266.00228Z"/><path class="cls-2" d="M1149.08,968.17021H905.95049a13.47472,13.47472,0,0,1,.11576-2.83535c.68377-4.53383,3.56977-8.59462,7.45172-11.70936,13.02031-10.4424,34.01491-10.23494,48.61675-19.2527,13.59544-8.39545,23.21076-20.70227,29.83143-33.67572,9.51362-18.64149,15.25762-40.02969,41.98913-45.24124,35.57189-6.93763,59.9399,22.14069,71.68027,46.30893,10.10282,20.79635,14.39851,42.82082,35.21428,58.40562,2.99471,2.24057,6.291,4.40376,7.96369,7.48534C1148.9082,967.83,1148.99587,968.0015,1149.08,968.17021Z"/><path class="cls-2" d="M868.32014,100.59012C798.37568,109.6273,736.33528,51.61454,695.88909,0H857.95786C902.07205,42.3284,936.40966,91.7936,868.32014,100.59012Z"/><path class="cls-3" d="M600.21083,312.4389H800.15055v22.31479C766.23173,324.043,736.331,316.90186,622.52561,316.90186l.00718,285.6256h-22.322Z"/><path class="cls-3" d="M622.52151,315.31027H600.2114V603.03171c-.00239.252-.00956.44213-.012.725-.00956,5.25084,5.19812,4.56388,4.95913,18.63345-.05975,3.54176,2.9229,4.3024,2.97309.24246.11949-9.78619,4.62454-14.27638,8.22857-14.27638s6.15171-2.84766,6.1541-4.58764h.00717Z"/><path class="cls-3" d="M1369.73582,312.4389h22.313v124.961l42.84474-30.794c46.41438-33.47217,83.4562-69.174,107.55581-94.16694h30.34738L1429.53728,415.53176l170.03719,186.9957h-30.34739L1411.24059,428.92062l-19.19179,13.83553V602.52746h-22.313Z"/><path class="cls-3" d="M1312.51569,312.43858h-22.313V523.53389c0,31.93736-18.74076,53.24054-44.50929,64.52244-5.15371,2.25638-10.58555,4.09384-15.91952,3.83857-28.91486-6.70308-27.4874-43.81723-51.75434-56.66443-4.2824-1.42747-9.99227,1.42746-14.27467,2.85493-17.12961,9.99227-39.96908,38.54162-57.12425,16.58819a49.745,49.745,0,0,1-6.16807-14.27815,65.20235,65.20235,0,0,1-2.15518-16.86155V490.06172c0-87.02585,7.14109-134.7784,17.85182-177.62314h-22.31478V523.53389a74.65959,74.65959,0,0,0,1.59362,15.5569,67.74451,67.74451,0,0,0,4.56043,13.91429c3.80279,9.34726,9.51266,17.91207,22.35986,16.4846,22.83948-4.2824,35.68668-37.11415,57.09869-25.69441,24.26694,12.8472,24.26694,58.52615,56.58564,58.01178a138.8569,138.8569,0,0,0,15.373-4.14225c14.92923-4.972,28.35751-12.407,38.79705-22.30465v27.28269h22.313V312.43858Z"/><path class="cls-3" d="M547.78765,312.43858h-22.313V523.53389c0,102.19955-191.90532,95.50511-191.90532,0V490.06172c0-87.02585,7.14109-134.7784,17.85182-177.62314H329.10638V523.53389c0,87.35053,140.69165,104.614,196.36828,51.82626v27.28269h22.313V312.43858Z"/><path class="cls-3" d="M829.59733,312.43894h54.91482a122.285,122.285,0,0,1,12.75183.45924c24.44464,4.87754,23.25762,35.74014,43.437,47.61037,2.374,1.187,5.93512,0,8.30916-1.187,17.80534-11.87022,36.79771-34.42366,58.30139-19.73918a117.61159,117.61159,0,0,1,9.448,7.44451c23.70913,20.75274,35.536,48.42306,35.536,76.09338,0,46.69194-33.6788,93.38534-101.30279,106.83709q-3.7569.74731-7.65349,1.356c-10.94743,1.31353-22.81766,2.50055-33.40939,2.486,0,0-2.23148,0-5.57869.00013H874.22629a92.36946,92.36946,0,0,0-22.31448,1.33871v67.389H829.59733Zm22.31448,4.46372V530.22891c7.14113-.44761,14.7278-.89316,22.31448-.89316h17.85179c21.32138-.26995,42.6878-.26995,62.93544-6.79763a116.13068,116.13068,0,0,0,12.62378-4.96986c40.0746-18.58022,60.1119-56.51465,60.1119-94.448a104.48667,104.48667,0,0,0-21.64029-64.10215,73.55807,73.55807,0,0,0-7.86971-8.73385c-17.17943-13.51614-33.79775,4.2892-48.042,13.78539-7.12213,3.56106-13.05725,0-17.80534-4.7481-11.87023-14.24427-15.4313-40.35877-37.63536-41.91761a121.61484,121.61484,0,0,0-13.83564-.50125Z"/><path class="cls-3" d="M729.51205,698.71842c0-15.211-.40021-16.8119-2.00136-17.21183v-.40108h36.02583l3.20229,7.2056h-.80057c-4.243-4.80374-14.89067-4.40381-21.53537-4.40381H736.317c-2.40173,0-2.40173.40108-2.40173,3.6028v24.01751h4.00287c10.96794,0,22.01571,3.6028,22.01571,12.80918S748.88609,737.146,737.91815,737.146H727.51069v-.39992c1.60115-.40109,2.00136-2.00195,2.00136-17.213Zm4.40323,15.611v16.412c0,3.20172,0,3.6028,2.40173,3.6028h1.20078c9.20668,0,17.21242-2.80179,17.21242-10.00739s-8.00574-10.00739-17.21242-10.00739Z"/><path class="cls-3" d="M821.57429,721.775c2.4817,4.88372,6.24447,14.73,9.28666,14.89111v.47991h-8.96643V736.826c2.80193-.561-2.16148-9.28637-4.48322-13.69018l-7.045-13.61019H788.43053l-7.045,13.61019c-3.60251,6.96565-6.08436,12.64922-2.48185,13.6102v.39992H768.73641v-.47991c3.68264-.56105,7.60538-10.00739,10.08723-14.89111l21.3754-42.2703Zm-31.70273-15.05108h19.05366l-9.5269-18.41276Z"/><path class="cls-3" d="M834.85889,681.50659v-.40108h10.40746c10.96793,0,22.01571,3.6028,22.01571,12.80918s-11.04778,12.80918-22.01571,12.80918h-4.00287v12.80918c0,15.21105.40021,16.81191,2.00136,17.213v.39992h-8.406v-.39992c1.60115-.40109,2.00136-2.00195,2.00136-17.213V698.71842C836.86025,683.50737,836.46,681.90652,834.85889,681.50659Zm10.0071,22.41549c9.20667,0,17.21241-2.80179,17.21241-10.00739,0-7.20444-8.00574-10.00739-17.21241-10.00739H843.6652c-2.40172,0-2.40172.40108-2.40172,3.6028v16.412Z"/><path class="cls-3" d="M900.09921,729.94037l48.4348-50.43572v40.0284c0,15.21105.80043,16.81191,2.40158,17.213v.39992h-7.60538v-.39992c1.60114-.40109,2.40172-2.00195,2.40172-17.213V688.31111l-48.43465,50.43572V698.71842c0-15.211-.80072-16.8119-2.40187-17.21183v-.40108h7.60553v.40108c-1.60115.39993-2.40173,2.00078-2.40173,17.21183Z"/><path class="cls-3" d="M983.35108,698.71842v31.22195l48.43479-50.43572v40.0284c0,15.21105.80043,16.81191,2.40158,17.213v.39992h-7.60538v-.39992c1.60115-.40109,2.40172-2.00195,2.40172-17.213V688.31111l-48.43465,50.43572V698.71842c0-15.211-.80072-16.8119-2.40187-17.21183v-.40108h7.60553v.40108C984.15165,681.90652,983.35108,683.50737,983.35108,698.71842Zm10.40746-28.82124a14.02038,14.02038,0,0,0,12.00861,6.40575c10.40746,0,14.01-10.8084,14.01-10.8084s-4.00273,7.2056-11.60825,7.2056c-8.00574,0-10.80782-6.00466-10.80782-6.00466Z"/><path class="cls-3" d="M1069.00712,679.50465c17.13229,0,29.62124,13.28909,29.62124,29.62109s-12.48895,29.62109-29.62124,29.62109-29.62123-13.28909-29.62123-29.62109S1051.87484,679.50465,1069.00712,679.50465Zm-25.218,27.21922c0,18.01284,14.01,28.82124,27.21951,28.82124s23.2165-9.60746,23.2165-24.0175c0-18.01285-14.01-28.82125-27.21951-28.82125S1043.78912,692.31383,1043.78912,706.72387Z"/><path class="cls-3" d="M1106.22809,698.71842c0-15.211-.40022-16.8119-2.00136-17.21183v-.40108h32.02295l3.2023,7.2056h-.80058c-4.24311-4.80374-14.89067-4.40381-21.53551-4.40381H1113.033c-2.40172,0-2.40172.40108-2.40172,3.6028v32.023c0,15.21105.40021,16.81191,2.00136,17.213v.39992h-8.40595v-.39992c1.60114-.40109,2.00136-2.00195,2.00136-17.213Z"/><path class="cls-3" d="M1194.28745,721.775c2.48185,4.88372,6.24448,14.73,9.28666,14.89111v.47991h-8.96643V736.826c2.80208-.561-2.16162-9.28637-4.48321-13.69018l-7.045-13.61019h-21.93573l-7.04505,13.61019c-3.60265,6.96565-6.08436,12.64922-2.48171,13.6102v.39992h-10.16736v-.47991c3.68264-.56105,7.60553-10.00739,10.08723-14.89111l21.37526-42.2703Zm-31.70273-15.05108h19.05366l-9.52675-18.41276Z"/></svg>