<svg id="Layer_1" data-name="Layer 1" xmlns="http://www.w3.org/2000/svg" xmlns:xlink="http://www.w3.org/1999/xlink" viewBox="0 0 1080 1080"><defs><style>.cls-1{fill:none;}.cls-2{clip-path:url(#clip-path);}.cls-3{fill:#fafafa;}.cls-4{fill:#feaead;}.cls-5{fill:url(#linear-gradient);}.cls-6{clip-path:url(#clip-path-2);}.cls-7{fill:#fff;}</style><clipPath id="clip-path"><rect class="cls-1" x="15.8911" y="-1227.27222" width="1080" height="1080"/></clipPath><linearGradient id="linear-gradient" y1="1080" x2="1080" gradientUnits="userSpaceOnUse"><stop offset="0.03073" stop-color="#fed0af"/><stop offset="0.38547" stop-color="#fea094"/><stop offset="1" stop-color="#fe93c7"/></linearGradient><clipPath id="clip-path-2"><rect class="cls-1" x="15.8911" y="1299.06383" width="1080" height="1080"/></clipPath></defs><title>IGRIK_Bar&amp;amp;Yoga_logo_ALLLL</title><g class="cls-2"><path class="cls-3" d="M151.764,7.92437H-44.99464C-33.39716-4.90994-22.35216-15.97789-17.56889-22.6324,9.2361-59.9074,28.39617-114.54873-3.04143-153.54-65.74306-231.317-145.43694-298.35449-212.867-372.87263c-29.516-32.615-60.84856-65.23014-83.47287-102.49154-36.86884-60.7209-45.96962-134.10248-32.90263-202.1259,14.93827-77.74044,56.0609-114.48149,115.38969-166.71306,59.19644-52.11751,141.13125-94.76446,177.62584-164.13438,33.72421-64.10285,37.42566-143.97469,4.58236-209.03135-16.38062-32.45083-41.06782-57.03314-68.81758-81.39173-24.23535-21.2779-51.474-45.54976-55.79161-77.90922A63.85672,63.85672,0,0,1-142.4611-1425.2c11.45134-14.22171,28.44807-22.962,42.29561-34.86515,32.55571-27.95067,31.31428-71.05864,24.249-108.53442-8.16523-43.286-21.09986-85.72762-29.70324-128.968-15.78715-79.33332-22.06735-163.363,10.6481-239.862,22.606-52.866,63.58716-98.06435,115.16611-128.86293,26.75473-15.97893,60.39214-17.40293,76.82292,12.07209,17.6859,31.77065-12.42806,74.22139-30.794,99.78038-25.66852,35.71412-48.14213,71.07224-62.70619,112.37739-19.12821,54.249-19.863,109.89-4.58236,165.0472,15.057,54.31285,41.87566,105.01554,68.05085,155.29823,47.485,91.20456,99.607,198.79867,63.71025,301.3359-8.16514,23.30436-21.506,44.13033-34.93366,65.08418-14.16233,22.072-29.128,45.50412-31.76613,71.62445-2.83426,28.03273,10.648,53.58715,19.2331,79.70748A214.04223,214.04223,0,0,1,94.206-937.069c-.05025,42.91628-15.43584,86.41224-51.98054,114.45862-21.34632,16.3897-46.85519,26.76843-71.75229,37.58545-68.05085,29.56618-138.02771,78.11461-166.10151,146.412-20.30114,49.37435-14.68729,103.2673,6.88723,151.42778C-142.42458-383.75337-36.71531-322.704,53.015-254.6075c40.301,30.58867,79.83541,65.39,102.14466,109.77589,21.10443,42.008,23.35909,90.12277,5.80555,133.60057A166.76459,166.76459,0,0,1,151.764,7.92437Z"/><path class="cls-3" d="M1018.56871-1009.94075c-77.3859-1.57069-154.946-17.975-224.60352-49.52067-61.4046-27.80526-119.26029-69.13167-151.69368-126.00494-18.28851-32.06407-26.244-67.77171-25.89436-103.91618a300.76866,300.76866,0,0,1,6.80161-58.97859c8.368-39.575,28.37641-82.27278,16.11622-122.83444-12.86594-42.56466-58.21758-55.7609-100.7392-60.98251-77.98088-9.58677-158.129,8.4535-235.25194-8.696-33.35379-7.41676-62.34827-29.13807-96.09454-33.68013-45.07313-6.0666-68.20064,28.75747-60.843,66.65834,3.44508,17.7462,10.99716,35.03855,17.79741,51.87772,19.4167,48.00868,48.08252,88.34473,100.729,107.30156,17.76332,6.39613,36.22622,10.83308,54.35648,16.16081a465.73428,465.73428,0,0,1,46.24634,16.08075c62.86553,25.91983,117.52424,70.2722,120.6936,138.31091C490.161-1092.898,461.41557-1008.44039,461.152-923.028c-.23277,75.47779,7.045,183.41663,71.76525,238.234,54.97159,46.5603,139.08161,43.30436,208.52391,44.20381,84.00842,1.08822,141.74166,60.17444,183.74215,121.1213,54.293,78.7843,100.59684,170.0967,102.57227,265.2068,1.833,88.253-20.30086,178.97841-57.94984,262.18642h54.23247c3.26735-7.888,6.71375-15.5719,9.74176-22.9108,60.18078-145.77765,73.7836-311.83019,7.23831-457.88286C1011.68-537.27155,967.69054-596.249,910.57072-642.15861c-32.51181-26.13105-70.62094-43.42672-112.0291-53.74922-39.63478-9.8806-83.76976-8.95907-121.96575-22.429-66.16067-23.31906-111.56731-79.15559-120.64166-143.67282-11.22587-79.81579,9.58512-160.66931.48991-241.17328-7.65245-67.73369-30.89616-137.98014-73.92522-195.06222-20.62094-27.35541-50.57612-56.06336-80.89063-74.38655-30.45851-18.41028-71.42747-19.62565-97.5367-44.68419-33.99679-32.65452,57.73843-31.64567,68.87663-31.96457,57.158-1.63641,171.65265-21.08155,199.85822,42.36229,13.35827,29.99114,5.50778,64.11152,2.25554,95.204-7.8504,74.86447.59461,154.52224,48.16933,217.77576,43.06361,57.26149,110.43062,94.60468,178.63683,121.29223,117.61333,46.0394,261.693,74.31645,385.10324,33.8129v-91.7523A593.95629,593.95629,0,0,1,1018.56871-1009.94075Z"/><path class="cls-4" d="M801.86812-972.64612c-68.20621-26.68755-135.57322-64.03074-178.63683-121.29223-47.57472-63.25352-56.01973-142.91129-48.16933-217.77576,3.25224-31.09251,11.10273-65.21289-2.25554-95.204-28.20557-63.44384-142.70025-43.9987-199.85822-42.36229-11.1382.3189-102.87342-.68995-68.87663,31.96457,26.10923,25.05854,67.07819,26.27391,97.5367,44.68419,30.31451,18.32319,60.26969,47.03114,80.89063,74.38655,43.02906,57.08208,66.27277,127.32853,73.92522,195.06222,9.09521,80.504-11.71578,161.35749-.48991,241.17328,9.07435,64.51723,54.481,120.35376,120.64166,143.67282,38.196,13.4699,82.331,12.54837,121.96575,22.429,41.40816,10.3225,79.51729,27.61817,112.0291,53.74922,57.11982,45.9096,101.1093,104.88706,130.44755,169.28932,66.54529,146.05267,52.94247,312.10521-7.23831,457.88286-3.028,7.3389-6.47441,15.0228-9.74176,22.9108h71.28794c76.095-219.51094,71.22167-530.79293-106.24186-712.45608-63.74028-65.24867-133.22216-66.77933-221.93462-66.116-50.75034.37955-100.16809-11.03226-127.61087-53.39067-21.32755-32.91947-31.62376-84.31358,3.61473-112.68793,42.17835-33.96009,93.96625,3.73522,129.844,25.51033,33.27607,20.196,71.37534,33.07269,110.04153,41.09753,60.8376,12.62641,125.77527,16.26542,188.01711,17.24255,39.41757.61875,78.33318-3.3276,115.91521-12.57069v-73.3866C1063.56116-898.32967,919.48145-926.60672,801.86812-972.64612Z"/><path class="cls-3" d="M1071.05615-852.87593c-62.24184-.97713-127.17951-4.61614-188.01711-17.24255-38.66619-8.02484-76.76546-20.9015-110.04153-41.09753-35.87774-21.77511-87.66564-59.47042-129.844-25.51033-35.23849,28.37435-24.94228,79.76846-3.61473,112.68793,27.44278,42.35841,76.86053,53.77022,127.61087,53.39067,88.71246-.6633,158.19434.86736,221.93462,66.116,177.46353,181.66315,182.3369,492.94514,106.24186,712.45608h91.64522V-527.01656c-8.26911-15.11859-16.48637-30.2617-25.56616-45.05049-20.69063-33.70017-49.60848-62.24143-76.18709-91.91076-22.47466-25.08811-58.4995-54.06214-63.57775-88.99918-7.245-49.84377,48.63619-43.6888,85.62192-41.02231,28.62022,2.0632,53.73407,2.49428,79.70908.24267v-71.69C1149.38933-856.20353,1110.47372-852.25718,1071.05615-852.87593Z"/><path class="cls-3" d="M910.49158-409.22568c-24.2856-62.97995-67.15624-121.3412-126.83191-159.88516a274.53427,274.53427,0,0,0-99.2419-39.18736c-39.233-7.23862-79.37434-7.87308-118.97708-12.58314-55.20741-6.56784-103.6919-23.60564-134.86017-67.95058-43.464-61.82993-40.2554-129.31012-34.07556-199.67046,9.12506-103.89354,43.64736-261.20627-36.80339-344.27777-22.05535-22.78123-53.34225-38.74642-86.36359-39.72309-141.79761-4.20364-89.41533,278.59291-96.34825,346.9632-5.34913,52.7611-22.2135,104.55456-69.47932,138.04591-74.185,52.55563-172.3726,53.02587-235.307,124.31705-62.24075,70.47909-25.07072,170.55151,32.14494,231.674,56.8368,60.71173,135.20248,104.11641,213.81006,136.36176C179.66886-269.911,219.97908-229.84723,250.23-174.57588a335.03785,335.03785,0,0,1,40.0089,138.45217c.93131,13.94525-.81611,28.88581-2.97958,44.04808H320.8719q.69975-2.14209,1.39452-4.28775C342.80694-59.96847,341.06-130.82154,311.30408-191.687c-58.915-120.51-191.71651-130.317-293.07217-205.58928-44.95119-33.39108-79.91931-81.049-83.48734-135.57262-5.69888-87.08974,67.25021-102.2585,141.59355-121.18794,35.67245-9.08293,73.72289-20.45353,95.56824-49.97047,29.19179-39.44317,32.40967-93.58263,40.96079-139.2978A806.18655,806.18655,0,0,0,225.61867-1031.151c-2.95312-59.88033-9.02625-115.07368,15.09363-172.59213,15.59249-37.18317,54.09468-40.70565,76.14766-5.30107,69.82492,112.09912,69.57476,248.55864,49.2743,372.60535-10.91017,66.70266-22.83458,133.24365-32.92262,200.04339-7.51836,49.699-26.83858,125.03329,35.47524,151.97976C422.119-461.307,480.23679-487.8,527.75889-510.29363c27.8703-13.198,56.50937-26.46113,87.70147-31.20574a189.31081,189.31081,0,0,1,78.18969,4.90687c53.03,14.49349,98.97877,49.03514,128.92911,91.67388C856.551-396.51524,870.906-338.37932,875.31205-281.4412a622.81053,622.81053,0,0,1-11.19018,174.29486c-8.35934,39.94482-21.874,79.18813-42.42408,115.07071h74.89436C914.81739-40.78476,923.504-94.801,929.5239-141.94718,940.43667-227.41452,942.08431-327.24984,910.49158-409.22568Z"/><path class="cls-4" d="M875.31205-281.4412c-4.40605-56.93812-18.761-115.074-52.73289-163.47742-29.95034-42.63874-75.8991-77.18039-128.92911-91.67388a189.31081,189.31081,0,0,0-78.18969-4.90687c-31.1921,4.74461-59.83117,18.00772-87.70147,31.20574C480.23679-487.8,422.119-461.307,368.68688-484.41575c-62.31382-26.94647-42.9936-102.28072-35.47524-151.97976,10.088-66.79974,22.01245-133.34073,32.92262-200.04339,20.30046-124.04671,20.55062-260.50623-49.2743-372.60535-22.053-35.40458-60.55517-31.8821-76.14766,5.30107-24.11988,57.51845-18.04675,112.7118-15.09363,172.59213a806.18655,806.18655,0,0,1-12.75152,187.84591c-8.55112,45.71517-11.769,99.85463-40.96079,139.2978C150.061-674.4904,112.01057-663.1198,76.33812-654.03687,1.99478-635.10743-70.95431-619.93867-65.25543-532.84893c3.568,54.52366,38.53615,102.18154,83.48734,135.57262C119.58757-322.004,252.3891-312.197,311.30408-191.687,341.06-130.82154,342.80694-59.96847,322.26642,3.63662q-.69291,2.14573-1.39452,4.28775h49.07832a213.26283,213.26283,0,0,0,14.98706-18.387c31.63883-45.3986,47.66715-97.07216,41.22062-150.94909-5.29774-44.43608-20.15919-90.03765-55.4782-121.97324-49.53843-44.79263-111.01368-74.8578-172.07227-103.82827-55.557-26.35994-132.08191-53.10272-171.32755-100.05171-40.17124-48.05614-5.33727-83.55456,47.74072-95.15647,60.69223-13.266,121.56018-55.47505,143.98034-110.21848,24.03435-58.68485,27.75693-122.24489,35.49637-184.00864,6.75638-53.91846.73468-112.74932,17.69284-166.50589,8.63091-27.35966,36.23571-79.00593,52.823-29.83984,14.73037,43.66273,3.35877,89.53267-2.433,133.58632-10.474,79.66723-13.57173,159.88927-24.97688,239.476-9.03305,63.03344-42.08314,135.57062-15.42859,198.12382,6.382,14.97953,16.50549,28.55017,28.60443,40.03131,26.73356,25.39226,62.38383,40.03131,99.748,46.03972,43.5882,6.9955,87.56148,2.12094,130.80012-4.45333,73.93362-11.21907,149.629-19.6047,206.75253,35.58016,100.8136,97.392,14.343,246.32506-64.48331,328.41007-18.75783,19.53341-38.403,41.9842-59.43555,64.12458H821.69779c20.55006-35.88258,34.06474-75.12589,42.42408-115.07071A622.81053,622.81053,0,0,0,875.31205-281.4412Z"/><path class="cls-3" d="M748.07973-384.61028c-57.12351-55.18486-132.81891-46.79923-206.75253-35.58016-43.23864,6.57427-87.21192,11.44883-130.80012,4.45333-37.36414-6.00841-73.01441-20.64746-99.748-46.03972-12.09894-11.48114-22.22244-25.05178-28.60443-40.03131-26.65455-62.5532,6.39554-135.09038,15.42859-198.12382,11.40515-79.58671,14.50286-159.80875,24.97688-239.476,5.79181-44.05365,17.16341-89.92359,2.433-133.58632-16.58733-49.16609-44.19213,2.48018-52.823,29.83984C255.232-989.39785,261.25369-930.567,254.49731-876.64853c-7.73944,61.76375-11.462,125.32379-35.49637,184.00864-22.42016,54.74343-83.28811,96.9525-143.98034,110.21848-53.078,11.60191-87.912,47.10033-47.74072,95.15647,39.24564,46.949,115.77057,73.69177,171.32755,100.05171C259.666-358.24276,321.14127-328.17759,370.6797-283.385c35.319,31.93559,50.18046,77.53716,55.4782,121.97324,6.44653,53.87693-9.58179,105.55049-41.22062,150.94909a213.26283,213.26283,0,0,1-14.98706,18.387H406.6097c8.02137-30.02948,36.56556-53.10628,51.502-79.8413,34.89491-62.45959,41.20259-124.08792,36.384-193.14789-6.3521-91.03559,108.11848-96.21056,164.04894-41.799,40.57329,39.47348,28.2393,99.63162,2.68953,142.81235-9.47631,16.01562-20.6486,31.09209-31.94375,46.05533-30.556,40.47859-61.46613,80.72874-92.33887,121.00761q-1.91172,2.49412-3.6826,4.91289h90.892C645.19345-14.216,664.83859-36.6668,683.59642-56.20021,762.42271-138.28522,848.89333-287.21831,748.07973-384.61028Z"/><path class="cls-4" d="M629.29033-117.99613c11.29515-14.96324,22.46744-30.03971,31.94375-46.05533,25.54977-43.18073,37.88376-103.33887-2.68953-142.81235-55.93046-54.41157-170.401-49.2366-164.04894,41.799,4.81864,69.06-1.489,130.6883-36.384,193.14789-14.9364,26.735-43.48059,49.81182-51.502,79.8413H533.26886q1.7772-2.41854,3.6826-4.91289C567.8242-37.26739,598.73433-77.51754,629.29033-117.99613Z"/><path class="cls-4" d="M116.54268,7.92437H36.36509A143.73691,143.73691,0,0,0,55.40654-22.363c22.08109-47.93689,5.235-95.76861-22.61519-137.06021C-6.38683-217.50585-60.51716-263.58505-113.53376-309.395c-96.81383-83.651-224.1661-209.61564-177.845-353.18859,17.49426-54.22618,59.39736-97.32968,105.37154-130.98539,70.059-51.2868,152.5735-78.64409,185.508-165.257,26.28929-69.1325,23.36361-148.3471,10.34692-220.03554-11.29616-62.19962-51.12268-113.63252-68.384-173.75547-20.12319-70.09552,26.344-126.95053,14.98843-194.74575-7.45766-44.54114-18.57586-85.075-30.77115-128.4978-13.90227-49.48407-20.62976-101.21364-15.518-152.57351,8.46642-85.07948,42.5831-169.83495,119.99027-206.15144,6.52672-3.06256,14.80148-5.59559,20.4518-1.11825a10.77687,10.77687,0,0,1,1.95344,2.00364c4.7102,6.33041,1.0999,16.68185-3.1219,24.13494-47.06956,83.08957-99.68,154.6776-99.77585,254.1294-.11866,126.22945,82.50537,231.09889,116.9095,349.22709,19.10083,65.58163,14.08949,124.60007-1.13185,190.15426-13.68775,58.96362-35.96975,124.59093-18.08294,185.06076C70.6506-952.24,72.49907-882.5873-7.65565-836.2525c-73.55968,42.52385-174.59531,57.631-205.403,148.18744-33.90674,99.67088-14.29939,216.91821,53.06685,298.33267C-93.041-308.81538,10.231-267.25016,86.91712-195.49787c35.12535,32.86155,47.97326,72.78857,44.03448,120.967C129.29022-54.184,125.36514-21.8016,116.54268,7.92437Z"/></g><rect class="cls-5" width="1080" height="1080"/><g class="cls-6"><path class="cls-3" d="M326.41977,1485.71573c26.97888,139.08758,63.41518,276.25171,109.64892,409.30732,30.31188,87.23424,68.77391,178.2225,140.55783,234.61635,64.36022,50.56175,150.83066,69.41488,221.73247,22.73477,115.54118-76.07076,83.236-212.22449,89.374-333.67112,1.78151-35.2479,3.95115-70.67083,7.64342-105.76163,4.33133-41.16352,14.14-78.58831,44.80111-106.33424,35.16921-31.82555,81.53267-33.39341,125.22028-30.44518,60.91149,4.11062,117.0519,15.59053,174.6143-13.87364,111.99633-57.3268,145.15528-197.31246,155.07619-319.62171,2.8988-35.73909,5.05228-71.66872,4.27506-107.5634a526.83112,526.83112,0,0,0-3.80542-53.95625q-.28446-2.26368-.54463-4.47041h-80.70689c5.30888,10.34039,10.06121,21.02994,14.37894,31.63171,16.63425,40.84281,26.17875,87.67856,27.6556,135.02946,3.506,112.40171-38.449,227.70652-138.94846,272.64342-108.18622,48.36632-219.68365,5.33566-323.3939-32.90556-37.2372-13.73056-104.879-28.61278-125.653,20.45545-7.0541,16.6615-4.99893,36.00075-2.08507,54.04832,9.20744,57.02849,25.3641,112.57538,40.56773,167.98566,15.16095,55.25187,38.04154,111.41893,43.95055,168.91866,4.052,39.428-2.56941,81.05668-22.88223,114.64183-22.0559,36.45442-58.1038,61.282-98.15121,66.87741-147.88371,20.66216-219.46813-208.16-256.05039-323.91785-36.93344-116.86924-59.65145-238.25462-77.98258-359.937-8.54291-56.70727-15.93165-112.8244-19.98151-169.91834q-3.38268-47.68938-4.804-95.50736c-.14906-5.09619,1.00141-28.44268,1.42391-50.04578H275.393A3097.03746,3097.03746,0,0,0,326.41977,1485.71573Z"/><path class="cls-4" d="M370.92687,1126.72237q1.39764,47.80561,4.804,95.50736c4.04986,57.09394,11.4386,113.21107,19.98151,169.91834,18.33113,121.68241,41.04914,243.06779,77.98258,359.937,36.58226,115.75789,108.16668,344.58,256.05039,323.91785,40.04741-5.59545,76.09531-30.423,98.15121-66.87741,20.31282-33.58515,26.93424-75.2138,22.88223-114.64183-5.909-57.49973-28.7896-113.66679-43.95055-168.91866-15.20363-55.41028-31.36029-110.95717-40.56773-167.98566-2.91386-18.04757-4.969-37.38682,2.08507-54.04832,20.77407-49.06823,88.41584-34.186,125.653-20.45545,103.71025,38.24122,215.20768,81.27188,323.3939,32.90556,100.49944-44.9369,142.45447-160.24171,138.94846-272.64342-1.47685-47.3509-11.02135-94.18665-27.6556-135.02946-4.31773-10.60177-9.07006-21.29132-14.37894-31.63171H1253.483a435.435,435.435,0,0,1,25.4625,66.76624c12.79456,43.89824,21.96343,107.43081,16.1588,165.80115-13.38487,134.55533-133.18642,175.73419-244.05291,149.45042-40.73376-9.65705-73.23416-37.75906-109.06362-59.22081-49.525-29.66527-119.28785-67.41991-176.9597-46.33862-37.99663,13.8893-63.83147,54.56369-71.37607,97.103-11.21113,63.21427,11.49515,125.0289,33.25913,182.46835q17.05221,45.00423,34.13686,89.99155c10.65545,28.20114,21.03532,56.73479,27.30261,86.52721,9.3545,44.46793,10.39493,102.20459-23.1893,137.42921a62.2103,62.2103,0,0,1-59.07983,18.2525c-61.80149-13.308-93.37045-88.97869-114.11777-145.53689-26.28993-71.66822-48.05085-146.70676-66.262-221.1427-41.56635-169.89762-63.34544-346.5602-77.49212-521.55058h-75.8588C371.92828,1098.27969,370.77781,1121.62618,370.92687,1126.72237Z"/><path class="cls-3" d="M591.96374,1819.36987c20.74732,56.5582,52.31628,132.22887,114.11777,145.53689a62.2103,62.2103,0,0,0,59.07983-18.2525c33.58423-35.22462,32.5438-92.96128,23.1893-137.42921-6.26729-29.79242-16.64716-58.32607-27.30261-86.52721q-17.0036-45.03121-34.13686-89.99155c-21.764-57.43945-44.47026-119.25408-33.25913-182.46835,7.5446-42.53928,33.37944-83.21367,71.37607-97.103,57.67185-21.08129,127.43469,16.67335,176.9597,46.33862,35.82946,21.46175,68.32986,49.56376,109.06362,59.22081,110.86649,26.28377,230.668-14.89509,244.05291-149.45042,5.80463-58.37034-3.36424-121.90291-16.1588-165.80115a435.435,435.435,0,0,0-25.4625-66.76624H1193.0966q10.50406,13.98506,20.05029,28.69928c26.66081,41.12171,45.904,96.37568,45.23142,148.4319-.6057,46.87294-17.35852,91.15329-59.38292,120.1894-86.65793,59.86567-194.05725-42.90026-253.80266-103.33444-59.77531-60.46425-153.01572-178.04121-246.79941-118.52944-133.48263,84.70518-67.14346,340.96141-18.57536,459.41312,18.3441,44.73891,95.49755,174.61526,48.87467,222.35123-7.838,8.008-19.74025,8.72511-29.79712,6.31188-49.04642-11.75841-64.9861-87.96842-80.51473-130.60437-72.46379-198.9595-101.96735-424.47357-50.26107-632.92856H448.20958c14.14668,174.99038,35.92577,351.653,77.49212,521.55058C543.91289,1672.66311,565.67381,1747.70165,591.96374,1819.36987Z"/><path class="cls-4" d="M1258.37809,1253.8095c-.607,46.87336-17.35729,91.14974-59.38362,120.18657-86.65856,59.86737-194.05656-42.898-253.80065-103.33133-59.77617-60.46526-153.01618-178.04117-246.79945-118.5298-133.48181,84.70522-67.14254,340.96145-18.576,459.41366,18.34318,44.73736,95.49938,174.61352,48.87248,222.3495-7.83652,8.00544-19.73975,8.72657-29.79448,6.31211-49.04587-11.75714-64.98824-87.96856-80.51537-130.60638-72.46429-198.95846-101.96667-424.47088-50.26-632.92724H1193.0977q10.50207,13.98671,20.05006,28.69909C1239.80679,1146.49827,1259.049,1201.75132,1258.37809,1253.8095Z"/><path class="cls-3" d="M228.47509,1076.67659h-30.702q-5.09957,14.8674-9.21233,30.11972c-22.54179,84.29167-20.77689,174.02114-8.04829,259.99126,13.26274,89.572,38.59023,176.32922,61.4234,263.436,11.627,44.3379,23.07524,88.9732,31.22076,134.23776,6.94606,38.59909,8.66061,85.27162-8.60088,120.58885-7.387,15.1139-18.24916,28.1482-33.66387,37.5802-14.05393,8.58344-29.87211,12.55252-45.77122,14.6683-79.89219,10.63195-133.03,21.82172-185.332,92.773q-2.30866,3.12807-4.54479,6.32v120.68041c32.93412-39.7,78.276-68.25327,125.46464-83.20263,48.04715-15.22873,98.57206-18.568,148.38452-15.99791,27.89375,1.4392,56.51064,9.64518,84.44174,5.51357,38.07407-5.632,59.14326-32.98866,59.61806-73.60226.85618-73.233-54.06091-177.29411-72.01308-221.364-20.17754-49.53259-40.59822-98.99562-56.43548-150.38214C268.1703,1564.43,255.89518,1509.407,245.693,1454.01652c-10.105-54.90053-18.37983-110.20315-26.41238-165.48865-7.64346-52.60984-14.25069-107.45815-3.69232-160.173C219.26185,1110.01368,225.52011,1094.72877,228.47509,1076.67659Z"/><path class="cls-4" d="M185.12066,1937.29871c15.89911-2.11578,31.71729-6.08486,45.77122-14.6683,15.41471-9.432,26.27692-22.4663,33.66387-37.5802,17.26149-35.31723,15.54694-81.98976,8.60088-120.58885-8.14552-45.26456-19.5938-89.89986-31.22076-134.23776-22.83317-87.10681-48.16066-173.86406-61.4234-263.436-12.7286-85.97012-14.4935-175.69959,8.04829-259.99126q4.08053-15.23482,9.21233-30.11972h-50.3769c-9.20375,11.72345-14.22385,26.43557-18.00827,41.20538-29.07216,113.46292-1.8857,229.61,15.35967,342.46811,6.51166,42.61386,12.7878,89.73838,12.82235,136.164.03652,49.31579-6.95879,100.38981-30.42231,143.50659-24.43329,44.89879-66.14875,68.61415-99.48155,104.35264C14.71826,1858.25572,4.2383,1874.077-4.75618,1890.9102v145.48148q2.23744-3.19,4.54479-6.32C52.09061,1959.12043,105.22847,1947.93066,185.12066,1937.29871Z"/><path class="cls-3" d="M127.14763,1740.02067c23.46352-43.11678,30.45883-94.1908,30.42231-143.50659-.03455-46.42562-6.31069-93.55014-12.82235-136.164-17.24537-112.85808-44.43183-229.00519-15.35967-342.46811,3.78442-14.76981,8.80452-29.48193,18.00827-41.20538H84.52213c-4.09687,12.446-8.0802,24.92453-11.86087,37.48039C39.04914,1225.78549,29.757,1337.01751,57.728,1452.53916c12.82477,52.96721,21.84376,112.29355,10.59407,166.51256-9.89325,47.68156-39.22625,77.75947-73.07821,87.50219V1890.9102c8.99448-16.83319,19.47444-32.65448,32.42226-46.53689C60.99888,1808.63482,102.71434,1784.91946,127.14763,1740.02067Z"/><path class="cls-4" d="M68.322,1619.05172c11.24969-54.219,2.2307-113.54535-10.59407-166.51256C29.757,1337.01751,39.04914,1225.78549,72.66126,1114.157c3.78067-12.55586,7.764-25.03435,11.86087-37.48039H-4.75618v629.87732C29.09578,1696.81119,58.42878,1666.73328,68.322,1619.05172Z"/><path class="cls-3" d="M1487.63636,1245.07924c-1.57069,77.3859-17.975,154.946-49.52068,224.60352-27.80525,61.4046-69.13167,119.26029-126.00493,151.69368-32.06407,18.28851-67.77171,26.244-103.91618,25.89436a300.76867,300.76867,0,0,1-58.9786-6.80161c-39.575-8.368-82.27278-28.37641-122.83444-16.11622-42.56465,12.86594-55.7609,58.21758-60.98251,100.7392-9.58676,77.98088,8.4535,158.129-8.696,235.25194-7.41676,33.35379-29.13806,62.34827-33.68012,96.09454-6.06661,45.07313,28.75746,68.20064,66.65834,60.843,17.7462-3.44508,35.03854-10.99716,51.87771-17.79741,48.00868-19.4167,88.34473-48.08252,107.30156-100.729,6.39614-17.76332,10.83309-36.22622,16.16081-54.35648a465.73434,465.73434,0,0,1,16.08076-46.24634c25.91982-62.86553,70.2722-117.52424,138.3109-120.6936,85.26606-3.97187,169.72373,24.77359,255.13611,25.03717,75.47779.23277,183.41663-7.045,238.234-71.76525,46.56031-54.97159,43.30436-139.08161,44.20381-208.52391,1.08822-84.00842,60.17444-141.74166,121.1213-183.74215,78.7843-54.293,170.09671-100.59684,265.20681-102.57227,88.253-1.833,178.9784,20.30086,262.18642,57.94984v-54.23247c-7.888-3.26735-15.57191-6.71375-22.91081-9.74176-145.77764-60.18078-311.83018-73.7836-457.88286-7.23831-64.40226,29.33825-123.37971,73.32773-169.28931,130.44755-26.131,32.51181-43.42673,70.62094-53.74923,112.0291-9.8806,39.63478-8.95906,83.76976-22.429,121.96575-23.31906,66.16067-79.15559,111.56731-143.67281,120.64166-79.81579,11.22588-160.66932-9.58512-241.17328-.48991-67.73369,7.65245-137.98015,30.89616-195.06222,73.92522-27.35542,20.62094-56.06337,50.57612-74.38656,80.89063-18.41027,30.45851-19.62565,71.42747-44.68418,97.5367-32.65453,33.99679-31.64568-57.73843-31.96457-68.87663-1.63642-57.158-21.08156-171.65265,42.36228-199.85822,29.99115-13.35827,64.11153-5.50778,95.204-2.25554,74.86446,7.8504,154.52224-.59461,217.77576-48.16933,57.26148-43.06361,94.60467-110.43062,121.29222-178.63683,46.03941-117.61333,74.31645-261.693,33.8129-385.10324h-91.75229A593.95665,593.95665,0,0,1,1487.63636,1245.07924Z"/><path class="cls-4" d="M1524.931,1461.77983c-26.68755,68.20621-64.03074,135.57322-121.29222,178.63683-63.25352,47.57472-142.9113,56.01973-217.77576,48.16933-31.09251-3.25224-65.21289-11.10273-95.204,2.25554-63.44384,28.20557-43.9987,142.70025-42.36228,199.85822.31889,11.1382-.69,102.87342,31.96457,68.87663,25.05853-26.10923,26.27391-67.07819,44.68418-97.5367,18.32319-30.31451,47.03114-60.26969,74.38656-80.89063,57.08207-43.02906,127.32853-66.27277,195.06222-73.92522,80.504-9.09521,161.35749,11.71579,241.17328.48991,64.51722-9.07435,120.35375-54.481,143.67281-120.64166,13.46991-38.196,12.54837-82.331,22.429-121.96575,10.3225-41.40816,27.61818-79.51729,53.74923-112.0291,45.9096-57.11982,104.88705-101.1093,169.28931-130.44755,146.05268-66.54529,312.10522-52.94247,457.88286,7.23831,7.3389,3.028,15.0228,6.47441,22.91081,9.74176v-71.28794c-219.51095-76.095-530.79294-71.22167-712.45608,106.24186-65.24868,63.74028-66.77934,133.22216-66.116,221.93462.37955,50.75034-11.03226,100.16809-53.39067,127.61087-32.91947,21.32756-84.31357,31.62376-112.68793-3.61473-33.96009-42.17835,3.73522-93.96625,25.51034-129.844,20.196-33.27607,33.07269-71.37534,41.09752-110.04153,12.62642-60.8376,16.26542-125.77527,17.24255-188.01711.61876-39.41757-3.3276-78.33318-12.57068-115.91521h-73.38661C1599.24743,1200.08679,1570.97039,1344.1665,1524.931,1461.77983Z"/><path class="cls-3" d="M1125.39828,1242.6457c-91.03559,14.91093-171.78373-80.80748-224.42611-165.96911h210.93918C1169.32779,1146.51652,1214.0196,1228.13185,1125.39828,1242.6457Z"/></g><path class="cls-7" d="M647.21412,406.07538h-17.1135c16.61514,70.81059-13.41654,161.2053-90.10155,161.2053-76.68339,0-106.71507-90.39471-90.09993-161.2053h-17.1135c-18.82843,72.19655,16.13307,163.3909,104.88288,164.9674-.00489,21.10849-2.11232,37.9207-5.565,51.31443A111.90631,111.90631,0,0,0,509.27034,605.716,76.86423,76.86423,0,0,0,491.31,598.65108a54.52428,54.52428,0,0,0-14.48328-1.65305,47.19789,47.19789,0,0,0-7.54538.87783c-6.40209,1.14329-12.2,2.5325-17.60045,5.32557-8.58118,4.43635-15.00119,10.53878-19.16719,18.304a34.22765,34.22765,0,0,0-3.824,23.37227c2.57485,13.01915,10.66418,22.97488,24.31361,29.434a51.72344,51.72344,0,0,0,31.02025,4.37934c2.0032-.32572,3.94451-.7459,5.83859-1.24426a50.16145,50.16145,0,0,0,21.23227-9.82055q1.45353-.96741,2.87613-1.98366c3.12369-2.23446,13.739-14.72594,17.01416-25.32009.22963-.53907.46089-1.07652.68564-1.62862,1.969,2.14163,3.36309,3.697,3.36309,3.697s2.64162,3.48687,2.73934,3.39241c2.74259,2.88916,4.05362,4.41192,6.88579,7.205,7.40531,7.306,15.50279,14.00935,25.14257,19.216a129.37913,129.37913,0,0,0,11.9915,5.48843,49.32982,49.32982,0,0,0,7.63984,2.39081,55.1188,55.1188,0,0,0,13.76995,1.39084c16.85292-.36481,30.09193-6.42163,39.963-17.88546a37.58228,37.58228,0,0,0,7.54212-14.02076,28.531,28.531,0,0,0,.671-4.99171c.18729-1.66444.33061-3.33052.49184-4.99659.42344-4.41518-.76545-8.64307-2.40058-12.75532a40.18444,40.18444,0,0,0-15.68683-18.874,52.61737,52.61737,0,0,0-30.27109-8.7245,57.58763,57.58763,0,0,0-25.23377,6.34835,88.34776,88.34776,0,0,0-15.0875,9.48017,8.7,8.7,0,0,1,1.74262,2.75073c1.44458-.96088,2.90708-1.90385,4.4168-2.8061,6.93139-4.13832,14.23411-7.63658,22.60194-9.23588a46.78428,46.78428,0,0,1,20.21275.14169,45.98671,45.98671,0,0,1,16.77963,7.69358c4.19206,3.11717,7.10728,7.01933,9.8401,11.04039a12.00128,12.00128,0,0,1,1.12049,2.66115,34.43531,34.43531,0,0,1,1.77845,5.10246,45.9617,45.9617,0,0,1,.44461,5.82556,27.81207,27.81207,0,0,1-4.05688,15.01258c-5.88094,9.61209-15.07447,15.57771-27.72882,17.79589a43.41291,43.41291,0,0,1-19.81212-1.34361,68.47624,68.47624,0,0,1-19.95543-9.81567,118.66812,118.66812,0,0,1-25.097-23.31527c-.79151-.98042-5.71156-6.61381-7.68055-8.64143-.60748-.62539-1.23124-1.23775-1.84848-1.85337,3.951-14.22107,6.376-32.23194,6.38091-55.02442C631.07942,569.46791,666.04417,478.27193,647.21412,406.07538ZM499.47584,669.32976a55.77411,55.77411,0,0,1-15.82689,4.23766c-.96577.1026-1.92665.16937-2.88428.21823-.37132.00977-.7345.01629-1.08629.01629v.02117a43.98131,43.98131,0,0,1-20.73391-4.21812c-12.23253-5.9249-19.34307-14.77806-20.75345-26.74839a26.71124,26.71124,0,0,1,3.80445-17.53368c7.24408-11.77326,18.95057-17.80728,34.65206-18.39847a49.90467,49.90467,0,0,1,5.07314.22312,57.86493,57.86493,0,0,1,18.62648,6.00308,95.88283,95.88283,0,0,1,21.2111,15.08587c1.8615,1.73447,4.2914,4.236,6.57472,6.65615C520.599,654.511,509.69052,664.44228,499.47584,669.32976ZM838.89408,384.40338a332.57828,332.57828,0,0,0-78.1296-98.54593C693.68993,228.17676,619.45761,203.60094,547.13729,202.5c-63.44437.30944-118.08281,13.39537-170.20992,42.79677-49.98874,28.19623-93.83434,67.6918-127.9457,124.7357-59.3598,99.269-62.05353,223.46567-6.9998,327.31926a326.70009,326.70009,0,0,0,66.53223,87.271c60.762,56.3892,128.65741,85.11147,202.37508,91.525,65.47851,5.69853,128.791-6.44443,189.50088-39.634,54.95276-30.04308,102.4546-73.75351,137.43728-138.68317C890.43326,600.19338,890.65638,482.81088,838.89408,384.40338Zm23.78324,225.49981c-13.23669,40.92386-27.5215,90.65691-73.2358,104.47083-22.85634,8.28966-51.42757-5.52426-74.28392,11.05179-60.00071,41.445-88.57034,118.80754-165.82343,132.75338a153.57251,153.57251,0,0,1-29.72386.20683A344.61851,344.61851,0,0,1,457.35579,847.717c-48.1369-12.72438-94.76268-36.779-138.07528-75.13946a325.095,325.095,0,0,1-79.72713-106.46263c-26.88651-57.52923-32.57085-109.298-27.60348-157.9953a293.71784,293.71784,0,0,1,52.23136-140.8932c13.16434-18.87566,28.76253-35.73347,43.25794-53.50655,44.10673-40.02,95.51019-71.00766,160.54741-85.32482,48.46-10.66907,100.96305-12.22114,161.28367,5.36466,63.30426,18.45547,120.68144,53.67267,169.14306,112.21,31.41341,37.94513,50.58039,77.21106,61.48932,117.03072,12.46505,45.50353,13.50032,86.4958,7.316,124.47024Q865.36437,598.862,862.67732,609.90319Z"/></svg>