<svg id="Layer_1" data-name="Layer 1" xmlns="http://www.w3.org/2000/svg" xmlns:xlink="http://www.w3.org/1999/xlink" viewBox="0 0 1080 1080"><defs><style>.cls-1{fill:none;}.cls-2{clip-path:url(#clip-path);}.cls-3{fill:#fafafa;}.cls-4{fill:#feaead;}.cls-5{clip-path:url(#clip-path-2);}.cls-6{fill:url(#linear-gradient);}.cls-7{fill:#2f2f35;}</style><clipPath id="clip-path"><rect class="cls-1" x="-1397.10638" width="1080" height="1080"/></clipPath><clipPath id="clip-path-2"><rect class="cls-1" width="1080" height="1080"/></clipPath><linearGradient id="linear-gradient" x1="4679.60173" y1="1705.60157" x2="5831.60091" y2="1705.60157" gradientTransform="translate(2257.76088 -4715.60135) rotate(90)" gradientUnits="userSpaceOnUse"><stop offset="0.03073" stop-color="#fed0af"/><stop offset="0.38547" stop-color="#fea094"/><stop offset="1" stop-color="#fe93c7"/></linearGradient></defs><title>IGRIK_Bar&amp;amp;Yoga_logo_ALLLL</title><g class="cls-2"><path class="cls-3" d="M231.84956,1335.6736c-13.8783-35.72038-28.89015-71.03847-46.97856-104.52115-34.54179-63.93982-81.30958-120.81619-144.61179-151.93832-56.6787-27.86578-123.91992-32.97744-179.96047-.28092-53.19943,31.036-94.62315,89.66083-155.59352,104.10248-71.47434,16.92306-138.50128-45.93109-204.71188-64.034-68.536-18.73857-139.70784-10.32026-209.51245-6.28733-70.50789,4.07347-144.82188,4.89514-209.20884-30.98265-64.646-35.99983-109.14688-100.21952-160.757-153.40709-52.08771-53.651-118.90086-101.90628-194.20936-89.44007-57.05611,9.44478-106.28965,46.32922-144.05931,91.44367v172.41933c71.159-84.37223,165.92246-164.56186,276.94084-115.57815,125.5745,55.40617,171.77154,224.75541,327.15121,220.00523,67.25291-2.063,131.81828-27.69485,199.104-29.42579,30.995-.78667,61.37471,4.49323,89.95732,17.67646,28.54962,13.16566,54.47611,31.80419,81.98954,47.155,28.97115,16.173,60.30611,28.00995,93.342,22.92212,35.38341-5.45529,66.68641-26.27888,95.98089-47.17249,53.32682-38.02839,107.43054-83.68,171.57447-97.37043,62.881-13.42778,121.95644,13.81285,165.32379,62.89136,23.627,26.75063,41.78041,58.51985,57.11594,91.40747,13.652,29.277,28.11885,60.55385,37.21082,91.87543q1.18336,4.077,2.05408,7.91566h68.33665C242.87137,1361.03131,236.454,1347.52475,231.84956,1335.6736Z"/><path class="cls-4" d="M179.99334,1375.04945H-401.5466a248.24508,248.24508,0,0,0-17.84113-24.06652,257.98177,257.98177,0,0,0-99.98119-72.52358c-44.97012-18.36139-94.16665-23.48241-141.84325-18.60338a387.3714,387.3714,0,0,0-71.78885,14.65082c-24.62786,7.36181-48.88617,16.24365-73.89285,22.13591-106.64031,25.13-149.44249-57.61726-206.71288-136.01033-24.13042-32.97565-52.8432-63.94315-89.4382-80.09547-63.66013-28.10124-150.65653-1.49707-210.26374,27.69494-36.15227,17.70416-72.10829,46.28924-104.445,79.72131v-85.20736c71.159-84.372,165.92347-164.55871,276.94076-115.57683,125.57672,55.40828,171.77008,224.75473,327.15051,220.00354,67.252-2.063,131.82043-27.69494,199.10451-29.42473,30.99479-.785,61.37347,4.49569,89.95842,17.67673,28.54852,13.16749,54.4772,31.80277,81.98962,47.15638,28.96838,16.17057,60.30547,28.00986,93.34056,22.92093,35.3855-5.45411,66.686-26.28016,95.983-47.17007,53.327-38.028,107.42994-83.68282,171.57387-97.37057,62.87968-13.42755,121.95745,13.811,165.321,62.88885,23.62837,26.75013,41.78438,58.52091,57.11973,91.4098,13.65132,29.27421,28.11493,60.552,37.20658,91.87543Q179.11932,1371.20871,179.99334,1375.04945Z"/><path class="cls-3" d="M1092.504,812.82015v196.75861c-12.83431-11.59748-23.90226-22.64248-30.55677-27.42575-37.275-26.805-91.91633-45.96506-130.90756-14.52746-77.777,62.70163-144.81453,142.39551-219.33267,209.8256-32.615,29.516-65.23014,60.84855-102.49154,83.47286-60.7209,36.86884-134.10248,45.96962-202.1259,32.90263-77.74044-14.93827-114.48149-56.0609-166.71306-115.38969C188.259,1119.24051,145.612,1037.3057,76.24211,1000.81111c-64.10285-33.72421-143.97469-37.42566-209.03135-4.58236-32.45083,16.38062-57.03314,41.06782-81.39173,68.81758-21.2779,24.23535-45.54976,51.474-77.90922,55.79161a63.85672,63.85672,0,0,1-48.53017-13.79272c-14.22171-11.45134-22.962-28.44807-34.86515-42.29561-27.95067-32.55571-71.05864-31.31427-108.53442-24.249-43.286,8.16523-85.72762,21.09986-128.968,29.70324-79.33332,15.78715-163.363,22.06736-239.862-10.6481-52.866-22.606-98.06435-63.58716-128.86293-115.16611-15.97893-26.75473-17.40293-60.39214,12.07209-76.82292,31.77065-17.6859,74.22139,12.42806,99.78038,30.794,35.71412,25.66852,71.07224,48.14213,112.37739,62.70619,54.249,19.12821,109.89,19.863,165.0472,4.58236,54.31285-15.057,105.01554-41.87566,155.29823-68.05085,91.20456-47.48494,198.79867-99.607,301.3359-63.71025,23.30436,8.16514,44.13033,21.506,65.08418,34.93366,22.072,14.16233,45.50412,29.128,71.62445,31.76613,28.03273,2.83426,53.58715-10.648,79.70748-19.2331a214.04252,214.04252,0,0,1,66.89613-10.97671c42.91628.05025,86.41224,15.43584,114.45862,51.98054C278.359,943.705,288.7377,969.21386,299.55472,994.111c29.56618,68.05085,78.11461,138.02771,146.412,166.10152,49.37434,20.30113,103.26729,14.68728,151.42777-6.88724,103.43179-46.31653,164.48112-152.02581,232.57766-241.75607,30.58867-40.301,65.39-79.83541,109.77589-102.14466,42.008-21.10442,90.12277-23.35909,133.60057-5.80555A166.76459,166.76459,0,0,1,1092.504,812.82015Z"/><path class="cls-3" d="M1092.504,1262.717c-10.67238,8.47481-24.70189,12.33636-40.875,9.22848-23.47483-4.51116-42.21395-20.21095-66.35761-22.61747-13.32746-1.32834-26.80092-.2445-39.9827,2.046-27.74031,4.79063-54.62193,14.14448-82.44694,18.42867-13.01172,1.99479-42.51126,3.185-35.49035-21.151,4.22445-14.60906,31.20639-18.76053,42.36037-24.90326a166.33955,166.33955,0,0,0,29.47321-20.66659c21.35148-18.76787,34.2212-42.46324,47.87408-67.79147,36.41481-67.553,108.41488-35.82019,145.445,15.68555V1043.45788a44.13158,44.13158,0,0,0-7.23525-3.62632,4.21593,4.21593,0,0,0-1.60323-1.04919,269.98624,269.98624,0,0,0-66.31393-14.31947c-33.59341-2.92162-65.74625,2.27717-89.67686,30.09593-15.96943,18.56395-25.53046,41.83386-37.154,63.53253a222.39318,222.39318,0,0,1-33.81267,46.823c-13.31171,14.24946-27.85377,27.04812-42.47653,39.67171-22.63531,19.54075-52.70646,40.3219-67.96837,67.33113-15.53443,27.49271-11.16357,56.44538,15.82215,69.6748,18.59184,9.11,39.17422,10.73624,59.23866,7.88614,70.2177-9.97462,126.08184-65.27026,198.30232-34.39067,26.09208,11.15632,51.70921,17.33789,72.87771,11.93842Z"/><path class="cls-3" d="M74.63887-53.98459c-1.57069,77.3859-17.97495,154.946-49.52067,224.60352-27.80526,61.4046-69.13167,119.26029-126.00494,151.69368-32.06407,18.28851-67.77171,26.244-103.91618,25.89436a300.76866,300.76866,0,0,1-58.97859-6.80161c-39.575-8.368-82.27278-28.37641-122.83444-16.11622-42.56466,12.86594-55.7609,58.21758-60.98251,100.7392-9.58677,77.98088,8.4535,158.129-8.696,235.25194-7.41676,33.35379-29.13807,62.34827-33.68013,96.09454-6.0666,45.07313,28.75747,68.20064,66.65834,60.843,17.7462-3.44508,35.03855-10.99716,51.87772-17.79741,48.00868-19.4167,88.34473-48.08252,107.30156-100.729,6.39613-17.76332,10.83308-36.22622,16.16081-54.35648a465.73517,465.73517,0,0,1,16.08075-46.24634C-205.97557,536.223-161.6232,481.56432-93.58449,478.395c85.26606-3.97187,169.72372,24.77359,255.13611,25.03717,75.47779.23277,183.41663-7.045,238.234-71.76525C446.346,376.69529,443.09,292.58528,443.98947,223.143c1.08822-84.00842,60.17444-141.74166,121.1213-183.74215,78.7843-54.293,170.0967-100.59684,265.2068-102.57227,88.253-1.833,178.97841,20.30086,262.18642,57.94984V-59.45408c-7.888-3.26735-15.5719-6.71375-22.9108-9.74176-145.77765-60.18078-311.83019-73.7836-457.88286-7.23831C547.30807-47.0959,488.33061-3.10642,442.421,54.0134,416.29,86.52521,398.99429,124.63434,388.67179,166.0425c-9.8806,39.63478-8.95907,83.76976-22.429,121.96575C342.92376,354.16892,287.08723,399.57556,222.57,408.64991c-79.81579,11.22588-160.66931-9.58512-241.17328-.48991-67.73369,7.65245-137.98014,30.89616-195.06222,73.92522-27.35541,20.62094-56.06336,50.57612-74.38655,80.89063-18.41028,30.45851-19.62565,71.42747-44.68419,97.5367-32.65452,33.99679-31.64567-57.73843-31.96457-68.87663-1.63641-57.158-21.08155-171.65265,42.36229-199.85822,29.99114-13.35827,64.11152-5.50778,95.204-2.25554,74.86447,7.8504,154.52224-.59461,217.77576-48.16933C47.90276,298.28922,85.24595,230.92221,111.9335,162.716,157.9729,45.10267,186.25-98.977,145.7464-222.38724H53.99411A593.95664,593.95664,0,0,1,74.63887-53.98459Z"/><path class="cls-4" d="M111.9335,162.716C85.24595,230.92221,47.90276,298.28922-9.35873,341.35283-72.61225,388.92755-152.27,397.37256-227.13449,389.52216c-31.09251-3.25224-65.21289-11.10273-95.204,2.25554-63.44384,28.20557-43.9987,142.70025-42.36229,199.85822.3189,11.1382-.69,102.87342,31.96457,68.87663,25.05854-26.10923,26.27391-67.07819,44.68419-97.5367,18.32319-30.31451,47.03114-60.26969,74.38655-80.89063C-156.58342,439.05616-86.337,415.81245-18.60328,408.16c80.504-9.09521,161.35749,11.71579,241.17328.48991,64.51723-9.07435,120.35376-54.481,143.67282-120.64166,13.4699-38.196,12.54837-82.331,22.429-121.96575C398.99429,124.63434,416.29,86.52521,442.421,54.0134,488.33061-3.10642,547.30807-47.0959,611.71033-76.43415c146.05267-66.54529,312.10521-52.94247,457.88286,7.23831,7.3389,3.028,15.0228,6.47441,22.9108,9.74176V-130.742c-219.51094-76.095-530.79293-71.22167-712.45608,106.24186-65.24867,63.74028-66.77933,133.22216-66.116,221.93462.37955,50.75034-11.03226,100.16809-53.39067,127.61087-32.91947,21.32756-84.31358,31.62377-112.68793-3.61473-33.96009-42.17835,3.73522-93.96625,25.51033-129.844,20.196-33.27607,33.07269-71.37534,41.09753-110.04153,12.62641-60.8376,16.26542-125.77527,17.24255-188.01711.61875-39.41757-3.3276-78.33318-12.57069-115.91521H145.7464C186.25-98.977,157.9729,45.10267,111.9335,162.716Z"/><path class="cls-3" d="M231.70369-106.472c-.97713,62.24184-4.61614,127.17951-17.24255,188.01711-8.02484,38.66619-20.9015,76.76546-41.09753,110.04153-21.77511,35.87774-59.47042,87.66564-25.51033,129.844,28.37435,35.2385,79.76846,24.94229,112.68793,3.61473,42.35841-27.44278,53.77022-76.86053,53.39067-127.61087-.6633-88.71246.86736-158.19434,66.116-221.93462C561.71106-201.96369,872.99305-206.83706,1092.504-130.742v-91.64522H557.56306c-15.11859,8.26911-30.2617,16.48637-45.05049,25.56616-33.70017,20.69063-62.24143,49.60848-91.91076,76.18709-25.08811,22.47466-54.06214,58.4995-88.99918,63.57775-49.84377,7.245-43.6888-48.63619-41.02231-85.62192,2.0632-28.62022,2.49428-53.73407.24267-79.70908h-71.69C228.37609-184.80521,232.32244-145.8896,231.70369-106.472Z"/><path class="cls-3" d="M675.35394,54.09254c-62.97995,24.2856-121.3412,67.15624-159.88516,126.83191a274.53427,274.53427,0,0,0-39.18736,99.2419c-7.23862,39.233-7.87308,79.37434-12.58314,118.97708-6.56784,55.20741-23.60564,103.6919-67.95058,134.86017-61.82993,43.464-129.31012,40.2554-199.67046,34.07556C92.1837,558.9541-65.129,524.43181-148.20053,604.88255c-22.78123,22.05535-38.74642,53.34225-39.72309,86.36359-4.20364,141.79761,278.59291,89.41533,346.9632,96.34825,52.7611,5.34913,104.55456,22.2135,138.04591,69.47933,52.55563,74.185,53.02587,172.37259,124.31705,235.307,70.47909,62.24075,170.55151,25.07072,231.674-32.14494C713.78827,1003.399,757.193,925.03328,789.4383,846.4257c25.23028-61.51044,65.29409-101.82066,120.56544-132.07154a335.038,335.038,0,0,1,138.45217-40.0089c13.94525-.93131,28.88581.81611,44.04808,2.97958V643.71222q-2.14209-.69975-4.28775-1.39452c-63.60509-20.54052-134.45816-18.79361-195.32365,10.96234-120.51,58.915-130.317,191.71651-205.58928,293.07218-33.39108,44.95118-81.049,79.9193-135.57262,83.48733-87.08974,5.69888-102.2585-67.25021-121.18794-141.59355-9.08293-35.67245-20.45353-73.72289-49.97047-95.56824-39.44317-29.19179-93.58263-32.40967-139.2978-40.96079A806.18655,806.18655,0,0,0,53.42857,738.96545c-59.88033,2.95312-115.07368,9.02625-172.59213-15.09363-37.18317-15.59249-40.70565-54.09468-5.30107-76.14766,112.09912-69.82492,248.55864-69.57476,372.60535-49.2743,66.70266,10.91017,133.24365,22.83458,200.04339,32.92262,49.699,7.51836,125.03329,26.83858,151.97976-35.47524,23.1087-53.43211-3.38428-111.54991-25.87788-159.072-13.198-27.8703-26.46113-56.50937-31.20574-87.70147a189.31081,189.31081,0,0,1,4.90687-78.18969c14.49349-53.03,49.03514-98.97877,91.67388-128.92911,48.40338-33.97187,106.5393-48.32684,163.47742-52.73289a622.81053,622.81053,0,0,1,174.29486,11.19018c39.94482,8.35934,79.18813,21.874,115.07071,42.42408V67.992C1043.79486,49.76673,989.77863,41.0801,942.63244,35.06022,857.1651,24.14745,757.32978,22.49981,675.35394,54.09254Z"/><path class="cls-4" d="M803.13842,89.27207c-56.93812,4.40605-115.074,18.761-163.47742,52.73289-42.63874,29.95034-77.18039,75.8991-91.67388,128.92911a189.31081,189.31081,0,0,0-4.90687,78.18969c4.74461,31.1921,18.00772,59.83117,31.20574,87.70147,22.4936,47.5221,48.98658,105.6399,25.87788,159.072-26.94647,62.31382-102.28072,42.9936-151.97976,35.47524-66.79974-10.088-133.34073-22.01245-200.04339-32.92262C124.094,578.1494-12.36551,577.89924-124.46463,647.72416c-35.40458,22.053-31.8821,60.55517,5.30107,76.14766,57.51845,24.11988,112.7118,18.04675,172.59213,15.09363A806.18655,806.18655,0,0,1,241.27448,751.717c45.71517,8.55112,99.85463,11.769,139.2978,40.96079,29.51694,21.84535,40.88754,59.89579,49.97047,95.56824,18.92944,74.34334,34.0982,147.29243,121.18794,141.59355,54.52366-3.568,102.18154-38.53615,135.57262-83.48733C762.57558,844.99655,772.38261,712.195,892.89259,653.28c60.86549-29.75595,131.71856-31.50286,195.32365-10.96234q2.14573.69291,4.28775,1.39452V594.6339a213.26283,213.26283,0,0,0-18.387-14.98706c-45.3986-31.63883-97.07216-47.66715-150.94909-41.22062-44.43608,5.29774-90.03765,20.15919-121.97324,55.4782C756.402,643.44285,726.33686,704.9181,697.36639,765.97669c-26.35994,55.557-53.10272,132.08191-100.05171,171.32755-48.05614,40.17125-83.55456,5.33727-95.15647-47.74072-13.266-60.69223-55.47505-121.56018-110.21848-143.98034-58.68485-24.03435-122.24489-27.75693-184.00864-35.49637-53.91846-6.75638-112.74932-.73468-166.50589-17.69284-27.35966-8.63091-79.00593-36.23571-29.83984-52.823,43.66273-14.73037,89.53267-3.35877,133.58632,2.433,79.66723,10.474,159.88927,13.57173,239.476,24.97688,63.03344,9.03305,135.57062,42.08314,198.12382,15.42859,14.97953-6.382,28.55017-16.50549,40.03131-28.60443,25.39226-26.73356,40.03131-62.38383,46.03972-99.748,6.9955-43.5882,2.12094-87.56148-4.45333-130.80012-11.21907-73.93361-19.6047-149.629,35.58016-206.75253,97.392-100.81359,246.32506-14.343,328.41007,64.48331,19.53341,18.75783,41.9842,38.403,64.12458,59.43556V142.88633c-35.88258-20.55006-75.12589-34.06474-115.07071-42.42408A622.81053,622.81053,0,0,0,803.13842,89.27207Z"/><path class="cls-3" d="M699.96934,216.50439c-55.18486,57.12351-46.79923,132.81892-35.58016,206.75253,6.57427,43.23864,11.44883,87.21192,4.45333,130.80012-6.00841,37.36414-20.64746,73.01441-46.03972,99.748-11.48114,12.09894-25.05178,22.22244-40.03131,28.60443-62.5532,26.65455-135.09038-6.39554-198.12382-15.42859C305.061,655.5757,224.83891,652.478,145.17168,642.004c-44.05365-5.79181-89.92359-17.16341-133.58632-2.433-49.16609,16.58733,2.48018,44.19213,29.83984,52.823,53.75657,16.95816,112.58743,10.93646,166.50589,17.69284,61.76375,7.73944,125.32379,11.462,184.00864,35.49637,54.74343,22.42016,96.9525,83.28811,110.21848,143.98034,11.60191,53.078,47.10033,87.912,95.15647,47.74072,46.949-39.24564,73.69177-115.77057,100.05171-171.32755C726.33686,704.9181,756.402,643.44285,801.19466,593.90442c31.93559-35.319,77.53716-50.18046,121.97324-55.4782,53.87693-6.44653,105.55049,9.58179,150.94909,41.22062a213.26283,213.26283,0,0,1,18.387,14.98706V557.97442c-30.02948-8.02137-53.10628-36.56556-79.8413-51.502-62.45959-34.89491-124.08792-41.20259-193.14789-36.38394-91.03559,6.35209-96.21056-108.11849-41.799-164.04895,39.47348-40.57329,99.63162-28.2393,142.81235-2.68953,16.01562,9.47631,31.09209,20.6486,46.05533,31.94375,40.47859,30.556,80.72874,61.46613,121.00761,92.33887q2.49412,1.91172,4.91289,3.6826v-90.892c-22.14038-21.03259-44.59117-40.67773-64.12458-59.43556C946.2944,202.16141,797.36131,115.6908,699.96934,216.50439Z"/><path class="cls-4" d="M966.58349,335.29379c-14.96324-11.29515-30.03971-22.46744-46.05533-31.94375-43.18073-25.54977-103.33887-37.88376-142.81235,2.68953-54.41157,55.93046-49.2366,170.401,41.799,164.049,69.06-4.81865,130.6883,1.489,193.14789,36.38394,26.735,14.9364,49.81182,43.48059,79.8413,51.502V431.31526q-2.41854-1.7772-4.91289-3.6826C1047.31223,396.75992,1007.06208,365.84979,966.58349,335.29379Z"/><path class="cls-4" d="M1092.504,848.04144V928.219a143.73691,143.73691,0,0,0-30.28735-19.04145c-47.93689-22.08109-95.76861-5.235-137.06021,22.61519-58.08266,39.17818-104.16186,93.30851-149.97183,146.32511-83.65105,96.81383-209.61564,224.1661-353.18859,177.845-54.22618-17.49426-97.32968-59.39736-130.98539-105.37154-51.2868-70.059-78.64409-152.5735-165.257-185.508C56.62111,938.794-22.59349,941.71969-94.28193,954.73638c-62.19962,11.29616-113.63252,51.12268-173.75547,68.384-70.09552,20.12319-126.95053-26.344-194.74575-14.98843-44.54114,7.45766-85.075,18.57586-128.4978,30.77115-49.48407,13.90227-101.21364,20.62976-152.57351,15.518-85.07948-8.46641-169.83495-42.5831-206.15144-119.99027-3.06256-6.52672-5.59559-14.80148-1.11825-20.4518a10.77687,10.77687,0,0,1,2.00364-1.95344c6.33041-4.7102,16.68185-1.0999,24.13494,3.1219,83.08958,47.06956,154.67761,99.68,254.1294,99.77585,126.22945.11866,231.09889-82.50537,349.22709-116.9095,65.58163-19.10083,124.60007-14.08949,190.15426,1.13185C-72.5112,912.83343-6.88389,935.11543,53.58594,917.22862c78.75363-23.2951,148.40638-25.14357,194.74118,55.01115,42.52385,73.55968,57.631,174.59531,148.18744,205.403,99.67088,33.90674,216.91821,14.29939,298.33267-53.06685,80.917-66.95085,122.48223-170.22285,194.23452-246.90894,32.86155-35.12535,72.78857-47.97326,120.967-44.03448C1030.39561,835.2939,1062.778,839.219,1092.504,848.04144Z"/></g><g class="cls-5"><rect class="cls-6" x="-14.64919" y="-35.99962" width="1133.61699" height="1151.99919"/><path class="cls-3" d="M906.31287,799.25911A2142.93823,2142.93823,0,0,0,827.268,504.19317c-21.85155-62.88637-49.57848-128.479-101.32686-169.1328-46.3967-36.44951-108.73245-50.04056-159.84493-16.38929-83.29259,54.83872-60.00407,152.99071-64.42893,240.54049-1.28427,25.40989-2.84834,50.946-5.51007,76.2426-3.12242,29.67441-10.19343,56.6536-32.29672,76.65539-25.35316,22.94275-58.77616,24.073-90.27016,21.94765-43.91054-2.9633-84.38165-11.23907-125.87787,10.00139C166.97527,785.385,143.07129,886.29936,135.9194,974.471c-2.08972,25.764-3.64215,51.66533-3.08186,77.54148a379.79036,379.79036,0,0,0,2.74329,38.89657q.20507,1.63186.39262,3.22268h58.18087c-3.82712-7.4543-7.253-15.16029-10.36565-22.803-11.99148-29.4432-18.872-63.20667-19.93667-97.3415-2.52745-81.02938,27.71755-164.15157,100.16669-196.54618,77.99046-34.86684,158.368-3.84643,233.13173,23.72132,26.844,9.89824,75.6063,20.6267,90.58214-14.74615,5.08523-12.01112,3.60368-25.95261,1.5031-38.96294-6.63756-41.11132-18.28475-81.15457-29.2449-121.09934C549.06136,586.52334,532.567,546.033,528.3072,504.582c-2.921-28.4233,1.85227-58.433,16.4956-82.64425,15.8999-26.27966,41.88649-44.17761,70.75632-48.21132,106.608-14.89517,158.21258,150.06063,184.5844,233.50944,26.625,84.25,43.00219,171.7556,56.21694,259.47535,6.1585,40.87976,11.485,81.33409,14.40448,122.49259q2.43855,34.37883,3.46316,68.85039c.10746,3.6738-.7219,20.50407-1.02648,36.07755h69.896A2232.62664,2232.62664,0,0,0,906.31287,799.25911Z"/><path class="cls-4" d="M874.2281,1058.05417q-1.00753-34.46264-3.46316-68.85039c-2.9195-41.1585-8.246-81.61283-14.40448-122.49259-13.21475-87.71975-29.592-175.22537-56.21694-259.47535C773.7717,523.787,722.16714,358.83123,615.55912,373.7264c-28.86983,4.03371-54.85642,21.93166-70.75632,48.21132-14.64333,24.21123-19.41665,54.22095-16.4956,82.64425,4.25976,41.451,20.75416,81.94137,31.68356,121.77194,10.96015,39.94477,22.60734,79.988,29.2449,121.09934,2.10058,13.01033,3.58213,26.95182-1.5031,38.96294-14.97584,35.37285-63.73818,24.64439-90.58214,14.74615-74.76378-27.56775-155.14127-58.58816-233.13173-23.72132C191.56955,809.83563,161.32455,892.95782,163.852,973.9872c1.06465,34.13483,7.94519,67.8983,19.93667,97.3415,3.11261,7.64273,6.53853,15.34872,10.36565,22.803h43.847a313.901,313.901,0,0,1-18.35569-48.13118c-9.22348-31.64584-15.83324-77.4459-11.64873-119.52454,9.649-96.99972,96.01288-126.68519,175.93553-107.73746,29.3646,6.96168,52.79384,27.22017,78.623,42.69175,35.70214,21.38542,85.99354,48.6024,127.56865,33.40509,27.39142-10.01267,46.01553-39.33447,51.45436-70.00065,8.082-45.57059-8.28675-90.13221-23.97621-131.53978q-12.29277-32.44315-24.609-64.87409c-7.68141-20.33-15.16417-40.8996-19.6822-62.37669-6.74357-32.05653-7.49361-73.67836,16.717-99.07147a44.84682,44.84682,0,0,1,42.59011-13.15806c44.55214,9.59363,67.30991,64.14393,82.26647,104.91623,18.95217,51.665,34.63942,105.75957,47.7677,159.41976,29.96481,122.47766,45.66516,249.83211,55.86337,375.98109h54.68592C873.5062,1078.55824,874.33556,1061.728,874.2281,1058.05417Z"/><path class="cls-3" d="M714.88463,558.73087c-14.95656-40.7723-37.71433-95.3226-82.26647-104.91623a44.84682,44.84682,0,0,0-42.59011,13.15806c-24.21057,25.39311-23.46053,67.01494-16.717,99.07147,4.518,21.47709,12.00079,42.04673,19.6822,62.37669q12.25775,32.4626,24.609,64.87409c15.68946,41.40757,32.05822,85.96919,23.97621,131.53978-5.43883,30.66618-24.06294,59.988-51.45436,70.00065-41.57511,15.19731-91.86651-12.01967-127.56865-33.40509-25.82913-15.47158-49.25837-35.73007-78.623-42.69175C304.00982,799.79081,217.646,829.47628,207.99694,926.476c-4.18451,42.07864,2.42525,87.8787,11.64873,119.52454a313.901,313.901,0,0,0,18.35569,48.13118h43.532q-7.57227-10.08171-14.45407-20.68905c-19.21954-29.64427-33.0918-69.47636-32.60692-107.00321.43664-33.79028,12.5136-65.71159,42.80861-86.64345,62.47092-43.15662,139.89412,30.92641,182.964,74.49286,43.09148,43.58813,110.30765,128.34829,177.91546,85.4468,96.22641-61.0632,48.40311-245.796,13.3908-331.18676C638.32722,676.297,582.708,582.67036,616.318,548.25793c5.65036-5.77286,14.23057-6.28986,21.48047-4.55018,35.35712,8.47653,46.84789,63.41563,58.04234,94.1515,52.23849,143.42811,73.50734,305.99915,36.23275,456.27247H818.5157c-10.19821-126.149-25.89856-253.50343-55.86337-375.98109C749.52405,664.49044,733.8368,610.39584,714.88463,558.73087Z"/><path class="cls-4" d="M234.47256,966.43821c.4376-33.79058,12.51272-65.709,42.80911-86.64141C339.753,836.639,417.17529,910.72159,460.24426,954.28742c43.0921,43.58886,110.308,128.34826,177.91549,85.44706,96.22583-61.06323,48.40245-245.796,13.39123-331.18715C638.32755,676.29658,582.70635,582.67,616.31926,548.2576c5.64927-5.77105,14.23021-6.29091,21.47856-4.55035,35.35673,8.47561,46.84944,63.41574,58.04281,94.153,52.23885,143.42735,73.50684,305.99721,36.23195,456.27151h-450.54q-7.57085-10.0829-14.45391-20.68892C247.86044,1043.7979,233.9889,1003.96648,234.47256,966.43821Z"/><path class="cls-3" d="M976.9203,1094.13172h22.1328q3.67623-10.71777,6.64108-21.713c16.25017-60.7651,14.97787-125.45027,5.80194-187.42535-9.561-64.57162-27.81935-127.11413-44.27957-189.90864-8.38178-31.9628-16.63474-64.14-22.50676-96.77079-5.00736-27.82573-6.24336-61.47154,6.20029-86.93141a63.90821,63.90821,0,0,1,24.268-27.09123c10.13135-6.18772,21.53454-9.049,32.99606-10.57424,57.59355-7.66447,95.90016-15.73108,133.60419-66.87919q1.6643-2.255,3.2763-4.556V315.28439c-23.74191,28.61937-56.42845,49.20316-90.44632,59.98-34.63675,10.97825-71.05971,13.38555-106.969,11.53276-20.10836-1.03751-40.738-6.95313-60.87329-3.97469-27.44726,4.06007-42.63584,23.78123-42.97812,53.0592-.61721,52.793,38.972,127.80972,51.91358,159.57931,14.5458,35.7076,29.26688,71.36505,40.68382,108.40913,11.91916,38.64457,20.76817,78.31014,28.12287,118.24067,7.28459,39.57729,13.24986,79.44444,19.04045,119.29926,5.5101,37.926,10.27319,77.46561,2.66176,115.46728C983.562,1070.09931,979.05052,1081.11807,976.9203,1094.13172Z"/><path class="cls-4" d="M1008.17412,473.717c-11.46152,1.52525-22.86471,4.38652-32.99606,10.57424a63.90821,63.90821,0,0,0-24.268,27.09123c-12.44365,25.45987-11.20765,59.10568-6.20029,86.93141,5.872,32.63081,14.125,64.808,22.50676,96.77079,16.46022,62.79451,34.71858,125.337,44.27957,189.90864,9.17593,61.97508,10.44823,126.66025-5.80194,187.42535q-2.9416,10.98264-6.64108,21.713h36.31625c6.63489-8.45133,10.25384-19.05716,12.982-29.70459,20.95786-81.79438,1.35939-165.52378-11.07265-246.88215-4.69419-30.72-9.2186-64.69159-9.24351-98.15939-.02632-35.55131,5.01653-72.37011,21.93117-103.45261,17.61374-32.36713,47.686-49.46332,71.71535-75.22687a157.44621,157.44621,0,0,0,23.37291-33.548V402.2818q-1.61295,2.29968-3.2763,4.556C1104.07428,457.986,1065.76767,466.05256,1008.17412,473.717Z"/><path class="cls-3" d="M1049.96635,615.933c-16.91464,31.0825-21.95749,67.9013-21.93117,103.45261.02491,33.4678,4.54932,67.43944,9.24351,98.15939,12.432,81.35837,32.03051,165.08777,11.07265,246.88215-2.72815,10.64743-6.3471,21.25326-12.982,29.70459h45.32533c2.95341-8.97224,5.82495-17.96787,8.5504-27.01927,24.23067-80.472,30.92927-160.65814,10.76528-243.93665-9.24526-38.18359-15.747-80.9514-7.63717-120.03739,7.13195-34.37322,28.27785-56.05611,52.68142-63.07955V507.15809a157.44621,157.44621,0,0,1-23.37291,33.548C1097.65239,566.46966,1067.58009,583.56585,1049.96635,615.933Z"/><path class="cls-3" d="M-44.12941-29.06022C-34.12466-3.30973-23.30276,22.15076-10.263,46.28813c24.90086,46.09364,58.61534,87.0953,104.24933,109.531,40.85916,20.08818,89.33275,23.77313,129.73187.20251,38.351-22.37357,68.213-64.63568,112.166-75.04654,51.52521-12.19968,99.84432,33.11131,147.57494,46.16152,49.407,13.50846,100.71412,7.43978,151.03563,4.53248,50.8285-2.93653,104.40078-3.52887,150.81676,22.33511,46.60267,25.952,78.683,72.24735,115.8883,110.58978,37.54955,38.67649,85.71455,73.46332,140.00377,64.47654,41.13122-6.80866,76.62324-33.39832,103.851-65.92091V138.854c-51.29791,60.82318-119.612,118.63116-199.64414,83.31925C854.885,182.23147,821.58192,60.14914,709.57013,63.57351c-48.482,1.48718-95.02661,19.965-143.53231,21.21278-22.344.5671-44.24447-3.23912-64.84941-12.7428-20.58116-9.491-39.27133-22.92735-59.10552-33.99362-20.885-11.659-43.47412-20.19212-67.28938-16.52435-25.50757,3.93267-48.07362,18.94421-69.19175,34.00622-38.44282,27.41433-77.4457,60.32418-123.68648,70.19346-45.33037,9.68-87.91729-9.95756-119.18042-45.33781C45.70234,61.10311,32.61574,38.201,21.5605,14.49258,11.71892-6.61295,1.28987-29.16015-5.26445-51.73959q-.85307-2.939-1.48076-5.70633H-56.00849C-52.07493-47.34037-47.44868-37.60361-44.12941-29.06022Z"/><path class="cls-4" d="M-6.74673-57.44592H412.48014a178.95908,178.95908,0,0,0,12.86151,17.34934A185.97666,185.97666,0,0,0,497.41719,12.185c32.41855,13.23656,67.88389,16.92826,102.25351,13.411a279.25226,279.25226,0,0,0,51.75193-10.56164c17.754-5.30707,35.2416-11.7099,53.26869-15.95758,76.876-18.116,107.73174,41.53576,149.01744,98.04861,17.3954,23.77185,38.09419,46.096,64.47519,57.7401,45.892,20.25793,108.60693,1.07923,151.57723-19.965,26.06184-12.76277,51.98221-33.36949,75.29343-57.47037v61.42522c-51.29785,60.823-119.61272,118.62888-199.64408,83.31828C854.88341,182.23029,821.583,60.15,709.57069,63.57505c-48.48135,1.48718-95.02815,19.965-143.53264,21.212-22.34386.56592-44.24358-3.2409-64.8502-12.743-20.58037-9.49232-39.27212-22.92633-59.10558-33.9946-20.883-11.65722-43.47367-20.19206-67.28836-16.5235-25.50909,3.93182-48.07337,18.94513-69.1933,34.00448-38.443,27.41406-77.44527,60.32618-123.68605,70.19356-45.32939,9.6798-87.918-9.95621-119.17842-45.336-17.03347-19.28392-30.122-42.18719-41.17709-65.8965C11.71793-6.612,1.29125-29.15988-5.26284-51.74064Q-6.11665-54.67716-6.74673-57.44592Z"/><path class="cls-3" d="M497.41775,12.1859c32.41888,13.23446,67.88474,16.92737,102.25308,13.41078A279.23209,279.23209,0,0,0,651.422,15.03448C669.17812,9.72778,686.66581,3.325,704.69047-.92271c76.87745-18.1174,107.7342,41.53665,149.01935,98.04855,17.39422,23.77175,38.09228,46.09393,64.47575,57.74023,45.89049,20.25721,108.60646,1.07995,151.57515-19.965,26.06234-12.76471,51.98293-33.36884,75.29389-57.47044V-57.44592h-50.05289c-4.74779,9.84865-7.94444,20.81556-10.26049,31.26708-8.47739,38.25541-17.50678,80.11239-46.71375,107.72117-33.31912,31.496-84.98919,25.39952-116.52642-6.6374C896.70538,49.716,884.09374,13.95222,860.56513-12.88671a256.41121,256.41121,0,0,0-50.76806-44.55921H412.479a179.3151,179.3151,0,0,0,12.86319,17.34934A186.002,186.002,0,0,0,497.41775,12.1859Z"/><path class="cls-4" d="M860.56513-12.88671c23.52861,26.83893,36.14025,62.60272,60.93593,87.79164,31.53723,32.03692,83.2073,38.13341,116.52642,6.6374,29.207-27.60878,38.23636-69.46576,46.71375-107.72117,2.316-10.45152,5.5127-21.41843,10.26049-31.26708H809.79707A256.41121,256.41121,0,0,1,860.56513-12.88671Z"/><path class="cls-3" d="M-664.56739,347.86009V206.01859c9.25214,8.36052,17.23092,16.32276,22.0281,19.771,26.87121,19.32347,66.26165,33.13579,94.37008,10.47271,56.06873-45.201,104.39548-102.65163,158.11493-151.26137,23.51189-21.27783,47.02382-43.86517,73.88522-60.17483C-272.39591-1.75233-219.49579-8.313-170.45833,1.10687-114.41595,11.87573-87.92966,41.52066-50.2764,84.29026c37.57105,42.67417,68.31485,101.74024,118.323,128.04885,46.21117,24.31148,103.79,26.97982,150.68881,3.30338,23.39351-11.80864,41.11468-29.60541,58.67456-49.61,15.339-17.47105,32.83641-37.10716,56.164-40.21967a46.03367,46.03367,0,0,1,34.985,9.94305c10.2523,8.25516,16.55311,20.50795,25.134,30.49051,20.14939,23.46912,51.22553,22.57418,78.24148,17.48092,31.2045-5.88624,61.80027-15.2107,92.97183-21.4128,57.19067-11.38081,117.76688-15.90815,172.91432,7.67612,38.11064,16.29647,70.6937,45.83941,92.89612,83.0222,11.51907,19.28725,12.54562,43.53615-8.70266,55.38095-22.90318,12.74961-53.50553-8.95927-71.93077-22.19912-25.746-18.50421-51.23534-34.70523-81.01184-45.20433-39.10761-13.78935-79.21868-14.319-118.981-3.30338-39.15364,10.85444-75.70475,30.18778-111.95309,49.05724C372.38876,320.97569,294.82513,358.55,220.907,332.67236c-16.79991-5.88618-31.81316-15.50346-46.9186-25.18336-15.91148-10.20949-32.80351-20.99813-51.63342-22.89991-20.20854-2.0432-38.63049,7.676-57.4604,13.865a154.30121,154.30121,0,0,1-48.22481,7.913c-30.938-.03623-62.2938-11.12757-82.51218-37.47231-11.81519-15.38836-19.29712-33.77748-27.095-51.72557-21.314-49.05724-56.31212-99.50292-105.54706-119.74108-35.59352-14.6349-74.44446-10.58793-109.16292,4.965-74.563,33.38917-118.57294,109.594-167.66312,174.27976-22.0511,29.05265-47.139,57.55262-79.13645,73.63516a116.30933,116.30933,0,0,1-96.31144,4.18516A120.21933,120.21933,0,0,1-664.56739,347.86009Z"/><path class="cls-3" d="M69.20235,972.73178c1.1323-55.7868,12.958-111.69915,35.699-161.91465,20.04455-44.266,49.83639-85.97366,90.83582-109.3546,23.11469-13.184,48.856-18.919,74.91223-18.667a216.82169,216.82169,0,0,1,42.51713,4.90322c28.52925,6.03243,59.3097,20.4563,88.55023,11.618,30.68448-9.27494,40.19753-41.96852,43.96174-72.622,6.911-56.21571-6.09405-113.99375,6.26886-169.591,5.34668-24.04445,21.00537-44.94631,24.2797-69.27368,4.37337-32.49282-20.731-49.16522-48.05339-43.86116-12.79307,2.48353-25.259,7.92776-37.39818,12.83-34.609,13.99733-63.68691,34.66226-77.35272,72.61464-4.61091,12.80541-7.80947,26.11515-11.65018,39.18509a335.74327,335.74327,0,0,1-11.59247,33.33857c-18.68537,45.31919-50.65859,84.72216-99.70708,87.00692-61.46753,2.86329-122.35229-17.85906-183.92531-18.04907-54.41125-.1678-132.22338,5.07866-171.74076,51.73492-33.5649,39.62852-31.21772,100.26267-31.86613,150.323-.78448,60.56091-43.3792,102.18027-87.31524,132.458-56.79489,39.13932-122.62118,72.51935-191.18519,73.94342-63.62081,1.32139-129.02391-14.63471-189.00781-41.77552v39.0957c5.68639,2.35541,11.22564,4.83988,16.51619,7.02275,105.08978,43.38378,224.79556,53.18992,330.08361,5.218,46.427-21.14968,88.94331-52.8613,122.03913-94.03846,18.83764-23.43746,31.30593-50.91,38.74733-80.76076,7.12284-28.57235,6.45851-60.38886,16.16884-87.924,16.8105-47.69463,57.06255-80.42786,103.57243-86.96948,57.53848-8.09263,115.82506,6.90983,173.85963.35318,48.82861-5.51659,99.46864-22.27277,140.61859-53.292,19.72027-14.86546,40.41557-36.45987,53.62459-58.31333,13.2718-21.95726,14.148-51.49141,32.21243-70.31332,23.54035-24.508,22.81308,41.62311,23.043,49.65254,1.17967,41.20466,15.1975,123.74284-30.53859,144.076-21.62035,9.62986-46.21742,3.97051-68.63173,1.626-53.96911-5.65928-111.39368.42865-156.99257,34.72483C88.47617,718.78078,61.55581,767.345,42.317,816.51428c-33.18938,84.78639-53.574,188.65214-24.37541,277.61744H84.085A428.178,428.178,0,0,1,69.20235,972.73178Z"/><path class="cls-4" d="M42.317,816.51428c19.23882-49.16924,46.15918-97.7335,87.43847-128.77767,45.59889-34.29618,103.02346-40.38411,156.99257-34.72483,22.41431,2.34451,47.01138,8.00386,68.63173-1.626,45.73609-20.33314,31.71826-102.87132,30.53859-144.076-.22989-8.02943.49738-74.16052-23.043-49.65254-18.06447,18.82191-18.94063,48.35606-32.21243,70.31332-13.209,21.85346-33.90432,43.44787-53.62459,58.31333-41.15,31.01925-91.79,47.77543-140.61859,53.292-58.03457,6.55665-116.32115-8.44581-173.85963-.35318-46.50988,6.54162-86.76193,39.27485-103.57243,86.96948-9.71033,27.53515-9.046,59.35166-16.16884,87.924-7.4414,29.85077-19.90969,57.3233-38.74733,80.76076-33.09582,41.17716-75.61213,72.88878-122.03913,94.03846-105.28805,47.97189-224.99383,38.16575-330.08361-5.218-5.29055-2.18287-10.8298-4.66734-16.51619-7.02275v51.39083c158.24345,54.85622,382.64382,51.34306,513.60313-76.58879,47.03718-45.9498,48.14062-96.03865,47.66245-159.99066-.27361-36.58546,7.95306-72.21027,38.48885-91.99352,23.73135-15.37484,60.7809-22.79729,81.23571,2.60583,24.48152,30.406-2.69268,67.73941-18.39017,93.60335-14.55913,23.98842-23.8418,51.45384-29.62683,79.32794-9.10227,43.85728-11.7256,90.67026-12.43,135.53983a327.939,327.939,0,0,0,9.06209,83.56223H17.94158C-11.25706,1005.16642,9.12761,901.30067,42.317,816.51428Z"/><path class="cls-3" d="M-44.02425,1010.56949c.7044-44.86957,3.32773-91.68255,12.43-135.53983,5.785-27.8741,15.0677-55.33952,29.62683-79.32794,15.69749-25.86394,42.87169-63.19736,18.39017-93.60335C-4.03206,676.69525-41.08161,684.1177-64.813,699.49254c-30.53579,19.78325-38.76246,55.40806-38.48885,91.99352.47817,63.952-.62527,114.04086-47.66245,159.99066-130.95931,127.93185-355.35968,131.445-513.60313,76.58879v66.06621h385.63407c10.89886-5.96113,21.81539-11.88488,32.47649-18.43041,24.29415-14.91569,44.86929-35.76231,66.25764-54.92259,18.08579-16.20177,38.9729-42.17176,64.1587-45.83262,35.93192-5.22287,31.49486,35.06139,29.57261,61.72407-1.48735,20.63206-1.79811,38.7364-.17494,57.46155h51.68066A327.939,327.939,0,0,1-44.02425,1010.56949Z"/><path class="cls-3" d="M-363.8477,894.82c45.40168-17.50727,87.47378-48.41232,115.25976-91.432a197.90913,197.90913,0,0,0,28.24982-71.54259c5.21826-28.28274,5.67563-57.22024,9.07107-85.7695,4.7347-39.79852,17.0171-74.75055,48.985-97.21947,44.57263-31.33279,93.2185-29.01976,143.94062-24.56477,74.89591,6.57818,188.30124,31.465,248.18673-26.53123,16.42278-15.8995,27.93194-38.45394,28.636-62.25873C261.51164,333.28108,57.64617,371.043,8.35865,366.04511c-38.035-3.85614-75.37244-16.01351-99.516-50.087-37.88687-53.47927-38.22586-124.26184-89.619-169.63068-50.80774-44.86879-122.949-18.07325-167.01169,23.173-43.76653,40.97313-75.05658,97.46624-98.302,154.13373-18.18828,44.34232-47.06991,73.40159-86.91453,95.20918a241.52584,241.52584,0,0,1-99.80891,28.84206c-10.053.67137-20.82352-.58833-31.75387-2.148v24.231q1.54422.50444,3.091,1.00529c45.85233,14.80748,96.92967,13.54815,140.80705-7.90265C-433.79478,420.39984-426.725,324.66442-372.46189,251.598c24.07133-32.40491,58.42746-57.6131,97.73308-60.18527,62.7822-4.10827,73.71722,48.48007,87.36328,102.07351,6.54781,25.71594,14.74477,53.14616,36.02326,68.89428,28.43423,21.0441,67.46287,23.36383,100.41852,29.52826a581.17178,581.17178,0,0,0,135.41642,9.19245c43.16718-2.12887,82.95557-6.50694,124.4201,10.88087,26.805,11.24048,29.34434,38.99636,3.82149,54.89416C131.923,517.21244,33.55059,517.03211-55.87356,502.39769c-48.08534-7.865-96.05414-16.46124-144.20946-23.73362-35.82759-5.41991-90.13537-19.34768-109.56084,25.57378-16.65885,38.51873,2.4397,80.41532,18.65513,114.67357,9.51434,20.09145,19.07559,40.7371,22.49594,63.2232a136.47255,136.47255,0,0,1-3.53732,56.36623c-10.44823,38.22886-35.349,71.35291-66.08687,92.94384-34.89356,24.49-76.80322,34.83838-117.84939,38.01466a448.97878,448.97878,0,0,1-125.64759-8.0669c-28.79585-6.02617-57.086-15.76878-82.95343-30.58314V884.8c35.114,13.13841,74.05378,19.40052,108.04105,23.7402C-494.91371,916.4071-422.94334,917.59487-363.8477,894.82Z"/><path class="cls-4" d="M-455.96637,869.45935c41.04617-3.17628,82.95583-13.52466,117.84939-38.01466,30.73788-21.59093,55.63864-54.715,66.08687-92.94384a136.47255,136.47255,0,0,0,3.53732-56.36623c-3.42035-22.4861-12.9816-43.13175-22.49594-63.2232-16.21543-34.25825-35.314-76.15484-18.65513-114.67357,19.42547-44.92146,73.73325-30.99369,109.56084-25.57378,48.15532,7.27238,96.12412,15.86858,144.20946,23.73362C33.55059,517.03211,131.923,517.21244,212.73426,466.8763c25.52285-15.8978,22.98352-43.65368-3.82149-54.89416-41.46453-17.38781-81.25292-13.00974-124.4201-10.88087a581.17178,581.17178,0,0,1-135.41642-9.19245c-32.95565-6.16443-71.98429-8.48416-100.41852-29.52826-21.27849-15.74812-29.47545-43.17834-36.02326-68.89428-13.64606-53.59344-24.58108-106.18178-87.36328-102.07351-39.30562,2.57217-73.66175,27.78036-97.73308,60.18527-54.2631,73.06638-61.33289,168.8018-148.20745,211.27307-43.87738,21.4508-94.95472,22.71013-140.807,7.90265q-1.54683-.4995-3.091-1.00529v35.38011a153.73759,153.73759,0,0,0,13.255,10.804c32.72744,22.80815,69.97845,34.36281,108.81784,29.71557,32.03356-3.81909,64.90732-14.53258,87.9294-39.99373,32.2906-35.71181,53.96431-80.02876,74.84886-124.04534,19.00264-40.05053,38.28127-95.21666,72.12637-123.50848,34.64324-28.95909,60.23373-3.84759,68.59744,34.41585,9.56332,43.75248,39.99146,87.63164,79.4555,103.79413,42.30537,17.32614,88.12523,20.00971,132.65016,25.589,38.86933,4.87061,81.28.52962,120.03259,12.75461,19.72333,6.22194,56.95466,26.122,21.51127,38.07964-31.47607,10.619-64.54329,2.42131-96.30117-1.75395-57.43138-7.55063-115.26272-9.78374-172.63607-18.00561-45.44023-6.51184-97.73163-30.33736-142.82566-11.12233A87.90849,87.90849,0,0,0-325.964,462.49267c-18.305,19.272-28.85821,44.97193-33.18962,71.9074-5.043,31.42234-1.529,63.12228,3.21037,94.29262,8.08773,53.29808,14.13285,107.86621-25.64942,149.046-70.209,72.67561-177.5735,10.33972-236.74784-46.48544-14.08146-13.52235-30.266-27.68435-46.22683-42.84655V830.80931c25.86743,14.81436,54.15758,24.557,82.95343,30.58314A448.97878,448.97878,0,0,0-455.96637,869.45935Z"/><path class="cls-3" d="M-381.59272,777.73872c39.78227-41.17982,33.73715-95.74795,25.64942-149.046-4.73933-31.17034-8.25336-62.87028-3.21037-94.29262,4.33141-26.93547,14.88457-52.63542,33.18962-71.9074A87.90849,87.90849,0,0,1-297.10584,441.872c45.094-19.215,97.38543,4.61049,142.82566,11.12233,57.37335,8.22187,115.20469,10.455,172.63607,18.00561,31.75788,4.17526,64.8251,12.373,96.30117,1.75395,35.44339-11.95765-1.78794-31.8577-21.51127-38.07964-38.75263-12.225-81.16326-7.884-120.03259-12.75461-44.52493-5.5793-90.34479-8.26287-132.65016-25.589-39.464-16.16249-69.89218-60.04165-79.4555-103.79413-8.36371-38.26344-33.9542-63.37494-68.59744-34.41585-33.8451,28.29182-53.12373,83.458-72.12637,123.50848-20.88455,44.01658-42.55826,88.33353-74.84886,124.04534-23.02208,25.46115-55.89584,36.17464-87.9294,39.99373-38.83939,4.64724-76.0904-6.90742-108.81784-29.71557a153.73759,153.73759,0,0,1-13.255-10.804v26.42749c21.648,5.78253,38.28384,26.35978,57.55687,37.12729,45.02655,25.15543,89.45386,29.70258,139.23857,26.22886,65.62673-4.57916,69.35732,77.94164,30.13251,118.2614-28.45608,29.24892-71.82354,20.35746-102.95213,1.93886-11.54552-6.83139-22.414-14.88539-33.20087-23.028-29.18065-22.02754-58.19662-44.31037-87.23329-66.56625q-1.798-1.37814-3.54166-2.65475v65.52322c15.9608,15.1622,32.14537,29.3242,46.22683,42.84655C-559.16622,788.07844-451.80171,850.41433-381.59272,777.73872Z"/><path class="cls-3" d="M66.90811-57.44592h228.121a20.27633,20.27633,0,0,1-.10861,3.37248,24.18281,24.18281,0,0,1-6.99172,13.92754C275.7122-27.72531,256.01361-27.97208,242.31316-17.246,229.557-7.26017,220.53522,7.378,214.32324,22.80914c-8.92634,22.17287-14.31575,47.6128-39.39711,53.81161-33.376,8.25188-56.23976-26.335-67.25539-55.08157-9.47917-24.736-13.50969-50.93267-33.04048-69.46981-2.80985-2.665-5.90262-5.238-7.47209-8.90334C67.06933-57.04122,66.98708-57.24525,66.90811-57.44592Z"/><path class="cls-4" d="M-664.56739,322.46938V264.67009a103.6187,103.6187,0,0,0,21.83388,13.7268c34.55726,15.91806,69.03872,3.77389,98.80546-16.30308,41.87126-28.2432,75.08934-67.26526,108.11333-105.48445,60.30329-69.79221,151.11-161.59931,254.61046-128.20684,39.09116,12.61145,70.16408,42.819,94.42618,75.96138C-49.80589,154.8688-30.08427,214.35276,32.3542,238.095c49.837,18.95171,106.94208,16.84261,158.62163,7.459,44.83914-8.1433,81.91665-36.85387,125.25874-49.29742,50.53123-14.50662,91.51749,18.99112,140.39045,10.805,32.1093-5.37616,61.32976-13.39117,92.6329-22.18264,35.67262-10.022,72.964-14.87181,109.98886-11.18676,61.333,6.10336,122.43248,30.69777,148.61271,86.4999,2.20777,4.705,4.03381,10.67026.80613,14.74352a7.76919,7.76919,0,0,1-1.4444,1.40821c-4.56354,3.39555-12.0258.79291-17.39866-2.25054-59.89853-33.932-111.50569-71.85841-183.19959-71.92751-90.99766-.08554-166.59709,59.47738-251.75464,84.279-47.2772,13.76961-89.82306,10.157-137.08048-.81594-42.50635-9.86738-89.81648-25.93027-133.40863-13.03583C27.60645,289.3862-22.6056,290.71874-56.00793,232.93593c-30.65506-53.0285-41.54563-125.86418-106.827-148.07318-71.85183-24.44305-156.37437-10.30829-215.06531,38.25541-58.33235,48.26427-88.29633,122.71212-140.02191,177.99442-23.68959,25.32155-52.47262,34.58349-87.204,31.74406C-619.794,331.659-643.13821,328.82941-664.56739,322.46938Z"/><path class="cls-3" d="M330.3365,974.48609c65.62673-10.74915,123.83733,58.25338,161.78675,119.64563H340.0591C298.66811,1043.78474,266.4502,984.949,330.3365,974.48609Z"/></g><path class="cls-7" d="M601.31735,463.40651h-9.78746c9.50244,40.49764-7.67312,92.19572-51.53042,92.19572-43.85638,0-61.03194-51.69808-51.52949-92.19572h-9.78747c-10.76826,41.29028,9.22675,93.44569,59.98408,94.34732-.0028,12.07226-1.20807,21.68741-3.1827,29.34749a64.00084,64.00084,0,0,0-13.05864-9.51735,43.95991,43.95991,0,0,0-10.27181-4.04054,31.18333,31.18333,0,0,0-8.2832-.94541,26.99212,26.99212,0,0,0-4.31532.502,34.67438,34.67438,0,0,0-10.066,3.04577,25.1101,25.1101,0,0,0-10.962,10.46834,19.57527,19.57527,0,0,0-2.187,13.36695c1.47259,7.44585,6.099,13.13968,13.90531,16.83373a29.58138,29.58138,0,0,0,17.74094,2.50461c1.14566-.18628,2.25593-.42659,3.33918-.71161a28.68808,28.68808,0,0,0,12.143-5.61652q.8313-.55328,1.6449-1.13448c1.78649-1.27792,7.85755-8.422,9.73065-14.48094.13133-.3083.2636-.61568.39213-.93143,1.1261,1.22483,1.92341,2.11435,1.92341,2.11435s1.51077,1.99419,1.56666,1.94016c1.56853,1.65236,2.31833,2.52325,3.93809,4.12065a63.42986,63.42986,0,0,0,14.37941,10.98994,73.99448,73.99448,0,0,0,6.85812,3.13892,28.2137,28.2137,0,0,0,4.36933,1.36734,31.52321,31.52321,0,0,0,7.87524.79544c9.63844-.20864,17.21-3.67263,22.85543-10.229a21.49391,21.49391,0,0,0,4.31345-8.01868,16.31784,16.31784,0,0,0,.38375-2.85484c.10711-.95192.18908-1.90477.28129-2.85762a15.66935,15.66935,0,0,0-1.37293-7.295,22.9821,22.9821,0,0,0-8.97153-10.79434,30.09272,30.09272,0,0,0-17.31249-4.98967,32.93541,32.93541,0,0,0-14.43157,3.63071,50.52754,50.52754,0,0,0-8.62876,5.42186,4.97574,4.97574,0,0,1,.99663,1.57318c.82617-.54954,1.6626-1.08884,2.526-1.60485a39.57956,39.57956,0,0,1,12.92638-5.28214,26.75679,26.75679,0,0,1,11.56.081,26.30064,26.30064,0,0,1,9.59652,4.40008,24.837,24.837,0,0,1,5.6277,6.31416,6.8634,6.8634,0,0,1,.64082,1.522,19.69293,19.69293,0,0,1,1.01712,2.91817,26.2851,26.2851,0,0,1,.25428,3.33172,15.906,15.906,0,0,1-2.32019,8.58592c-3.36339,5.4973-8.62131,8.90913-15.85852,10.17773a24.82842,24.82842,0,0,1-11.33084-.76843,39.16251,39.16251,0,0,1-11.41281-5.61372,67.868,67.868,0,0,1-14.35333-13.33435c-.45268-.56072-3.26653-3.78254-4.39263-4.94217-.34742-.35767-.70416-.70788-1.05717-1.06,2.25965-8.13324,3.64655-18.43392,3.64934-31.46928C592.08968,556.85314,612.08654,504.69679,601.31735,463.40651ZM516.82363,613.96562a31.89837,31.89837,0,0,1-9.05163,2.42358c-.55234.05868-1.10189.09686-1.64957.12481-.21236.00559-.42007.00931-.62126.00931v.01211a25.15364,25.15364,0,0,1-11.858-2.4124c-6.996-3.38854-11.06259-8.4518-11.86921-15.29781a15.27655,15.27655,0,0,1,2.17582-10.02777c4.143-6.7333,10.83811-10.18425,19.818-10.52236a28.542,28.542,0,0,1,2.9014.12761,33.09356,33.09356,0,0,1,10.65276,3.43325,54.83654,54.83654,0,0,1,12.13095,8.62783c1.06462.992,2.45431,2.42265,3.76018,3.80675C528.90427,605.49054,522.66556,611.17039,516.82363,613.96562ZM710.942,451.012a190.20649,190.20649,0,0,0-44.68348-56.35989c-38.36094-32.98844-80.81551-47.04372-122.17658-47.67337-36.28478.177-67.53331,7.661-97.34559,24.47611A194.931,194.931,0,0,0,373.56228,442.793c-33.94875,56.77344-35.48934,127.80334-4.00329,187.19876a186.84454,186.84454,0,0,0,38.05077,49.91159c34.75072,32.24983,73.58109,48.67652,115.74133,52.34449,37.44813,3.25907,73.65747-3.68567,108.37837-22.66727,31.42831-17.18209,58.59532-42.18073,78.60243-79.315A190.62879,190.62879,0,0,0,710.942,451.012Zm16.01407,128.96669c-7.66939,23.405-15.94608,51.848-42.43315,59.74843-13.24307,4.741-29.79737-3.15941-43.04044,6.32068-34.76468,23.703-51.318,67.9478-96.07884,75.92364a90.14119,90.14119,0,0,1-17.22214.11829,202.059,202.059,0,0,1-36.07054-6.1018c-27.89074-7.27726-54.90593-21.03448-80.00144-42.97337A186.13938,186.13938,0,0,1,365.91524,612.127c-15.57816-32.90182-18.8717-62.50918-15.99358-90.35986a166.66878,166.66878,0,0,1,30.26309-80.57892c7.62747-10.79527,16.66514-20.4365,25.06384-30.6012,25.55564-22.888,55.339-40.61033,93.02189-48.79853a185.34369,185.34369,0,0,1,93.44849,3.06813c36.67877,10.555,69.92336,30.6962,98.00224,64.17458,18.20107,21.70138,29.30651,44.15815,35.62719,66.93161,7.22231,26.02415,7.82215,49.46823,4.23894,71.18638Q728.51294,573.66405,726.95605,579.97867Z"/></svg>