<svg id="Layer_1" data-name="Layer 1" xmlns="http://www.w3.org/2000/svg" xmlns:xlink="http://www.w3.org/1999/xlink" viewBox="0 0 1080 1080"><defs><style>.cls-1{fill:none;}.cls-2{clip-path:url(#clip-path);}.cls-3{fill:#2f2f35;}</style><clipPath id="clip-path"><rect class="cls-1" x="1498.57164" y="-1227.27222" width="1080" height="1080"/></clipPath></defs><title>IGRIK_Bar&amp;amp;Yoga_logo_ALLLL</title><path class="cls-3" d="M614.94343,446.38574H602.981c11.6141,49.49711-9.37825,112.68365-62.98162,112.68365-53.60223,0-74.59459-63.18654-62.98049-112.68365H465.0564c-13.1612,50.4659,11.27713,114.2114,73.31388,115.31338-.00342,14.755-1.47653,26.50684-3.89,35.86916A78.22317,78.22317,0,0,0,518.51975,585.936a53.72866,53.72866,0,0,0-12.55443-4.93844A38.11294,38.11294,0,0,0,495.8414,579.842a32.99147,32.99147,0,0,0-5.27427.61361,42.37978,42.37978,0,0,0-12.30285,3.72261,30.69,30.69,0,0,0-13.398,12.79464,23.92535,23.92535,0,0,0-2.673,16.33738c1.79983,9.10048,7.45434,16.05961,16.99539,20.57456a36.15506,36.15506,0,0,0,21.68337,3.06119c1.40025-.22768,2.75724-.52139,4.08122-.86975a35.063,35.063,0,0,0,14.8415-6.86463q1.016-.67621,2.01044-1.38659c2.18348-1.56191,9.60366-10.29354,11.893-17.69893.16052-.37681.32218-.75249.47928-1.13841,1.37634,1.497,2.35082,2.5842,2.35082,2.5842s1.84651,2.43734,1.91481,2.37132c1.91709,2.01954,2.83352,3.084,4.81322,5.03634a77.525,77.525,0,0,0,17.57484,13.43215,90.43773,90.43773,0,0,0,8.38214,3.83646,34.48273,34.48273,0,0,0,5.3403,1.67119,38.52839,38.52839,0,0,0,9.62529.9722c11.78031-.255,21.03448-4.48876,27.93441-12.50206a26.27028,26.27028,0,0,0,5.272-9.80061,19.94366,19.94366,0,0,0,.469-3.48924c.13092-1.16346.2311-2.32806.3438-3.49265a19.1514,19.1514,0,0,0-1.678-8.91606,28.08924,28.08924,0,0,0-10.9652-13.19308,36.77993,36.77993,0,0,0-21.15971-6.09849,40.25416,40.25416,0,0,0-17.63859,4.43754,61.7565,61.7565,0,0,0-10.54627,6.62671,6.08121,6.08121,0,0,1,1.21811,1.92278c1.00977-.67166,2.03207-1.33081,3.08738-1.96149a48.37515,48.37515,0,0,1,15.79891-6.45594,32.70246,32.70246,0,0,1,14.12886.099,32.14524,32.14524,0,0,1,11.72908,5.37787,30.356,30.356,0,0,1,6.8783,7.71731,8.38873,8.38873,0,0,1,.78322,1.86016,24.06894,24.06894,0,0,1,1.24315,3.56666,32.12564,32.12564,0,0,1,.31079,4.0721,19.44082,19.44082,0,0,1-2.83579,10.4939c-4.11081,6.71893-10.53716,10.88894-19.38264,12.43946a30.346,30.346,0,0,1-13.84881-.9392,47.86527,47.86527,0,0,1-13.949-6.86122,82.95019,82.95019,0,0,1-17.543-16.29753c-.55327-.68533-3.99242-4.6231-5.36876-6.04043-.42463-.43715-.86064-.86519-1.2921-1.29552,2.76179-9.94063,4.45689-22.53035,4.46031-38.46246C603.66516,560.59828,628.10577,496.85164,614.94343,446.38574ZM511.67333,630.40242a38.98634,38.98634,0,0,1-11.06311,2.96215c-.67508.07172-1.34675.1184-2.01614.15255-.25955.00683-.51342.01138-.75932.01138v.0148a30.74327,30.74327,0,0,1-14.49315-2.94849c-8.55063-4.14155-13.52094-10.33-14.50681-18.69731a18.67136,18.67136,0,0,1,2.65934-12.25617c5.06366-8.2296,13.24658-12.44742,24.222-12.86067a34.8856,34.8856,0,0,1,3.54616.156,40.44792,40.44792,0,0,1,13.02,4.19619,67.023,67.023,0,0,1,14.8267,10.54513c1.30121,1.21241,2.99972,2.961,4.59578,4.6527C526.43856,620.044,518.81346,626.986,511.67333,630.40242ZM748.92908,431.23686a232.47471,232.47471,0,0,0-54.61314-68.8843c-46.88559-40.31922-98.77451-57.49789-149.32692-58.26745-44.34807.2163-82.54072,9.36345-118.97795,29.91524a238.24892,238.24892,0,0,0-89.435,87.19114c-41.49292,69.38976-43.37586,156.20409-4.8929,228.79848A228.36527,228.36527,0,0,0,378.18971,710.993c42.4731,39.41646,89.93244,59.49353,141.46162,63.9766,45.76994,3.98331,90.02579-4.5047,132.46246-27.70444,38.41237-21.00033,71.61649-51.55423,96.06963-96.94052A232.99071,232.99071,0,0,0,748.92908,431.23686Zm16.62465,157.626c-9.25253,28.60608-19.23772,63.36983-51.19234,73.02586-15.97674,5.79453-35.94824-3.8615-51.925,7.72528-41.94093,28.97036-61.9113,83.04731-115.91176,92.79555a107.34909,107.34909,0,0,1-20.77719.14458,240.891,240.891,0,0,1-43.51635-7.45775c-33.648-8.89443-66.23979-25.70881-96.5156-52.523a227.24378,227.24378,0,0,1-55.72983-74.41813c-18.79386-40.21334-22.76726-76.40011-19.295-110.43984A205.311,205.311,0,0,1,347.20074,419.23c9.202-13.19422,20.10522-24.978,30.23761-37.40146,30.83092-27.97425,66.7623-49.63486,112.22378-59.64266,33.87389-7.45775,70.57389-8.54266,112.73843,3.74994,44.25013,12.90051,84.35718,37.51757,118.2322,78.4356,21.95819,26.52391,35.356,53.97107,42.98147,81.8053,8.71316,31.80729,9.43682,60.46117,5.11395,87.00558Q767.432,581.14494,765.55373,588.86282Z"/></svg>