<svg id="Layer_1" data-name="Layer 1" xmlns="http://www.w3.org/2000/svg" xmlns:xlink="http://www.w3.org/1999/xlink" viewBox="0 0 1080 1080"><defs><style>.cls-1{fill:none;}.cls-2{clip-path:url(#clip-path);}.cls-3{fill:#fafafa;}.cls-4{fill:#feaead;}.cls-5{fill:#2f2f35;}.cls-6{fill:url(#linear-gradient);}</style><clipPath id="clip-path"><rect class="cls-1" x="1498.57164" y="41.44692" width="1080" height="1080"/></clipPath><linearGradient id="linear-gradient" x1="302.04235" y1="540" x2="777.95765" y2="540" gradientUnits="userSpaceOnUse"><stop offset="0.03073" stop-color="#fed0af"/><stop offset="0.38547" stop-color="#fea094"/><stop offset="1" stop-color="#fe93c7"/></linearGradient></defs><title>IGRIK_Bar&amp;amp;Yoga_logo_ALLLL</title><g class="cls-2"><path class="cls-3" d="M1111.59107,415.98908c35.72037-13.87831,71.03846-28.89015,104.52115-46.97856,63.93982-34.54179,120.81619-81.30958,151.93832-144.61179,27.86577-56.6787,32.97743-123.91992.28092-179.96047-31.036-53.19943-89.66084-94.62315-104.10249-155.59352-16.92306-71.47434,45.9311-138.50128,64.034-204.71188,18.73857-68.536,10.32026-139.70784,6.28733-209.51245-4.07346-70.50789-4.89514-144.82188,30.98265-209.20884,35.99983-64.64595,100.21953-109.14688,153.40709-160.757,53.651-52.08771,101.90629-118.90086,89.44007-194.20936-9.44477-57.05611-46.32922-106.28965-91.44366-144.05931H1344.5171c84.37222,71.15905,164.56186,165.92246,115.57815,276.94084C1404.68907-831.09881,1235.33983-784.90177,1240.09-629.5221c2.063,67.2529,27.69486,131.81828,29.42579,199.10405.78667,30.995-4.49322,61.37471-17.67646,89.95732-13.16566,28.54962-31.80418,54.47611-47.155,81.98953-16.17305,28.97116-28.01,60.30611-22.92212,93.342,5.45529,35.38341,26.27888,66.68641,47.17248,95.98089,38.0284,53.32682,83.68,107.43054,97.37043,171.57447,13.42778,62.881-13.81285,121.95644-62.89135,165.32379-26.75063,23.627-58.51986,41.78041-91.40748,57.11594-29.277,13.652-60.55385,28.11885-91.87543,37.21082q-4.077,1.18336-7.91566,2.05408v68.33665C1086.23336,427.01089,1099.73991,420.59348,1111.59107,415.98908Z"/><path class="cls-4" d="M1072.21521,364.13286V-217.40708a248.24644,248.24644,0,0,0,24.06653-17.84113,257.98187,257.98187,0,0,0,72.52358-99.98119c18.36139-44.97012,23.48241-94.16665,18.60338-141.84325a387.37222,387.37222,0,0,0-14.65082-71.78885c-7.36181-24.62786-16.24365-48.88617-22.13591-73.89286-25.13-106.64031,57.61726-149.44248,136.01032-206.71287,32.97566-24.13042,63.94316-52.8432,80.09548-89.4382,28.10124-63.66013,1.49707-150.65653-27.695-210.26374-17.70416-36.15228-46.28924-72.10829-79.72131-104.445h85.20737c84.372,71.159,164.55871,165.92347,115.57683,276.94076-55.40828,125.57672-224.75474,171.77008-220.00355,327.15051,2.063,67.252,27.69494,131.82043,29.42474,199.10451.785,30.99479-4.49569,61.37347-17.67673,89.95842-13.16749,28.54852-31.80278,54.4772-47.15638,81.98962-16.17058,28.96837-28.00987,60.30547-22.92094,93.34055,5.45411,35.38551,26.28017,66.68605,47.17007,95.983,38.028,53.327,83.68282,107.42994,97.37057,171.57387,13.42755,62.87968-13.811,121.95745-62.88885,165.321-26.75012,23.62837-58.5209,41.78438-91.4098,57.11972-29.27421,13.65133-60.552,28.11494-91.87543,37.20659Q1076.056,363.25884,1072.21521,364.13286Z"/><path class="cls-3" d="M1072.21521,261.9609V-54.48223a28.12993,28.12993,0,0,1,4.67821.15066,33.54576,33.54576,0,0,1,19.3199,9.69873c17.22949,16.94647,16.88719,44.27181,31.76608,63.2767,13.8521,17.695,34.1578,30.20976,55.56341,38.82684,30.75759,12.38237,66.04716,19.85842,74.646,54.65059,11.44677,46.29828-36.53114,78.01425-76.40763,93.29482-34.313,13.14923-70.65239,18.74026-96.3666,45.83283-3.69684,3.89775-7.266,8.188-12.35047,10.36509C1072.7766,261.73726,1072.49358,261.85136,1072.21521,261.9609Z"/></g><path class="cls-5" d="M436.298,496.43838h60.05465v6.70255c-10.188-3.21712-19.16909-5.362-53.3521-5.362l.00215,85.79159H436.298Z"/><path class="cls-5" d="M442.99927,497.30083h-6.70114v86.42111c-.00072.07568-.00288.13279-.00359.21776-.00288,1.57716,1.56132,1.37082,1.48954,5.59681-.018,1.06381.87793,1.29229.893.07282.03589-2.93941,1.389-4.2881,2.47156-4.2881a1.82038,1.82038,0,0,0,1.84847-1.378h.00215Z"/><path class="cls-5" d="M667.4354,496.43838h6.702v37.53375l12.869-9.24941a243.02272,243.02272,0,0,0,32.30587-28.28434h9.11525l-43.02995,30.96536,51.073,56.16674h-9.11525l-47.45342-52.14521-5.76452,4.15569v47.98952h-6.702Z"/><path class="cls-5" d="M650.24854,496.43828h-6.702v63.40539c0,9.59282-5.629,15.99153-13.369,19.3802a10.94522,10.94522,0,0,1-4.78165,1.153c-8.685-2.01336-8.25621-13.16111-15.54512-17.01994-1.28628-.42876-3.00132.42876-4.2876.85751-5.14511,3.00132-12.00526,11.57651-17.15806,4.9825a14.94188,14.94188,0,0,1-1.85266-4.28864,19.58431,19.58431,0,0,1-.64734-5.0646V549.78984c0-26.13941,2.14493-40.48255,5.362-53.35156h-6.70255v63.40539a22.42452,22.42452,0,0,0,.47867,4.67273,20.34826,20.34826,0,0,0,1.36978,4.17935c1.14222,2.80758,2.85726,5.38013,6.7161,4.95137,6.86015-1.28628,10.719-11.14774,17.15037-7.71767,7.28892,3.85884,7.28892,17.57914,16.99628,17.42464a41.70848,41.70848,0,0,0,4.61749-1.24418,31.15944,31.15944,0,0,0,11.65323-6.69951v8.19473h6.702V496.43828Z"/><path class="cls-5" d="M420.55193,496.43828h-6.702v63.40539c0,30.697-57.6414,28.68628-57.6414,0V549.78984c0-26.13941,2.14492-40.48255,5.362-53.35156H354.868v63.40539c0,26.23693,42.25867,31.42225,58.98191,15.56673v8.19473h6.702V496.43828Z"/><path class="cls-5" d="M505.19735,496.43839h16.49443a36.72916,36.72916,0,0,1,3.83018.13794c7.34229,1.465,6.98575,10.735,13.04691,14.30043a3.13119,3.13119,0,0,0,2.49577-.35654c5.34808-3.56539,11.0527-10.33962,17.51163-5.92894a35.32984,35.32984,0,0,1,2.83784,2.23606,30.275,30.275,0,0,1,10.67372,22.8557c0,14.02457-10.11589,28.04957-30.42769,32.09q-1.12843.22448-2.29883.4073a86.63585,86.63585,0,0,1-10.035.74671l-1.67564,0h-9.04842a27.744,27.744,0,0,0-6.70246.4021v20.24121h-6.70247Zm6.70247,1.34074v64.07548c2.14493-.13445,4.42369-.26827,6.70246-.26827h5.362c6.40417-.08109,12.82187-.08109,18.90353-2.04176a34.8842,34.8842,0,0,0,3.79172-1.49277A30.85245,30.85245,0,0,0,564.715,529.683a31.384,31.384,0,0,0-6.5-19.254,22.095,22.095,0,0,0-2.36377-2.62334c-5.16008-4.05976-10.15163,1.28832-14.43009,4.14063-2.13923,1.06962-3.92193,0-5.34808-1.42615-3.56539-4.27847-4.635-12.12232-11.3043-12.59053a36.52794,36.52794,0,0,0-4.15572-.15056Z"/><path class="cls-5" d="M475.13536,616.893c0-4.56885-.12021-5.04969-.60114-5.16982v-.12047h10.82086l.96185,2.1643h-.24046c-1.27444-1.44286-4.47262-1.32274-6.46845-1.32274h-2.4287c-.72139,0-.72139.12047-.72139,1.08215v7.214h1.20232c3.29437,0,6.61272,1.08215,6.61272,3.84741s-3.31835,3.84742-6.61272,3.84742h-3.126v-.12012c.48093-.12047.60114-.60131.60114-5.17016Zm1.32257,4.689v4.92956c0,.96168,0,1.08215.72139,1.08215H477.54c2.76536,0,5.17-.84155,5.17-3.00586s-2.40463-3.00585-5.17-3.00585Z"/><path class="cls-5" d="M502.78752,623.81838c.74542,1.46689,1.87562,4.42435,2.78938,4.47275v.14415h-2.69319v-.0961c.8416-.16852-.64923-2.78929-1.3466-4.112l-2.11608-4.088h-6.58869l-2.11608,4.088c-1.08207,2.09223-1.82752,3.79936-.74546,4.088v.12012h-3.05386v-.14415c1.10613-.16852,2.28438-3.00586,3.02984-4.47275l6.42039-12.69647Zm-9.52235-4.5208h5.723l-2.86154-5.53053Z"/><path class="cls-5" d="M506.77773,611.72322v-.12047h3.126c3.29437,0,6.61272,1.08215,6.61272,3.84742s-3.31835,3.84741-6.61272,3.84741h-1.20232V623.145c0,4.56885.12021,5.04969.60114,5.17016v.12012h-2.52485v-.12012c.48093-.12047.60114-.60131.60114-5.17016v-6.252C507.37887,612.32419,507.25866,611.84335,506.77773,611.72322Zm3.00578,6.73281c2.76535,0,5.17-.84156,5.17-3.00586,0-2.164-2.40463-3.00586-5.17-3.00586h-.36068c-.72139,0-.72139.12047-.72139,1.08215V618.456Z"/><path class="cls-5" d="M526.37357,626.271l14.548-15.14907V623.145c0,4.56885.24042,5.04969.72135,5.17016v.12012h-2.28438v-.12012c.48093-.12047.72139-.60131.72139-5.17016v-9.37795l-14.548,15.14907V616.893c0-4.56885-.24051-5.04969-.72144-5.16982v-.12047H527.095v.12047c-.48093.12013-.72139.601-.72139,5.16982Z"/><path class="cls-5" d="M551.37941,616.893V626.271l14.54806-15.14907V623.145c0,4.56885.24042,5.04969.72135,5.17016v.12012h-2.28438v-.12012c.48092-.12047.72139-.60131.72139-5.17016v-9.37795l-14.548,15.14907V616.893c0-4.56885-.24051-5.04969-.72143-5.16982v-.12047h2.28442v.12047C551.61987,611.84335,551.37941,612.32419,551.37941,616.893Zm3.126-8.65686a4.21121,4.21121,0,0,0,3.60695,1.924c3.126,0,4.20809-3.24645,4.20809-3.24645a4.36038,4.36038,0,0,1-3.4867,2.1643,3.535,3.535,0,0,1-3.24628-1.80358Z"/><path class="cls-5" d="M577.10739,611.12191a8.89711,8.89711,0,1,1-8.89715,8.89711A8.75708,8.75708,0,0,1,577.10739,611.12191Zm-7.57458,8.17567a8.36956,8.36956,0,0,0,8.17576,8.65686,6.8217,6.8217,0,0,0,6.97339-7.214,8.36957,8.36957,0,0,0-8.17575-8.65686A6.8217,6.8217,0,0,0,569.53281,619.29758Z"/><path class="cls-5" d="M588.28722,616.893c0-4.56885-.12021-5.04969-.60114-5.16982v-.12047h9.61854l.96185,2.1643H598.026c-1.27448-1.44286-4.47262-1.32274-6.46849-1.32274h-1.22634c-.72139,0-.72139.12047-.72139,1.08215V623.145c0,4.56885.12021,5.04969.60113,5.17016v.12012h-2.52484v-.12012c.48093-.12047.60114-.60131.60114-5.17016Z"/><path class="cls-5" d="M614.73706,623.81838c.74546,1.46689,1.87562,4.42435,2.78938,4.47275v.14415h-2.69319v-.0961c.84164-.16852-.64928-2.78929-1.3466-4.112l-2.11608-4.088h-6.58869l-2.11608,4.088c-1.08211,2.09223-1.82752,3.79936-.74542,4.088v.12012h-3.0539v-.14415c1.10613-.16852,2.28442-3.00586,3.02983-4.47275l6.42036-12.69647Zm-9.52235-4.5208h5.723l-2.86149-5.53053Z"/><path class="cls-6" d="M750.738,430.29519a234.48739,234.48739,0,0,0-55.086-69.4807c-47.29152-40.6683-99.6297-57.99571-150.6198-58.77194-44.732.21817-83.25536,9.44453-120.008,30.17426a240.3116,240.3116,0,0,0-90.20929,87.946c-41.85216,69.99053-43.7514,157.5565-4.93526,230.77942a230.34246,230.34246,0,0,0,46.90915,61.53122c42.84082,39.75772,90.71107,60.00862,142.68639,64.53051,46.16622,4.0178,90.80524-4.5437,133.60932-27.94431,38.745-21.18215,72.23655-52.00058,96.9014-97.77983A235.00793,235.00793,0,0,0,750.738,430.29519Zm19.74222,158.99069c-9.45486,28.85374-19.65839,63.91848-52.31176,73.65811-16.32611,5.8447-36.73433-3.89493-53.06044,7.79216-42.85805,29.22119-63.26511,83.76634-118.4464,93.599a111.12541,111.12541,0,0,1-21.23153.14583,249.09888,249.09888,0,0,1-44.46792-7.52232c-34.38382-8.97144-67.68825-25.93139-98.62611-52.97776a229.47352,229.47352,0,0,1-56.94848-75.06244c-19.20482-40.56151-23.26511-77.06159-19.71695-111.396a205.47008,205.47008,0,0,1,37.30846-99.338c9.40319-13.30846,20.54485-25.19421,30.89881-37.72528,31.5051-28.21645,68.2222-50.0646,114.67778-60.159,34.61462-7.52233,72.11713-8.61663,115.20369,3.7824,45.21775,13.0122,86.20182,37.8424,120.81758,79.11469,22.43836,26.75356,36.12919,54.43836,43.92135,82.51358,8.90369,32.08268,9.64318,60.98465,5.22578,87.75887Q772.39954,581.50119,770.48021,589.28588Z"/></svg>