<svg id="Layer_1" data-name="Layer 1" xmlns="http://www.w3.org/2000/svg" xmlns:xlink="http://www.w3.org/1999/xlink" viewBox="0 0 1080 1080"><defs><style>.cls-1{fill:none;}.cls-2{fill:url(#linear-gradient);}.cls-3{clip-path:url(#clip-path);}.cls-4{fill:#fafafa;}.cls-5{fill:#feaead;}.cls-6{fill:#fff;}</style><linearGradient id="linear-gradient" y1="1080" x2="1080" gradientUnits="userSpaceOnUse"><stop offset="0.03073" stop-color="#fed0af"/><stop offset="0.38547" stop-color="#fea094"/><stop offset="1" stop-color="#fe93c7"/></linearGradient><clipPath id="clip-path"><rect class="cls-1" x="11.80599" y="1266.11245" width="1080" height="1080"/></clipPath></defs><title>IGRIK_Bar&amp;amp;Yoga_logo_ALLLL</title><rect class="cls-2" width="1080" height="1080"/><g class="cls-3"><path class="cls-4" d="M322.33467,1452.76435c26.97888,139.08758,63.41518,276.25171,109.64892,409.30733,30.31187,87.23423,68.7739,178.22249,140.55782,234.61634,64.36023,50.56175,150.83066,69.41488,221.73248,22.73477,115.54118-76.07076,83.236-212.22449,89.374-333.67112,1.78151-35.24789,3.95115-70.67082,7.64342-105.76162,4.33134-41.16353,14.14-78.58832,44.80112-106.33425,35.16921-31.82554,81.53266-33.39341,125.22027-30.44518,60.9115,4.11062,117.0519,15.59053,174.6143-13.87364,111.99633-57.3268,145.15529-197.31246,155.07619-319.62171,2.8988-35.73908,5.05228-71.66872,4.27506-107.5634a526.83394,526.83394,0,0,0-3.80541-53.95625q-.28446-2.26368-.54464-4.47041h-80.70688c5.30887,10.34039,10.0612,21.02994,14.37894,31.63172,16.63424,40.8428,26.17874,87.67855,27.6556,135.02945,3.506,112.40171-38.449,227.70652-138.94847,272.64342-108.18622,48.36632-219.68365,5.33566-323.39389-32.90555-37.23721-13.73057-104.879-28.61279-125.653,20.45545-7.0541,16.66149-4.99893,36.00074-2.08506,54.04831,9.20744,57.02849,25.3641,112.57538,40.56772,167.98566,15.161,55.25187,38.04154,111.41893,43.95055,168.91867,4.052,39.428-2.56941,81.05667-22.88223,114.64182-22.0559,36.45442-58.10379,61.282-98.15121,66.87742-147.88371,20.66216-219.46813-208.16-256.05039-323.91785-36.93343-116.86925-59.65145-238.25463-77.98258-359.937-8.54291-56.70727-15.93165-112.8244-19.9815-169.91834q-3.3827-47.68937-4.804-95.50736c-.14906-5.09619,1.00141-28.44268,1.42391-50.04578H271.30784A3097.03727,3097.03727,0,0,0,322.33467,1452.76435Z"/><path class="cls-5" d="M366.84176,1093.771q1.39765,47.80561,4.804,95.50736c4.04985,57.09394,11.43859,113.21107,19.9815,169.91834,18.33113,121.68241,41.04915,243.06779,77.98258,359.937,36.58226,115.75788,108.16668,344.58,256.05039,323.91785,40.04742-5.59546,76.09531-30.423,98.15121-66.87742,20.31282-33.58515,26.93424-75.2138,22.88223-114.64182-5.909-57.49974-28.7896-113.6668-43.95055-168.91867-15.20362-55.41028-31.36028-110.95717-40.56772-167.98566-2.91387-18.04757-4.969-37.38682,2.08506-54.04831,20.77407-49.06824,88.41584-34.186,125.653-20.45545,103.71024,38.24121,215.20767,81.27187,323.39389,32.90555,100.49944-44.9369,142.45447-160.24171,138.94847-272.64342-1.47686-47.3509-11.02136-94.18665-27.6556-135.02945-4.31774-10.60178-9.07007-21.29133-14.37894-31.63172h-60.82341a435.43433,435.43433,0,0,1,25.4625,66.76624c12.79456,43.89825,21.96343,107.43081,16.15881,165.80115-13.38488,134.55533-133.18642,175.73419-244.05291,149.45043-40.73377-9.65706-73.23417-37.75907-109.06362-59.22082-49.525-29.66526-119.28786-67.4199-176.9597-46.33862-37.99663,13.8893-63.83147,54.56369-71.37608,97.103-11.21113,63.21427,11.49516,125.02891,33.25914,182.46835q17.0522,45.00424,34.13685,89.99155c10.65545,28.20115,21.03532,56.73479,27.30262,86.52721,9.35449,44.46794,10.39493,102.20459-23.18931,137.42921a62.21025,62.21025,0,0,1-59.07982,18.2525c-61.8015-13.308-93.37045-88.97869-114.11778-145.53689-26.28993-71.66822-48.05085-146.70676-66.262-221.1427-41.56635-169.89762-63.34544-346.56019-77.49212-521.55058h-75.8588C367.84317,1065.32831,366.6927,1088.6748,366.84176,1093.771Z"/><path class="cls-4" d="M587.87863,1786.41849c20.74733,56.5582,52.31628,132.22887,114.11778,145.53689a62.21025,62.21025,0,0,0,59.07982-18.2525c33.58424-35.22462,32.5438-92.96127,23.18931-137.42921-6.2673-29.79242-16.64717-58.32606-27.30262-86.52721q-17.0036-45.03121-34.13685-89.99155c-21.764-57.43944-44.47027-119.25408-33.25914-182.46835,7.54461-42.53928,33.37945-83.21367,71.37608-97.103,57.67184-21.08128,127.43469,16.67336,176.9597,46.33862,35.82945,21.46175,68.32985,49.56376,109.06362,59.22082,110.86649,26.28376,230.668-14.8951,244.05291-149.45043,5.80462-58.37034-3.36425-121.9029-16.15881-165.80115a435.43433,435.43433,0,0,0-25.4625-66.76624h-60.38644q10.50406,13.98507,20.0503,28.69928c26.66081,41.12172,45.904,96.37568,45.23142,148.4319-.6057,46.87294-17.35852,91.1533-59.38293,120.1894-86.65793,59.86568-194.05725-42.90026-253.80266-103.33444-59.7753-60.46425-153.01572-178.04121-246.7994-118.52943-133.48264,84.70517-67.14346,340.9614-18.57536,459.41311,18.34409,44.73891,95.49755,174.61526,48.87467,222.35123-7.838,8.008-19.74026,8.72511-29.79713,6.31189-49.04641-11.75842-64.98609-87.96842-80.51473-130.60437-72.46379-198.95951-101.96735-424.47357-50.26106-632.92857H444.12447c14.14668,174.99039,35.92577,351.653,77.49212,521.55058C539.82778,1639.71173,561.5887,1714.75027,587.87863,1786.41849Z"/><path class="cls-5" d="M1254.293,1220.85812c-.607,46.87336-17.35729,91.14974-59.38361,120.18658-86.65857,59.86736-194.05657-42.898-253.80065-103.33134-59.77618-60.46526-153.01618-178.04116-246.79945-118.5298-133.48181,84.70522-67.14255,340.96145-18.576,459.41366,18.34319,44.73736,95.49938,174.61353,48.87248,222.3495-7.83652,8.00544-19.73975,8.72657-29.79447,6.31211-49.04587-11.75713-64.98825-87.96856-80.51538-130.60638-72.46429-198.95846-101.96666-424.47088-50.26-632.92724h624.97661q10.50207,13.98671,20.05007,28.6991C1235.72168,1113.54689,1254.9639,1168.79994,1254.293,1220.85812Z"/><path class="cls-4" d="M224.39,1043.72521H193.688q-5.09957,14.8674-9.21232,30.11972c-22.5418,84.29167-20.7769,174.02115-8.0483,259.99126,13.26274,89.572,38.59024,176.32922,61.4234,263.436,11.627,44.3379,23.07525,88.9732,31.22076,134.23776,6.94607,38.59909,8.66062,85.27163-8.60087,120.58885-7.387,15.1139-18.24916,28.14821-33.66388,37.5802-14.05392,8.58344-29.87211,12.55252-45.77122,14.66831-79.89218,10.63194-133.03005,21.82171-185.332,92.773q-2.30866,3.12807-4.5448,6.32v120.68041c32.93413-39.7,78.276-68.25326,125.46464-83.20262,48.04715-15.22873,98.57206-18.56806,148.38452-15.99792,27.89375,1.4392,56.51065,9.64518,84.44174,5.51357,38.07407-5.632,59.14326-32.98866,59.61806-73.60226.85618-73.233-54.0609-177.29411-72.01308-221.364-20.17754-49.53259-40.59821-98.99562-56.43547-150.38214-16.53393-53.60669-28.809-108.62967-39.01128-164.02019-10.105-54.90052-18.37983-110.20314-26.41238-165.48865-7.64346-52.60984-14.25069-107.45815-3.69232-160.173C215.17675,1077.0623,221.435,1061.77739,224.39,1043.72521Z"/><path class="cls-5" d="M181.03555,1904.34734c15.89911-2.11579,31.7173-6.08487,45.77122-14.66831,15.41472-9.432,26.27692-22.4663,33.66388-37.5802,17.26149-35.31722,15.54694-81.98976,8.60087-120.58885-8.14551-45.26456-19.59379-89.89986-31.22076-134.23776-22.83316-87.10681-48.16066-173.86405-61.4234-263.436-12.7286-85.97011-14.4935-175.69959,8.0483-259.99126q4.08051-15.23482,9.21232-30.11972h-50.3769c-9.20374,11.72346-14.22385,26.43557-18.00826,41.20538-29.07217,113.46292-1.88571,229.61,15.35967,342.46811,6.51165,42.61386,12.7878,89.73838,12.82235,136.164.03651,49.31579-6.9588,100.38981-30.42232,143.50659-24.43329,44.89879-66.14875,68.61415-99.48155,104.35264-12.94782,13.88241-23.42778,29.7037-32.42226,46.53689V2003.4403q2.23746-3.19,4.5448-6.32C48.0055,1926.16905,101.14337,1914.97928,181.03555,1904.34734Z"/><path class="cls-4" d="M123.06252,1707.06929c23.46352-43.11678,30.45883-94.1908,30.42232-143.50659-.03455-46.42562-6.3107-93.55014-12.82235-136.164-17.24538-112.85808-44.43184-229.00519-15.35967-342.46811,3.78441-14.76981,8.80452-29.48192,18.00826-41.20538H80.437c-4.09688,12.446-8.0802,24.92454-11.86088,37.48039C34.964,1192.83411,25.67192,1304.06614,53.64286,1419.58778c12.82477,52.96721,21.84376,112.29355,10.59406,166.51256-9.89324,47.68157-39.22624,77.75947-73.07821,87.50219v184.35629c8.99448-16.83319,19.47444-32.65448,32.42226-46.53689C56.91377,1775.68344,98.62923,1751.96808,123.06252,1707.06929Z"/><path class="cls-5" d="M64.23692,1586.10034c11.2497-54.219,2.23071-113.54535-10.59406-166.51256C25.67192,1304.06614,34.964,1192.83411,68.57615,1081.2056c3.78068-12.55585,7.764-25.03435,11.86088-37.48039H-8.84129v629.87732C25.01068,1663.85981,54.34368,1633.78191,64.23692,1586.10034Z"/><path class="cls-4" d="M1483.55125,1212.12786c-1.57069,77.3859-17.975,154.946-49.52067,224.60352-27.80526,61.4046-69.13168,119.26029-126.00494,151.69369-32.06407,18.2885-67.77171,26.244-103.91618,25.89435a300.76857,300.76857,0,0,1-58.97859-6.80161c-39.575-8.368-82.27279-28.37641-122.83444-16.11622-42.56466,12.86594-55.7609,58.21758-60.98251,100.7392-9.58677,77.98088,8.4535,158.129-8.696,235.25194-7.41676,33.3538-29.13807,62.34828-33.68013,96.09454-6.06661,45.07313,28.75747,68.20064,66.65834,60.843,17.7462-3.44507,35.03854-10.99716,51.87772-17.7974,48.00867-19.41671,88.34473-48.08253,107.30155-100.729,6.39614-17.76331,10.83309-36.22621,16.16081-54.35648A465.73868,465.73868,0,0,1,1177.017,1865.201c25.91983-62.86553,70.2722-117.52424,138.31091-120.6936,85.26606-3.97187,169.72372,24.7736,255.1361,25.03717,75.47779.23277,183.41664-7.045,238.234-71.76525,46.56031-54.97159,43.30437-139.0816,44.20382-208.52391,1.08822-84.00842,60.17443-141.74165,121.1213-183.74214,78.7843-54.293,170.0967-100.59684,265.2068-102.57228,88.253-1.833,178.97841,20.30086,262.18642,57.94985v-54.23248c-7.888-3.26735-15.57191-6.71375-22.9108-9.74176-145.77765-60.18078-311.83019-73.78359-457.88287-7.23831-64.40225,29.33825-123.37971,73.32773-169.28931,130.44755-26.131,32.51181-43.42673,70.62094-53.74922,112.0291-9.88061,39.63478-8.95907,83.76977-22.429,121.96576-23.31907,66.16067-79.15559,111.5673-143.67282,120.64166-79.81579,11.22587-160.66932-9.58513-241.17328-.48992-67.73369,7.65246-137.98015,30.89616-195.06222,73.92522-27.35542,20.62095-56.06336,50.57612-74.38655,80.89063-18.41028,30.45851-19.62566,71.42747-44.68419,97.53671-32.65453,33.99678-31.64568-57.73844-31.96457-68.87664-1.63641-57.158-21.08155-171.65265,42.36229-199.85822,29.99114-13.35827,64.11152-5.50778,95.204-2.25554,74.86446,7.8504,154.52224-.59461,217.77576-48.16933,57.26149-43.06361,94.60467-110.43062,121.29223-178.63683,46.0394-117.61333,74.31645-261.693,33.81289-385.10324h-91.75229A593.95665,593.95665,0,0,1,1483.55125,1212.12786Z"/><path class="cls-5" d="M1520.84588,1428.82845c-26.68756,68.20621-64.03074,135.57322-121.29223,178.63683-63.25352,47.57472-142.9113,56.01973-217.77576,48.16933-31.09251-3.25224-65.21289-11.10273-95.204,2.25554-63.44384,28.20557-43.9987,142.70025-42.36229,199.85822.31889,11.1382-.69,102.87342,31.96457,68.87664,25.05853-26.10924,26.27391-67.0782,44.68419-97.53671,18.32319-30.31451,47.03113-60.26968,74.38655-80.89063,57.08207-43.02906,127.32853-66.27276,195.06222-73.92522,80.504-9.09521,161.35749,11.71579,241.17328.48992,64.51723-9.07436,120.35375-54.481,143.67282-120.64166,13.4699-38.196,12.54836-82.331,22.429-121.96576,10.32249-41.40816,27.61817-79.51729,53.74922-112.0291,45.9096-57.11982,104.88706-101.1093,169.28931-130.44755,146.05268-66.54528,312.10522-52.94247,457.88287,7.23831,7.33889,3.028,15.02279,6.47441,22.9108,9.74176v-71.28794c-219.51094-76.095-530.79293-71.22167-712.45608,106.24186-65.24867,63.74028-66.77934,133.22216-66.116,221.93462.37955,50.75034-11.03227,100.16809-53.39067,127.61087-32.91948,21.32756-84.31358,31.62377-112.68793-3.61473-33.96009-42.17835,3.73521-93.96624,25.51033-129.844,20.196-33.27607,33.07269-71.37534,41.09753-110.04152,12.62641-60.8376,16.26542-125.77528,17.24255-188.01712.61875-39.41757-3.3276-78.33318-12.57069-115.91521h-73.38661C1595.16233,1167.13541,1566.88528,1311.21512,1520.84588,1428.82845Z"/><path class="cls-4" d="M1121.31318,1209.69432c-91.03559,14.91093-171.78374-80.80747-224.42612-165.96911h210.93919C1165.24269,1113.56515,1209.93449,1195.18047,1121.31318,1209.69432Z"/></g><path class="cls-6" d="M435.10124,656.61189h9.257c6.82113,0,7.47075,6.25268,1.98958,7.47075,13.60125,2.03,12.66755,18.92009-2.80153,18.92009h-8.445Zm2.03.40612v8.03891a16.60273,16.60273,0,0,1,6.415-1.1772h.81195c4.58805,0,4.58805-6.86171,0-6.86171Zm0,25.5786h6.415c13.52022,0,13.52022-18.31106,0-18.31106a10.92187,10.92187,0,0,0-6.415,1.82711Z"/><path class="cls-6" d="M475.37373,667.696l4.83155,15.30675H478.297l-1.82711-5.68423c-.89326,3.2075-3.8977,5.88714-8.93217,5.88714-12.74886,0-12.74886-16.11841,0-16.11841a9.99713,9.99713,0,0,1,6.3337,1.98943l-.77137-2.39555a5.2983,5.2983,0,0,0-5.60306-4.06c-1.90813,0-3.93829,1.50215-4.83141,2.3141v-2.0706a22.45392,22.45392,0,0,1,4.83141-.64962A8.04467,8.04467,0,0,1,475.37373,667.696Zm-7.836-.2435c-10.0285,0-10.0285,15.38791,0,15.38791C477.9722,682.84039,477.9722,667.45248,467.53773,667.45248Z"/><path class="cls-6" d="M484.70833,683.00273h-1.8271V662.45845h1.21807l.36539,2.59847c2.39541-3.126,7.79541-3.451,10.84044-1.94885v2.23322c-3.61348-4.06-10.5968-3.69479-10.5968,3.49159Z"/><path class="cls-6" d="M529.28379,661.11863a9.11913,9.11913,0,0,0-7.67367-4.42529c-4.83155,0-7.79541,4.75024-4.46616,8.16067L530.38,678.4554a9.98333,9.98333,0,0,0,1.86769-5.64364,8.93956,8.93956,0,0,0-4.46616-7.6328h2.39556a11.838,11.838,0,0,1,2.436,7.6328,10.42046,10.42046,0,0,1-1.94885,5.88714l4.18193,4.30383h-2.55789l-2.84211-2.88256a11.00221,11.00221,0,0,1-7.79542,3.12606c-15.83447,0-14.69757-16.11842-5.39986-16.68687-3.49173-4.18208-.24364-10.23155,5.35928-10.23155a11.83785,11.83785,0,0,1,7.63308,2.43613Zm-12.66755,5.84656-.04059-.04058c-6.86171.28437-8.20153,15.95637,5.07505,15.95637a10.52305,10.52305,0,0,0,7.55178-3.04518Z"/><path class="cls-6" d="M549.00958,656.61189H551.73L563.17943,669.239l2.67964-2.964a62.80929,62.80929,0,0,0,6.94274-9.6631h2.39555l-11.8556,13.07381v13.317h-2.03V670.25387Z"/><path class="cls-6" d="M584.81676,662.25553c15.18485,0,15.18485,20.95011,0,20.95011S569.632,662.25553,584.81676,662.25553Zm0,.325c-12.46449,0-12.46449,20.2599,0,20.2599S597.28139,662.58049,584.81676,662.58049Z"/><path class="cls-6" d="M604.46366,677.80578c-2.27367.812-4.2631,4.385-.3654,4.385,3.41057,0,8.76985-2.19263,11.53065-2.19263,6.2121,0,5.44059,9.46018-3.93829,9.46018a11.75854,11.75854,0,0,1-7.63294-2.43614l-.04058-2.35468a9.153,9.153,0,0,0,7.67352,4.46587c7.99848,0,9.33829-7.34871,4.34441-7.34871-3.04517,0-8.24212,2.19263-11.65254,2.19263-4.34441,0-3.776-4.58819-.32481-6.33384-8.32328-3.65421-6.4556-15.38792,5.68409-15.38792a14.75815,14.75815,0,0,1,4.42557.609,10.1977,10.1977,0,0,1,5.96831-2.964l1.13691,1.94886a7.17566,7.17566,0,0,0-6.73982,1.1369c9.33829,3.16692,7.75483,15.75316-4.791,15.75316A13.78288,13.78288,0,0,1,604.46366,677.80578Zm5.27811-15.22529c-11.65254,0-11.65254,15.79374,0,15.79374S621.39431,662.58049,609.74177,662.58049Z"/><path class="cls-6" d="M640.06721,667.696l4.83155,15.30675h-1.90827l-1.82711-5.68423c-.89326,3.2075-3.89771,5.88714-8.93217,5.88714-12.74886,0-12.74886-16.11841,0-16.11841a9.99713,9.99713,0,0,1,6.3337,1.98943l-.77137-2.39555a5.29824,5.29824,0,0,0-5.60292-4.06c-1.90827,0-3.93843,1.50215-4.83155,2.3141v-2.0706a22.45406,22.45406,0,0,1,4.83155-.64962A8.04462,8.04462,0,0,1,640.06721,667.696Zm-7.836-.2435c-10.0285,0-10.0285,15.38791,0,15.38791C642.66568,682.84039,642.66568,667.45248,632.23121,667.45248Z"/><path class="cls-6" d="M626.26109,468.69621h-9.80216v93.12052h9.80216ZM542.11937,566.8627c69.13118-10.48536,64.44563-98.16649-14.07445-98.16649H492.75717V596.12262h9.80217V568.44091a57.04782,57.04782,0,0,1,9.80217-.54763h15.68341c34.503,0,66.26148,48.22608,108.41074,21.17243l-1.17643-1.56808C609.93349,605.703,587.50871,572.885,542.11937,566.8627Zm-25.44461-.92973h-4.31325c-3.35435,0-6.58812.12529-9.80217.397V470.65667h6.60737a56.46358,56.46358,0,0,1,6.17058.23553c15.17475,2.20865,17.59535,22.38027,32.92577,23.99407,5.64806.80683,9.68239-8.87556,16.94419-6.45493,4.84115.80683,9.68236,5.6481,10.75469,10.98381a42.13378,42.13378,0,0,1,2.12653,6.03051,49.19433,49.19433,0,0,1,1.28317,19.33424c-2.06144,13.67707-9.32324,25.77995-20.53068,32.85461a48.34352,48.34352,0,0,1-6.41587,3.46656,59.28343,59.28343,0,0,1-24.38017,4.83189H516.67476ZM324.95305,595.79741c-.00105.11128-.00421.19531-.00525.32029-.00421,2.31947,2.28383,2.016,2.17885,8.23126-.02626,1.5645,1.28421,1.90059,1.30625.10711.05251-4.323,2.03182-6.30669,3.61532-6.30669a2.666,2.666,0,0,0,2.70386-2.02648h.00317V468.69651h-9.8022Zm130.16907-10.4572c-8.82115,6.27379-19.9959,9.99927-33.32654,9.99927-.68747,0-1.36748-.01268-2.04277-.032-.21392-.00626-.42471-.01609-.637-.02443q-.69975-.0266-1.39075-.06569-.35457-.02147-.7068-.04574-.66954-.04669-1.33006-.10637c-.21983-.01982-.44047-.03783-.65912-.05988-.522-.052-1.04012-.11158-1.55425-.17579-.1178-.0146-.23717-.02636-.3546-.04171-1.362-.19382-2.69752-.424-3.992-.72177-12.55583-5.58345.354-20.91393-7.71463-29.78951-7.2618-9.68225-20.17162-5.648-30.66089-8.06859-2.42059,0-3.22746-1.61366-4.1141-3.54939a49.2701,49.2701,0,0,1-1.82315-5.934q-.33564-1.67907-.58583-3.38627c-.01538-.10443-.03113-.20886-.0461-.31359-.065-.45466-.1245-.91051-.18123-1.36711-.01575-.12483-.03269-.24938-.04767-.37421q-.09871-.83037-.17925-1.66342c-.01616-.17027-.02915-.34039-.04455-.51067-.02994-.33757-.06025-.67484-.08588-1.01286-.01575-.20409-.028-.40893-.04174-.61346-.0209-.30732-.04175-.6145-.0587-.92182-.01222-.21557-.02126-.431-.03154-.64654-.01378-.29585-.02756-.59186-.03821-.888-.00787-.22375-.01337-.44795-.0193-.67216-.00789-.28841-.015-.57681-.01929-.86523-.00358-.22807-.00514-.45659-.00671-.68467q-.003-.42726-.00119-.8542c.00119-.22971.00354-.45883.00671-.68855q.00592-.42858.01653-.85688.00827-.34056.0197-.68125c.00946-.28721.02168-.57443.03467-.86165q.01482-.3392.03271-.678c.01538-.2893.03388-.57846.05281-.86761.01456-.22257.02875-.44483.04529-.6674.02209-.29556.04729-.59053.07251-.88563.0185-.21467.03583-.42949.05631-.64371.02916-.30971.06228-.61868.09534-.9275.02168-.19977.04139-.39984.06425-.59916.039-.34011.08313-.6796.12685-1.019.02167-.16774.041-.33563.06383-.50353q.20564-1.51682.474-3.02248c.02994-.16938.06342-.33772.09494-.50664.06148-.33251.12294-.665.18911-.99632.0394-.199.08272-.39716.12409-.59573.06228-.29988.12451-.59961.19032-.8983.04688-.21035.09612-.41965.14457-.62955.06619-.28677.13236-.57369.20211-.85971.052-.21466.10678-.42814.16116-.64251q.10518-.41676.2147-.83261.08742-.3278.17847-.65428.11284-.40846.23009-.81561.09394-.32492.19145-.64922.12174-.40714.249-.81279.10044-.322.204-.643.13061-.40357.26674-.80534c.07131-.212.143-.42382.21668-.63507.09377-.26949.19031-.53778.28721-.80564.07527-.20766.14971-.41533.22693-.62181.10167-.27262.20685-.54359.31165-.81457.07724-.199.15326-.39835.23247-.59618.11225-.28125.22811-.56058.34394-.8399.0772-.18563.15247-.37244.23124-.55715.13-.3057.26475-.609.3995-.91245.06893-.156.13593-.31314.20643-.46837q.29966-.66188.61384-1.31556c.01414-.02995.02833-.05989.04294-.08984q.31612-.65539.64727-1.3032c.07449-.14614.15247-.29.22811-.43544.15486-.2978.31009-.596.47-.89115.09453-.17489.19267-.34829.28916-.52244.14577-.26308.29117-.52631.44047-.78716.10559-.184.21393-.366.32149-.5491.145-.24745.29037-.49489.43928-.74024.11348-.18771.22972-.37362.34554-.56q.221-.35685.44676-.711.17967-.28021.36286-.55745.2287-.34883.46214-.69421.18671-.27663.37742-.55.23637-.34167.47749-.67886.195-.2724.3924-.54285.24531-.33519.496-.66545.20033-.2659.40341-.53034.25653-.33162.51928-.659c.13594-.17071.27147-.34159.40934-.51022.18122-.22226.36561-.44125.55-.66039.13671-.16178.27183-.32506.41011-.48534.195-.22615.39359-.44826.59175-.67127.13278-.14927.264-.29987.39873-.44751.22219-.24475.44911-.48505.67606-.72534.115-.12171.22812-.24595.34431-.36691q1.036-1.07728,2.13341-2.099c.12171-.11351.24662-.22345.36953-.33578.24662-.22524.49329-.45064.74464-.67126.14893-.1311.30136-.25892.45227-.38852.22931-.19723.45862-.39477.69183-.58814.16469-.13676.33251-.27024.49879-.40505.22454-.1819.44952-.36364.67763-.54211.17374-.13587.34986-.26949.52557-.40342.22652-.17251.45306-.34427.68274-.51335.18085-.13318.36363-.26428.54646-.39553.23009-.16461.461-.32862.69417-.48967.18636-.1293.37388-.25653.56221-.38345q.35278-.23752.71-.46956.28658-.18614.576-.36915c.24149-.15255.485-.30211.73005-.45109.19422-.11827.38885-.23642.585-.35216.25016-.14749.50311-.292.75644-.43589.19579-.11143.3912-.22287.58937-.33206.2608-.14346.52479-.28319.78914-.42308.195-.10323.38926-.20767.58624-.30852.27853-.14271.561-.281.84351-.41921.18715-.09176.37268-.18561.56181-.2753.31559-.14987.63589-.29437.95617-.43857.16-.07255.31795-.14734.47951-.21824q1.45078-.63708,2.96385-1.197c.16786-.06182.33884-.11978.50826-.18.338-.12141.67685-.24282,1.01959-.35813.2045-.069.4125-.13318.61856-.19976.31322-.10131.62643-.2029.94356-.299.22025-.067.44364-.12961.66583-.19426.30732-.08909.615-.17817.92585-.26249.23285-.06332.46845-.1232.70326-.18384.30532-.07895.61067-.15642.91916-.2306.24189-.05825.48534-.11352.72924-.16894q.46149-.10458.92778-.20334c.24745-.052.496-.1016.745-.1509q.47043-.09207.94478-.17758.37764-.06748.75722-.13169c.32029-.05318.64258-.10323.966-.1521.25489-.03813.50978-.07642.76668-.11143.32855-.04528.65991-.08625.99163-.12647.25609-.03114.51176-.063.77023-.09147.34159-.03694.68673-.06927,1.03221-.10116.25213-.02324.50311-.04842.75723-.069.36483-.0295.73319-.05318,1.10193-.07687.23955-.01534.47753-.03352.719-.04647.41213-.022.82932-.03665,1.24655-.05155.20169-.00715.40107-.01772.604-.02324q.9337-.025,1.88281-.02562c19.21191,0,35.09156,13.5275,42.93248,22.742V479.871c-10.97779-7.64625-25.2886-12.54741-42.93249-12.54741-.83245,0-1.65511.01341-2.47259.03471-.25452.00626-.50628.01653-.75919.02518q-.86049.029-1.71028.0724-.40953.02143-.8159.04574-.87225.05318-1.73153.12379c-.221.01773-.44364.03307-.66344.05274q-1.17073.1028-2.32015.23448c-.12176.01415-.24071.03143-.36208.046q-.968.116-1.92061.25221c-.24626.03545-.49012.07359-.73476.11113q-.77832.11934-1.54636.25132c-.249.0429-.49761.08581-.74464.13079q-.84566.15486-1.67637.3261c-.16859.03471-.3388.06629-.50665.10174q-1.07322.22815-2.12433.48252c-.16585.04067-.329.08432-.494.12573q-.8049.20045-1.5972.41607c-.23165.06347-.46174.12887-.69182.19426q-.71092.202-1.41121.41683c-.21868.06688-.43812.13317-.65558.20215q-.84036.26592-1.66415.55075c-.1052.0362-.21276.07016-.31757.10681q-.97451.341-1.92575.70791c-.17926.06853-.35576.14063-.53385.21079q-.68966.27128-1.36827.55507-.31854.133-.63354.26949-.65238.28132-1.29262.57473c-.18673.08551-.37508.16952-.56025.25623q-1.80123.84378-3.5127,1.77753c-.17571.09578-.349.19426-.5236.29154q-.59982.33452-1.189.67931-.28487.16647-.56654.33563-.60042.36044-1.18823.73279c-.15128.09578-.305.18949-.45544.28648q-.80076.51528-1.58063,1.04994c-.08234.05661-.1623.11531-.24465.17252q-.65478.45562-1.29422.92422c-.16469.121-.327.24356-.49011.36557q-.523.392-1.035.79313c-.16469.12886-.329.25772-.4921.38807q-.55668.44558-1.09955.90262c-.11307.09505-.22853.1883-.34081.28364q-.70206.59819-1.38126,1.21352c-.108.098-.21355.19858-.3207.297q-.51947.47753-1.02634.964c-.14774.14227-.2935.28528-.43928.42873q-.45445.4467-.89747.901c-.13787.14138-.27657.282-.4125.42427q-.53067.55485-1.04522,1.12057c-.0638.07017-.1296.139-.193.2096q-.60456.6706-1.18548,1.35758c-.11032.13006-.21787.262-.32661.39284q-.41961.50279-.82776,1.01241c-.12763.16044-.25411.32074-.38017.48237q-.39.49807-.76787,1.00376c-.11069.14778-.223.29467-.33209.44364q-1.0602,1.442-2.03019,2.93667c-.09888.1521-.195.30584-.29232.45868q-.33981.53295-.66821,1.0711-.1566.2572-.31042.51545-.33156.556-.6497,1.118c-.0823.145-.16663.28916-.24777.435q-.43026.77115-.83919,1.55347c-.04414.08506-.0863.17132-.13.25683q-.341.6612-.6662,1.32971c-.084.17206-.16547.34547-.24781.51887q-.26419.55662-.51809,1.11728c-.08115.1804-.16271.36007-.2423.54092q-.27419.62232-.53384,1.24927c-.05318.12811-.10875.25489-.16074.383q-.33273.81561-.643,1.63853c-.04886.13006-.095.26085-.143.39075q-.23463.63552-.457,1.27461c-.065.18755-.12808.37585-.19109.56371q-.19565.581-.37939,1.1654c-.05755.182-.11546.36363-.17139.54657q-.2175.71082-.4188,1.42685c-.02521.08864-.0524.17728-.07683.26635q-.2352.84735-.446,1.70081c-.03941.15881-.076.31791-.11426.47672q-.15068.62523-.28994,1.25284-.06447.29206-.1261.58427-.12882.608-.24543,1.21813c-.03425.17847-.07012.35664-.10283.53511q-.31791,1.72843-.546,3.47163c-.02364.18011-.0445.36021-.06658.54017q-.07565.61629-.14063,1.23437-.03072.29719-.05951.59485-.06084.63842-.10953,1.27847c-.01222.164-.02678.32744-.03821.49131q-.06029.87572-.10008,1.752c-.00391.09341-.0055.18681-.009.28007q-.02957.741-.04294,1.483c-.00316.18993-.00432.37973-.0063.57013q-.00593.61383-.00077,1.22841c.00156.196.00312.39194.00629.58813q.01179.67618.037,1.35207c.00513.13914.00789.27783.01377.41653q.03783.87638.09732,1.75115c.00946.13795.02208.27574.03233.4134q.05022.67527.11344,1.34938c.01854.19574.03862.39121.05873.5865q.06324.60938.13709,1.21784c.02287.18993.04533.37987.06972.56937q.09576.73451.20726,1.46677c.01419.093.026.18592.04056.27843q.13592.867.2947,1.72926c.02994.16267.06263.3246.09377.48728q.11994.62925.25095,1.25717.0615.292.1261.58307.13351.6087.27932,1.21546c.04175.17489.08234.34978.12566.52438q.42372,1.70856.93729,3.39415c.0524.17251.10794.34428.16193.51649q.18614.59328.38334,1.18342.0957.286.19382.571.20865.60556.43064,1.20741c.05712.15523.11228.3109.1702.46568q.30966.82434.641,1.64093l.01576.04051c.02521.06108.0524.121.07761.18205,5.13747,12.85861,20.46792,8.01748,31.764,10.43812,1.61373.80684,4.03433,1.61366,4.8412,3.22747,3.22746,8.06859-.80687,21.78528,11.64151,24.219a50.23342,50.23342,0,0,0,6.782,1.08376c.09888.011.19541.02444.2947.035.08511.00834.17255.01385.25806.02176.40263.03782.80921.07045,1.21582.10277.29862.024.59607.05007.89707.07121.42867.0301.862.05363,1.295.07778.28483.01563.56772.03455.85453.04766.48181.02235.9688.037,1.45575.052.24345.00746.48419.01848.72884.02428q1.10158.025,2.22045.02607c17.83928,0,32.1509-4.901,43.12872-12.54741V503.78851h-9.80218v81.5517Zm225.23834-71.35878,62.92922-45.28522H729.959a355.34864,355.34864,0,0,1-47.24571,41.36444L663.893,523.58829V468.69621h-9.80215V596.12263H663.893V525.94114l8.43034-6.07832,69.39828,76.2598h13.33059Z"/><path class="cls-6" d="M799.4655,404.92889a288.70641,288.70641,0,0,0-67.82314-85.54625C673.41594,269.31089,608.976,247.977,546.19577,247.02128c-55.07511.26861-102.50592,11.62832-147.75669,37.15124-43.39448,24.47672-81.4562,58.76224-111.06776,108.2812-51.52936,86.174-53.86775,193.98722-6.07642,284.141a283.60359,283.60359,0,0,0,57.75563,75.75867c52.74662,48.95063,111.68559,73.884,175.6788,79.45146,56.84092,4.94681,111.80151-5.59432,164.50289-34.40569,47.70368-26.08,88.93932-64.02432,119.30726-120.38879A289.34726,289.34726,0,0,0,799.4655,404.92889Zm24.30707,195.753c-11.641,35.52539-24.20386,78.69791-64.40745,90.68957-20.10109,7.19613-45.22815-4.79553-65.32924,9.59389-52.76782,35.97781-77.89347,103.13506-145.834,115.24123a136.81957,136.81957,0,0,1-26.14074.17955,306.69532,306.69532,0,0,1-54.74994-9.26165c-42.33415-11.04584-83.33935-31.92733-121.43075-65.22745a282.53292,282.53292,0,0,1-70.11628-92.41862c-23.64543-49.94027-28.64455-94.88-24.276-137.15337a252.97948,252.97948,0,0,1,45.935-122.30729c11.57743-16.38567,25.29531-31.01968,38.04334-46.44824,38.78981-34.74075,83.99675-61.64069,141.19394-74.0692,42.61832-9.26166,88.79229-10.609,141.84145,4.657,55.67314,16.02092,106.13368,46.59244,148.75341,97.40784,27.62662,32.9396,44.48309,67.02577,54.077,101.59263,10.96243,39.50094,11.87291,75.08571,6.4341,108.05076Q826.13571,591.09721,823.77257,600.68192Z"/></svg>