<svg id="Layer_1" data-name="Layer 1" xmlns="http://www.w3.org/2000/svg" xmlns:xlink="http://www.w3.org/1999/xlink" viewBox="0 0 1080 1080"><defs><style>.cls-1{fill:none;}.cls-2{clip-path:url(#clip-path);}.cls-3{fill:#fafafa;}.cls-4{fill:#feaead;}.cls-5{fill:url(#linear-gradient);}.cls-6{fill:#2f2f35;}</style><clipPath id="clip-path"><rect class="cls-1" x="1498.57164" y="1218.4316" width="1080" height="1080"/></clipPath><linearGradient id="linear-gradient" x1="354.60576" y1="380.36976" x2="724.60576" y2="380.36976" gradientUnits="userSpaceOnUse"><stop offset="0.03073" stop-color="#fed0af"/><stop offset="0.38547" stop-color="#fea094"/><stop offset="1" stop-color="#fe93c7"/></linearGradient></defs><title>IGRIK_Bar&amp;amp;Yoga_logo_ALLLL</title><g class="cls-2"><path class="cls-3" d="M1111.59107,1592.97376c35.72037-13.8783,71.03846-28.89015,104.52115-46.97856,63.93982-34.54178,120.81619-81.30957,151.93832-144.61179,27.86577-56.6787,32.97743-123.91992.28092-179.96046-31.036-53.19944-89.66084-94.62316-104.10249-155.59353-16.92306-71.47434,45.9311-138.50128,64.034-204.71188,18.73857-68.536,10.32026-139.70784,6.28733-209.51245-4.07346-70.50789-4.89514-144.82187,30.98265-209.20884,35.99983-64.646,100.21953-109.14688,153.40709-160.757,53.651-52.08771,101.90629-118.90086,89.44007-194.20936-9.44477-57.0561-46.32922-106.28965-91.44366-144.0593H1344.5171c84.37222,71.159,164.56186,165.92245,115.57815,276.94083-55.40618,125.5745-224.75542,171.77154-220.00524,327.15121,2.063,67.25291,27.69486,131.81829,29.42579,199.10405.78667,30.995-4.49322,61.37471-17.67646,89.95732-13.16566,28.54962-31.80418,54.47611-47.155,81.98954-16.17305,28.97115-28.01,60.30611-22.92212,93.342,5.45529,35.3834,26.27888,66.6864,47.17248,95.98088,38.0284,53.32682,83.68,107.43054,97.37043,171.57447,13.42778,62.881-13.81285,121.95644-62.89135,165.32379-26.75063,23.62705-58.51986,41.78041-91.40748,57.11594-29.277,13.652-60.55385,28.11886-91.87543,37.21083q-4.077,1.18335-7.91566,2.05407v68.33665C1086.23336,1603.99557,1099.73991,1597.57816,1111.59107,1592.97376Z"/><path class="cls-4" d="M1072.21521,1541.11754V959.57761a248.24818,248.24818,0,0,0,24.06653-17.84114,257.9818,257.9818,0,0,0,72.52358-99.98119c18.36139-44.97012,23.48241-94.16665,18.60338-141.84325a387.37222,387.37222,0,0,0-14.65082-71.78885c-7.36181-24.62786-16.24365-48.88617-22.13591-73.89285-25.13-106.64031,57.61726-149.44249,136.01032-206.71288,32.97566-24.13042,63.94316-52.8432,80.09548-89.43819,28.10124-63.66014,1.49707-150.65654-27.695-210.26375-17.70416-36.15227-46.28924-72.10829-79.72131-104.445h85.20737c84.372,71.159,164.55871,165.92346,115.57683,276.94075C1404.68743,345.888,1235.341,392.08137,1240.09216,547.46181c2.063,67.252,27.69494,131.82043,29.42474,199.1045.785,30.99479-4.49569,61.37348-17.67673,89.95842-13.16749,28.54852-31.80278,54.4772-47.15638,81.98962-16.17058,28.96838-28.00987,60.30548-22.92094,93.34056,5.45411,35.3855,26.28017,66.686,47.17007,95.983,38.028,53.32705,83.68282,107.43,97.37057,171.57388,13.42755,62.87967-13.811,121.95744-62.88885,165.321-26.75012,23.62837-58.5209,41.78438-91.4098,57.11973-29.27421,13.65133-60.552,28.11493-91.87543,37.20658Q1076.056,1540.24352,1072.21521,1541.11754Z"/><path class="cls-3" d="M1168.80655,841.75451c18.35847-44.97058,23.48118-94.16784,18.60306-141.84266a387.342,387.342,0,0,0-14.6516-71.78775c-7.36131-24.63083-16.243-48.88928-22.13536-73.89259-25.132-106.64227,57.61849-149.4459,136.01023-206.71553,32.97553-24.12877,63.94024-52.84055,80.09566-89.439,28.10024-63.658,1.49808-150.65589-27.69494-210.26086-17.70686-36.153-46.28833-72.1093-79.7214-104.44561h-187.097v69.432c13.66178,6.586,28.87476,11.0203,43.37283,14.23307,53.06684,11.75959,111.1297,24.28491,149.42783,64.8,43.69039,46.21937,35.23352,117.89466-9.20722,161.64225-34.94137,34.39587-84.55191,51.8904-121.78213,84.52863a355.68618,355.68618,0,0,0-61.81131,70.42406V959.57916a248.73981,248.73981,0,0,0,24.06653-17.84346A258.017,258.017,0,0,0,1168.80655,841.75451Z"/><path class="cls-4" d="M1134.02652,338.00649c37.23022-32.63823,86.84076-50.13276,121.78213-84.52863,44.44074-43.74759,52.89761-115.42288,9.20722-161.64225-38.29813-40.5151-96.361-53.04042-149.42783-64.8-14.49807-3.21277-29.71105-7.64707-43.37283-14.23307v395.628A355.68618,355.68618,0,0,1,1134.02652,338.00649Z"/></g><path class="cls-5" d="M598.37493,306.95928h-9.38072c9.10755,38.81467-7.35425,88.36432-49.389,88.36432-42.03382,0-58.49561-49.54965-49.38806-88.36432h-9.38073c-10.32076,39.57438,8.84331,89.56235,57.49131,90.4265-.00268,11.57058-1.15786,20.78615-3.05044,28.12789a61.34082,61.34082,0,0,0-12.516-9.12183,42.13283,42.13283,0,0,0-9.84494-3.87263,29.88723,29.88723,0,0,0-7.939-.90611,25.87124,25.87124,0,0,0-4.136.48117,33.23346,33.23346,0,0,0-9.64765,2.91921,24.06648,24.06648,0,0,0-10.50644,10.0333,18.76178,18.76178,0,0,0-2.09611,12.81145c1.41139,7.13642,5.84554,12.59363,13.32745,16.13417a28.35205,28.35205,0,0,0,17.00367,2.40053c1.09805-.17854,2.16218-.40887,3.20041-.682a27.496,27.496,0,0,0,11.63842-5.38311q.79675-.53028,1.57655-1.08734c1.71224-1.22481,7.531-8.072,9.32626-13.87915.12588-.29549.25264-.59009.37584-.89272,1.0793,1.17393,1.84347,2.02648,1.84347,2.02648s1.448,1.91132,1.50156,1.85954c1.50334,1.58369,2.222,2.41838,3.77443,3.9494a60.79384,60.79384,0,0,0,13.78184,10.53323,70.91687,70.91687,0,0,0,6.57312,3.00847,27.04033,27.04033,0,0,0,4.18776,1.31052,30.21321,30.21321,0,0,0,7.548.76238c9.23789-.2,16.49483-3.52,21.90562-9.80387a20.60054,20.60054,0,0,0,4.13419-7.68545,15.63877,15.63877,0,0,0,.3678-2.73619c.10267-.91236.18123-1.82562.26961-2.73887a15.01822,15.01822,0,0,0-1.31588-6.9918,22.027,22.027,0,0,0-8.5987-10.34576,28.842,28.842,0,0,0-16.593-4.78231,31.56659,31.56659,0,0,0-13.83184,3.47983,48.428,48.428,0,0,0-8.27018,5.19654,4.76869,4.76869,0,0,1,.95522,1.5078c.79184-.5267,1.59351-1.04359,2.42106-1.53816a37.93489,37.93489,0,0,1,12.3892-5.06262,25.64478,25.64478,0,0,1,11.07957.07766,25.20773,25.20773,0,0,1,9.19772,4.21722,23.80472,23.80472,0,0,1,5.39382,6.05177,6.578,6.578,0,0,1,.6142,1.4587,18.87618,18.87618,0,0,1,.97485,2.7969,25.194,25.194,0,0,1,.24371,3.19327,15.24509,15.24509,0,0,1-2.22377,8.22911c-3.22362,5.26885-8.263,8.53889-15.19949,9.75478a23.79674,23.79674,0,0,1-10.86-.7365,37.53494,37.53494,0,0,1-10.93852-5.38044A65.0476,65.0476,0,0,1,542.60837,433.3c-.43386-.53741-3.13078-3.62534-4.21008-4.73678-.333-.3428-.6749-.67847-1.01324-1.01592,2.16575-7.79525,3.495-17.66786,3.49769-30.16151C589.53073,396.52252,608.69659,346.53366,598.37493,306.95928ZM517.39254,451.26156a30.57211,30.57211,0,0,1-8.67547,2.32287c-.52939.05624-1.05609.09284-1.581.11962-.20354.00536-.40262.00893-.59545.00893v.0116a24.10817,24.10817,0,0,1-11.36524-2.31215c-6.70524-3.24772-10.60287-8.10056-11.376-14.66206a14.64168,14.64168,0,0,1,2.0854-9.611c3.97082-6.45349,10.38771-9.761,18.99444-10.08508a27.35761,27.35761,0,0,1,2.78083.1223,31.71874,31.71874,0,0,1,10.21007,3.29057A52.558,52.558,0,0,1,529.497,428.7364c1.02038.95075,2.35232,2.322,3.60392,3.64855C528.97115,443.13868,522.99169,448.5825,517.39254,451.26156ZM703.44386,295.07983a182.30218,182.30218,0,0,0-42.82656-54.01772c-36.76676-31.61754-77.457-45.08871-117.09925-45.69219-34.77688.16961-64.72681,7.34263-93.30017,23.45895a186.83,186.83,0,0,0-70.13314,68.37358c-32.53794,54.41409-34.0145,122.49219-3.83692,179.41929a179.08,179.08,0,0,0,36.46948,47.83741c33.30657,30.90961,70.52326,46.65365,110.93144,50.16919A179.40355,179.40355,0,0,0,627.5232,542.90306c30.12223-16.468,56.16026-40.42782,75.33593-76.01886A182.70677,182.70677,0,0,0,703.44386,295.07983ZM716.48058,418.687c-7.25565,22.43232-15.08584,49.69337-40.144,57.26544-12.52866,4.544-28.18991-3.02811-40.71856,6.058-32.88926,22.718-48.54963,65.12408-90.89573,72.76846a84.181,84.181,0,0,1-16.29307.11338,188.90264,188.90264,0,0,1-34.12467-5.84823c-26.38613-6.97483-51.94394-20.16034-75.68564-41.18752a178.20008,178.20008,0,0,1-43.70224-58.35724c-14.73778-31.53452-17.85364-59.91147-15.13079-86.60476a161.00081,161.00081,0,0,1,28.6305-77.23028c7.216-10.34665,15.76612-19.58721,23.71174-29.32949,24.177-21.93686,52.35369-38.92268,88.00369-46.7706a173.15751,173.15751,0,0,1,88.40727,2.94062c34.70009,10.11633,66.15125,29.42055,92.71538,61.50766a169.49175,169.49175,0,0,1,33.70522,64.15012c6.83269,24.94266,7.40017,47.41247,4.01027,68.22807Q717.95349,412.63483,716.48058,418.687Z"/><path class="cls-6" d="M400.0406,627.526h76.85023v8.57706c-13.03728-4.11685-24.53013-6.86165-68.27317-6.86165l.00276,109.78506H400.0406Z"/><path class="cls-6" d="M408.61609,628.62965h-8.57527V739.22028c-.00092.09685-.00368.16994-.0046.27867-.00367,2.01824,1.998,1.7542,1.90613,7.16208-.023,1.36133,1.12347,1.6537,1.14276.09319.04593-3.76148,1.77752-5.48736,3.16279-5.48736a2.32948,2.32948,0,0,0,2.36543-1.76334h.00276Z"/><path class="cls-6" d="M695.82061,627.526H704.397v48.03087l16.4681-11.83621A310.98907,310.98907,0,0,0,762.206,627.526h11.66453l-55.06421,39.62549,65.35669,71.875H772.49847l-60.72479-66.72874-7.37669,5.31792v61.41082h-8.57638Z"/><path class="cls-6" d="M673.82709,627.52587h-8.57638V708.664c0,12.27566-7.20333,20.4639-17.1079,24.80029a14.00628,14.00628,0,0,1-6.11894,1.47542c-11.11392-2.57644-10.56525-16.8419-19.89266-21.77994-1.646-.54867-3.8407.54867-5.48671,1.09735-6.58406,3.84069-15.3628,14.81412-21.95668,6.37595a19.1204,19.1204,0,0,1-2.3708-5.48805,25.06149,25.06149,0,0,1-.82838-6.481v-12.8656c0-33.44987,2.7448-51.80437,6.86165-68.27248h-8.57707V708.664a28.69622,28.69622,0,0,0,.61254,5.97955,26.0387,26.0387,0,0,0,1.75288,5.3482c1.46166,3.59278,3.65635,6.8848,8.59439,6.33613,8.77874-1.646,13.71678-14.26545,21.94685-9.87608,9.32741,4.938,9.32741,22.49552,21.74965,22.29781a53.37162,53.37162,0,0,0,5.90887-1.59214,39.87369,39.87369,0,0,0,14.91231-8.57317v10.48656h8.57638V627.52587Z"/><path class="cls-6" d="M379.89085,627.52587h-8.57637V708.664c0,39.28213-73.76207,36.709-73.76207,0v-12.8656c0-33.44987,2.74479-51.80437,6.86165-68.27248H295.837V708.664c0,33.57466,54.07723,40.21016,75.47749,19.9203v10.48656h8.57637V627.52587Z"/><path class="cls-6" d="M488.2092,627.526h21.10744a47.00072,47.00072,0,0,1,4.90139.17652c9.39571,1.87476,8.93946,13.73733,16.69575,18.29985.91251.45625,2.28126,0,3.19377-.45625,6.84378-4.56253,14.14382-13.23132,22.40913-7.58709a45.20691,45.20691,0,0,1,3.6315,2.86142A38.742,38.742,0,0,1,573.807,670.06825c0,17.94684-12.945,35.89424-38.93745,41.06465q-1.444.28724-2.94174.52121a110.86649,110.86649,0,0,1-12.84147.95554l-2.14427,0h-11.579a35.50369,35.50369,0,0,0-8.57695.51455v25.9021h-8.577Zm8.577,1.71571v81.99557c2.74481-.17205,5.66088-.3433,8.57695-.3433h6.86164c8.19524-.10376,16.40778-.10376,24.19031-2.61279a44.63658,44.63658,0,0,0,4.85216-1.91025,39.481,39.481,0,0,0,23.105-36.3027,40.16126,40.16126,0,0,0-8.31781-24.63876,28.27375,28.27375,0,0,0-3.02486-3.357c-6.60321-5.19516-12.99074,1.64863-18.46577,5.29865-2.73751,1.36876-5.01878,0-6.84379-1.825-4.56252-5.475-5.93128-15.51258-14.46579-16.11175a46.74558,46.74558,0,0,0-5.318-.19266Z"/><path class="cls-6" d="M449.73972,781.6684c0-5.84663-.15383-6.46194-.76926-6.61566v-.15416H462.8176l1.23086,2.76959h-.30771c-1.63086-1.8464-5.72349-1.69268-8.27749-1.69268h-3.10794c-.92314,0-.92314.15416-.92314,1.3848v9.23154h1.53857c4.21571,0,8.46211,1.38479,8.46211,4.92342s-4.2464,4.92343-8.46211,4.92343h-4.00029V796.285c.61543-.15416.76926-.76948.76926-6.6161Zm1.69246,6.00034V793.977c0,1.23063,0,1.38479.92314,1.38479h.46154c3.53875,0,6.61589-1.07691,6.61589-3.84651s-3.07714-3.84651-6.61589-3.84651Z"/><path class="cls-6" d="M485.12541,790.53057c.95388,1.87714,2.40017,5.66172,3.56948,5.72365v.18446h-3.4464v-.123c1.077-.21565-.8308-3.56938-1.7232-5.26206l-2.70788-5.2313H472.386l-2.70789,5.2313c-1.38468,2.67737-2.33862,4.86194-.95394,5.23131v.15372h-3.90794v-.18446c1.41549-.21565,2.92326-3.84651,3.8772-5.72365l8.216-16.24731Zm-12.18549-5.78514h7.3236l-3.66182-7.07726Z"/><path class="cls-6" d="M490.23157,775.05274v-.15416h4.00028c4.21572,0,8.46212,1.38479,8.46212,4.92342s-4.2464,4.92343-8.46212,4.92343h-1.53857v4.92343c0,5.84662.15383,6.46194.76926,6.6161v.15372h-3.231V796.285c.61543-.15416.76926-.76948.76926-6.6161V781.6684C491.00083,775.82177,490.847,775.20646,490.23157,775.05274Zm3.8464,8.61577c3.53874,0,6.61588-1.07691,6.61588-3.84651,0-2.76915-3.07714-3.84651-6.61588-3.84651h-.46154c-.92315,0-.92315.15416-.92315,1.3848v6.30822Z"/><path class="cls-6" d="M515.3078,793.66909l18.61673-19.38583v15.3856c0,5.84662.30766,6.46194.92309,6.6161v.15372h-2.92326V796.285c.61543-.15416.92315-.76948.92315-6.6161V777.66817L514.23083,797.054V781.6684c0-5.84663-.30777-6.46194-.9232-6.61566v-.15416h2.92331v.15416c-.61543.15372-.92314.769-.92314,6.61566Z"/><path class="cls-6" d="M547.30707,781.6684v12.00069l18.61673-19.38583v15.3856c0,5.84662.30766,6.46194.92309,6.6161v.15372h-2.92326V796.285c.61543-.15416.92315-.76948.92315-6.6161V777.66817L546.2301,797.054V781.6684c0-5.84663-.30777-6.46194-.9232-6.61566v-.15416h2.92331v.15416C547.61478,775.20646,547.30707,775.82177,547.30707,781.6684Zm4.00028-11.07793a5.389,5.389,0,0,0,4.61571,2.46215c4.00029,0,5.385-4.15439,5.385-4.15439a5.57985,5.57985,0,0,1-4.46183,2.7696,4.52361,4.52361,0,0,1-4.15417-2.308Z"/><path class="cls-6" d="M580.23043,774.28326A11.38537,11.38537,0,1,1,568.845,785.66863,11.20618,11.20618,0,0,1,580.23043,774.28326Zm-9.693,10.46217a10.71029,10.71029,0,0,0,10.46228,11.07793c5.07726,0,8.92366-3.69279,8.92366-9.23153a10.7103,10.7103,0,0,0-10.46229-11.07794C574.38386,775.51389,570.53746,779.20669,570.53746,784.74543Z"/><path class="cls-6" d="M594.53694,781.6684c0-5.84663-.15383-6.46194-.76926-6.61566v-.15416h12.30857l1.23085,2.76959h-.30771c-1.63091-1.8464-5.72348-1.69268-8.27754-1.69268h-1.56932c-.92314,0-.92314.15416-.92314,1.3848v12.30857c0,5.84662.15383,6.46194.76926,6.6161v.15372h-3.231V796.285c.61543-.15416.76926-.76948.76926-6.6161Z"/><path class="cls-6" d="M628.38405,790.53057c.95394,1.87714,2.40017,5.66172,3.56948,5.72365v.18446h-3.44639v-.123c1.077-.21565-.83086-3.56938-1.7232-5.26206l-2.70789-5.2313h-8.43137l-2.70788,5.2313c-1.38474,2.67737-2.33863,4.86194-.95389,5.23131v.15372h-3.908v-.18446c1.41549-.21565,2.92332-3.84651,3.8772-5.72365l8.21594-16.24731Zm-12.18548-5.78514h7.3236l-3.66178-7.07726Z"/></svg>