<svg xmlns="http://www.w3.org/2000/svg" xmlns:xlink="http://www.w3.org/1999/xlink" viewBox="0 0 1080 1080"><defs><style>.cls-1{fill:none;}.cls-2{isolation:isolate;}.cls-3{clip-path:url(#clip-path);}.cls-4{fill:url(#linear-gradient);}.cls-5{fill:#fafafa;}.cls-6{fill:#feaead;}.cls-7{fill:#2f2f35;}.cls-8{mix-blend-mode:multiply;fill:url(#linear-gradient-2);}</style><clipPath id="clip-path"><rect class="cls-1" width="1080" height="1080"/></clipPath><linearGradient id="linear-gradient" x1="-41.39719" y1="528.24172" x2="1165.76628" y2="528.24172" gradientUnits="userSpaceOnUse"><stop offset="0.03073" stop-color="#fed0af"/><stop offset="0.38547" stop-color="#fea094"/><stop offset="1" stop-color="#fe93c7"/></linearGradient><linearGradient id="linear-gradient-2" x1="466.44456" y1="335.24723" x2="613.55544" y2="335.24723" xlink:href="#linear-gradient"/></defs><title>IGRIK_Bar&amp;amp;Yoga_logo_ALLLL</title><g class="cls-2"><g id="Layer_1" data-name="Layer 1"><g class="cls-3"><rect class="cls-4" x="-41.39719" y="-83.88055" width="1207.16347" height="1224.24454"/><path class="cls-5" d="M310.52867,186.6519c26.97888,139.08758,63.41518,276.25171,109.64892,409.30732,30.31188,87.23424,68.77391,178.2225,140.55783,234.61635,64.36022,50.56175,150.83066,69.41488,221.73247,22.73477,115.54118-76.07076,83.236-212.22449,89.374-333.67112,1.78151-35.2479,3.95115-70.67083,7.64342-105.76163,4.33133-41.16352,14.14005-78.58831,44.80111-106.33424,35.16921-31.82555,81.53267-33.39341,125.22028-30.44518,60.91149,4.11062,117.0519,15.59053,174.6143-13.87364,111.99633-57.3268,145.15528-197.31246,155.07619-319.62171,2.8988-35.73909,5.05228-71.66872,4.27506-107.5634a526.83112,526.83112,0,0,0-3.80542-53.95625q-.28446-2.26368-.54463-4.47041h-80.70689c5.30888,10.34039,10.06121,21.02994,14.37894,31.63171,16.63425,40.84281,26.17875,87.67856,27.6556,135.02946,3.506,112.40171-38.449,227.70652-138.94846,272.64342-108.18622,48.36632-219.68365,5.33566-323.3939-32.90556-37.2372-13.73056-104.879-28.61278-125.653,20.45545-7.0541,16.6615-4.99893,36.00075-2.08507,54.04832,9.20744,57.02849,25.3641,112.57538,40.56773,167.98566,15.16095,55.25187,38.04154,111.41893,43.95055,168.91866,4.052,39.428-2.56941,81.05668-22.88223,114.64183-22.0559,36.45442-58.1038,61.282-98.15122,66.87742-147.8837,20.66215-219.46813-208.16-256.05038-323.91786-36.93344-116.86924-59.65145-238.25462-77.98258-359.937C371.27837,36.377,363.88963-19.74016,359.83977-76.8341q-3.38268-47.68938-4.804-95.50736c-.14906-5.09619,1.00141-28.44268,1.42391-50.04578H259.50185A3097.03726,3097.03726,0,0,0,310.52867,186.6519Z"/><path class="cls-6" d="M355.03577-172.34146q1.39764,47.80562,4.804,95.50736c4.04986,57.09394,11.4386,113.21107,19.98151,169.91834,18.33113,121.68241,41.04914,243.06779,77.98258,359.937,36.58225,115.75789,108.16668,344.58,256.05038,323.91786,40.04742-5.59546,76.09532-30.423,98.15122-66.87742,20.31282-33.58515,26.93424-75.2138,22.88223-114.64183-5.909-57.49973-28.7896-113.66679-43.95055-168.91866-15.20363-55.41028-31.36029-110.95717-40.56773-167.98566-2.91386-18.04757-4.969-37.38682,2.08507-54.04832,20.77407-49.06823,88.41584-34.186,125.653-20.45545,103.71025,38.24122,215.20768,81.27188,323.3939,32.90556,100.49944-44.9369,142.45447-160.24171,138.94846-272.64342-1.47685-47.3509-11.02135-94.18665-27.6556-135.02946-4.31773-10.60177-9.07006-21.29132-14.37894-31.63171h-60.8234a435.43537,435.43537,0,0,1,25.4625,66.76624c12.79455,43.89824,21.96343,107.43081,16.1588,165.80115-13.38487,134.55533-133.18642,175.73419-244.05291,149.45042-40.73377-9.657-73.23416-37.75906-109.06362-59.22081C876.5717,70.7445,806.80886,32.98985,749.137,54.07114c-37.99663,13.8893-63.83147,54.56369-71.37607,97.103-11.21113,63.21427,11.49515,125.0289,33.25913,182.46835q17.05221,45.00423,34.13686,89.99155c10.65545,28.20114,21.03532,56.73479,27.30261,86.52721,9.3545,44.46794,10.39493,102.20459-23.1893,137.42921a62.2103,62.2103,0,0,1-59.07983,18.2525C628.38892,652.53491,596.82,576.86424,576.07264,520.306c-26.28993-71.66822-48.05085-146.70676-66.262-221.1427-41.56635-169.89762-63.34544-346.5602-77.49212-521.55058h-75.8588C356.03718-200.78414,354.88671-177.43765,355.03577-172.34146Z"/><path class="cls-5" d="M576.07264,520.306c20.74732,56.5582,52.31628,132.22887,114.11777,145.53689a62.2103,62.2103,0,0,0,59.07983-18.2525c33.58423-35.22462,32.5438-92.96127,23.1893-137.42921-6.26729-29.79242-16.64716-58.32607-27.30261-86.52721q-17.0036-45.03121-34.13686-89.99155c-21.764-57.43945-44.47026-119.25408-33.25913-182.46835,7.5446-42.53928,33.37944-83.21367,71.37607-97.103,57.67185-21.08129,127.43469,16.67336,176.9597,46.33862,35.82946,21.46175,68.32985,49.56376,109.06362,59.22081,110.86649,26.28377,230.668-14.89509,244.05291-149.45042,5.80463-58.37034-3.36425-121.90291-16.1588-165.80115a435.43537,435.43537,0,0,0-25.4625-66.76624H1177.2055q10.50407,13.98505,20.05029,28.69928c26.66081,41.12171,45.904,96.37568,45.23142,148.4319-.6057,46.87294-17.35852,91.15329-59.38292,120.1894C1096.44636,134.799,989.047,32.03308,929.30163-28.4011,869.52632-88.86535,776.2859-206.44231,682.50222-146.93054c-133.48263,84.70518-67.14346,340.96141-18.57536,459.41312,18.3441,44.73891,95.49755,174.61526,48.87467,222.35123-7.838,8.008-19.74025,8.72511-29.79712,6.31188-49.04642-11.75841-64.9861-87.96842-80.51473-130.60437-72.46379-198.9595-101.96735-424.47357-50.26107-632.92856H432.31848c14.14668,174.99038,35.92577,351.653,77.49212,521.55058C528.02179,373.59928,549.78271,448.63782,576.07264,520.306Z"/><path class="cls-6" d="M1242.487-45.25433c-.607,46.87336-17.35729,91.14974-59.38362,120.18657-86.65856,59.86737-194.05656-42.898-253.80065-103.33133-59.77617-60.46526-153.01618-178.04116-246.79945-118.5298-133.48181,84.70522-67.14254,340.96145-18.576,459.41366,18.34318,44.73736,95.49937,174.61352,48.87248,222.3495-7.83652,8.00544-19.73975,8.72657-29.79448,6.31211C633.95945,529.38924,618.01708,453.17782,602.49,410.54,530.02566,211.58154,500.52328-13.93088,552.23-222.38724h624.97661q10.50208,13.98671,20.05007,28.69909C1223.91569-152.56556,1243.15791-97.31251,1242.487-45.25433Z"/><path class="cls-5" d="M212.584-222.38724H181.882q-5.09957,14.8674-9.21233,30.11972c-22.54179,84.29167-20.77689,174.02114-8.04829,259.99126,13.26274,89.572,38.59023,176.32922,61.4234,263.436,11.627,44.3379,23.07524,88.9732,31.22076,134.23776,6.94606,38.59909,8.66061,85.27163-8.60088,120.58885-7.38695,15.1139-18.24916,28.1482-33.66387,37.5802-14.05393,8.58344-29.87212,12.55252-45.77122,14.6683-79.89219,10.632-133.03,21.82172-185.332,92.773q-2.30867,3.12807-4.54479,6.32V858.00826c32.93412-39.7,78.276-68.25327,125.46463-83.20263,48.04716-15.22872,98.57207-18.568,148.38453-15.99791,27.89375,1.4392,56.51064,9.64518,84.44174,5.51357,38.07407-5.632,59.14326-32.98866,59.61806-73.60226.85618-73.233-54.06091-177.29411-72.01308-221.364-20.17755-49.53259-40.59822-98.99562-56.43548-150.38214-16.53392-53.60669-28.809-108.62967-39.01127-164.02019C219.69687,100.05216,211.422,44.74954,203.38947-10.536c-7.64347-52.60984-14.25069-107.45815-3.69232-160.173C203.37075-189.05015,209.629-204.33506,212.584-222.38724Z"/><path class="cls-6" d="M169.22956,638.23488c15.8991-2.11578,31.71729-6.08486,45.77122-14.6683,15.41471-9.432,26.27692-22.4663,33.66387-37.5802,17.26149-35.31722,15.54694-81.98976,8.60088-120.58885-8.14552-45.26456-19.5938-89.89986-31.22076-134.23776-22.83317-87.10681-48.16066-173.86406-61.4234-263.436-12.7286-85.97012-14.4935-175.69959,8.04829-259.99126q4.08052-15.23482,9.21233-30.11972h-50.3769c-9.20375,11.72345-14.22385,26.43557-18.00827,41.20538-29.07216,113.46292-1.8857,229.61,15.35967,342.46811,6.51166,42.61386,12.7878,89.73838,12.82235,136.164.03652,49.31579-6.95879,100.38981-30.42231,143.50659C86.82324,485.85563,45.10778,509.571,11.775,545.30948c-12.94782,13.88241-23.42778,29.7037-32.42226,46.53689V737.32785q2.23744-3.19,4.54479-6.32C36.19951,660.0566,89.33737,648.86683,169.22956,638.23488Z"/><path class="cls-5" d="M111.25653,440.95684c23.46352-43.11678,30.45883-94.1908,30.42231-143.50659-.03455-46.42562-6.31069-93.55014-12.82235-136.164C111.61112,48.42817,84.42466-67.71894,113.49682-181.18186c3.78442-14.76981,8.80452-29.48193,18.00827-41.20538H68.631c-4.09687,12.446-8.0802,24.92453-11.86087,37.48039C23.158-73.27834,13.86593,37.95368,41.83686,153.47533c12.82477,52.96721,21.84376,112.29355,10.59407,166.51256-9.89325,47.68157-39.22625,77.75947-73.07821,87.50219V591.84637c8.99448-16.83319,19.47444-32.65448,32.42226-46.53689C45.10778,509.571,86.82324,485.85563,111.25653,440.95684Z"/><path class="cls-6" d="M52.43093,319.98789c11.24969-54.219,2.2307-113.54535-10.59407-166.51256C13.86593,37.95368,23.158-73.27834,56.77016-184.90685c3.78067-12.55586,7.764-25.03435,11.86087-37.48039H-20.64728V407.49008C13.20468,397.74736,42.53768,367.66946,52.43093,319.98789Z"/><path class="cls-5" d="M1628.95594,1335.6736c-13.8783-35.72038-28.89014-71.03847-46.97856-104.52115-34.54178-63.93982-81.30957-120.81619-144.61179-151.93832-56.6787-27.86578-123.91992-32.97744-179.96046-.28092-53.19944,31.036-94.62316,89.66083-155.59353,104.10248-71.47434,16.92306-138.50128-45.93109-204.71188-64.034-68.536-18.73857-139.70784-10.32026-209.51245-6.28733-70.50788,4.07347-144.82187,4.89514-209.20884-30.98265-64.64595-35.99983-109.14688-100.21952-160.757-153.40709-52.0877-53.651-118.90086-101.90628-194.20936-89.44007-57.0561,9.44478-106.28965,46.32922-144.0593,91.44367v172.41933c71.159-84.37223,165.92246-164.56186,276.94083-115.57815,125.5745,55.40617,171.77155,224.75541,327.15121,220.00523,67.25291-2.063,131.81829-27.69485,199.10405-29.42579,30.995-.78667,61.37471,4.49323,89.95732,17.67646,28.54962,13.16566,54.47611,31.80419,81.98954,47.155,28.97116,16.173,60.30611,28.00995,93.342,22.92212,35.3834-5.45529,66.68641-26.27888,95.98088-47.17249,53.32682-38.02839,107.43054-83.68,171.57447-97.37043,62.881-13.42778,121.95644,13.81285,165.32379,62.89136,23.62705,26.75063,41.78041,58.51985,57.11594,91.40747,13.652,29.277,28.11886,60.55385,37.21083,91.87543q1.18335,4.077,2.05407,7.91566h68.33666C1639.97775,1361.03131,1633.56035,1347.52475,1628.95594,1335.6736Z"/><path class="cls-6" d="M1577.09972,1375.04945H995.55979a248.24682,248.24682,0,0,0-17.84114-24.06652,257.98174,257.98174,0,0,0-99.98118-72.52358c-44.97013-18.36139-94.16666-23.48241-141.84325-18.60338a387.37124,387.37124,0,0,0-71.78885,14.65082c-24.62787,7.36181-48.88618,16.24365-73.89286,22.13591-106.64031,25.13-149.44249-57.61726-206.71287-136.01033-24.13043-32.97565-52.84321-63.94315-89.4382-80.09547-63.66014-28.10124-150.65654-1.49707-210.26375,27.69494-36.15227,17.70416-72.10829,46.28924-104.445,79.72131v-85.20736c71.159-84.372,165.92346-164.55871,276.94075-115.57683,125.57672,55.40828,171.77009,224.75473,327.15052,220.00354,67.252-2.063,131.82043-27.69494,199.10451-29.42473,30.99479-.785,61.37347,4.49569,89.95841,17.67673,28.54852,13.16749,54.4772,31.80277,81.98963,47.15638,28.96837,16.17057,60.30547,28.00986,93.34055,22.92093,35.3855-5.45411,66.686-26.28016,95.983-47.17007,53.327-38.028,107.42995-83.68282,171.57388-97.37057,62.87967-13.42755,121.95744,13.811,165.321,62.88885,23.62837,26.75013,41.78438,58.52091,57.11973,91.4098,13.65133,29.27421,28.11493,60.552,37.20658,91.87543Q1576.2257,1371.20871,1577.09972,1375.04945Z"/><path class="cls-5" d="M877.73669,1278.45812c-44.97058-18.35848-94.16784-23.48118-141.84266-18.60307a387.34362,387.34362,0,0,0-71.78775,14.6516c-24.63083,7.36131-48.88928,16.243-73.89259,22.13536-106.64227,25.132-149.4459-57.61849-206.71552-136.01023-24.12878-32.97552-52.84056-63.94023-89.439-80.09566-63.658-28.10023-150.65589-1.49807-210.26086,27.69494-36.153,17.70686-72.10929,46.28833-104.44561,79.72141v187.097h69.432c6.586-13.66178,11.0203-28.87476,14.23307-43.37282,11.7596-53.06685,24.28491-111.1297,64.8-149.42783,46.21936-43.6904,117.89465-35.23352,161.64224,9.20721,34.39587,34.94137,51.8904,84.55191,84.52863,121.78214a355.68609,355.68609,0,0,0,70.42406,61.8113H995.56134a248.7409,248.7409,0,0,0-17.84346-24.06652A258.01687,258.01687,0,0,0,877.73669,1278.45812Z"/><path class="cls-5" d="M2489.61037,812.82015v196.75861c-12.8343-11.59748-23.90226-22.64248-30.55677-27.42575-37.275-26.805-91.91632-45.96506-130.90756-14.52746-77.777,62.70163-144.81453,142.39551-219.33267,209.8256-32.615,29.516-65.23014,60.84855-102.49154,83.47286-60.72089,36.86884-134.10248,45.96962-202.1259,32.90263-77.74044-14.93827-114.48149-56.0609-166.71306-115.38969-52.11751-59.19644-94.76446-141.13125-164.13438-177.62584-64.10285-33.72421-143.97469-37.42566-209.03134-4.58236-32.45084,16.38062-57.03315,41.06782-81.39173,68.81758-21.2779,24.23535-45.54977,51.474-77.90923,55.79161a63.85673,63.85673,0,0,1-48.53017-13.79272c-14.2217-11.45134-22.962-28.44807-34.86515-42.29561-27.95067-32.55571-71.05864-31.31427-108.53441-24.249-43.286,8.16523-85.72763,21.09986-128.968,29.70324-79.33331,15.78715-163.363,22.06736-239.862-10.6481-52.866-22.606-98.06436-63.58716-128.86294-115.16611-15.97893-26.75473-17.40293-60.39214,12.07209-76.82292,31.77066-17.6859,74.2214,12.42806,99.78038,30.794,35.71412,25.66852,71.07224,48.14213,112.37739,62.70619,54.249,19.12821,109.89,19.863,165.04721,4.58236,54.31284-15.057,105.01553-41.87566,155.29823-68.05085,91.20455-47.48494,198.79867-99.607,301.33589-63.71025,23.30437,8.16514,44.13033,21.506,65.08418,34.93366,22.072,14.16233,45.50413,29.128,71.62445,31.76613,28.03273,2.83426,53.58716-10.648,79.70748-19.2331a214.04257,214.04257,0,0,1,66.89613-10.97671c42.91628.05025,86.41225,15.43584,114.45862,51.98054,16.3897,21.34632,26.76843,46.85519,37.58545,71.75229,29.56618,68.05085,78.11461,138.02771,146.412,166.10152,49.37435,20.30113,103.2673,14.68728,151.42778-6.88724,103.43179-46.31653,164.48112-152.02581,232.57765-241.75607,30.58868-40.301,65.39-79.83541,109.7759-102.14466,42.008-21.10442,90.12276-23.35909,133.60056-5.80555A166.76379,166.76379,0,0,1,2489.61037,812.82015Z"/><path class="cls-5" d="M1471.74526-53.98459c-1.57069,77.3859-17.97495,154.946-49.52068,224.60352-27.80525,61.4046-69.13167,119.26029-126.00494,151.69368-32.06406,18.28851-67.7717,26.244-103.91617,25.89436a300.76867,300.76867,0,0,1-58.9786-6.80161c-39.575-8.368-82.27278-28.37641-122.83444-16.11622-42.56466,12.86594-55.7609,58.21758-60.98251,100.7392-9.58676,77.98088,8.4535,158.129-8.696,235.25194-7.41676,33.35379-29.13806,62.34827-33.68012,96.09454-6.06661,45.07313,28.75746,68.20064,66.65834,60.843,17.7462-3.44508,35.03854-10.99716,51.87771-17.79741,48.00868-19.4167,88.34473-48.08252,107.30156-100.729,6.39614-17.76332,10.83308-36.22622,16.16081-54.35648a465.73523,465.73523,0,0,1,16.08076-46.24634c25.91982-62.86553,70.27219-117.52424,138.3109-120.6936,85.26606-3.97187,169.72373,24.77359,255.13611,25.03717,75.47779.23277,183.41663-7.045,238.234-71.76525,46.56031-54.97159,43.30436-139.0816,44.20381-208.52391,1.08822-84.00842,60.17444-141.74166,121.1213-183.74215,78.7843-54.293,170.09671-100.59684,265.20681-102.57227,88.253-1.833,178.9784,20.30086,262.18641,57.94984V-59.45408c-7.888-3.26735-15.5719-6.71375-22.9108-9.74176-145.77764-60.18078-311.83018-73.7836-457.88286-7.23831C1944.41445-47.0959,1885.437-3.10642,1839.5274,54.0134c-26.131,32.51181-43.42673,70.62094-53.74923,112.0291-9.8806,39.63478-8.95906,83.76976-22.429,121.96575-23.31906,66.16067-79.15559,111.56731-143.67282,120.64166-79.81578,11.22588-160.66931-9.58512-241.17327-.48991-67.73369,7.65245-137.98015,30.89616-195.06222,73.92522-27.35542,20.62094-56.06337,50.57612-74.38656,80.89063-18.41027,30.45851-19.62565,71.42747-44.68418,97.5367-32.65453,33.99679-31.64568-57.73843-31.96457-68.87663-1.63642-57.158-21.08156-171.65265,42.36228-199.85822,29.99115-13.35827,64.11153-5.50778,95.204-2.25554,74.86446,7.8504,154.52224-.59461,217.77576-48.16933,57.26148-43.06361,94.60467-110.43062,121.29222-178.63683,46.03941-117.61333,74.31645-261.693,33.8129-385.10324h-91.75229A593.95665,593.95665,0,0,1,1471.74526-53.98459Z"/><path class="cls-6" d="M1509.03988,162.716c-26.68755,68.20621-64.03074,135.57322-121.29222,178.63683-63.25352,47.57472-142.9113,56.01973-217.77576,48.16933-31.09251-3.25224-65.21289-11.10273-95.204,2.25554-63.44384,28.20557-43.9987,142.70025-42.36228,199.85822.31889,11.1382-.69,102.87342,31.96457,68.87663,25.05853-26.10923,26.27391-67.07819,44.68418-97.5367,18.32319-30.31451,47.03114-60.26969,74.38656-80.89063,57.08207-43.02906,127.32853-66.27277,195.06222-73.92522,80.504-9.09521,161.35749,11.71579,241.17327.48991,64.51723-9.07435,120.35376-54.481,143.67282-120.64166,13.46991-38.196,12.54837-82.331,22.429-121.96575,10.3225-41.40816,27.61818-79.51729,53.74923-112.0291C1885.437-3.10642,1944.41445-47.0959,2008.81671-76.43415c146.05268-66.54529,312.10522-52.94247,457.88286,7.23831,7.3389,3.028,15.0228,6.47441,22.9108,9.74176V-130.742c-219.51094-76.095-530.79293-71.22167-712.45607,106.24186-65.24868,63.74028-66.77934,133.22216-66.116,221.93462.37955,50.75034-11.03226,100.16809-53.39067,127.61087-32.91947,21.32756-84.31357,31.62377-112.68793-3.61473-33.96009-42.17835,3.73522-93.96625,25.51033-129.844,20.196-33.27607,33.07269-71.37534,41.09753-110.04153,12.62642-60.8376,16.26542-125.77527,17.24255-188.01711.61876-39.41757-3.3276-78.33318-12.57068-115.91521h-73.38661C1583.35633-98.977,1555.07929,45.10267,1509.03988,162.716Z"/><path class="cls-6" d="M2489.61037,848.04144V928.219a143.73666,143.73666,0,0,0-30.28735-19.04145c-47.93688-22.08109-95.76861-5.235-137.0602,22.61519-58.08267,39.17818-104.16187,93.30851-149.97183,146.32511-83.651,96.81383-209.61565,224.1661-353.1886,177.845-54.22618-17.49426-97.32967-59.39736-130.98538-105.37154-51.2868-70.059-78.64409-152.5735-165.257-185.508-69.13249-26.28929-148.3471-23.36361-220.03554-10.34692-62.19962,11.29616-113.63252,51.12268-173.75547,68.384-70.09552,20.12319-126.95053-26.344-194.74574-14.98843-44.54115,7.45766-85.075,18.57586-128.49781,30.77115-49.48407,13.90227-101.21363,20.62976-152.57351,15.518-85.07947-8.46641-169.835-42.5831-206.15144-119.99027-3.06256-6.52672-5.59559-14.80148-1.11825-20.4518a10.77718,10.77718,0,0,1,2.00364-1.95344c6.33042-4.7102,16.68185-1.0999,24.13494,3.1219,83.08958,47.06956,154.67761,99.68,254.12941,99.77585,126.22944.11866,231.09888-82.50537,349.22709-116.9095,65.58162-19.10083,124.60006-14.08949,190.15425,1.13185,58.96363,13.68775,124.59094,35.96975,185.06076,18.08294,78.75363-23.2951,148.40639-25.14357,194.74118,55.01115,42.52386,73.55968,57.63095,174.59531,148.18745,205.403,99.67087,33.90674,216.91821,14.29939,298.33266-53.06685,80.917-66.95085,122.48223-170.22285,194.23452-246.90894,32.86156-35.12535,72.78857-47.97326,120.967-44.03448C2427.502,835.2939,2459.88441,839.219,2489.61037,848.04144Z"/></g><path class="cls-5" d="M539.9997,886.97088a345.90852,345.90852,0,1,1,135.05859-27.26953A344.80149,344.80149,0,0,1,539.9997,886.97088Z"/><path class="cls-7" d="M540.00019,199.52947c188.03662,0,340.47021,152.43384,340.47021,340.47058S728.03681,880.47063,540.00019,880.47063c-188.03711,0-340.4707-152.43383-340.4707-340.47058s152.43359-340.47058,340.4707-340.47058m0-13a352.40354,352.40354,0,1,0,137.59033,27.78272,351.2704,351.2704,0,0,0-137.59033-27.78272Z"/><path class="cls-6" d="M347.37557,670.01767l14.8737,17.79547c10.95973,13.11233-.01607,24.40705-11.16449,15.82823,17.95146,29.40771-16.01747,54.75071-40.87227,25.01328l-13.56867-16.23386Zm-46.68948,45.65322L310.993,728.003c21.72329,25.99026,56.92382-3.43075,35.20026-29.421-4.30521-5.15139-9.02464-8.10058-13.81943-9.39619Zm49.171-41.09809-15.45362,12.91672a41.58291,41.58291,0,0,1,12.57037,10.43965c.45662.5464.84813,1.01466,1.30475,1.56105,7.3716,8.81987,20.56207-2.20552,13.19019-11.02484Z"/><path class="cls-6" d="M397.69889,756.994,384.292,794.90346l-3.8181-2.876,4.9131-14.12753c-6.62266,5.07159-16.67386,5.90337-26.74695-1.68573-25.50842-19.218-1.21082-51.46959,24.29788-32.25162,5.36169,4.04032,8.4231,8.76557,9.6741,13.52906l2.06754-5.956c2.80428-7.9482-.2973-12.95883-5.09044-16.56968-3.8181-2.87716-10.14457-2.93147-13.15583-2.65328l3.12126-4.14284a56.22348,56.22348,0,0,1,10.64663,5.98373C396.23288,738.825,401.11718,747.21707,397.69889,756.994Zm-15.31176-12.29939c-20.06554-15.11725-43.262,15.67085-23.19622,30.78921C380.06884,791.21226,403.26562,760.4236,382.38713,744.69457Z"/><path class="cls-6" d="M399.83348,802.333l-4.0924-2.04981,23.0466-46.02006,2.72864,1.36654L419.41969,761.86c8.87335-4.31517,21.33372,1.01465,26.46932,7.79525l-2.50476,5.00288c-3.53992-13.1489-19.59286-20.16446-27.65466-4.06636Z"/><path class="cls-6" d="M523.29538,782.57525c-2.9963-6.38548-8.61069-12.42352-17.47323-13.68366-11.98463-1.70457-21.01176,9.03267-13.95658,18.66715l28.03369,38.406a25.00807,25.00807,0,0,0,6.62322-13.33954c1.26041-8.8631-2.97358-15.93795-8.38542-20.50914l5.94161.84563c3.06778,5.16192,4.49611,11.73527,3.35068,19.79208a26.11814,26.11814,0,0,1-6.91083,13.91585l8.85507,12.14977-6.34476-.90161-6.03305-8.15323a27.56231,27.56231,0,0,1-20.439,5.0051c-39.27659-5.58474-30.77148-45.16612-7.50848-43.29641-7.18568-11.605,3.00489-25.46492,16.90245-23.48826,8.05681,1.14543,13.97155,4.34953,18.07448,8.73509Zm-33.48377,10.03347-.08617-.11471c-17.12024-1.71565-25.972,36.68593,6.96014,41.36907a26.36592,26.36592,0,0,0,19.8062-4.88928Z"/><path class="cls-6" d="M562.05855,772.42209l6.62959-1.57933L603.92247,794.97l4.81-8.77887c4.65958-8.53393,7.86285-17.03461,11.31106-27.58012l5.83826-1.39092L604.57748,795.9641l7.731,32.4561-4.94774,1.17868L599.96,798.52761Z"/><path class="cls-6" d="M647.0047,760.811c34.23159-16.60514,57.14105,30.62408,22.90945,47.22811C635.68255,824.64421,612.77282,777.4161,647.0047,760.811Zm.35493.732c-28.09936,13.62991-5.9441,59.30307,22.15525,45.67316C697.614,793.58569,675.45871,747.91253,647.35963,761.543Z"/><path class="cls-6" d="M710.53816,767.85256c-3.0966,5.19627-1.23936,15.2713,6.28934,9.05317,6.588-5.44121,13.44233-18.2266,18.77548-22.63044,11.999-9.91044,25.60152,9.59292,7.48493,24.55611-6.27411,5.18243-12.705,7.45888-18.63058,7.47218l-3.83528-4.48419c6.7371,2.08693,15.04632,2.08416,21.94772-3.61584,15.45-12.75989,6.31373-29.09239-3.33238-21.12536-5.88205,4.85769-12.42269,17.38373-19.01072,22.82494-8.3918,6.93078-14.61325-2.83836-10.732-11.71642-21.907,6.2209-37.019-19.42412-13.5695-38.79171a36.99876,36.99876,0,0,1,9.52-5.884c.55942-5.87123,3.2163-11.75909,6.8-15.24637l5.30489,1.95006c-6.01476,2.46154-10.33492,7.61293-11.20466,12.9483,23.0901-8.78053,40.1117,18.05758,15.87782,38.073A34.53187,34.53187,0,0,1,710.53816,767.85256ZM696.44332,730.0223c-22.50853,18.59012,2.68846,49.09782,25.197,30.5077C744.14828,741.93988,718.95156,711.43218,696.44332,730.0223Z"/><path class="cls-6" d="M755.26843,684.88777l37.748,13.85878-2.92232,3.78374-14.068-5.08157c4.9918,6.68252,5.70444,16.74314-2.00492,26.72562-19.52192,25.27762-51.48122.59516-31.95957-24.68246,4.10349-5.3132,8.86587-8.31837,13.64376-9.512l-5.93108-2.13847c-7.91384-2.89876-12.96188.143-16.63009,4.8926-2.92176,3.7832-3.05171,10.10884-2.80954,13.12342l-4.10571-3.17086a56.23324,56.23324,0,0,1,6.11063-10.57487C737.08284,686.13683,745.53227,681.35284,755.26843,684.88777Zm-12.482,15.1638c-15.35665,19.88407,15.15382,43.44769,30.51019,23.56308C789.27477,702.9254,758.76457,679.36288,742.78645,700.05157Z"/><path class="cls-8" d="M563.36644,306.05945H559.6367c3.62113,15.43259-2.924,35.13338-19.6369,35.13338-16.71252,0-23.25768-19.70079-19.63655-35.13338H516.6335c-4.1035,15.73465,3.51607,35.60971,22.85837,35.9533a45.10507,45.10507,0,0,1-1.21284,11.18356,24.3889,24.3889,0,0,0-4.97631-3.62681,16.752,16.752,0,0,0-3.91432-1.53975,11.88264,11.88264,0,0,0-3.15651-.36026,10.28514,10.28514,0,0,0-1.64446.19131,13.21344,13.21344,0,0,0-3.83587,1.16067,9.56871,9.56871,0,0,0-4.17733,3.98921,7.45963,7.45963,0,0,0-.83341,5.09379,8.83513,8.83513,0,0,0,5.29895,6.4149,11.27271,11.27271,0,0,0,6.76061.95444c.43658-.071.85968-.16256,1.27248-.27117a10.93242,10.93242,0,0,0,4.6274-2.14031q.31678-.21084.62683-.43233a14.65374,14.65374,0,0,0,3.70809-5.5183c.05005-.11749.10045-.23462.14943-.35495.42913.46675.733.80572.733.80572s.57572.75994.597.73935c.59772.62967.88345.96154,1.5007,1.57027a24.17127,24.17127,0,0,0,5.47962,4.188,28.19317,28.19317,0,0,0,2.61345,1.19616,10.75089,10.75089,0,0,0,1.665.52106,12.01266,12.01266,0,0,0,3.001.30312,11.24734,11.24734,0,0,0,8.7096-3.898,8.19068,8.19068,0,0,0,1.64375-3.05571,6.2184,6.2184,0,0,0,.14624-1.0879c.04081-.36275.072-.72586.10719-1.089a5.97134,5.97134,0,0,0-.52319-2.77992,8.7579,8.7579,0,0,0-3.41882-4.11344,11.46752,11.46752,0,0,0-6.59733-1.90143,12.55085,12.55085,0,0,0-5.4995,1.38357,19.25473,19.25473,0,0,0-3.2882,2.06613,1.8957,1.8957,0,0,1,.37979.5995c.31484-.20942.63358-.41493.96261-.61157a15.083,15.083,0,0,1,4.92591-2.01289,10.19645,10.19645,0,0,1,4.4052.03088,10.02245,10.02245,0,0,1,3.657,1.67676,9.46475,9.46475,0,0,1,2.14457,2.40616,2.61567,2.61567,0,0,1,.2442.58,7.50521,7.50521,0,0,1,.3876,1.112,10.018,10.018,0,0,1,.0969,1.26963,6.06141,6.06141,0,0,1-.88417,3.27187,8.37427,8.37427,0,0,1-6.04327,3.87847,9.46141,9.46141,0,0,1-4.31789-.29283,14.92383,14.92383,0,0,1-4.34912-2.13925,25.86256,25.86256,0,0,1-5.46968-5.08137c-.17251-.21367-1.24479-1.44142-1.67392-1.88333-.13239-.1363-.26833-.26976-.40286-.40393a45.08922,45.08922,0,0,0,1.39067-11.99212C559.85,341.66952,567.4703,321.7941,563.36644,306.05945ZM531.16809,363.4336a12.15582,12.15582,0,0,1-3.44934.92356c-.21048.02236-.4199.03691-.62861.04756-.08093.00213-.16008.00355-.23675.00355v.00462a9.58542,9.58542,0,0,1-4.51878-.91931c-2.666-1.29128-4.21567-3.22076-4.52305-5.82959a5.82151,5.82151,0,0,1,.82915-3.82132c1.57879-2.56589,4.13012-3.881,7.55213-4.0098a10.87921,10.87921,0,0,1,1.10565.04862,12.61115,12.61115,0,0,1,4.05949,1.30833,20.89682,20.89682,0,0,1,4.62279,3.28784c.4057.378.93528.92321,1.43291,1.45065C535.77171,360.204,533.3943,362.36841,531.16809,363.4336Zm73.97344-62.09739a72.48277,72.48277,0,0,0-17.02771-21.47728c-14.61835-12.571-30.79668-17.92714-46.55831-18.16708-13.82718.06744-25.73518,2.91941-37.09586,9.32721a74.2831,74.2831,0,0,0-27.88473,27.18513,72.69293,72.69293,0,0,0-1.52555,71.33657,71.20171,71.20171,0,0,0,14.50016,19.02c13.24259,12.28956,28.03984,18.54935,44.106,19.94712A71.33044,71.33044,0,0,0,574.95571,399.87a73.45376,73.45376,0,0,0,30.18582-98.53377Zm6.10255,49.14585c-2.92261,8.919-6.07664,19.75794-16.17017,22.76857-5.04659,1.80666-11.355-1.204-16.40159,2.40864-13.24791,9.03261-19.556,25.89314-36.61314,28.93252a34.35008,34.35008,0,0,1-6.56291.04508,76.99935,76.99935,0,0,1-13.74554-2.32523,74.49037,74.49037,0,0,1-30.48647-16.376,70.93307,70.93307,0,0,1-17.60343-23.20266,62.82151,62.82151,0,0,1-6.09473-34.43379,63.51318,63.51318,0,0,1,11.53247-30.70653c2.90663-4.1138,6.35065-7.78782,9.55118-11.66132,9.73859-8.722,21.08826-15.47554,35.44822-18.59585a70.62974,70.62974,0,0,1,35.61078,1.16919,74.59347,74.59347,0,0,1,37.3461,24.45526,67.0927,67.0927,0,0,1,13.5766,25.50589,61.93481,61.93481,0,0,1,1.61534,27.12728Q611.83737,348.07572,611.24408,350.48206Z"/><path class="cls-7" d="M383.25438,475.74645h86.06736v9.60577c-14.60092-4.61062-27.47218-7.68462-76.46159-7.68462l.00308,122.95228h-9.60885Z"/><path class="cls-7" d="M392.85838,476.98247h-9.60376V600.83694c-.001.10846-.00411.19032-.00514.31209-.00412,2.26031,2.23762,1.96459,2.13474,8.02107-.02572,1.52461,1.25821,1.852,1.27981.10437.05144-4.21262,1.99071-6.1455,3.54213-6.1455a2.60886,2.60886,0,0,0,2.64913-1.97483h.00309Z"/><path class="cls-7" d="M714.50917,475.74645h9.605V529.538l18.44322-13.2558a348.28719,348.28719,0,0,0,46.29918-40.53572h13.06354l-61.66841,44.378,73.19533,80.4954H800.3835l-68.00791-74.73194-8.26142,5.95573v68.77621h-9.605Z"/><path class="cls-7" d="M689.87782,475.74631h-9.605v90.86948c0,13.748-8.06726,22.91827-19.15976,27.77475a15.68619,15.68619,0,0,1-6.85282,1.65238c-12.44688-2.88546-11.8324-18.86186-22.27851-24.39215-1.84343-.61448-4.30134.61448-6.14477,1.229-7.37372,4.30133-17.20536,16.59087-24.59008,7.14066a21.41374,21.41374,0,0,1-2.65515-6.14627,28.06753,28.06753,0,0,1-.92773-7.25833V552.20714c0-37.46172,3.074-58.0176,7.68461-76.46083h-9.60577v90.86948a32.13871,32.13871,0,0,0,.686,6.69672,29.16208,29.16208,0,0,0,1.96312,5.98964c1.637,4.02368,4.09488,7.71054,9.62517,7.09607,9.83163-1.84343,15.36192-15.9764,24.57908-11.06059,10.4461,5.5303,10.4461,25.19356,24.35822,24.97214a59.77611,59.77611,0,0,0,6.61756-1.7831,44.656,44.656,0,0,0,16.70083-9.60141v11.74429h9.605V475.74631Z"/><path class="cls-7" d="M360.688,475.74631h-9.605v90.86948c0,43.99349-82.60883,41.11176-82.60883,0V552.20714c0-37.46172,3.074-58.0176,7.68462-76.46083H266.553v90.86948c0,37.60148,60.563,45.03282,84.53,22.30947v11.74429h9.605V475.74631Z"/><path class="cls-7" d="M481.9976,475.74646h23.639a52.63914,52.63914,0,0,1,5.48924.19769c10.5226,2.09962,10.01163,15.38494,18.69818,20.49467,1.02195.511,2.55487,0,3.57682-.511,7.6646-5.10974,15.84018-14.81824,25.0968-8.49706a50.62726,50.62726,0,0,1,4.067,3.20461,43.3886,43.3886,0,0,1,15.29706,32.75566c0,20.09932-14.4976,40.19927-43.60747,45.9898q-1.61721.32169-3.29457.58372a124.164,124.164,0,0,1-14.38163,1.07014l-2.40143.00006H501.20888a39.76228,39.76228,0,0,0-9.60564.57626v29.00871H481.9976Zm9.60564,1.92149v91.82982c3.074-.19268,6.33982-.38448,9.60564-.38448h7.68459c9.17815-.1162,18.37567-.1162,27.09161-2.92615a49.988,49.988,0,0,0,5.43411-2.13936,44.2162,44.2162,0,0,0,25.87617-40.65672,44.978,44.978,0,0,0-9.31542-27.59383,31.66366,31.66366,0,0,0-3.38765-3.75963c-7.39517-5.81825-14.5488,1.84635-20.68049,5.93414-3.06584,1.53293-5.62071,0-7.6646-2.04389-5.10974-6.13168-6.64266-17.37311-16.20077-18.04413a52.35136,52.35136,0,0,0-5.95578-.21577Z"/></g></g></svg>