<svg id="Layer_1" data-name="Layer 1" xmlns="http://www.w3.org/2000/svg" viewBox="0 0 1080 600"><defs><style>.cls-1{fill:#2f2f35;}</style></defs><title>IGRIK_Bar&amp;amp;Yoga_logo_ALLLL</title><path class="cls-1" d="M197.291,186.79222H180.92368V399.0199c-.00175.18585-.007.32612-.00877.53476-.007,3.8731,3.81348,3.36639,3.63815,13.74431-.04383,2.61246,2.14432,3.17352,2.18114.17884.08766-7.21843,3.39268-10.53046,6.03669-10.53046s4.51306-2.10049,4.51482-3.38392h.00526Z"/><path class="cls-1" d="M398.27449,245.38747V381.55906c-14.72919,10.47554-33.38834,16.69614-55.64724,16.69614-1.14794,0-2.28338-.02105-3.41093-.05329-.35721-.01052-.70916-.027-1.06374-.04078q-1.16834-.04442-2.3222-.10986-.592-.03553-1.18017-.07631-1.118-.078-2.22089-.17762c-.36708-.0329-.73547-.06316-1.10058-.1q-1.30748-.13025-2.5952-.2934c-.1967-.02434-.396-.04407-.59207-.06973-2.27417-.32366-4.50427-.70784-6.66567-1.20516-20.96519-9.323.59112-34.92113-12.88157-49.7411-12.12543-16.16723-33.68174-9.43089-51.19625-13.4727-4.0418,0-5.38907-2.69454-6.86953-5.92677a82.25388,82.25388,0,0,1-3.04421-9.90825q-.56049-2.80341-.97822-5.65419c-.02566-.17433-.052-.34866-.077-.52365-.10854-.75915-.20788-1.52028-.30261-2.28272-.02631-.20854-.0546-.41642-.0796-.625q-.16479-1.3864-.29932-2.77742c-.027-.28419-.04868-.56838-.07433-.85257-.05-.56378-.10065-1.12689-.14341-1.69133-.02632-.34076-.04671-.68284-.06973-1.02426-.03487-.51312-.06974-1.02624-.098-1.53936-.0204-.35985-.03553-.71969-.05263-1.07953-.023-.494-.04605-.98809-.06381-1.48279-.01316-.37365-.02237-.748-.03224-1.12228-.01315-.48155-.025-.96309-.03223-1.44463-.00592-.3809-.00855-.76245-.01118-1.14334q-.00493-.71343-.002-1.42621.003-.5753.01118-1.14992.00987-.71541.02763-1.43081.01381-.56838.0329-1.13742c.01579-.47957.03618-.95914.05789-1.43871q.02466-.5664.0546-1.13215c.02565-.48286.05657-.96572.08815-1.44858.02434-.37168.048-.74271.07565-1.11439.03684-.49339.07894-.98612.121-1.47884.03092-.35853.05986-.71706.09407-1.07492.04868-.51707.10394-1.03282.1592-1.54857.03618-.33353.06907-.66772.10723-1.00059.06512-.56772.1388-1.13478.21182-1.70119.03618-.28024.06842-.56048.10657-.84073q.34339-2.533.79139-5.047c.05-.28287.10592-.56377.15854-.846.10263-.55522.20525-1.11044.31577-1.66369.06579-.33221.13815-.66311.20722-.99466.10394-.50062.20788-1.00125.31774-1.49989.07829-.35129.16052-.70061.24143-1.05124.11052-.47891.221-.95783.33748-1.43542.08683-.35853.17827-.71508.26906-1.07295q.17563-.69567.35852-1.39.146-.54765.298-1.09268.18847-.68187.38418-1.36175.1569-.54271.31971-1.08413.20328-.67987.41576-1.35713.16776-.5378.34077-1.07361.21807-.674.44536-1.34464c.11907-.35392.2388-.70784.36181-1.06045.15657-.45.31774-.898.47957-1.34529.12565-.34669.25-.69337.37892-1.03808.16973-.45523.34537-.90783.52036-1.36043.12894-.33221.2559-.66508.38813-.99532.18749-.4697.38089-.93612.5743-1.40253.12894-.30985.25459-.62167.38616-.9302.21709-.51048.44207-1.017.66705-1.52357.11513-.2605.227-.523.34471-.78218q.5003-1.10517,1.02493-2.19655c.02368-.05.04736-.1.0717-.15q.52793-1.09433,1.08085-2.17615c.12433-.24406.25458-.48418.38089-.72692.25853-.49733.51772-.99532.78481-1.488.15788-.29208.32169-.58154.48286-.8723.2434-.43945.48615-.87889.73547-1.31438.1763-.30722.35721-.61114.5368-.917.24209-.41313.48484-.82625.7335-1.23609.18946-.31314.38353-.62364.57693-.9348q.36906-.596.746-1.18742.3-.46773.60588-.93085.38189-.58219.77165-1.15912.31182-.46182.63022-.91836.39471-.57035.79731-1.13347.32563-.45489.65522-.90651.4095-.5595.82822-1.1111c.223-.296.44668-.59206.67364-.88546.2855-.36906.57561-.73548.867-1.10058.227-.28485.45326-.57035.6835-.85191.30261-.371.61048-.73679.91836-1.10255.22827-.27038.45391-.54273.68482-.81047.32563-.3776.65718-.74863.98808-1.121.22169-.24932.44076-.50062.66574-.74731.371-.40853.75-.80981,1.12887-1.2111.19209-.20327.38089-.41049.575-.61245q1.72982-1.79889,3.56224-3.505c.20328-.18946.41181-.373.61706-.56048.41181-.37629.82363-.75258,1.24333-1.121.24867-.21907.50325-.43221.75521-.64864.38287-.32958.76573-.65916,1.15518-.98217.275-.22827.55522-.45128.83283-.67626.375-.30393.7506-.60719,1.1315-.9052.29011-.227.58417-.45.87757-.67363.37826-.28814.75652-.575,1.14-.85718.30195-.22235.6072-.44141.91244-.66048q.57627-.41247,1.15912-.8177.46674-.32366.93875-.64008.58909-.39669,1.18544-.78416.47857-.31083.96177-.6164.60489-.38187,1.219-.75323c.32432-.19736.64929-.39471.9769-.58812.41773-.246.84007-.48746,1.26307-.72758.327-.18617.65324-.37234.98413-.55456.4355-.23946.87626-.473,1.31767-.70653.32564-.17235.64995-.34668.97888-.51509.46509-.23814.93677-.46905,1.40845-.7.31247-.15328.62232-.30984.93808-.45983.52694-.25,1.06177-.49142,1.5966-.73219.26708-.121.53088-.246.8006-.36444q2.42252-1.06374,4.949-1.99854c.28024-.10328.56574-.2.84862-.30064.56443-.20261,1.13018-.40523,1.70251-.598.34142-.11512.68876-.22235,1.03281-.33353.523-.16906,1.046-.33879,1.57555-.4993.36773-.11184.74073-.21643,1.11176-.32432.51312-.14867,1.0269-.29735,1.54594-.43813.38878-.10591.78218-.2059,1.17425-.30721.50983-.13157,1.01966-.26117,1.53476-.38484.40392-.09736.81046-.18946,1.21767-.28222q.77067-.17466,1.54923-.33945c.41313-.08683.82823-.16972,1.244-.25195q.78546-.15395,1.57751-.29669.63056-.11249,1.26438-.21972c.53483-.08881,1.07295-.17236,1.613-.25393.42563-.06381.85126-.12762,1.28017-.18617.54865-.07565,1.1019-.14407,1.6558-.21117.4276-.052.85455-.10525,1.28609-.15262.57036-.06184,1.14663-.11578,1.72356-.16907.421-.03881.84007-.08091,1.26438-.11512.60917-.04934,1.22425-.08881,1.84-.12828.4-.02565.79731-.05592,1.20057-.07762.68811-.03684,1.38476-.06118,2.08142-.08618.33682-.01184.66969-.02961,1.00848-.03882q1.5591-.04143,3.14385-.04276c32.07923,0,58.59438,22.58782,71.68684,37.97354V205.45093c-18.33024-12.76749-42.22585-20.9511-71.68685-20.9511-1.39,0-2.76361.02237-4.12864.05789-.425.01053-.84534.02763-1.26767.0421q-1.43674.04836-2.85572.121-.68382.03552-1.3624.07631-1.45647.0888-2.89123.20656c-.36905.0296-.74074.05526-1.10781.08815q-1.9548.1717-3.87406.39142c-.20328.02368-.40195.05263-.60456.077q-1.61634.19341-3.207.421c-.41116.05921-.81837.123-1.22689.18551q-1.29957.19934-2.582.41971c-.41575.0717-.83086.14341-1.24332.2184q-1.41207.25854-2.79914.5447c-.28156.05789-.56575.11052-.846.16973q-1.792.38088-3.54711.80586c-.27695.06776-.5493.14078-.82494.20985q-1.344.33452-2.66691.69469c-.38681.10591-.771.21511-1.15518.32431q-1.18709.33749-2.3564.696c-.36511.11183-.73153.22235-1.09466.33747q-1.40319.444-2.77874.91967c-.17565.06052-.35524.1171-.53023.17828q-1.62718.56936-3.21555,1.18215c-.29932.11446-.594.23485-.89138.35194q-1.15157.45294-2.2847.92691-.53187.222-1.05782.45-1.08939.4697-2.1584.95979c-.31182.14276-.62627.28288-.93545.4276q-3.00768,1.40912-5.86536,2.96821c-.2934.15985-.58285.32432-.87428.4868q-1.00156.55852-1.98538,1.13413-.47562.27826-.946.56049-1.00257.60192-1.98407,1.22359c-.25261.15986-.50917.31643-.76047.47826q-1.33707.86046-2.63928,1.75316c-.13749.09473-.271.19275-.40852.28813q-1.09335.7608-2.161,1.54331c-.275.202-.546.40655-.81836.61048q-.87329.65422-1.72816,1.32425c-.275.21511-.5493.43023-.82165.648q-.92953.744-1.836,1.50712c-.1888.15854-.38155.31445-.569.47365q-1.17228.99861-2.30641,2.02617c-.18025.1638-.35655.33155-.53549.496q-.86736.79731-1.71369,1.60975c-.24669.23749-.49009.47629-.7335.71574q-.75882.746-1.49857,1.5045c-.23025.23616-.46181.471-.68876.7085q-.88612.92658-1.74527,1.87091c-.10657.1171-.21643.23222-.32235.35q-1.00946,1.12-1.97946,2.26694c-.18419.21709-.36379.43746-.54535.65587q-.7006.83975-1.38214,1.69066-.31971.40162-.63482.80521-.65127.83184-1.28214,1.67619c-.18486.24669-.37234.49207-.55457.74074q-1.77025,2.40771-3.38988,4.90358c-.16512.25393-.32563.51049-.48812.76574q-.56739.89005-1.11571,1.78868-.26149.42924-.51838.86046-.55358.92856-1.08479,1.867c-.13749.24209-.27827.48286-.41379.72627q-.71837,1.28772-1.40121,2.59388c-.07368.1421-.14407.28617-.21709.42892q-.56937,1.1042-1.11242,2.22023c-.14012.28748-.27629.57693-.41378.86639q-.44109.92953-.86507,1.86565c-.13552.30129-.27169.60127-.40458.90322q-.45786,1.03907-.89138,2.086c-.08881.2138-.18156.42563-.2684.63943q-.55555,1.36175-1.0736,2.736c-.08158.21709-.15855.4355-.2388.65259q-.39175,1.06077-.76311,2.12813c-.10854.31313-.2138.62758-.31905.94138q-.32662.97-.63351,1.94591c-.096.30392-.19275.60719-.28616.91243q-.36314,1.18708-.69929,2.38272c-.0421.148-.08749.296-.12828.4447q-.39273,1.415-.74468,2.83993c-.06579.26511-.127.53088-.19078.796q-.25162,1.044-.48417,2.09195-.10756.48747-.21051.97559-.21513,1.01538-.40984,2.03406c-.05724.298-.1171.59535-.1717.89336q-.53088,2.8863-.91178,5.79694c-.03947.30064-.07433.60127-.11117.90191q-.12631,1.02919-.23485,2.061-.05131.49635-.09934.99335-.10164,1.0657-.18288,2.13471c-.02039.27366-.04473.54667-.06381.82033q-.10065,1.4624-.16709,2.92545c-.00658.15591-.00921.31182-.01513.46773q-.04935,1.23741-.07171,2.47613c-.00526.31708-.00724.63416-.01053.9519q-.00985,1.02527-.00131,2.05117c.00263.32761.00526.65456.01052.98216q.01974,1.12887.06184,2.25773c.00855.23222.01316.46379.023.69535q.06315,1.46337.16248,2.92412c.01579.23025.03684.4605.05395.69009q.08387,1.12787.18946,2.25312c.03092.32695.06447.65324.098.97953q.10559,1.01736.22893,2.03341c.03815.31708.07565.63416.11644.95058q.15985,1.22657.346,2.44917c.02369.15525.04342.3105.06776.46509q.227,1.44761.49207,2.88729c.05.27169.1046.54207.15657.81376q.20031,1.05091.419,2.09919.10262.48745.21051.97361.223,1.01637.46641,2.02946c.06973.29208.13749.58416.20985.87559q.70752,2.85275,1.565,5.66735c.08749.28813.18025.575.27037.86243q.31084.99072.64009,1.97617.15986.4776.32366.95322.34833,1.01145.719,2.0163c.09539.2592.18749.519.28419.77758q.51708,1.37653,1.07032,2.73993c.00921.02237.0171.04473.02631.06776.04211.102.0875.202.1296.30392,8.57832,21.4708,34.17644,13.38718,53.03821,17.429,2.69454,1.34727,6.73635,2.69454,8.08362,5.38908,5.38908,13.47269-1.34727,36.37627,19.4385,40.43993a83.84688,83.84688,0,0,0,11.32437,1.8096c.16512.01842.3263.04079.49207.05855.1421.01381.28814.023.43089.03618.67232.06315,1.35122.11775,2.03012.1717.49864.04013.99532.08354,1.49791.11907.71574.05,1.43937.08946,2.16234.12959.47563.02632.948.05789,1.42687.0796.80455.0375,1.61765.06184,2.43075.08684.40654.0125.80849.03092,1.217.04078q1.83935.04144,3.70762.04342c29.78729,0,53.68422-8.18361,72.01446-20.95109V245.38747Z"/><path class="cls-1" d="M699.0932,385.16143c-42.32123,30.39843-79.7652-24.39952-155.55437-34.45537,115.43232-17.50792,107.60856-163.91428-23.5009-163.91429h-58.922V399.563h16.36722V353.34139a95.21916,95.21916,0,0,1,16.36722-.9144h26.18755c57.61156,0,110.64056,80.52567,181.01961,35.35267ZM501.05247,349.15354h-7.2021c-5.60091,0-11.00051.2092-16.36722.66311V190.06522h11.03272a94.25631,94.25631,0,0,1,10.30336.39338c25.33813,3.6879,29.37994,37.36964,54.97806,40.06418,9.43089,1.34727,16.16724-14.82,28.29266-10.77816,8.08362,1.34727,16.16724,9.43089,17.95774,18.34044a70.33637,70.33637,0,0,1,3.55081,10.06952,82.14393,82.14393,0,0,1,2.14257,32.28346c-3.44208,22.83729-15.5675,43.04634-34.28126,54.85927a80.72522,80.72522,0,0,1-10.71291,5.78828c-11.42708,5.1097-24.99674,8.06795-40.709,8.06795Z"/><rect class="cls-1" x="667.66788" y="186.79178" width="16.36722" height="155.48859"/><path class="cls-1" d="M730.50406,186.79178h16.36722v91.65643l31.42533-22.58781c34.04355-24.55083,61.21261-50.73575,78.889-69.06862h22.25889l-105.0765,75.6155L899.08511,399.563h-22.2589L760.94788,272.22762l-14.0766,10.14925V399.563H730.50406Z"/></svg>