<svg id="Layer_1" data-name="Layer 1" xmlns="http://www.w3.org/2000/svg" xmlns:xlink="http://www.w3.org/1999/xlink" viewBox="0 0 2451.06383 689.3617"><defs><style>.cls-1{fill:none;}.cls-2{fill:#feaead;}.cls-3{clip-path:url(#clip-path);}.cls-4{fill:#fafafa;}</style><clipPath id="clip-path"><rect class="cls-1" x="-52.53443" y="-1185.81249" width="1080" height="1080"/></clipPath></defs><title>IGRIK_Bar&amp;amp;Yoga_logo_ALLLL</title><path class="cls-2" d="M148.83214,183.51278c1.27739-9.599,3.6737-19.14916,8.85591-27.63414a53.523,53.523,0,0,1,22.68886-20.3244c21.32259-10.42153,49.5009-9.38638,72.8049-5.19273,27.32825,4.91781,54.27658,11.82965,81.04537,18.84937,52.59029,13.78541,104.96953,29.07676,159.04815,37.08407,51.904,7.68483,106.07774,8.75037,156.96841-4.85912q9.19794-2.46359,18.18462-5.56189v30.41479c-7.078,5.55672-15.96034,8.58758-24.87754,10.8724-68.50265,17.55217-138.62588,1.13849-206.76337-9.27332-25.7279-3.93138-54.17909-7.72057-82.20832-7.74143-29.77416-.022-60.60984,4.20134-86.64138,18.36732-27.10741,14.75147-41.42544,39.937-63.00237,60.06148A131.86088,131.86088,0,0,1,176.839,298.15H89.00526q1.926-1.35086,3.81567-2.74389C135.65739,263.829,142.41316,231.74728,148.83214,183.51278Z"/><path class="cls-2" d="M340.97214,254.02936c32.73445-6.79195,68.55243-1.34678,100.53111,6.39611,69.74561,16.88731,136.90138,11.27724,204.29652-9.0159,7.58053-2.28257,15.11436-4.68748,22.62859-7.161V298.15H288.14314C294.02525,277.712,312.18464,260.00235,340.97214,254.02936Z"/><path class="cls-2" d="M1918.78793,597.87525c9.599-1.27739,19.14915-3.6737,27.63414-8.85591a53.523,53.523,0,0,0,20.32439-22.68886c10.42154-21.32259,9.38638-49.5009,5.19273-72.8049-4.91781-27.32825-11.82965-54.27658-18.84937-81.04537-13.78541-52.59029-29.07675-104.96953-37.08407-159.04815-7.68482-51.904-8.75037-106.07774,4.85912-156.96841q2.46358-9.19794,5.5619-18.18462H1896.012c-5.55671,7.078-8.58758,15.96034-10.8724,24.87754-17.55217,68.50265-1.13849,138.62588,9.27332,206.76337,3.93138,25.7279,7.72057,54.17909,7.74143,82.20832.022,29.77416-4.20134,60.60984-18.36731,86.64138-14.75148,27.10741-39.937,41.42544-60.06149,63.00237a131.86088,131.86088,0,0,0-19.57477,28.09641v87.83371q1.35085-1.926,2.7439-3.81567C1838.47171,611.05,1870.55342,604.29424,1918.78793,597.87525Z"/><path class="cls-2" d="M1848.27135,405.73525c6.79194-32.73445,1.34677-68.55242-6.39612-100.53111-16.8873-69.74561-11.27724-136.90138,9.0159-204.29652,2.28257-7.58053,4.68748-15.11436,7.16095-22.62859h-53.90133V458.56425C1824.5887,452.68214,1842.29835,434.52275,1848.27135,405.73525Z"/><path class="cls-2" d="M2237.9391,116.6591c-9.599,1.27739-19.14915,3.6737-27.63413,8.85591a53.523,53.523,0,0,0-20.3244,22.68885c-10.42154,21.3226-9.38638,49.5009-5.19273,72.80491,4.91781,27.32824,11.82965,54.27658,18.84937,81.04536,13.78541,52.5903,29.07676,104.96954,37.08407,159.04816,7.68483,51.904,8.75037,106.07774-4.85912,156.9684q-2.46358,9.198-5.56189,18.18463h30.41479c5.55672-7.078,8.58758-15.96034,10.8724-24.87754,17.55217-68.50266,1.13849-138.62588-9.27332-206.76337-3.93138-25.72791-7.72057-54.17909-7.74143-82.20832-.02205-29.77416,4.20134-60.60984,18.36732-86.64138,14.75147-27.10741,39.937-41.42544,60.06148-63.00238a131.86037,131.86037,0,0,0,19.57477-28.09641V56.83222q-1.35086,1.926-2.74389,3.81567C2318.25532,103.48435,2286.17361,110.24011,2237.9391,116.6591Z"/><path class="cls-2" d="M2308.45569,308.7991c-6.79195,32.73445-1.34678,68.55242,6.39611,100.53111,16.88731,69.7456,11.27724,136.90137-9.0159,204.29652-2.28257,7.58053-4.68748,15.11436-7.16095,22.62859h53.90133V255.97009C2332.13833,261.85221,2314.42868,280.0116,2308.45569,308.7991Z"/><path class="cls-2" d="M1442.22949,606.33724a314.36774,314.36774,0,0,0-16.03575-35.67745c-11.79056-21.82534-27.75437-41.23963-49.36207-51.86291-19.34682-9.51176-42.29906-11.25659-61.428-.09589-18.1592,10.59389-32.29885,30.605-53.1106,35.53454-24.39718,5.77655-47.27629-15.67821-69.87674-21.85748-23.39422-6.39626-47.68815-3.52274-71.51538-2.14613-24.0673,1.39044-49.43378,1.67091-71.41175-10.57568-22.06638-12.28825-37.25641-34.20913-54.87312-52.36427-17.77972-18.31332-40.58585-34.78489-66.2918-30.52965-19.47564,3.2239-36.28111,15.81411-49.17348,31.21356v58.85394c24.28957-28.79977,56.63629-56.17186,94.53152-39.45166,42.86384,18.91245,58.63283,76.71844,111.67042,75.097,22.95624-.70418,44.99511-9.45342,67.96256-10.04426a68.38057,68.38057,0,0,1,30.70621,6.03372c9.74518,4.494,18.595,10.8561,27.98646,16.096,9.88907,5.52054,20.585,9.561,31.86153,7.82428,12.07784-1.86212,22.76287-8.97009,32.7623-16.10195,18.20268-12.98068,36.67055-28.5635,58.56556-33.23661,21.46393-4.58346,41.62884,4.71491,56.43194,21.46746,8.0649,9.13111,14.2614,19.97528,19.49606,31.2012,4.66,9.99347,9.59815,20.66957,12.70162,31.36094q.40392,1.39163.70114,2.70194h23.32616C1445.99169,614.99289,1443.80116,610.38254,1442.22949,606.33724Z"/><path class="cls-2" d="M1185.80686,586.8072c-15.35034-6.26651-32.14343-8.01511-48.41684-6.35a132.21619,132.21619,0,0,0-24.50417,5.0012c-8.40754,2.51272-16.688,5.54442-25.22264,7.55573-36.40148,8.57859-51.01215-19.66761-70.56068-46.426-8.23616-11.25592-18.03669-21.82548-30.52927-27.34-21.72915-9.59179-51.42517-.51136-71.77084,9.45344-12.34052,6.04409-24.61393,15.80015-35.65167,27.21226v63.864H902.8508a68.62929,68.62929,0,0,0,4.85834-14.805c4.014-18.11394,8.28946-37.93322,22.119-51.006,15.7766-14.91337,40.24238-12.02668,55.17527,3.14281,11.74075,11.927,17.71237,28.86111,28.85317,41.56934a121.41009,121.41009,0,0,0,24.03868,21.09879h188.13013a84.9068,84.9068,0,0,0-6.09073-8.21491A88.072,88.072,0,0,0,1185.80686,586.8072Z"/><path class="cls-2" d="M1389.65321,619.77787h-108.0153a9.60219,9.60219,0,0,1,.05142-1.59686,11.45056,11.45056,0,0,1,3.31059-6.5947c5.78454-5.88114,15.11182-5.7643,21.599-10.84309,6.04005-4.7283,10.31186-11.65949,13.25323-18.96612,4.22662-10.49886,6.77851-22.54467,18.65453-25.4798,15.80355-3.90727,26.62954,12.46961,31.84544,26.08112,4.48838,11.71248,6.39683,24.11663,15.64466,32.894a13.52561,13.52561,0,0,1,3.538,4.21574C1389.57688,619.58625,1389.61582,619.68286,1389.65321,619.77787Z"/><path class="cls-2" d="M854.49336,170.80844h257.24433a109.812,109.812,0,0,0,7.892,10.64583,114.1183,114.1183,0,0,0,44.2267,32.08082c19.89255,8.12217,41.65465,10.38745,62.7444,8.22921a171.3539,171.3539,0,0,0,31.75581-6.48079c10.89415-3.2565,21.62481-7.18538,32.68653-9.79183,47.17236-11.11624,66.10592,25.487,91.43949,60.1642,10.67409,14.58679,23.3752,28.28527,39.563,35.43026,28.16008,12.43059,66.643.66223,93.01022-12.25087,15.992-7.83144,31.89712-20.47606,46.20126-35.26474V291.262c-31.47718,37.322-73.39628,72.79258-122.50481,51.12544-55.54889-24.50987-75.98253-99.42031-144.71511-97.31863-29.74893.91256-58.31079,12.25087-88.07392,13.016a88.64329,88.64329,0,0,1-39.79313-7.8193c-12.62845-5.82464-24.098-14.068-36.26813-20.85964-12.81417-7.15306-26.67614-12.39017-41.28922-10.13908-15.65278,2.41263-29.49858,11.625-42.45811,20.86569-23.58924,16.82171-47.52167,37.01712-75.89575,43.0719-27.81484,5.93968-53.9479-6.10929-73.12979-27.8189-10.452-11.83292-18.48333-25.88674-25.26692-40.43515-6.03867-12.94945-12.43665-26.7852-16.45834-40.64111Q854.88,172.50739,854.49336,170.80844Z"/><path class="cls-2" d="M1386.68982,198.15068c14.43753,16.4688,22.17624,38.414,37.39127,53.87036,19.35175,19.65837,51.05733,23.39927,71.50248,4.07281,17.92186-16.94119,23.46244-42.6253,28.6643-66.09943a88.93821,88.93821,0,0,1,6.296-19.186H1355.53773A157.338,157.338,0,0,1,1386.68982,198.15068Z"/><g class="cls-3"><path class="cls-4" d="M1576.42151,149.86111c-13.8783-35.72037-28.89015-71.03846-46.97856-104.52115-34.54178-63.93982-81.30957-120.81619-144.61179-151.93832-56.6787-27.86577-123.91992-32.97743-179.96046-.28092-53.19944,31.036-94.62316,89.66084-155.59353,104.10249-71.47434,16.92306-138.50128-45.9311-204.71188-64.034C776.02928-85.54934,704.85745-77.131,635.05284-73.0981,564.545-69.02464,490.231-68.203,425.844-104.08075c-64.64595-35.99983-109.14688-100.21953-160.757-153.4071-52.08771-53.651-118.90086-101.90628-194.20936-89.44007-57.0561,9.44478-106.28965,46.32923-144.0593,91.44367V-83.06492c71.159-84.37222,165.92245-164.56186,276.94083-115.57815C329.33362-143.23689,375.53066,26.11235,530.91033,21.36216c67.25291-2.063,131.81829-27.69485,199.104-29.42578,30.995-.78667,61.37471,4.49322,89.95732,17.67645,28.54962,13.16567,54.47611,31.80419,81.98954,47.155,28.97115,16.173,60.30611,28.01,93.342,22.92212,35.3834-5.45529,66.6864-26.27888,95.98088-47.17249,53.32682-38.02839,107.43054-83.68,171.57447-97.37043C1325.7396-78.28073,1384.815-51.0401,1428.18235-1.9616c23.62705,26.75063,41.78041,58.51986,57.11594,91.40747,13.652,29.277,28.11886,60.55385,37.21083,91.87543q1.18335,4.077,2.05407,7.91567h68.33665C1587.44332,175.21882,1581.02591,161.71227,1576.42151,149.86111Z"/><path class="cls-2" d="M1524.56529,189.237H943.02536a248.247,248.247,0,0,0-17.84114-24.06653A257.98169,257.98169,0,0,0,825.203,92.64686c-44.97012-18.36139-94.16665-23.48241-141.84325-18.60338A387.3714,387.3714,0,0,0,611.57093,88.6943c-24.62786,7.36181-48.88617,16.24365-73.89285,22.13591C431.03777,135.96017,388.23559,53.213,330.9652-25.18011,306.83478-58.15577,278.122-89.12327,241.527-105.27559c-63.66014-28.10124-150.65654-1.49707-210.26375,27.69494C-4.889-59.87648-40.845-31.2914-73.18171,2.14066V-83.0667C-2.02276-167.4387,92.74175-247.62541,203.759-198.64353,329.33576-143.23525,375.52912,26.11121,530.90955,21.36,598.16155,19.297,662.73-6.33492,730.01406-8.06472c30.99479-.785,61.37348,4.49569,89.95842,17.67673C848.521,22.7795,874.44968,41.41479,901.9621,56.76839c28.96838,16.17058,60.30548,28.00987,93.34056,22.92093,35.3855-5.4541,66.686-26.28016,95.983-47.17007,53.32705-38.028,107.42995-83.68281,171.57388-97.37056,62.87967-13.42755,121.95744,13.811,165.321,62.88884,23.62837,26.75013,41.78438,58.52091,57.11973,91.4098,13.65133,29.27422,28.11493,60.552,37.20658,91.87543Q1523.69127,185.39624,1524.56529,189.237Z"/><path class="cls-4" d="M825.20226,92.64563C780.23168,74.28716,731.03442,69.16445,683.3596,74.04257a387.342,387.342,0,0,0-71.78775,14.6516c-24.63083,7.3613-48.88928,16.243-73.89259,22.13536C431.037,135.9615,388.23336,53.211,330.96373-25.18071c-24.12877-32.97552-52.84055-63.94023-89.439-80.09565-63.658-28.10024-150.65589-1.49808-210.26086,27.69494C-4.88906-59.87457-40.8454-31.29309-73.18171,2.14V189.237h69.432c6.586-13.66178,11.0203-28.87477,14.23307-43.37283,11.75959-53.06684,24.28491-111.1297,64.8-149.42783C121.50273-47.25409,193.178-38.79721,236.92561,5.64352c34.39587,34.94138,51.8904,84.55192,84.52863,121.78214A355.68618,355.68618,0,0,0,391.8783,189.237H943.02691a248.73981,248.73981,0,0,0-17.84346-24.06653A258.017,258.017,0,0,0,825.20226,92.64563Z"/><path class="cls-2" d="M321.45424,127.42566C288.816,90.19544,271.32148,40.5849,236.92561,5.64352,193.178-38.79721,121.50273-47.25409,75.28336-3.56369c-40.5151,38.29813-53.04042,96.361-64.8,149.42783C7.27058,160.3622,2.83628,175.57519-3.74972,189.237h395.628A355.68618,355.68618,0,0,1,321.45424,127.42566Z"/><path class="cls-4" d="M2437.07594-372.99233v196.7586c-12.8343-11.59748-23.90226-22.64247-30.55677-27.42575-37.275-26.805-91.91632-45.965-130.90756-14.52745-77.777,62.70162-144.81453,142.3955-219.33267,209.82559-32.61505,29.516-65.23014,60.84855-102.49154,83.47287-60.72089,36.86884-134.10248,45.96961-202.1259,32.90263C1673.92106,93.07589,1637.18,51.95326,1584.94844-7.37554,1532.83093-66.572,1490.184-148.50679,1420.81406-185.00137c-64.10285-33.72422-143.97469-37.42566-209.03135-4.58236-32.45083,16.38061-57.03314,41.06781-81.39172,68.81757-21.27791,24.23535-45.54977,51.474-77.90923,55.79162a63.85674,63.85674,0,0,1-48.53017-13.79273c-14.2217-11.45134-22.962-28.44806-34.86515-42.2956-27.95067-32.55572-71.05864-31.31428-108.53441-24.249-43.286,8.16523-85.72763,21.09986-128.968,29.70324-79.33332,15.78715-163.363,22.06736-239.862-10.6481-52.866-22.606-98.06436-63.58715-128.86294-115.1661-15.97893-26.75474-17.40293-60.39215,12.07209-76.82292,31.77065-17.68591,74.22139,12.428,99.78038,30.794,35.71412,25.66853,71.07224,48.14213,112.37739,62.70619,54.249,19.12821,109.89,19.863,165.0472,4.58236,54.31285-15.057,105.01554-41.87566,155.29824-68.05084,91.20455-47.48495,198.79866-99.607,301.33589-63.71025,23.30436,8.16514,44.13033,21.506,65.08418,34.93366,22.072,14.16232,45.50412,29.128,71.62445,31.76612,28.03273,2.83426,53.58716-10.648,79.70748-19.23309a214.04229,214.04229,0,0,1,66.89613-10.97672c42.91628.05025,86.41224,15.43585,114.45862,51.98054,16.3897,21.34632,26.76843,46.8552,37.58545,71.7523,29.56618,68.05085,78.11461,138.0277,146.412,166.10151,49.37435,20.30114,103.2673,14.68729,151.42778-6.88723,103.43178-46.31654,164.48111-152.02582,232.57765-241.75607,30.58868-40.301,65.39-79.83542,109.77589-102.14467,42.008-21.10442,90.12277-23.35909,133.60057-5.80554A166.76459,166.76459,0,0,1,2437.07594-372.99233Z"/><path class="cls-4" d="M2437.07594,76.90449c-10.67238,8.47481-24.70189,12.33636-40.875,9.22848-23.47484-4.51116-42.214-20.21095-66.35762-22.61746-13.32746-1.32834-26.80092-.2445-39.98269,2.046-27.74031,4.79062-54.62193,14.14448-82.447,18.42867-13.01172,1.99478-42.51126,3.185-35.49035-21.151,4.22445-14.60906,31.20639-18.76052,42.36037-24.90326a166.33851,166.33851,0,0,0,29.47321-20.66659c21.35148-18.76787,34.22121-42.46324,47.87409-67.79147,36.4148-67.55295,108.41487-35.82019,145.445,15.68555V-142.3546a44.13148,44.13148,0,0,0-7.23524-3.62632,4.216,4.216,0,0,0-1.60324-1.0492,269.98624,269.98624,0,0,0-66.31393-14.31947c-33.59341-2.92162-65.74625,2.27717-89.67686,30.09594-15.96943,18.56395-25.53046,41.83385-37.154,63.53252a222.39289,222.39289,0,0,1-33.81267,46.823c-13.31171,14.24945-27.85377,27.04812-42.47652,39.6717-22.63532,19.54076-52.70647,40.3219-67.96838,67.33114-15.53443,27.4927-11.16357,56.44538,15.82215,69.6748,18.59184,9.10995,39.17422,10.73623,59.23866,7.88613,70.21771-9.97462,126.08185-65.27026,198.30232-34.39066,26.09208,11.15631,51.70921,17.33789,72.87771,11.93842Z"/><path class="cls-2" d="M2291.631-50.52208c-13.65288,25.32823-26.52261,49.0236-47.87409,67.79147A166.33851,166.33851,0,0,1,2214.28368,37.936c-11.154,6.14274-38.13592,10.2942-42.36037,24.90326-7.02091,24.336,22.47863,23.14576,35.49035,21.151,27.825-4.28419,54.70664-13.638,82.447-18.42867,13.18177-2.29054,26.65523-3.37438,39.98269-2.046,24.14366,2.40651,42.88278,18.1063,66.35762,22.61746,16.17313,3.10788,30.20264-.75367,40.875-9.22848v-111.741C2400.04585-86.34227,2328.04578-118.075,2291.631-50.52208Z"/><path class="cls-4" d="M1422.39333,189.237H1105.95021a28.12774,28.12774,0,0,1,.15066-4.67821,33.54568,33.54568,0,0,1,9.69872-19.3199c16.94647-17.2295,44.27182-16.88719,63.2767-31.76608,17.695-13.8521,30.20977-34.15781,38.82684-55.56341,12.38237-30.7576,19.85842-66.04716,54.65059-74.646C1318.852-8.18339,1350.568,39.79453,1365.84855,79.671c13.14923,34.313,18.74026,70.65239,45.83283,96.3666,3.89774,3.69684,8.188,7.266,10.36508,12.35047C1422.16969,188.67558,1422.28379,188.9586,1422.39333,189.237Z"/><path class="cls-2" d="M2437.07594-337.771v80.17758a143.73661,143.73661,0,0,0-30.28735-19.04144c-47.93688-22.0811-95.76861-5.235-137.06021,22.61518-58.08266,39.17819-104.16186,93.30851-149.97182,146.32511-83.65106,96.81384-209.61565,224.1661-353.1886,177.845-54.22618-17.49426-97.32967-59.39735-130.98538-105.37153-51.2868-70.059-78.64409-152.57351-165.257-185.508-69.1325-26.28929-148.3471-23.36361-220.03554-10.34692-62.19962,11.29616-113.63252,51.12267-173.75547,68.384C1006.439-142.56889,949.584-189.036,881.78881-177.6805c-44.54115,7.45765-85.075,18.57586-128.49781,30.77115-49.48407,13.90226-101.21364,20.62975-152.57351,15.51795-85.07948-8.46641-169.83495-42.58309-206.15144-119.99027-3.06256-6.52671-5.59559-14.80148-1.11825-20.4518a10.77743,10.77743,0,0,1,2.00364-1.95343c6.33042-4.7102,16.68185-1.09991,24.13494,3.12189,83.08958,47.06957,154.67761,99.68,254.12941,99.77585,126.22944.11867,231.09888-82.50537,349.22709-116.9095,65.58162-19.10082,124.60006-14.08948,190.15425,1.13185,58.96362,13.68775,124.59093,35.96976,185.06076,18.08294,78.75363-23.2951,148.40639-25.14356,194.74118,55.01116C1635.42292-140.013,1650.53-38.9774,1741.08652-8.16969c99.67087,33.90673,216.91821,14.29938,298.33266-53.06685,80.917-66.95085,122.48223-170.22285,194.23452-246.90894,32.86155-35.12535,72.78857-47.97326,120.967-44.03449C2374.96756-350.51859,2407.35-346.5935,2437.07594-337.771Z"/></g><path class="cls-2" d="M623.61625,556.87326c-1.27739,9.599-3.6737,19.14916-8.85591,27.63414a53.523,53.523,0,0,1-22.68885,20.3244c-21.3226,10.42153-49.5009,9.38638-72.80491,5.19273-27.32824-4.91781-54.27658-11.82965-81.04537-18.84938-52.59029-13.7854-104.96953-29.07675-159.04815-37.08406-51.904-7.68483-106.07774-8.75038-156.96841,4.85912q-9.19794,2.46358-18.18462,5.56189V534.0973c7.078-5.55671,15.96034-8.58757,24.87754-10.8724,68.50266-17.55216,138.62588-1.13848,206.76337,9.27333,25.7279,3.93138,54.17909,7.72057,82.20832,7.74143,29.77416.022,60.60984-4.20134,86.64138-18.36732,27.10741-14.75148,41.42544-39.937,63.00238-60.06148a131.86078,131.86078,0,0,1,28.09641-19.57478h87.8337q-1.926,1.35085-3.81567,2.7439C636.791,476.55705,630.03524,508.63876,623.61625,556.87326Z"/><path class="cls-2" d="M431.47625,486.35668c-32.73445,6.792-68.55242,1.34678-100.53111-6.39611-69.7456-16.88731-136.90137-11.27725-204.29652,9.0159-7.58053,2.28256-15.11436,4.68747-22.62859,7.16094V442.23608H484.30526C478.42314,462.674,460.26375,480.38369,431.47625,486.35668Z"/></svg>