<svg id="Layer_1" data-name="Layer 1" xmlns="http://www.w3.org/2000/svg" viewBox="0 0 1080 1080"><defs><style>.cls-1{fill:#2f2f35;}</style></defs><title>IGRIK_Bar&amp;amp;Yoga_logo_ALLLL</title><path class="cls-1" d="M319.25289,410.77929H440.4628v13.52794c-20.56269-6.49319-38.68947-10.82235-107.682-10.82235l.00435,173.15545H319.25289Z"/><path class="cls-1" d="M332.77834,412.52h-13.5251V586.946c-.00145.15274-.0058.268-.00725.43951-.00579,3.18322,3.15127,2.76677,3.00639,11.2962-.03623,2.14712,1.772,2.60825,1.80238.147.07244-5.9327,2.80354-8.6548,4.98842-8.6548s3.72937-1.72635,3.73082-2.78118h.00434Z"/><path class="cls-1" d="M785.76377,410.77929h13.52685v75.75538l25.97386-18.66834c28.1379-20.29191,50.59384-41.93553,65.2038-57.087h18.39757L822.01734,473.2775l103.082,113.36283H906.70181L810.9253,481.39427l-11.63468,8.38754v96.85852H785.76377Z"/><path class="cls-1" d="M751.07508,410.77909H737.54823V538.75188c0,19.36146-11.36125,32.27613-26.983,39.11558-3.12434,1.36789-6.4173,2.48182-9.65092,2.32707-17.52913-4.06362-16.66375-26.56342-31.37515-34.35181-2.59613-.86537-6.05764.86538-8.65377,1.73076-10.38452,6.05763-24.23055,23.36517-34.63057,10.05629a30.15707,30.15707,0,0,1-3.73927-8.65587,39.5274,39.5274,0,0,1-1.30655-10.222V518.46c0-52.75788,4.32916-81.707,10.82236-107.68088H618.50345V538.75188a45.2605,45.2605,0,0,0,.9661,9.4311,41.06914,41.06914,0,0,0,2.76468,8.43529c2.30537,5.66661,5.76688,10.85887,13.55527,9.99349,13.846-2.59613,21.63441-22.49979,34.61506-15.57678,14.71141,7.78839,14.71141,35.48045,34.304,35.16861a84.17814,84.17814,0,0,0,9.31961-2.51116,62.88965,62.88965,0,0,0,23.52-13.5218v16.53965h13.52685V410.77909Z"/><path class="cls-1" d="M287.47226,410.77909H273.94541V538.75188c0,61.95666-116.3392,57.89828-116.3392,0V518.46c0-52.75788,4.32916-81.707,10.82236-107.68088H154.90063V538.75188c0,52.95471,85.29181,63.42038,119.04478,31.41875v16.53965h13.52685V410.77909Z"/><path class="cls-1" d="M458.31439,410.77931h33.29113a74.13182,74.13182,0,0,1,7.73057.27841c14.81914,2.95692,14.09952,21.66682,26.33292,28.86294,1.43923.71961,3.59806,0,5.03728-.71961,10.79418-7.19612,22.308-20.86874,35.34419-11.96653a71.30256,71.30256,0,0,1,5.72769,4.51309c14.37324,12.581,21.54306,29.35563,21.54306,46.13027,0,28.30616-20.41718,56.61321-61.413,64.76809q-2.27756.453-4.63979.82206a174.85983,174.85983,0,0,1-20.25386,1.5071s-1.35279,0-3.382.00008H485.3699a55.99724,55.99724,0,0,0-13.52775.81156v40.85338H458.31439Zm13.52776,2.70605V542.81062c4.32918-.27136,8.92847-.54146,13.52775-.54146h10.82233c12.92572-.16366,25.87872-.16366,38.1535-4.121a70.40163,70.40163,0,0,0,7.65294-3.01289c24.29452-11.26393,36.44178-34.261,36.44178-57.25744a63.34317,63.34317,0,0,0-13.11905-38.86079,44.59339,44.59339,0,0,0-4.77087-5.29474c-10.41472-8.19392-20.48929,2.60025-29.12463,8.35714-4.31766,2.15884-7.91572,0-10.79417-2.87844-7.19612-8.63534-9.35495-24.4668-22.81577-25.41182a73.72773,73.72773,0,0,0-8.38761-.30387Z"/><path class="cls-1" d="M397.63946,644.9544c0-9.22143-.24262-10.19192-1.21329-10.43437v-.24315h21.84l1.94134,4.36827h-.48534c-2.57222-2.91218-9.0272-2.66974-13.05543-2.66974h-4.90191c-1.456,0-1.456.24315-1.456,2.18414v14.56019h2.42667c6.64912,0,13.34664,2.18413,13.34664,7.76534s-6.69752,7.76534-13.34664,7.76534h-6.30934V668.008c.97067-.24315,1.21329-1.21364,1.21329-10.43507Zm2.66938,9.46387v9.94948c0,1.941,0,2.18413,1.456,2.18413h.72795c5.58138,0,10.43472-1.69854,10.43472-6.0668s-4.85334-6.06681-10.43472-6.06681Z"/><path class="cls-1" d="M453.45056,658.932c1.50449,2.96067,3.7856,8.92979,5.62987,9.02747v.29094h-5.43574v-.194c1.69863-.34013-1.31035-5.6297-2.71786-8.29943l-4.27094-8.25094H433.35774l-4.27093,8.25094c-2.184,4.2228-3.68854,7.66836-1.50458,8.25094v.24245h-6.1637v-.29094c2.23254-.34013,4.61063-6.0668,6.11521-9.02747l12.95845-25.62562Zm-19.21922-9.12445h11.551l-5.77552-11.16241Z"/><path class="cls-1" d="M461.50411,634.52v-.24315h6.30934c6.64912,0,13.34664,2.18413,13.34664,7.76534s-6.69752,7.76534-13.34664,7.76534h-2.42667v7.76534c0,9.22143.24263,10.19192,1.21329,10.43507v.24245h-5.096V668.008c.97067-.24315,1.21329-1.21364,1.21329-10.43507V644.9544C462.7174,635.733,462.47478,634.76248,461.50411,634.52Zm6.06663,13.589c5.58138,0,10.43472-1.69853,10.43472-6.0668,0-4.36757-4.85334-6.06681-10.43472-6.06681h-.728c-1.456,0-1.456.24315-1.456,2.18414V648.109Z"/><path class="cls-1" d="M501.0549,663.88215l29.36274-30.57576V657.5729c0,9.22143.48525,10.19192,1.45591,10.43507v.24245h-4.61062V668.008c.97066-.24315,1.456-1.21364,1.456-10.43507V638.64515l-29.36265,30.57576V644.9544c0-9.22143-.48542-10.19192-1.45609-10.43437v-.24315h4.61072V634.52c-.97067.24245-1.456,1.21294-1.456,10.43437Z"/><path class="cls-1" d="M551.52487,644.9544v18.92775l29.36274-30.57576V657.5729c0,9.22143.48524,10.19192,1.45591,10.43507v.24245h-4.61063V668.008c.97067-.24315,1.456-1.21364,1.456-10.43507V638.64515l-29.36264,30.57576V644.9544c0-9.22143-.48543-10.19192-1.45609-10.43437v-.24315h4.61071V634.52C552.0102,634.76248,551.52487,635.733,551.52487,644.9544Zm6.30934-17.47237a8.49961,8.49961,0,0,0,7.28,3.88337c6.30933,0,8.49329-6.5524,8.49329-6.5524s-2.42658,4.36827-7.03729,4.36827a7.13474,7.13474,0,0,1-6.552-3.64022Z"/><path class="cls-1" d="M603.45233,633.30639A17.95726,17.95726,0,1,1,585.495,651.26365,17.67464,17.67464,0,0,1,603.45233,633.30639Zm-15.288,16.50117c0,10.92,8.4933,17.47236,16.50135,17.47236s14.07459-5.82435,14.07459-14.56018c0-10.92-8.4933-17.47237-16.50135-17.47237S588.16436,641.07173,588.16436,649.80756Z"/><path class="cls-1" d="M626.01688,644.9544c0-9.22143-.24262-10.19192-1.21329-10.43437v-.24315h19.41335l1.94133,4.36827h-.48533c-2.57231-2.91218-9.02721-2.66974-13.05552-2.66974h-2.47516c-1.456,0-1.456.24315-1.456,2.18414V657.5729c0,9.22143.24262,10.19192,1.21329,10.43507v.24245h-5.096V668.008c.97067-.24315,1.21329-1.21364,1.21329-10.43507Z"/><path class="cls-1" d="M679.40131,658.932c1.50458,2.96067,3.7856,8.92979,5.62987,9.02747v.29094h-5.43574v-.194c1.69871-.34013-1.31044-5.6297-2.71787-8.29943l-4.27094-8.25094H659.30849l-4.27094,8.25094c-2.184,4.2228-3.68853,7.66836-1.50449,8.25094v.24245h-6.16378v-.29094c2.23254-.34013,4.61071-6.0668,6.11521-9.02747l12.95836-25.62562Zm-19.21922-9.12445H671.733l-5.77542-11.16241Z"/></svg>