<svg id="Layer_1" data-name="Layer 1" xmlns="http://www.w3.org/2000/svg" xmlns:xlink="http://www.w3.org/1999/xlink" viewBox="0 0 1080 1080"><defs><style>.cls-1{fill:#2f2f35;}.cls-2{fill:url(#linear-gradient);}</style><linearGradient id="linear-gradient" x1="286.29174" y1="540" x2="762.20705" y2="540" gradientUnits="userSpaceOnUse"><stop offset="0.03073" stop-color="#fed0af"/><stop offset="0.38547" stop-color="#fea094"/><stop offset="1" stop-color="#fe93c7"/></linearGradient></defs><title>IGRIK_Bar&amp;amp;Yoga_logo_ALLLL</title><path class="cls-1" d="M439.05058,634.71223h7.51853c5.54012,0,6.06774,5.07843,1.61593,6.06774,11.04695,1.64879,10.28859,15.36691-2.2754,15.36691h-6.85906Zm1.64878.32985v6.52921a13.48453,13.48453,0,0,1,5.21028-.95613h.65947a2.78655,2.78655,0,1,0,0-5.57308Zm0,20.77495h5.21028c10.98113,0,10.98113-14.87225,0-14.87225a8.87065,8.87065,0,0,0-5.21028,1.484Z"/><path class="cls-1" d="M471.75991,643.71473l3.92418,12.43215H474.1342l-1.484-4.61674c-.7255,2.60514-3.16572,4.78155-7.25472,4.78155-10.35462,0-10.35462-13.09139,0-13.09139a8.11966,8.11966,0,0,1,5.14424,1.61582l-.6265-1.94567a4.30329,4.30329,0,0,0-4.55081-3.29756,6.77528,6.77528,0,0,0-3.92408,1.87951v-1.68174a18.23647,18.23647,0,0,1,3.92408-.52762A6.53387,6.53387,0,0,1,471.75991,643.71473Zm-6.36441-.19777c-8.14514,0-8.14514,12.49807,0,12.49807C473.87039,656.015,473.87039,643.517,465.3955,643.517Z"/><path class="cls-1" d="M479.34148,656.14688h-1.484V639.46081h.98932l.29677,2.11048c1.94556-2.539,6.33144-2.80291,8.80462-1.58286v1.81382c-2.93488-3.29757-8.60673-3.00091-8.60673,2.83587Z"/><path class="cls-1" d="M515.54568,638.37261a7.40654,7.40654,0,0,0-6.23255-3.59423c-3.92419,0-6.33144,3.85815-3.62742,6.6281L516.436,652.45354a8.10852,8.10852,0,0,0,1.51693-4.58377,7.26073,7.26073,0,0,0-3.62741-6.19937h1.94567a9.61486,9.61486,0,0,1,1.97852,6.19937,8.46357,8.46357,0,0,1-1.58286,4.78154l3.39656,3.49557H517.9859l-2.30837-2.34122a8.936,8.936,0,0,1-6.33144,2.539c-12.86077,0-11.93737-13.09139-4.38577-13.55308-2.836-3.39669-.19789-8.31008,4.35281-8.31008a9.61469,9.61469,0,0,1,6.19959,1.97864Zm-10.28859,4.74858-.033-.033c-5.57309.231-6.66129,12.95977,4.122,12.95977a8.54685,8.54685,0,0,0,6.13355-2.47329Z"/><path class="cls-1" d="M531.567,634.71223h2.20948l9.29928,10.25574,2.1764-2.40737a51.01363,51.01363,0,0,0,5.63889-7.84837h1.94568l-9.62913,10.61855v10.8161H541.5588V645.79225Z"/><path class="cls-1" d="M560.64958,639.296c12.33315,0,12.33315,17.01569,0,17.01569S548.31655,639.296,560.64958,639.296Zm0,.26392c-10.12366,0-10.12366,16.45511,0,16.45511S570.77337,639.55992,560.64958,639.55992Z"/><path class="cls-1" d="M576.6068,651.92592c-1.84667.65946-3.46249,3.56149-.29677,3.56149,2.77007,0,7.12287-1.78086,9.3652-1.78086,5.04547,0,4.41885,7.68356-3.19868,7.68356a9.55033,9.55033,0,0,1-6.19948-1.97863l-.033-1.91248a7.4341,7.4341,0,0,0,6.23244,3.62719c6.49636,0,7.58456-5.96863,3.52853-5.96863-2.47329,0-6.69425,1.78086-9.4642,1.78086-3.52853,0-3.06683-3.72653-.26381-5.14435-6.76017-2.968-5.24324-12.49807,4.61662-12.49807a11.98661,11.98661,0,0,1,3.59445.49466,8.28255,8.28255,0,0,1,4.84747-2.40737l.92339,1.58286a5.82811,5.82811,0,0,0-5.47409.92339c7.58457,2.57218,6.29848,12.79473-3.89122,12.79473A11.19475,11.19475,0,0,1,576.6068,651.92592Zm4.28689-12.366c-9.4642,0-9.4642,12.82769,0,12.82769S590.35789,639.55992,580.89369,639.55992Z"/><path class="cls-1" d="M605.524,643.71473l3.92419,12.43215h-1.5499l-1.484-4.61674c-.72551,2.60514-3.16572,4.78155-7.25472,4.78155-10.35463,0-10.35463-13.09139,0-13.09139a8.1197,8.1197,0,0,1,5.14424,1.61582l-.62651-1.94567a4.30323,4.30323,0,0,0-4.55069-3.29756,6.77524,6.77524,0,0,0-3.92419,1.87951v-1.68174a18.2365,18.2365,0,0,1,3.92419-.52762A6.53383,6.53383,0,0,1,605.524,643.71473Zm-6.3644-.19777c-8.14515,0-8.14515,12.49807,0,12.49807C607.6345,656.015,607.6345,643.517,599.15962,643.517Z"/><path class="cls-1" d="M594.31069,482.087h-7.96132v75.63252h7.96132Zm-68.33994,79.73086c56.14837-8.5162,52.34276-79.73086-11.43127-79.73086H485.87875V585.58282h7.96132v-22.4831a46.33332,46.33332,0,0,1,7.96133-.44478h12.73808c28.02332,0,53.8176,39.16924,88.05124,17.19625l-.95549-1.27359C581.0494,593.364,562.836,566.70923,525.97075,561.81789Zm-20.66613-.75512H501.8014c-2.72441,0-5.35087.10176-7.96133.32246V483.67932h5.36651a45.86152,45.86152,0,0,1,5.01175.19129c12.32494,1.79387,14.291,18.17727,26.74232,19.488,4.58736.65531,7.864-7.20874,13.76209-5.2427,3.932.65531,7.864,4.58739,8.735,8.92106a34.21979,34.21979,0,0,1,1.72716,4.898,39.95554,39.95554,0,0,1,1.0422,15.70328c-1.67431,11.10852-7.57234,20.93849-16.675,26.68452a39.26266,39.26266,0,0,1-5.211,2.81555,48.15008,48.15008,0,0,1-19.80158,3.92446h-9.23486ZM349.58817,585.31868c-.00085.09038-.00342.15863-.00427.26014-.00342,1.88388,1.85494,1.63742,1.76966,6.68544-.02132,1.27068,1.043,1.54365,1.06094.087.04265-3.51114,1.65025-5.1223,2.93637-5.1223a2.16535,2.16535,0,0,0,2.19608-1.6459h.00257V482.08727h-7.96135Zm105.72338-8.49334c-7.16455,5.09557-16.24069,8.12141-27.06784,8.12141-.55836,0-1.11067-.0103-1.65914-.026-.17374-.00508-.34495-.01307-.5174-.01985q-.56833-.0216-1.12957-.05335-.288-.01743-.57406-.03715-.54381-.03794-1.08027-.08639c-.17855-.0161-.35775-.03073-.53534-.04864-.424-.04223-.84479-.09062-1.26237-.14278-.09568-.01185-.19262-.0214-.288-.03387-1.10619-.15742-2.19093-.34435-3.24228-.58622-10.19786-4.53488.28754-16.98631-6.26583-24.19506-5.898-7.86392-16.3834-4.58726-24.90279-6.55331-1.966,0-2.62134-1.31061-3.34147-2.88282a40.01542,40.01542,0,0,1-1.48076-4.81958q-.27261-1.36373-.47581-2.75033c-.01249-.08482-.02529-.16963-.03745-.25469-.05279-.36928-.10112-.73952-.14719-1.11037-.0128-.10139-.02655-.20254-.03872-.30394q-.08017-.67442-.14559-1.351c-.01312-.1383-.02368-.27647-.03618-.41477-.02432-.27417-.04894-.54811-.06975-.82264-.0128-.16577-.02272-.33214-.03391-.49826-.017-.2496-.03391-.4991-.04767-.7487-.00993-.17508-.01727-.35-.02562-.52512-.01119-.24029-.02238-.48071-.031-.72126-.00639-.18173-.01086-.36382-.01567-.54593-.00641-.23424-.01216-.46849-.01567-.70274-.00291-.18524-.00418-.37084-.00545-.55609q-.0024-.347-.001-.69378c.001-.18657.00287-.37266.00545-.55924q.00481-.34809.01343-.696.00671-.2766.016-.55331c.00768-.23327.0176-.46655.02816-.69983q.012-.27551.02656-.55065c.01249-.235.02752-.46982.0429-.70468.01182-.18076.02335-.36128.03678-.54205.01794-.24006.03841-.47963.05889-.71932.015-.17435.0291-.34882.04574-.52281.02368-.25155.05058-.5025.07743-.75332.01761-.16225.03362-.32475.05218-.48664.03167-.27624.06752-.552.103-.8276.01761-.13624.03328-.2726.05185-.409q.167-1.232.385-2.45486c.02432-.13757.05151-.2743.0771-.4115.04994-.27007.09986-.54013.1536-.80921.032-.16165.06719-.32257.10079-.48386.05058-.24355.10112-.487.15457-.72959.03808-.17085.07807-.34084.11743-.51132.05375-.23292.1075-.466.16415-.69826.04223-.17435.08672-.34774.13089-.52185q.08544-.33849.17438-.67624.071-.26625.145-.53141.09165-.33176.18687-.66244.07632-.2639.15551-.52729.09887-.33069.20224-.66015.08159-.26153.16573-.52221.1061-.32778.21665-.6541c.05792-.17217.11615-.34423.176-.5158.07616-.21888.15457-.43679.23327-.65434.06114-.16866.1216-.33733.18431-.505.08258-.22143.168-.44151.25312-.6616.06274-.16165.12448-.32354.18882-.48422.09116-.22843.18527-.4553.27935-.68217.0627-.15076.12383-.30249.18781-.45252.10559-.24828.215-.49462.32447-.74108.056-.12669.11041-.25433.16767-.38041q.24338-.53758.49855-1.06851l.03488-.073q.25675-.53232.52572-1.05846c.0605-.1187.12383-.23557.18527-.35367.12577-.24187.25185-.4841.38177-.72379.07677-.14205.15648-.28288.23485-.42432.1184-.21368.23649-.42748.35775-.63934.08576-.14942.17375-.29728.26111-.446.11776-.201.23585-.40194.35679-.60122.09216-.15246.18657-.30345.28065-.45482q.17949-.28984.36286-.57751.14592-.2276.29471-.45276.18574-.28332.37535-.56384.15163-.22468.30654-.44671.192-.2775.38782-.55137.1584-.22124.31871-.4409.19923-.27225.40288-.54048.16271-.216.32765-.43074.20835-.26934.42176-.53528c.11041-.13866.22049-.27744.33246-.4144.14719-.18053.297-.35839.44671-.53637.111-.1314.22079-.264.3331-.3942.15841-.18367.31967-.36407.48062-.5452.10784-.12124.2144-.24356.32384-.36347.18047-.19879.36477-.39395.5491-.58912.09344-.09885.18528-.19976.27965-.298q.84144-.875,1.73276-1.70482c.09885-.0922.2003-.18149.30013-.27272.20031-.18294.40065-.366.60479-.5452.121-.10648.24477-.21029.36734-.31556.18624-.16019.37249-.32063.5619-.47769.13376-.11107.27007-.21948.40512-.329.18237-.14773.3651-.29534.55038-.4403.1411-.11035.28415-.21888.42686-.32765.184-.14012.368-.27962.55452-.41695.14689-.10817.29535-.21465.44384-.32124.18688-.1337.37438-.26692.5638-.39771.15137-.105.30367-.20836.45663-.31144q.28654-.19293.57664-.38138.23277-.15119.46783-.29983c.19613-.1239.3939-.24537.59294-.36637.15775-.09606.31582-.192.47518-.286.20318-.11979.40862-.23715.61438-.354.159-.0905.31772-.181.47868-.2697.21182-.11652.42624-.23.64094-.34362.1584-.08385.31616-.16867.47614-.25058.22622-.11591.45566-.22819.6851-.34048.152-.07453.30269-.15076.4563-.2236.25633-.12173.51648-.23909.77661-.35621.12992-.05892.25823-.11967.38945-.17725q1.17833-.51744,2.40725-.9722c.13633-.05021.2752-.09728.4128-.14616.27454-.09862.54974-.19723.82811-.29088.1661-.056.335-.10816.5024-.16225.2544-.08227.50879-.16479.76636-.24284.17889-.05445.36032-.10526.54079-.15777.24961-.07236.4995-.14471.752-.2132.18911-.05142.38047-.10006.57118-.14931.248-.06412.496-.127.74654-.1873.19646-.0473.3942-.0922.59229-.13721q.37483-.08493.75355-.16515c.201-.04223.40289-.08252.6051-.12256q.38208-.07477.76734-.14423.30672-.05481.615-.107c.26014-.04319.52191-.08385.78462-.12353.207-.031.414-.06207.6227-.09051.26685-.03678.536-.07005.8054-.10272.208-.02529.41565-.05118.62558-.07429.27743-.03.55776-.05626.83836-.08216.20478-.01888.40862-.03932.615-.056.29632-.024.5955-.04319.895-.06243.19457-.01246.38785-.02722.584-.03775.33473-.01791.67357-.02976,1.01244-.04186.16382-.00581.32575-.0144.49054-.01888q.75835-.02033,1.52922-.02081c15.60393,0,28.50138,10.987,34.86978,18.471V491.1632c-8.91616-6.21029-20.53941-10.191-34.86978-10.191-.67612,0-1.34428.01089-2.00824.02819-.20672.00508-.4112.01343-.61662.02045q-.69888.02358-1.38908.0588-.33264.01742-.66269.03715-.70843.0432-1.40635.10055c-.17952.0144-.36032.02686-.53884.04283q-.95087.08349-1.88443.19044c-.09889.0115-.1955.02553-.29408.03739q-.78617.0942-1.55992.20485c-.2.02879-.39807.05977-.59677.09026q-.63215.09692-1.256.20412c-.20226.03484-.40416.0697-.6048.10623q-.68685.12577-1.36155.26486c-.13693.02819-.27517.05384-.4115.08263q-.87167.18529-1.72538.3919c-.1347.033-.26719.06848-.40125.10212q-.65374.1628-1.29725.33794c-.18815.05154-.375.10466-.5619.15777q-.57741.16407-1.14618.33855c-.17762.05432-.35584.10816-.53246.16418q-.68255.216-1.35163.44732c-.08544.02941-.1728.057-.25793.08675q-.79149.277-1.5641.575c-.14559.05566-.28894.11422-.43359.17121q-.56013.22032-1.11131.45082-.25872.108-.51456.21888-.52986.2285-1.04986.4668c-.15166.06945-.30464.13769-.455.20811q-1.463.68532-2.853,1.44371c-.14271.0778-.28349.15778-.42526.23679q-.48719.27169-.96573.55173-.23136.13523-.46014.2726-.48766.29276-.96508.59518c-.12287.07779-.24768.1539-.36991.23267q-.65039.41851-1.28379.85277c-.06688.046-.13182.09365-.1987.14011q-.53181.37008-1.05117.75066c-.13376.09825-.26558.19782-.39807.29692q-.42478.31834-.84061.64417-.20064.157-.39968.3152-.45214.36189-.89306.73311c-.09183.07719-.18561.15293-.27681.23037q-.5702.48585-1.12185.98562c-.08769.07961-.17345.16128-.26047.24126q-.42192.38786-.8336.783c-.12.11556-.23838.23171-.35678.34822q-.3691.3628-.72893.73178c-.112.11482-.22463.229-.335.34459q-.431.45065-.84893.91013c-.05182.057-.10526.11289-.15678.17023q-.491.54467-.96284,1.10263c-.0896.10563-.177.21283-.26528.31907q-.3408.40836-.67231.82227c-.10366.13031-.20638.26051-.30877.39178q-.3168.40455-.62366.81526c-.08991.12-.18111.23933-.26973.36032q-.86109,1.17117-1.64892,2.38517c-.08031.12354-.15838.2484-.23742.37254q-.276.43286-.54272.86995-.12718.20891-.25212.41865-.26929.45155-.52769.90806c-.06685.11773-.13533.23486-.20124.35331q-.34946.62633-.68159,1.26173c-.03585.06909-.07009.13914-.1056.20859q-.277.537-.54109,1.08c-.06819.13974-.13439.28058-.20127.42142q-.21458.45209-.42079.90746c-.06591.14652-.13216.29244-.1968.43933q-.22269.50546-.43359,1.01466c-.04319.10405-.08833.207-.13055.31108q-.27024.66244-.52221,1.33082c-.03969.10563-.07713.21186-.11616.31737q-.19056.51615-.37118,1.03523c-.05281.15233-.104.30527-.1552.45784q-.15891.47188-.30815.94654c-.04673.14786-.09377.29535-.1392.44393q-.17664.57732-.34014,1.15889c-.02048.072-.04256.144-.06241.21633q-.191.68821-.36223,1.3814c-.032.129-.06173.2582-.0928.38719q-.12237.50781-.23548,1.01756-.05237.23721-.10242.47454-.10462.49383-.19934.98937c-.02782.14495-.05695.28966-.08351.43461q-.25822,1.40384-.44351,2.81966c-.0192.14629-.03615.29256-.05408.43873q-.06144.50055-.11422,1.00256-.02495.24138-.04833.48313-.04941.51852-.089,1.03838c-.00993.13321-.02176.26594-.031.399q-.04894.71127-.08128,1.423c-.00317.07586-.00447.15172-.00734.22747q-.024.60181-.03488,1.2045c-.00257.15426-.0035.30842-.00511.46306q-.00482.49856-.00063.99771c.00127.15923.00253.31833.00511.47769q.00957.54918.03007,1.09814c.00417.113.00641.22566.01118.33831q.03072.7118.079,1.42229c.00768.112.01793.224.02626.33576q.04079.54846.09213,1.096c.01507.159.03138.31774.04771.47636q.05136.49494.11134.98913c.01858.15426.03682.30854.05663.46244q.07778.59658.16833,1.19132c.01153.07551.02112.151.033.22614q.11038.70417.23935,1.4045c.02432.13212.05088.26364.07616.39577q.09743.51108.20382,1.02107.05.23721.10242.47357.10845.4944.22687.9872c.0339.142.06688.2841.10206.4259q.34414,1.3877.76127,2.75674c.04256.14011.08766.27962.13152.41949q.15119.48186.31135.96118.07773.2323.15741.46377.16947.49185.34977.98066c.0464.12608.0912.25252.13824.37823q.2515.66953.52061,1.33276l.0128.03291c.02048.0496.04256.09824.063.14785,4.17265,10.44378,16.62405,6.51181,25.79875,8.47785,1.31067.65531,3.27668,1.31062,3.932,2.62135,2.62135,6.55332-.65534,17.694,9.45524,19.67069a40.79863,40.79863,0,0,0,5.50837.88024c.08031.009.15871.01984.23936.02844.06912.00678.14014.01125.20959.01767.327.03072.65724.05722.98749.08348.24254.01949.48413.04066.7286.05783.34816.02445.70014.04356,1.05181.06317.23134.0127.46111.02806.69406.03871.39132.01816.78686.03,1.18235.04223.19774.00605.39327.015.592.01972q.8947.02033,1.80345.02117c14.48907,0,26.113-3.9806,35.02916-10.191V510.589H455.3116v66.23633Zm182.93867-57.95763L689.36136,482.087H678.5342a288.6151,288.6151,0,0,1-38.373,33.59622L624.87535,526.6704V482.087H616.914v103.4958h7.96132V528.58139l6.84712-4.93682,56.36531,61.93825h10.82711Z"/><path class="cls-2" d="M734.98739,430.29519a234.48726,234.48726,0,0,0-55.086-69.4807c-47.29152-40.6683-99.62969-57.99571-150.61979-58.77194-44.732.21817-83.25536,9.44453-120.00806,30.17426a240.31165,240.31165,0,0,0-90.20928,87.946c-41.85217,69.99053-43.75141,157.5565-4.93527,230.77942a230.34267,230.34267,0,0,0,46.90915,61.53122c42.84083,39.75772,90.71108,60.00862,142.6864,64.53051,46.16622,4.0178,90.80523-4.5437,133.60931-27.94431,38.745-21.18215,72.23656-52.00058,96.90141-97.77983A235.008,235.008,0,0,0,734.98739,430.29519ZM754.7296,589.28588c-9.45486,28.85374-19.65839,63.91848-52.31176,73.65811-16.32611,5.8447-36.73432-3.89493-53.06043,7.79216-42.858,29.22119-63.26512,83.76634-118.44641,93.599a111.12531,111.12531,0,0,1-21.23152.14583,249.09883,249.09883,0,0,1-44.46793-7.52232c-34.38381-8.97144-67.68825-25.93139-98.6261-52.97776A229.47325,229.47325,0,0,1,309.637,628.91844c-19.20483-40.56151-23.26511-77.06159-19.717-111.396a205.47008,205.47008,0,0,1,37.30846-99.338c9.40319-13.30846,20.54486-25.19421,30.89881-37.72528,31.5051-28.21645,68.2222-50.0646,114.67779-60.159,34.61461-7.52233,72.11713-8.61663,115.20368,3.7824,45.21775,13.0122,86.20182,37.8424,120.81759,79.11469,22.43835,26.75356,36.12918,54.43836,43.92135,82.51358,8.90369,32.08268,9.64317,60.98465,5.22578,87.75887Q756.64894,581.50119,754.7296,589.28588Z"/></svg>