<svg xmlns="http://www.w3.org/2000/svg" width="600" height="300.681" viewBox="0 0 600 300.681">
  <g id="Сгруппировать_4" data-name="Сгруппировать 4" transform="translate(-7056.383 -361.021)">
    <path id="Контур_5" data-name="Контур 5" d="M7136.18,438.014a465.642,465.642,0,0,0,26.421,77.042c7.3,16.42,16.571,33.547,33.867,44.161,15.508,9.517,36.343,13.066,53.427,4.28,27.84-14.319,20.056-39.947,21.535-62.806.429-6.635.952-13.3,1.842-19.907,1.043-7.749,3.407-14.793,10.794-20.015,8.475-5.991,19.646-6.286,30.172-5.731,14.677.774,28.2,2.934,42.074-2.611,26.986-10.791,34.976-37.14,37.366-60.162a154.937,154.937,0,0,0,1.03-20.246,77.834,77.834,0,0,0-.917-10.156c-.046-.284-.089-.565-.131-.842h-19.447a68.292,68.292,0,0,1,3.465,5.954,60.6,60.6,0,0,1,6.664,25.416c.845,21.157-9.265,42.861-33.48,51.319-26.068,9.1-52.933,1.005-77.922-6.193-8.973-2.585-25.271-5.386-30.277,3.85-1.7,3.136-1.2,6.776-.5,10.173,2.218,10.734,6.111,21.19,9.775,31.62,3.653,10.4,9.166,20.972,10.59,31.8a28.851,28.851,0,0,1-5.514,21.578c-5.314,6.862-14,11.535-23.65,12.589-35.632,3.889-52.881-39.182-61.695-60.971-8.9-22-14.373-44.846-18.79-67.749a322.551,322.551,0,0,1-4.815-31.984q-.814-8.976-1.158-17.977c-.035-.959.242-5.353.344-9.42h-23.363A462.463,462.463,0,0,0,7136.18,438.014Z" fill="#fafafa"/>
    <path id="Контур_6" data-name="Контур 6" d="M7200.164,500.816c5,10.646,12.6,24.889,27.5,27.394a17.8,17.8,0,0,0,14.235-3.435c8.092-6.631,7.841-17.5,5.587-25.868a94.3,94.3,0,0,0-6.578-16.287q-4.1-8.477-8.225-16.939c-5.245-10.812-10.716-22.447-8.014-34.345a24.9,24.9,0,0,1,17.2-18.278c13.9-3.968,30.705,3.139,42.639,8.722,8.633,4.04,16.464,9.33,26.279,11.147,26.713,4.948,55.58-2.8,58.8-28.13,1.4-10.987-.811-22.946-3.894-31.209a72.044,72.044,0,0,0-6.135-12.567h-14.55q2.531,2.633,4.831,5.4c6.424,7.74,11.061,18.141,10.9,27.939-.145,8.823-4.182,17.158-14.308,22.623-20.88,11.268-46.758-8.075-61.154-19.45s-36.87-33.512-59.467-22.311c-32.163,15.944-16.178,64.178-4.476,86.474,4.42,8.421,23.011,32.868,11.777,41.853-1.889,1.507-4.757,1.642-7.18,1.188-11.818-2.213-15.658-16.558-19.4-24.583-17.46-37.45-24.569-79.9-12.111-119.135h-28.892c3.409,32.938,8.656,66.191,18.672,98.17A330.856,330.856,0,0,0,7200.164,500.816Z" transform="translate(-1.322)" fill="#fafafa"/>
    <path id="Контур_7" data-name="Контур 7" d="M7112.58,361.021h-7.4c-.819,1.866-1.564,3.758-2.22,5.67-5.431,15.866-5.006,32.755-1.939,48.937,3.2,16.86,9.3,33.19,14.8,49.586,2.8,8.345,5.56,16.747,7.523,25.267,1.673,7.265,2.086,16.05-2.073,22.7a18.93,18.93,0,0,1-8.111,7.074,33.709,33.709,0,0,1-11.029,2.761c-19.25,2-32.054,4.107-44.656,17.462q-.557.59-1.1,1.19v22.715c7.936-7.473,18.861-12.847,30.231-15.661,11.577-2.867,23.751-3.495,35.753-3.011,6.721.271,13.617,1.815,20.347,1.038,9.174-1.061,14.25-6.21,14.365-13.854.206-13.785-13.026-33.372-17.352-41.667-4.862-9.323-9.782-18.634-13.6-28.306a223.18,223.18,0,0,1-9.4-30.873c-2.435-10.334-4.429-20.743-6.364-31.15-1.842-9.9-3.434-20.226-.89-30.148C7110.361,367.3,7111.868,364.419,7112.58,361.021Z" fill="#fafafa"/>
    <path id="Контур_8" data-name="Контур 8" d="M7088.165,485.881c5.654-8.116,7.34-17.73,7.331-27.012-.009-8.739-1.521-17.609-3.09-25.63-4.155-21.243-10.706-43.105-3.7-64.462a18.825,18.825,0,0,1,4.339-7.756H7077.9c-.987,2.343-1.947,4.692-2.858,7.055-8.1,21.012-10.338,41.948-3.6,63.693,3.09,9.97,5.263,21.136,2.552,31.342-2.383,8.975-9.451,14.636-17.608,16.47v34.7a42.7,42.7,0,0,1,7.812-8.759C7072.227,498.8,7082.278,494.332,7088.165,485.881Z" fill="#fafafa"/>
    <path id="Контур_9" data-name="Контур 9" d="M7453.858,654.29a157.769,157.769,0,0,0-11.32-19.673c-8.323-12.035-19.591-22.741-34.844-28.6-13.657-5.245-29.859-6.207-43.362-.053-12.819,5.842-22.8,16.877-37.491,19.595-17.221,3.185-33.372-8.646-49.325-12.053-16.514-3.527-33.663-1.943-50.483-1.183-16.989.766-34.9.921-50.409-5.832-15.576-6.776-26.3-18.864-38.735-28.876-12.55-10.1-28.649-19.181-46.795-16.835-13.747,1.778-25.61,8.721-34.711,17.213v32.453c17.146-15.881,39.979-30.975,66.729-21.754,30.258,10.428,41.389,42.3,78.828,41.41,16.205-.388,31.762-5.212,47.975-5.538a60.138,60.138,0,0,1,21.675,3.327c6.879,2.478,13.126,5.986,19.755,8.876,6.981,3.044,14.531,5.272,22.491,4.314,8.526-1.026,16.069-4.946,23.127-8.879,12.849-7.158,25.886-15.751,41.341-18.328,15.152-2.527,29.386,2.6,39.835,11.838a71.361,71.361,0,0,1,13.763,17.206c3.289,5.51,6.775,11.4,8.966,17.293q.285.768.494,1.49h16.466C7456.514,659.063,7454.967,656.521,7453.858,654.29Z" fill="#fafafa"/>
    <path id="Контур_10" data-name="Контур 10" d="M7272.85,643.521a89.891,89.891,0,0,0-34.177-3.5,116.7,116.7,0,0,0-17.3,2.758c-5.935,1.386-11.78,3.058-17.805,4.167-25.7,4.73-36.009-10.846-49.808-25.6-5.814-6.207-12.732-12.035-21.551-15.076-15.338-5.29-36.3-.282-50.663,5.213a95.493,95.493,0,0,0-25.166,15.005V661.7h16.73a32.367,32.367,0,0,0,3.429-8.164c2.834-9.988,5.852-20.917,15.614-28.126,11.137-8.224,28.407-6.632,38.948,1.733,8.288,6.577,12.5,15.915,20.367,22.923A82.975,82.975,0,0,0,7168.44,661.7h132.8a49.685,49.685,0,0,0-4.3-4.53A63.907,63.907,0,0,0,7272.85,643.521Z" fill="#fafafa"/>
    <path id="Контур_11" data-name="Контур 11" d="M7661.234,555.875v37.036c-3.092-2.183-5.759-4.262-7.363-5.163-8.981-5.045-22.147-8.652-31.542-2.734-18.741,11.8-34.893,26.8-52.849,39.495-7.858,5.555-15.717,11.453-24.695,15.712-14.631,6.939-32.312,8.652-48.7,6.193-18.731-2.812-27.584-10.552-40.17-21.72-12.557-11.142-22.833-26.564-39.548-33.434-15.446-6.348-34.691-7.044-50.367-.862-7.819,3.083-13.742,7.73-19.611,12.953-5.127,4.562-10.975,9.689-18.772,10.5a18.573,18.573,0,0,1-11.694-2.6c-3.427-2.155-5.533-5.354-8.4-7.961-6.734-6.128-17.121-5.894-26.151-4.564-10.43,1.537-20.656,3.971-31.075,5.591-19.116,2.971-39.363,4.154-57.795-2a64.968,64.968,0,0,1-31.05-21.678c-3.85-5.036-4.193-11.367,2.909-14.46,7.655-3.329,17.883,2.339,24.042,5.8,8.6,4.832,17.125,9.062,27.077,11.8a82.607,82.607,0,0,0,39.769.863c13.087-2.834,25.3-7.882,37.419-12.809,21.976-8.938,47.9-18.749,72.608-11.992,5.615,1.537,10.633,4.048,15.682,6.575,5.318,2.666,10.964,5.483,17.258,5.98,6.754.533,12.912-2.005,19.205-3.621a64.849,64.849,0,0,1,16.119-2.066c10.341.01,20.821,2.906,27.579,9.784,3.949,4.018,6.45,8.82,9.057,13.506,7.124,12.809,18.821,25.981,35.278,31.265,11.9,3.821,24.882,2.764,36.487-1.3,24.922-8.718,39.632-28.616,56.04-45.505,7.37-7.586,15.755-15.028,26.45-19.227a48.847,48.847,0,0,1,32.192-1.093A45.963,45.963,0,0,1,7661.234,555.875Z" transform="translate(-4.851)" fill="#fafafa"/>
    <path id="Контур_12" data-name="Контур 12" d="M7661.234,640.558a14.406,14.406,0,0,1-9.849,1.737c-5.656-.849-10.171-3.8-15.989-4.257a45.573,45.573,0,0,0-9.634.385c-6.684.9-13.161,2.662-19.865,3.469-3.136.375-10.244.6-8.552-3.981,1.018-2.75,7.519-3.532,10.207-4.688a41.723,41.723,0,0,0,7.1-3.89c5.145-3.533,8.246-7.993,11.536-12.76,8.774-12.715,26.123-6.742,35.045,2.952V599.288a11.979,11.979,0,0,0-1.743-.683,1.083,1.083,0,0,0-.387-.2,80.94,80.94,0,0,0-15.978-2.7c-8.094-.55-15.842.429-21.608,5.665-3.848,3.494-6.151,7.874-8.952,11.959a44.04,44.04,0,0,1-8.147,8.813,123.7,123.7,0,0,1-10.235,7.467c-5.454,3.678-12.7,7.59-16.377,12.674-3.743,5.175-2.69,10.624,3.812,13.114a30.592,30.592,0,0,0,14.274,1.485c16.919-1.878,30.379-12.286,47.781-6.473,6.287,2.1,12.459,3.263,17.56,2.247Z" transform="translate(-4.851)" fill="#fafafa"/>
    <path id="Контур_13" data-name="Контур 13" d="M7415.978,392.719A88.938,88.938,0,0,1,7404.046,435c-6.7,11.558-16.658,22.448-30.362,28.553a60.419,60.419,0,0,1-25.038,4.874,91.961,91.961,0,0,1-14.211-1.281c-9.536-1.575-19.824-5.341-29.6-3.033-10.256,2.421-13.435,10.958-14.693,18.962-2.31,14.678,2.036,29.764-2.1,44.28-1.787,6.278-7.021,11.736-8.115,18.088-1.462,8.484,6.929,12.837,16.061,11.452a83.813,83.813,0,0,0,12.5-3.35c11.568-3.654,21.287-9.05,25.855-18.96,1.541-3.343,2.61-6.818,3.894-10.231a75.624,75.624,0,0,1,3.875-8.7c6.245-11.833,16.932-22.121,33.326-22.718,20.545-.747,40.9,4.663,61.475,4.713,18.187.044,44.195-1.326,57.4-13.508,11.219-10.347,10.435-26.179,10.651-39.25.263-15.813,14.5-26.68,29.185-34.585,18.983-10.22,40.985-18.935,63.9-19.307,21.264-.345,43.125,3.821,63.174,10.908V391.69c-1.9-.615-3.752-1.264-5.52-1.834-35.126-11.328-75.136-13.888-110.328-1.362-15.518,5.522-29.729,13.8-40.791,24.553a50.288,50.288,0,0,0-12.951,21.087c-2.38,7.461-2.158,15.768-5.4,22.958-5.619,12.453-19.073,21-34.618,22.708-19.232,2.113-38.714-1.8-58.111-.093-16.321,1.441-33.247,5.816-47,13.915-6.591,3.881-13.508,9.52-17.923,15.226-4.436,5.733-4.729,13.444-10.767,18.359-7.868,6.4-7.625-10.868-7.7-12.965-.394-10.758-5.08-32.309,10.207-37.618,7.227-2.515,15.448-1.037,22.94-.425,18.039,1.478,37.232-.112,52.473-9.067,13.8-8.1,22.8-20.786,29.226-33.624,11.093-22.138,17.907-49.258,8.147-72.487H7411A88.851,88.851,0,0,1,7415.978,392.719Z" transform="translate(-4.851)" fill="#fafafa"/>
    <path id="Контур_14" data-name="Контур 14" d="M7453.823,382.84c-.236,11.715-1.113,23.938-4.155,35.39a57.559,57.559,0,0,1-9.9,20.712c-5.247,6.754-14.33,16.5-6.147,24.44,6.837,6.633,19.22,4.7,27.152.681,10.206-5.166,12.956-14.467,12.865-24.02-.16-16.7.209-29.776,15.93-41.774,43.773-33.4,118.776-34.321,171.668-20v-17.25h-128.9c-3.643,1.557-7.292,3.1-10.855,4.813-8.12,3.894-15,9.337-22.146,14.34-6.045,4.23-13.026,11.011-21.444,11.967-12.01,1.364-10.527-9.155-9.885-16.116a72.506,72.506,0,0,0,.059-15h-17.274A67.818,67.818,0,0,1,7453.823,382.84Z" transform="translate(-4.851)" fill="#fafafa"/>
    <path id="Контур_15" data-name="Контур 15" d="M7560.721,413.062c-15.175,4.571-29.237,12.641-38.525,23.873a45.87,45.87,0,0,0-9.442,18.68c-1.744,7.385-1.9,14.941-3.032,22.4-1.582,10.392-5.688,19.518-16.373,25.384-14.9,8.182-31.157,7.578-48.111,6.414-25.033-1.717-62.938-8.215-82.954,6.928-5.489,4.151-9.336,10.04-9.571,16.256-1.013,26.69,67.127,16.83,83.6,18.135,12.713,1.007,25.193,4.181,33.263,13.078,12.663,13.964,12.776,32.445,29.954,44.291,16.982,11.716,41.1,4.719,55.822-6.05,14.629-10.7,25.087-25.449,32.857-40.245,6.079-11.578,15.733-19.166,29.05-24.86a98.317,98.317,0,0,1,33.361-7.53,66.506,66.506,0,0,1,10.613.56v-6.326l-1.033-.263c-15.326-3.866-32.4-3.537-47.064,2.064-29.037,11.089-31.4,36.086-49.537,55.164-8.045,8.461-19.529,15.043-32.666,15.714-20.985,1.073-24.64-12.658-29.2-26.652-2.188-6.714-4.928-13.876-12.04-17.988-9.5-5.495-22.549-6.1-33.564-7.71a247.642,247.642,0,0,0-45.262-2.4c-14.428.556-27.727,1.7-41.586-2.841-8.96-2.935-9.809-10.182-1.278-14.333,27.011-13.143,59.891-13.1,89.78-9.275,16.072,2.054,32.106,4.3,48.2,6.2,11.975,1.415,30.127,5.052,36.62-6.677,5.568-10.058-.816-21-6.236-29.942-3.18-5.246-6.375-10.637-7.519-16.508a28.125,28.125,0,0,1,1.183-14.717c3.492-9.982,11.815-18.631,22.089-24.268,11.663-6.395,25.671-9.1,39.39-9.926a191.314,191.314,0,0,1,42,2.106,112.576,112.576,0,0,1,27.726,7.986v-14.1c-11.737-3.43-24.752-5.065-36.112-6.2C7604.529,407.426,7580.473,407.116,7560.721,413.062Z" transform="translate(-4.851)" fill="#fafafa"/>
    <path id="Контур_16" data-name="Контур 16" d="M7566.652,443.633c-13.3,10.752-11.276,25-8.573,38.916,1.584,8.139,2.759,16.416,1.073,24.62a32.391,32.391,0,0,1-11.093,18.775,30.363,30.363,0,0,1-9.646,5.384c-15.072,5.018-32.55-1.2-47.738-2.9-19.177-2.146-38.506-2.729-57.7-4.7-10.615-1.09-21.668-3.231-32.188-.458-11.847,3.122.6,8.318,7.19,9.943,12.952,3.192,27.128,2.058,40.12,3.33,14.882,1.457,30.2,2.158,44.337,6.681,13.19,4.221,23.361,15.678,26.557,27.1,2.8,9.991,11.349,16.548,22.928,8.987,11.313-7.388,17.756-21.792,24.108-32.249,6.98-11.493,14.225-23.064,25.018-32.389,7.694-6.648,18.682-9.445,29.389-10.442a63.378,63.378,0,0,1,36.372,7.759,51,51,0,0,1,4.43,2.821v-6.9c-7.236-1.509-12.8-6.882-19.238-9.694-15.05-6.568-29.9-7.755-46.539-6.848-21.935,1.2-23.182-20.351-10.072-30.879,9.511-7.636,24.007-5.315,34.411-.506a126.009,126.009,0,0,1,11.1,6.013q14.631,8.627,29.157,17.381.6.359,1.184.693V466.957c-5.335-3.958-10.744-7.656-15.451-11.187C7626,440.933,7590.119,424.657,7566.652,443.633Z" transform="translate(-4.851)" fill="#fafafa"/>
    <path id="Контур_17" data-name="Контур 17" d="M7416.744,661.7H7340.5a4.1,4.1,0,0,1,.036-.881,5.955,5.955,0,0,1,2.337-3.636c4.083-3.243,10.668-3.179,15.247-5.979a25.941,25.941,0,0,0,9.355-10.459c2.984-5.789,4.785-12.432,13.168-14.05,11.156-2.155,18.8,6.876,22.48,14.382,3.168,6.458,4.515,13.3,11.043,18.139a8.261,8.261,0,0,1,2.5,2.324C7416.691,661.6,7416.718,661.65,7416.744,661.7Z" transform="translate(-2.607)" fill="#fafafa"/>
    <path id="Контур_18" data-name="Контур 18" d="M7328.7,392.261c-21.935,2.807-41.392-15.21-54.076-31.24h50.826C7339.281,374.167,7350.049,389.529,7328.7,392.261Z" transform="translate(-1.965)" fill="#fafafa"/>
  </g>
</svg>
