<svg xmlns="http://www.w3.org/2000/svg" width="503.744" height="162.029" viewBox="0 0 503.744 162.029">
  <g id="Сгруппировать_3" data-name="Сгруппировать 3" transform="translate(-7115.402 -433.479)">
    <g id="Сгруппировать_2" data-name="Сгруппировать 2" transform="translate(7115.402 433.479)">
      <path id="Контур_1" data-name="Контур 1" d="M7126.889,435.05h-11.479V583.912c0,.131,0,.229-.006.375,0,2.717,2.675,2.361,2.552,9.641-.03,1.832,1.5,2.226,1.53.125.062-5.062,2.38-7.386,4.234-7.386s3.165-1.473,3.167-2.373h0Z" transform="translate(-7115.402 -433.442)" fill="#2f2f35"/>
      <path id="Контур_2" data-name="Контур 2" d="M7267.127,476.187V571.7c-10.332,7.349-23.419,11.711-39.032,11.711-.805,0-1.6-.014-2.392-.037-.251-.007-.5-.019-.746-.029q-.82-.031-1.629-.077c-.276-.017-.553-.035-.828-.054q-.784-.054-1.558-.125c-.258-.023-.516-.044-.771-.07q-.918-.092-1.82-.206c-.138-.017-.278-.031-.416-.049-1.6-.227-3.159-.5-4.675-.845-14.706-6.539.414-24.495-9.035-34.89-8.505-11.341-23.626-6.615-35.911-9.451-2.834,0-3.78-1.89-4.818-4.157a57.821,57.821,0,0,1-2.136-6.95q-.393-1.966-.686-3.966c-.019-.122-.037-.245-.054-.367-.077-.532-.146-1.066-.213-1.6-.019-.146-.038-.292-.055-.438q-.115-.972-.21-1.948c-.02-.2-.035-.4-.052-.6-.036-.4-.07-.79-.1-1.186-.019-.24-.033-.479-.048-.718-.024-.36-.049-.72-.069-1.081-.015-.252-.025-.5-.037-.756-.015-.347-.032-.694-.044-1.041-.009-.262-.016-.524-.022-.787-.009-.338-.019-.675-.023-1.013,0-.267-.005-.535-.007-.8,0-.334,0-.666,0-1,0-.269.005-.538.008-.807,0-.335.011-.668.02-1,.006-.266.014-.532.023-.8.01-.337.024-.672.04-1.009.012-.265.024-.529.039-.794.018-.339.039-.677.062-1.016.018-.261.034-.521.053-.782.025-.346.055-.692.085-1.038.021-.251.042-.5.065-.753.035-.363.074-.725.112-1.087.025-.233.048-.468.075-.7.046-.4.1-.8.148-1.193.025-.2.048-.393.074-.589q.242-1.776.556-3.54c.035-.2.074-.4.111-.594.073-.39.144-.779.222-1.167.046-.233.1-.466.146-.7.072-.351.145-.7.223-1.052.055-.247.112-.492.169-.738.078-.336.155-.671.236-1.007.062-.251.126-.5.189-.752q.123-.488.252-.975c.067-.256.138-.512.208-.767.088-.318.178-.638.27-.955q.111-.381.224-.76.143-.477.292-.953c.079-.251.159-.5.24-.752q.153-.473.312-.944c.084-.249.168-.5.254-.744.109-.315.223-.629.336-.944.088-.244.175-.486.266-.729.119-.319.242-.637.364-.954.091-.233.18-.467.272-.7.132-.33.267-.657.4-.984.09-.217.178-.436.271-.652.151-.358.31-.713.468-1.069.081-.182.158-.366.241-.548q.352-.775.72-1.54c.016-.036.032-.071.05-.105q.371-.767.758-1.527c.087-.171.178-.34.267-.51.181-.349.363-.7.551-1.044.11-.2.225-.407.338-.612.17-.308.341-.616.516-.922.124-.215.25-.429.376-.643.17-.29.34-.58.514-.868.133-.219.27-.437.405-.655.173-.279.346-.557.522-.833.141-.219.283-.436.425-.653.18-.272.359-.543.542-.814.146-.216.293-.43.442-.644q.278-.4.56-.8c.153-.213.305-.425.459-.635.191-.262.386-.521.582-.78.156-.208.313-.415.472-.621.2-.259.4-.516.608-.772.159-.2.317-.4.479-.6.213-.261.429-.517.645-.774.159-.189.318-.381.48-.568.228-.265.46-.526.693-.787.155-.175.309-.351.468-.524.26-.287.526-.568.791-.849.135-.142.267-.289.4-.43q1.214-1.262,2.5-2.458c.143-.133.289-.262.433-.394.289-.263.579-.527.872-.786.175-.154.353-.3.53-.454.268-.231.537-.463.811-.69.192-.16.389-.316.584-.474.263-.214.525-.426.793-.635.2-.159.41-.315.616-.472.265-.2.53-.4.8-.6.212-.156.426-.309.64-.464.271-.192.541-.385.813-.573q.327-.227.658-.449.415-.278.832-.55c.225-.145.448-.291.675-.433q.425-.267.855-.528c.228-.138.455-.277.685-.412.294-.173.589-.342.886-.511.229-.131.458-.261.691-.389.3-.168.614-.332.924-.5.228-.121.456-.244.687-.361.326-.168.656-.33.987-.491.219-.107.437-.218.658-.322.369-.176.745-.345,1.119-.514.188-.085.373-.173.562-.256q1.7-.746,3.471-1.4c.2-.073.4-.14.6-.211.4-.142.793-.284,1.194-.42.24-.081.483-.156.725-.233.367-.119.734-.238,1.1-.351.258-.078.521-.151.78-.227.36-.1.72-.209,1.084-.307.272-.075.549-.144.823-.216.358-.092.715-.183,1.077-.27.283-.068.569-.132.854-.2q.541-.123,1.087-.238c.29-.06.581-.119.873-.176.368-.073.736-.141,1.106-.209.295-.052.59-.1.887-.154.375-.062.752-.122,1.13-.178.3-.045.6-.09.9-.131.385-.053.772-.1,1.162-.148.3-.036.6-.074.9-.106.4-.044.8-.082,1.208-.119.3-.028.59-.057.888-.081.428-.035.858-.062,1.29-.09.28-.018.56-.039.842-.054.483-.027.971-.043,1.46-.06.236-.009.47-.021.707-.028q1.1-.029,2.206-.03c22.5,0,41.1,15.843,50.283,26.635V448.174c-12.857-8.955-29.619-14.7-50.283-14.7-.975,0-1.938.015-2.9.041-.3.007-.593.019-.889.03q-1.007.034-2,.084c-.32.017-.639.035-.956.054-.681.041-1.356.091-2.028.144-.259.021-.52.039-.777.062q-1.37.12-2.718.274c-.142.016-.282.037-.423.054q-1.134.135-2.25.295c-.289.042-.574.087-.86.131q-.913.14-1.812.294-.438.075-.872.154-.99.181-1.964.382c-.2.041-.4.078-.593.12q-1.255.267-2.488.565c-.195.047-.385.1-.578.147q-.943.235-1.871.487-.406.112-.811.227-.832.238-1.652.488c-.256.079-.514.157-.768.237q-.985.312-1.95.645c-.124.043-.249.082-.372.125q-1.141.4-2.255.83c-.21.08-.417.165-.625.247q-.808.318-1.6.65-.374.157-.742.316-.763.329-1.514.672c-.219.1-.439.2-.656.3q-2.111.988-4.115,2.082c-.206.113-.408.227-.613.342-.468.261-.934.526-1.393.8q-.334.195-.663.393-.7.422-1.392.859c-.178.112-.357.222-.533.336q-.938.6-1.852,1.229c-.1.066-.19.135-.287.2q-.768.533-1.517,1.083c-.192.141-.383.285-.573.428q-.612.459-1.212.929-.289.226-.576.454-.652.522-1.288,1.057c-.132.112-.268.221-.4.333q-.822.7-1.618,1.42c-.125.116-.249.233-.375.348q-.608.56-1.2,1.13c-.173.167-.344.334-.515.5q-.532.523-1.051,1.056c-.162.165-.324.33-.483.5q-.621.651-1.225,1.313c-.075.082-.151.163-.226.245q-.709.786-1.388,1.59c-.129.152-.256.307-.383.461q-.491.589-.969,1.186c-.149.187-.3.376-.446.565q-.457.583-.9,1.176c-.13.173-.263.345-.39.519q-1.241,1.688-2.378,3.439c-.116.178-.228.358-.343.537q-.4.625-.782,1.255c-.123.2-.243.4-.364.6q-.388.651-.761,1.31c-.1.17-.2.339-.29.509q-.5.9-.982,1.82c-.053.1-.1.2-.153.3q-.4.775-.78,1.557c-.1.2-.194.405-.291.608q-.31.652-.607,1.309-.143.316-.284.633c-.215.486-.421.973-.625,1.463-.062.149-.128.3-.188.448q-.39.955-.753,1.919c-.058.152-.111.306-.168.458q-.275.743-.535,1.492c-.076.22-.149.44-.224.661q-.229.68-.444,1.364c-.068.214-.135.427-.2.641q-.255.832-.49,1.671c-.03.1-.062.208-.09.312-.185.661-.357,1.326-.523,1.991-.046.186-.089.372-.133.559-.118.488-.232.976-.34,1.467-.05.228-.1.455-.148.685q-.15.711-.286,1.427c-.041.209-.083.418-.121.626q-.373,2.025-.64,4.066c-.027.212-.052.423-.077.633q-.089.721-.165,1.445-.037.348-.069.7c-.049.5-.091,1-.129,1.5-.015.192-.031.384-.044.576-.047.684-.088,1.367-.118,2.052,0,.109-.006.219-.01.327q-.036.869-.051,1.738c0,.222,0,.444-.007.667q-.006.72,0,1.439c0,.23,0,.459.008.689q.015.792.043,1.584c.006.163.01.325.017.487q.044,1.027.113,2.052c.012.162.025.322.038.484q.059.79.133,1.58c.021.229.045.458.068.687q.075.714.161,1.427c.026.223.053.445.082.667q.111.86.242,1.717c.017.109.031.218.047.326q.16,1.016.346,2.025c.035.191.073.381.11.571q.141.737.293,1.473c.048.228.1.455.148.683.1.476.214.95.327,1.423.049.206.1.41.147.614q.5,2,1.1,3.976c.062.2.126.4.189.6q.218.7.449,1.387c.075.223.149.446.228.668q.244.709.5,1.414c.067.182.131.364.2.545q.363.966.751,1.922l.019.048c.029.071.062.141.091.213,6.017,15.06,23.972,9.39,37.2,12.225,1.89.945,4.725,1.89,5.67,3.78,3.779,9.451-.945,25.515,13.634,28.366a58.745,58.745,0,0,0,7.943,1.269c.117.013.229.029.346.041.1.01.2.016.3.026.472.044.948.083,1.423.121.35.028.7.058,1.051.083.5.036,1.01.063,1.517.091.333.018.665.041,1,.056.565.026,1.135.043,1.705.06.285.009.568.021.854.029q1.289.029,2.6.031c20.894,0,37.656-5.74,50.513-14.7V476.187Z" transform="translate(-7114.665 -433.479)" fill="#2f2f35"/>
      <g id="Сгруппировать_1" data-name="Сгруппировать 1" transform="translate(196.541 1.608)">
        <path id="Контур_3" data-name="Контур 3" d="M7474.384,574.191c-29.686,21.322-55.949-17.114-109.109-24.167,80.967-12.281,75.479-114.974-16.484-114.974h-41.33V584.293h11.48V551.872a66.89,66.89,0,0,1,11.48-.642h18.369c40.409,0,77.605,56.483,126.971,24.8Zm-138.911-25.256h-5.051c-3.928,0-7.716.146-11.48.465V437.346h7.738a66.287,66.287,0,0,1,7.228.275c17.772,2.587,20.606,26.213,38.562,28.1,6.615.946,11.341-10.4,19.846-7.559,5.67.945,11.339,6.615,12.6,12.864a49.332,49.332,0,0,1,2.49,7.063,57.277,57.277,0,0,1,2,15.049,57.958,57.958,0,0,1-.5,7.6c-2.414,16.018-10.919,30.193-24.045,38.479a56.741,56.741,0,0,1-7.515,4.061,69.443,69.443,0,0,1-28.554,5.659Z" transform="translate(-7307.461 -435.05)" fill="#2f2f35"/>
        <rect id="Прямоугольник_2" data-name="Прямоугольник 2" width="11.48" height="109.064" transform="translate(144.88)" fill="#2f2f35"/>
      </g>
      <path id="Контур_4" data-name="Контур 4" d="M7492.107,435.05h11.481v64.29l22.042-15.843a416.21,416.21,0,0,0,55.334-48.447h15.613l-73.7,53.039,87.48,96.2h-15.613l-81.28-89.317-9.873,7.119v82.2h-11.481Z" transform="translate(-7106.611 -433.442)" fill="#2f2f35"/>
    </g>
  </g>
</svg>
